<?xml version="1.0" standalone="no"?>
<!DOCTYPE svg PUBLIC "-//W3C//DTD SVG 1.1//EN" "http://www.w3.org/Graphics/SVG/1.1/DTD/svg11.dtd" >
<svg xmlns="http://www.w3.org/2000/svg" xmlns:xlink="http://www.w3.org/1999/xlink" version="1.1">
<metadata></metadata>
<defs>
<font id="elemental_endregular" horiz-adv-x="1800" >
<font-face units-per-em="2048" ascent="1638" descent="-410" />
<missing-glyph horiz-adv-x="500" />
<glyph horiz-adv-x="0" />
<glyph unicode="&#xd;" horiz-adv-x="500" />
<glyph unicode=" "  horiz-adv-x="500" />
<glyph unicode="&#x09;" horiz-adv-x="500" />
<glyph unicode="&#xa0;" horiz-adv-x="500" />
<glyph unicode="!" horiz-adv-x="600" d="M150 0v300h300v-300h-300zM150 600v900h300v-900h-300z" />
<glyph unicode="&#x22;" horiz-adv-x="1050" d="M150 900v600h300l-1 -600h-299zM600 899v601l300 -1l-1 -600h-299z" />
<glyph unicode="#" d="M150 300v300h300v300h-300v300h300v300h300v-300h300v300h300v-300h300v-300h-300v-300h300v-300h-300v-300h-300v300h-300v-300h-300v300h-300zM750 600h300v300h-300v-300z" />
<glyph unicode="$" d="M150 0v300h600v300h-100q-500 0 -500 400q0 500 500 500h100v250h300v-250h600v-300h-600v-300h100q500 0 500 -400q0 -500 -500 -500h-100v-250h-300v250h-600zM450 1050q0 -150 250 -150h50v300h-50q-250 0 -250 -150zM1050 300h50q250 0 250 150t-250 150h-50v-300z " />
<glyph unicode="%" horiz-adv-x="1700" d="M50 0l1200 1500h400l-1200 -1500h-400zM50 1109v84q0 308 308 308h84q308 0 308 -308v-84q0 -304 -308 -308l-84 -1v1q-308 0 -308 308zM235 1135q0 -149 149 -149h32q149 0 149 149v33q0 151 -149 148l-51 -1q-130 -3 -130 -147v-33zM950 309v84q0 308 308 308h84 q308 0 308 -308v-84q0 -304 -308 -308l-84 -1v1q-308 0 -308 308zM1135 335q0 -149 149 -149h32q149 0 149 149v33q0 151 -149 148l-51 -1q-130 -3 -130 -147v-33z" />
<glyph unicode="&#x26;" d="M150 450q0 250 150 300q-150 50 -150 300q0 450 500 450h400v-300h-350q-250 0 -250 -150t200 -150l550 -1v151h300v-150h150v-300h-150v-300h150v-300h-1000q-500 0 -500 450zM450 450q0 -150 250 -150h500v299l-550 1q-200 0 -200 -150z" />
<glyph unicode="'" horiz-adv-x="600" d="M150 900v600h300l-1 -600h-299z" />
<glyph unicode="(" horiz-adv-x="900" d="M150 200v1100q0 500 500 500h100v-300h-50q-250 0 -250 -250v-1000q0 -250 250 -250h50v-300h-100q-500 0 -500 500z" />
<glyph unicode=")" horiz-adv-x="900" d="M150 0h50q250 0 250 250v1000q0 250 -250 250h-50v300h100q500 0 500 -500v-1100q0 -500 -500 -500h-100v300z" />
<glyph unicode="*" horiz-adv-x="950" d="M100 925l201 202l-201 201l173 172l201 -201l203 201l171 -172l-202 -201l202 -202l-172 -173l-202 202l-201 -202z" />
<glyph unicode="+" horiz-adv-x="1500" d="M150 601v300h450v450h300v-451h451l-1 -299h-450v-451h-300v451h-450z" />
<glyph unicode="," horiz-adv-x="600" d="M150 -300v600h300v-300q0 -300 -300 -300z" />
<glyph unicode="-" horiz-adv-x="1200" d="M150 600v300h900v-300h-900z" />
<glyph unicode="." horiz-adv-x="600" d="M150 0v300h300v-300h-300z" />
<glyph unicode="/" horiz-adv-x="750" d="M50 0l300 1500h350l-300 -1500h-350z" />
<glyph unicode="0" d="M150 500v500q0 500 500 500h500q500 0 500 -500v-500q0 -499 -500 -500l-500 -1v1q-500 0 -500 500zM450 550q0 -250 250 -250h400q250 0 250 250v400q0 250 -250 250h-450q-200 0 -200 -250v-400z" />
<glyph unicode="1" horiz-adv-x="600" d="M150 0v1500h300v-1500h-300z" />
<glyph unicode="2" d="M150 0v500q0 400 500 400h450q250 0 250 150t-250 150h-950v300h1000q500 0 500 -500q0 -400 -500 -400h-450q-250 0 -250 -150v-150h1200v-300h-1500z" />
<glyph unicode="3" d="M150 0v300h950q250 0 250 150t-200 150l-1000 -1v300l1000 1q200 0 200 150t-250 150h-950v300h1000q500 0 500 -450q0 -250 -150 -300q150 -50 150 -300q0 -450 -500 -450h-1000z" />
<glyph unicode="4" d="M150 600v900h300v-600h900v600h300v-1500h-300v600h-1200z" />
<glyph unicode="5" d="M150 0v300h950q250 0 250 150t-250 150h-950v900h1500v-300h-1200v-300h700q500 0 500 -400q0 -500 -500 -500h-1000z" />
<glyph unicode="6" d="M150 450v550q0 500 500 500h500q500 0 501 -500h-300v50q0 150 -241 150h-419q-240 0 -240 -149v-1l-1 -173q87 22 200 22h501q499 0 499 -447v-4q0 -448 -499 -448h-500q-500 0 -500 450v1zM450 449q0 -150 250 -150h400q250 0 250 149v2q0 149 -249 149h-402 q-249 0 -249 -149v-1z" />
<glyph unicode="7" d="M150 1200v300h1500v-1500h-300v1200h-1200z" />
<glyph unicode="8" d="M150 448v5q0 247 149 297q-149 50 -149 297v5q0 448 499 448h501q500 0 500 -450q0 -250 -150 -300q150 -50 150 -300q0 -450 -500 -450h-150v-1l-351 1q-499 0 -499 448zM449 450q0 -150 250 -150h401q250 0 250 150t-200 150h-501q-200 0 -200 -150zM449 1050 q0 -150 200 -150h501q200 0 200 150t-250 150h-401q-250 0 -250 -150z" />
<glyph unicode="9" d="M150 500h300v-50q0 -150 241 -150h419q240 0 240 149v1l1 173q-87 -22 -200 -22h-501q-499 0 -499 447v4q0 448 499 448h500q500 0 500 -450v-1l1 1v-550q0 -500 -500 -500h-500q-500 0 -501 500zM451 1050q0 -149 249 -149h402q249 0 249 149v1q0 150 -250 150h-400 q-250 0 -250 -149v-2z" />
<glyph unicode=":" horiz-adv-x="600" d="M150 0v300h300v-300h-300zM150 600v300h300v-300h-300z" />
<glyph unicode=";" horiz-adv-x="600" d="M150 -300v600h300v-300q0 -300 -300 -300zM150 600v300h300v-300h-300z" />
<glyph unicode="&#x3c;" horiz-adv-x="1500" d="M150 600v300l1200 400v-350l-800 -200l800 -200v-350z" />
<glyph unicode="=" horiz-adv-x="1500" d="M150 300v300l1201 -1l-1 -299h-1200zM150 900v300h1201l-1 -300h-1200z" />
<glyph unicode="&#x3e;" horiz-adv-x="1500" d="M150 200v350l800 200l-800 200v350l1200 -400v-300z" />
<glyph unicode="?" d="M150 1200v300h1000q500 0 500 -500q0 -400 -500 -400h-500v300h450q250 0 250 150t-250 150h-950zM650 0v300h300v-300h-300z" />
<glyph unicode="@" d="M150 500v500q0 500 500 500h500q500 0 500 -500q0 -450 -300 -450h-400q-300 0 -300 225q0 175 150 175t150 -150h200q200 0 200 150q0 250 -250 250h-450q-200 0 -200 -250v-400q0 -250 250 -250h400q224 0 247 200h303q0 -499 -500 -500l-500 -1v1q-500 0 -500 500z " />
<glyph unicode="A" horiz-adv-x="1700" d="M37 0l651 1500h326l651 -1500h-326l-488 1123l-487 -1123h-327z" />
<glyph unicode="B" d="M150 0v300h950q250 0 250 150t-200 150h-1000v300h1000q200 0 200 150t-250 150h-950v300h1000q500 0 500 -450q0 -250 -150 -300q150 -50 150 -300q0 -450 -500 -450h-1000z" />
<glyph unicode="C" d="M150 500v500q0 500 500 500h1000v-300h-959q-241 0 -241 -240v-419q0 -241 242 -241h958v-300h-1000q-500 0 -500 500z" />
<glyph unicode="D" d="M150 0v300h958q240 0 240 237v427q0 236 -239 236h-959v300h1000q500 0 500 -500v-500q0 -500 -500 -500h-1000z" />
<glyph unicode="E" d="M150 0v300h1500v-300h-1500zM150 600v300h1500v-300h-1500zM150 1200v300h1500v-300h-1500z" />
<glyph unicode="F" d="M150 600v300h1501l-1 -300h-1500zM150 1200v300h1501v-300h-1501z" />
<glyph unicode="G" d="M150 500v500q0 500 500 500h1000v-300h-959q-241 0 -241 -240v-419q0 -241 242 -241h658v500h300v-800h-1000q-500 0 -500 500z" />
<glyph unicode="H" d="M150 0v1500h300v-600h900v599l300 1v-1500h-300v600h-900v-600h-300z" />
<glyph unicode="I" horiz-adv-x="600" d="M150 0v1500h300v-1500h-300z" />
<glyph unicode="J" d="M150 500l1 50h300v-9q0 -241 240 -241h419q241 0 241 242v958h300v-1000q0 -500 -500 -500h-500q-501 0 -501 481v19z" />
<glyph unicode="K" d="M369 750l833 750h448l-833 -750l833 -750h-448z" />
<glyph unicode="L" d="M150 0v1500h300v-1200h1200v-300h-1500z" />
<glyph unicode="M" horiz-adv-x="2100" d="M150 0v1500h307l593 -1167l593 1167h307v-1500h-300v850l-431 -849v-1h-338l-431 849v-849h-300z" />
<glyph unicode="N" d="M150 0v1500h306l894 -1045v1045h300v-1500h-305l-895 1045v-1045h-300z" />
<glyph unicode="O" d="M150 500v500q0 500 500 500h500q500 0 500 -500v-500q0 -499 -500 -500l-500 -1v1q-500 0 -500 500zM450 550q0 -250 250 -250h400q250 0 250 250v400q0 250 -250 250h-450q-200 0 -200 -250v-400z" />
<glyph unicode="P" d="M150 600v300h950q250 0 250 150t-250 150h-950v300h1000q500 0 500 -450t-500 -450h-1000z" />
<glyph unicode="Q" d="M150 500v500q0 500 500 500h500q500 0 500 -500v-500q0 -170 -58 -282l108 -118l-200 -200l-122 134q-97 -34 -228 -34l-500 -1v1q-500 0 -500 500zM450 541q0 -241 242 -241h416q14 0 28 1l-136 149l200 200l147 -161q3 24 3 52v419q0 240 -241 240l-448 -1 q-211 0 -211 -239v-419z" />
<glyph unicode="R" d="M150 600v300h950q250 0 250 150t-250 150h-950v300h1000q500 0 500 -450t-500 -450h-93l704 -600h-461l-704 600h-446z" />
<glyph unicode="S" d="M150 0v300h950q250 0 250 150t-250 150h-450q-500 0 -500 450t500 450h1000v-300h-950q-250 0 -250 -150t250 -150h450q500 0 500 -450t-500 -450h-1000z" />
<glyph unicode="T" d="M150 1500h1500v-300h-600v-1200h-300v1200h-599z" />
<glyph unicode="U" d="M150 500v1000h300v-959q0 -241 240 -241h419q241 0 241 242v958h300v-1000q0 -500 -500 -500h-500q-500 0 -500 500z" />
<glyph unicode="V" horiz-adv-x="1700" d="M37 1500h327l487 -1123l488 1123h326l-651 -1500h-326z" />
<glyph unicode="W" horiz-adv-x="2100" d="M-4 1500h313l293 -977l292 977h313l293 -977l292 977h313l-449 -1500h-313l-292 977l-293 -977h-313z" />
<glyph unicode="X" horiz-adv-x="1700" d="M27 0l627 750l-627 750h392l431 -516l431 516h392l-627 -750l627 -750h-392l-431 516l-431 -516h-392z" />
<glyph unicode="Y" horiz-adv-x="1700" d="M27 1500h392l431 -515l431 515h392l-673 -805v-695h-300v695z" />
<glyph unicode="Z" d="M150 0v300l1041 900h-1041v300h1500v-300l-1041 -900h1041v-300h-1500z" />
<glyph unicode="[" horiz-adv-x="900" d="M150 -300v2100h600v-300h-300v-1500h300v-300h-600z" />
<glyph unicode="\" horiz-adv-x="750" d="M50 1500h350l300 -1500h-350z" />
<glyph unicode="]" horiz-adv-x="900" d="M150 0h300v1500h-300v300h600v-2100h-600v300z" />
<glyph unicode="_" d="M0 0h1800v-300h-1800v300z" />
<glyph unicode="`" horiz-adv-x="550" d="M50 1950h250l200 -350h-250z" />
<glyph unicode="a" horiz-adv-x="1700" d="M37 0l651 1500h326l651 -1500h-326l-130 300h-715l-130 -300h-327zM624 600h454l-227 523z" />
<glyph unicode="b" d="M150 0v1500h1000q500 0 500 -450q0 -250 -150 -300q150 -50 150 -300q0 -450 -500 -450h-1000zM450 300h650q250 0 250 150t-200 150h-700v-300zM450 900h700q200 0 200 150t-250 150h-650v-300z" />
<glyph unicode="c" d="M150 500v500q0 500 500 500h1000v-300h-959q-241 0 -241 -240v-419q0 -241 242 -241h958v-300h-1000q-500 0 -500 500z" />
<glyph unicode="d" d="M150 0v1500h1000q500 0 500 -500v-500q0 -500 -500 -500h-1000zM450 300h658q240 0 240 237v427q0 236 -239 236h-659v-900z" />
<glyph unicode="e" d="M150 0v1500h1500v-300h-1200v-300h1200v-300h-1200v-300h1200v-300h-1500z" />
<glyph unicode="f" d="M150 0v1500h1500v-300h-1200v-300h1200v-300h-1200v-600h-300z" />
<glyph unicode="g" d="M150 500v500q0 500 500 500h1000v-300h-959q-241 0 -241 -240v-419q0 -241 242 -241h658v500h300v-800h-1000q-500 0 -500 500z" />
<glyph unicode="h" d="M150 0v1500h300v-600h900v599l300 1v-1500h-300v600h-900v-600h-300z" />
<glyph unicode="i" horiz-adv-x="600" d="M150 0v1500h300v-1500h-300z" />
<glyph unicode="j" d="M150 500l1 50h300v-9q0 -241 240 -241h419q241 0 241 242v958h300v-1000q0 -500 -500 -500h-500q-501 0 -501 481v19z" />
<glyph unicode="k" d="M150 0v1500h300v-677l752 677h448l-832 -750l832 -750h-448l-752 677v-677h-300z" />
<glyph unicode="l" d="M150 0v1500h300v-1200h1200v-300h-1500z" />
<glyph unicode="m" horiz-adv-x="2100" d="M150 0v1500h307l593 -1167l593 1167h307v-1500h-300v850l-431 -849v-1h-338l-431 849v-849h-300z" />
<glyph unicode="n" d="M150 0v1500h306l894 -1045v1045h300v-1500h-305l-895 1045v-1045h-300z" />
<glyph unicode="o" d="M150 500v500q0 500 500 500h500q500 0 500 -500v-500q0 -499 -500 -500l-500 -1v1q-500 0 -500 500zM450 550q0 -250 250 -250h400q250 0 250 250v400q0 250 -250 250h-450q-200 0 -200 -250v-400z" />
<glyph unicode="p" d="M150 0v1500h1000q500 0 500 -450t-500 -450h-700v-600h-300zM450 900h650q250 0 250 150t-250 150h-650v-300z" />
<glyph unicode="q" d="M150 500v500q0 500 500 500h500q500 0 500 -500v-500q0 -170 -58 -282l108 -118l-200 -200l-122 134q-97 -34 -228 -34l-500 -1v1q-500 0 -500 500zM450 541q0 -241 242 -241h416q14 0 28 1l-136 149l200 200l147 -161q3 24 3 52v419q0 240 -241 240h-449 q-210 -1 -210 -240v-419z" />
<glyph unicode="r" d="M150 0v1500h1000q500 0 500 -450t-500 -450h-93l704 -600h-461l-704 600h-146v-600h-300zM450 900h650q250 0 250 150t-250 150h-650v-300z" />
<glyph unicode="s" d="M150 0v300h950q250 0 250 150t-250 150h-450q-500 0 -500 450t500 450h1000v-300h-950q-250 0 -250 -150t250 -150h450q500 0 500 -450t-500 -450h-1000z" />
<glyph unicode="t" d="M150 1500h1500v-300h-600v-1200h-300v1200h-599z" />
<glyph unicode="u" d="M150 500v1000h300v-959q0 -241 240 -241h419q241 0 241 242v958h300v-1000q0 -500 -500 -500h-500q-500 0 -500 500z" />
<glyph unicode="v" horiz-adv-x="1700" d="M37 1500h327l487 -1123l488 1123h326l-651 -1500h-326z" />
<glyph unicode="w" horiz-adv-x="2100" d="M-4 1500h313l293 -977l292 977h313l293 -977l292 977h313l-449 -1500h-313l-292 977l-293 -977h-313z" />
<glyph unicode="x" horiz-adv-x="1700" d="M27 0l627 750l-627 750h392l431 -516l431 516h392l-627 -750l627 -750h-392l-431 516l-431 -516h-392z" />
<glyph unicode="y" horiz-adv-x="1700" d="M27 1500h392l431 -515l431 515h392l-673 -805v-695h-300v695z" />
<glyph unicode="z" d="M150 0v300l1041 900h-1041v300h1500v-300l-1041 -900h1041v-300h-1500z" />
<glyph unicode="|" horiz-adv-x="600" d="M150 -150l1 1650h300l-1 -1650h-300z" />
<glyph unicode="~" horiz-adv-x="1500" d="M150 600v300q149 -75 299 -75q120 0 299.5 75t300.5 75q150 0 301 -75v-300q-150 75 -300 75q-121 0 -300 -75t-300 -75q-150 0 -300 75z" />
<glyph unicode="&#xa1;" horiz-adv-x="600" d="M150 0v900h300v-900h-300zM150 1200v300h300v-300h-300z" />
<glyph unicode="&#xa2;" horiz-adv-x="1500" d="M150 400v400q0 400 400 400h220l30 150h350l-30 -150h230v-240h-278l-144 -720h422v-240h-470l-30 -150h-350l30 150q-380 10 -380 400zM390 433q0 -190 188 -193l144 720h-139q-193 0 -193 -192v-335z" />
<glyph unicode="&#xa3;" horiz-adv-x="1900" d="M100 600v300h150v100q0 500 500 500h1000v-300h-950q-250 0 -250 -150v-149l900 -1v-300h-900v-300h1200v-300h-1500v600h-150z" />
<glyph unicode="&#xa5;" horiz-adv-x="1700" d="M50 1500h350l450 -600l450 600h350l-434 -601h235l-1 -269h-428l-22 -30v-151h451l-1 -269h-450v-180h-300v180h-450v270h450v150l-22 30h-428v270h233z" />
<glyph unicode="&#xa6;" horiz-adv-x="450" d="M0 600h301v-750h-300zM1 900l1 600h300l-1 -600h-300z" />
<glyph unicode="&#xa8;" horiz-adv-x="950" d="M150 1600v250h250v-250h-250zM550 1600v250h250v-250h-250z" />
<glyph unicode="&#xad;" horiz-adv-x="1200" d="M150 600v300h900v-300h-900z" />
<glyph unicode="&#xaf;" horiz-adv-x="1200" d="M150 1501l900 -1v-250h-899z" />
<glyph unicode="&#xb0;" horiz-adv-x="1000" d="M150 1108v84q0 308 308 308h84q308 0 308 -308v-84q0 -304 -308 -308l-84 -1v1q-308 0 -308 308zM335 1134q0 -149 149 -149h32q149 0 149 149v33q0 151 -149 148l-51 -1q-130 -3 -130 -147v-33z" />
<glyph unicode="&#xb4;" horiz-adv-x="550" d="M50 1600l200 350h250l-200 -350h-250z" />
<glyph unicode="&#xb7;" horiz-adv-x="600" d="M150 623v255h255v-255h-255z" />
<glyph unicode="&#xbf;" d="M150 500q0 400 500 400h500v-300h-450q-250 0 -250 -150t250 -150h950v-300h-1000q-500 0 -500 500zM850 1200v300h300v-300h-300z" />
<glyph unicode="&#xc0;" horiz-adv-x="1700" d="M37 0l651 1500h326l651 -1500h-326l-488 1123l-487 -1123h-327zM551 1950h250l200 -350h-250z" />
<glyph unicode="&#xc1;" horiz-adv-x="1700" d="M37 0l651 1500h326l651 -1500h-326l-488 1123l-487 -1123h-327zM701 1600l200 350h250l-200 -350h-250z" />
<glyph unicode="&#xc2;" horiz-adv-x="1700" d="M37 0l651 1500h326l651 -1500h-326l-488 1123l-487 -1123h-327zM501 1600l250 350h200l250 -350h-250l-100 150l-100 -150h-250z" />
<glyph unicode="&#xc3;" horiz-adv-x="1700" d="M37 0l651 1500h326l651 -1500h-326l-488 1123l-487 -1123h-327zM387 1658v232q115 -58 231 -58q93 0 231.5 58t233.5 58q116 0 233 -58v-232q-116 58 -232 58q-94 0 -232.5 -58t-232.5 -58q-116 0 -232 58z" />
<glyph unicode="&#xc4;" horiz-adv-x="1700" d="M37 0l651 1500h326l651 -1500h-326l-488 1123l-487 -1123h-327zM526 1600v250h250v-250h-250zM926 1600v250h250v-250h-250z" />
<glyph unicode="&#xc5;" horiz-adv-x="1700" d="M37 0l651 1500h326l651 -1500h-326l-488 1123l-487 -1123h-327zM627 1549v53q0 198 198 198h53q198 0 198 -198v-53q0 -194 -198 -198l-53 -1v1q-198 0 -198 198zM777 1568q0 -67 67 -67h15q68 0 68 67v15q0 68 -68 68h-23q-59 0 -59 -68v-15z" />
<glyph unicode="&#xc6;" horiz-adv-x="2550" d="M37 0l651 1500h1712v-300h-1256l130 -300h1126v-300h-995l130 -300h865v-300h-1061l-488 1123l-487 -1123h-327z" />
<glyph unicode="&#xc8;" d="M150 0v300h1500v-300h-1500zM150 600v300h1500v-300h-1500zM150 1200v300h1500v-300h-1500zM600 1950h250l200 -350h-250z" />
<glyph unicode="&#xc9;" d="M150 0v300h1500v-300h-1500zM150 600v300h1500v-300h-1500zM150 1200v300h1500v-300h-1500zM750 1600l200 350h250l-200 -350h-250z" />
<glyph unicode="&#xca;" d="M150 0v300h1500v-300h-1500zM150 600v300h1500v-300h-1500zM150 1200v300h1500v-300h-1500zM550 1600l250 350h200l250 -350h-250l-100 150l-100 -150h-250z" />
<glyph unicode="&#xcb;" d="M150 0v300h1500v-300h-1500zM150 600v300h1500v-300h-1500zM150 1200v300h1500v-300h-1500zM575 1600v250h250v-250h-250zM975 1600v250h250v-250h-250z" />
<glyph unicode="&#xcc;" horiz-adv-x="600" d="M0 1950h250l200 -350h-250zM150 0v1500h300v-1500h-300z" />
<glyph unicode="&#xcd;" horiz-adv-x="600" d="M150 0v1500h300v-1500h-300zM150 1600l200 350h250l-200 -350h-250z" />
<glyph unicode="&#xce;" horiz-adv-x="600" d="M-50 1600l250 350h200l250 -350h-250l-100 150l-100 -150h-250zM150 0v1500h300v-1500h-300z" />
<glyph unicode="&#xcf;" horiz-adv-x="600" d="M-25 1600v250h250v-250h-250zM150 0v1500h300v-1500h-300zM375 1600v250h250v-250h-250z" />
<glyph unicode="&#xd1;" d="M150 0v1500h306l894 -1045v1045h300v-1500h-305l-895 1045v-1045h-300zM436 1658v232q115 -58 231 -58q93 0 231.5 58t233.5 58q116 0 233 -58v-232q-116 58 -232 58q-94 0 -232.5 -58t-232.5 -58q-116 0 -232 58z" />
<glyph unicode="&#xd2;" d="M150 500v500q0 500 500 500h500q500 0 500 -500v-500q0 -499 -500 -500l-500 -1v1q-500 0 -500 500zM450 550q0 -250 250 -250h400q250 0 250 250v400q0 250 -250 250h-450q-200 0 -200 -250v-400zM600 1950h250l200 -350h-250z" />
<glyph unicode="&#xd3;" d="M150 500v500q0 500 500 500h500q500 0 500 -500v-500q0 -499 -500 -500l-500 -1v1q-500 0 -500 500zM450 550q0 -250 250 -250h400q250 0 250 250v400q0 250 -250 250h-450q-200 0 -200 -250v-400zM750 1600l200 350h250l-200 -350h-250z" />
<glyph unicode="&#xd4;" d="M150 500v500q0 500 500 500h500q500 0 500 -500v-500q0 -499 -500 -500l-500 -1v1q-500 0 -500 500zM450 550q0 -250 250 -250h400q250 0 250 250v400q0 250 -250 250h-450q-200 0 -200 -250v-400zM550 1600l250 350h200l250 -350h-250l-100 150l-100 -150h-250z" />
<glyph unicode="&#xd5;" d="M150 500v500q0 500 500 500h500q500 0 500 -500v-500q0 -499 -500 -500l-500 -1v1q-500 0 -500 500zM436 1658v232q115 -58 231 -58q93 0 231.5 58t233.5 58q116 0 233 -58v-232q-116 58 -232 58q-94 0 -232.5 -58t-232.5 -58q-116 0 -232 58zM450 550q0 -250 250 -250 h400q250 0 250 250v400q0 250 -250 250h-450q-200 0 -200 -250v-400z" />
<glyph unicode="&#xd6;" d="M150 500v500q0 500 500 500h500q500 0 500 -500v-500q0 -499 -500 -500l-500 -1v1q-500 0 -500 500zM450 550q0 -250 250 -250h400q250 0 250 250v400q0 250 -250 250h-450q-200 0 -200 -250v-400zM575 1600v250h250v-250h-250zM975 1600v250h250v-250h-250z" />
<glyph unicode="&#xd7;" horiz-adv-x="1500" d="M150 432l318 318l-318 319l212 212l319 -319l319 319l211 -212l-319 -318l319 -319l-212 -213l-319 319l-318 -318z" />
<glyph unicode="&#xd8;" d="M150 500v500q0 500 500 500h500q500 0 500 -500v-500q0 -499 -500 -500l-500 -1v1q-500 0 -500 500zM450 550q0 -250 250 -250h400q250 0 250 250v400q0 250 -250 250h-450q-200 0 -200 -250v-400zM575 0l300 1500h350l-300 -1500h-350z" />
<glyph unicode="&#xd9;" d="M150 500v1000h300v-959q0 -241 240 -241h419q241 0 241 242v958h300v-1000q0 -500 -500 -500h-500q-500 0 -500 500zM600 1950h250l200 -350h-250z" />
<glyph unicode="&#xda;" d="M150 500v1000h300v-959q0 -241 240 -241h419q241 0 241 242v958h300v-1000q0 -500 -500 -500h-500q-500 0 -500 500zM750 1600l200 350h250l-200 -350h-250z" />
<glyph unicode="&#xdb;" d="M150 500v1000h300v-959q0 -241 240 -241h419q241 0 241 242v958h300v-1000q0 -500 -500 -500h-500q-500 0 -500 500zM550 1600l250 350h200l250 -350h-250l-100 150l-100 -150h-250z" />
<glyph unicode="&#xdc;" d="M150 500v1000h300v-959q0 -241 240 -241h419q241 0 241 242v958h300v-1000q0 -500 -500 -500h-500q-500 0 -500 500zM575 1600v250h250v-250h-250zM975 1600v250h250v-250h-250z" />
<glyph unicode="&#xdd;" horiz-adv-x="1700" d="M27 1500h392l431 -515l431 515h392l-673 -805v-695h-300v695zM700 1600l200 350h250l-200 -350h-250z" />
<glyph unicode="&#xde;" d="M150 0v1500h300v-300h700q500 0 500 -450t-500 -450h-700v-300h-300zM450 600h650q250 0 250 150t-250 150h-650v-300z" />
<glyph unicode="&#xdf;" d="M150 0v1500h800q500 0 500 -450q0 -112 -31 -196q231 -98 231 -404q0 -450 -500 -450h-550v300h500q250 0 250 150t-250 150h-450v300h250q250 0 250 150t-250 150h-450v-1200h-300z" />
<glyph unicode="&#xe0;" horiz-adv-x="1700" d="M37 0l651 1500h326l651 -1500h-326l-130 300h-715l-130 -300h-327zM551 1950h250l200 -350h-250zM624 600h454l-227 523z" />
<glyph unicode="&#xe1;" horiz-adv-x="1700" d="M37 0l651 1500h326l651 -1500h-326l-130 300h-715l-130 -300h-327zM624 600h454l-227 523zM701 1600l200 350h250l-200 -350h-250z" />
<glyph unicode="&#xe2;" horiz-adv-x="1700" d="M37 0l651 1500h326l651 -1500h-326l-130 300h-715l-130 -300h-327zM501 1600l250 350h200l250 -350h-250l-100 150l-100 -150h-250zM624 600h454l-227 523z" />
<glyph unicode="&#xe3;" horiz-adv-x="1700" d="M37 0l651 1500h326l651 -1500h-326l-130 300h-715l-130 -300h-327zM387 1658v232q115 -58 231 -58q93 0 231.5 58t233.5 58q116 0 233 -58v-232q-116 58 -232 58q-94 0 -232.5 -58t-232.5 -58q-116 0 -232 58zM624 600h454l-227 523z" />
<glyph unicode="&#xe4;" horiz-adv-x="1700" d="M37 0l651 1500h326l651 -1500h-326l-130 300h-715l-130 -300h-327zM526 1600v250h250v-250h-250zM624 600h454l-227 523zM926 1600v250h250v-250h-250z" />
<glyph unicode="&#xe5;" horiz-adv-x="1700" d="M37 0l651 1500h326l651 -1500h-326l-130 300h-715l-130 -300h-327zM624 600h454l-227 523zM627 1549v53q0 198 198 198h53q198 0 198 -198v-53q0 -194 -198 -198l-53 -1v1q-198 0 -198 198zM777 1568q0 -67 67 -67h15q68 0 68 67v15q0 68 -68 68h-23q-59 0 -59 -68v-15z " />
<glyph unicode="&#xe6;" horiz-adv-x="2550" d="M37 0l651 1500h1712v-300h-1256l130 -300h1126v-300h-995l130 -300h865v-300h-1061l-130 300h-715l-130 -300h-327zM624 600h454l-227 523z" />
<glyph unicode="&#xe8;" d="M150 0v1500h1500v-300h-1200v-300h1200v-300h-1200v-300h1200v-300h-1500zM600 1950h250l200 -350h-250z" />
<glyph unicode="&#xe9;" d="M150 0v1500h1500v-300h-1200v-300h1200v-300h-1200v-300h1200v-300h-1500zM750 1600l200 350h250l-200 -350h-250z" />
<glyph unicode="&#xea;" d="M150 0v1500h1500v-300h-1200v-300h1200v-300h-1200v-300h1200v-300h-1500zM550 1600l250 350h200l250 -350h-250l-100 150l-100 -150h-250z" />
<glyph unicode="&#xeb;" d="M150 0v1500h1500v-300h-1200v-300h1200v-300h-1200v-300h1200v-300h-1500zM575 1600v250h250v-250h-250zM975 1600v250h250v-250h-250z" />
<glyph unicode="&#xec;" horiz-adv-x="600" d="M0 1950h250l200 -350h-250zM150 0v1500h300v-1500h-300z" />
<glyph unicode="&#xed;" horiz-adv-x="600" d="M150 0v1500h300v-1500h-300zM150 1600l200 350h250l-200 -350h-250z" />
<glyph unicode="&#xee;" horiz-adv-x="600" d="M-50 1600l250 350h200l250 -350h-250l-100 150l-100 -150h-250zM150 0v1500h300v-1500h-300z" />
<glyph unicode="&#xef;" horiz-adv-x="600" d="M-25 1600v250h250v-250h-250zM150 0v1500h300v-1500h-300zM375 1600v250h250v-250h-250z" />
<glyph unicode="&#xf1;" d="M150 0v1500h306l894 -1045v1045h300v-1500h-305l-895 1045v-1045h-300zM436 1658v232q115 -58 231 -58q93 0 231.5 58t233.5 58q116 0 233 -58v-232q-116 58 -232 58q-94 0 -232.5 -58t-232.5 -58q-116 0 -232 58z" />
<glyph unicode="&#xf2;" d="M150 500v500q0 500 500 500h500q500 0 500 -500v-500q0 -499 -500 -500l-500 -1v1q-500 0 -500 500zM450 550q0 -250 250 -250h400q250 0 250 250v400q0 250 -250 250h-450q-200 0 -200 -250v-400zM600 1950h250l200 -350h-250z" />
<glyph unicode="&#xf3;" d="M150 500v500q0 500 500 500h500q500 0 500 -500v-500q0 -499 -500 -500l-500 -1v1q-500 0 -500 500zM450 550q0 -250 250 -250h400q250 0 250 250v400q0 250 -250 250h-450q-200 0 -200 -250v-400zM750 1600l200 350h250l-200 -350h-250z" />
<glyph unicode="&#xf4;" d="M150 500v500q0 500 500 500h500q500 0 500 -500v-500q0 -499 -500 -500l-500 -1v1q-500 0 -500 500zM450 550q0 -250 250 -250h400q250 0 250 250v400q0 250 -250 250h-450q-200 0 -200 -250v-400zM550 1600l250 350h200l250 -350h-250l-100 150l-100 -150h-250z" />
<glyph unicode="&#xf5;" d="M150 500v500q0 500 500 500h500q500 0 500 -500v-500q0 -499 -500 -500l-500 -1v1q-500 0 -500 500zM436 1658v232q115 -58 231 -58q93 0 231.5 58t233.5 58q116 0 233 -58v-232q-116 58 -232 58q-94 0 -232.5 -58t-232.5 -58q-116 0 -232 58zM450 550q0 -250 250 -250 h400q250 0 250 250v400q0 250 -250 250h-450q-200 0 -200 -250v-400z" />
<glyph unicode="&#xf6;" d="M150 500v500q0 500 500 500h500q500 0 500 -500v-500q0 -499 -500 -500l-500 -1v1q-500 0 -500 500zM450 550q0 -250 250 -250h400q250 0 250 250v400q0 250 -250 250h-450q-200 0 -200 -250v-400zM575 1600v250h250v-250h-250zM975 1600v250h250v-250h-250z" />
<glyph unicode="&#xf7;" horiz-adv-x="1500" d="M150 601v300l1201 -1l-1 -299h-1200zM600 150v300h300v-300h-300zM600 1050v300h300v-300h-300z" />
<glyph unicode="&#xf8;" d="M150 500v500q0 500 500 500h500q500 0 500 -500v-500q0 -499 -500 -500l-500 -1v1q-500 0 -500 500zM450 550q0 -250 250 -250h400q250 0 250 250v400q0 250 -250 250h-450q-200 0 -200 -250v-400zM575 0l300 1500h350l-300 -1500h-350z" />
<glyph unicode="&#xf9;" d="M150 500v1000h300v-959q0 -241 240 -241h419q241 0 241 242v958h300v-1000q0 -500 -500 -500h-500q-500 0 -500 500zM600 1950h250l200 -350h-250z" />
<glyph unicode="&#xfa;" d="M150 500v1000h300v-959q0 -241 240 -241h419q241 0 241 242v958h300v-1000q0 -500 -500 -500h-500q-500 0 -500 500zM750 1600l200 350h250l-200 -350h-250z" />
<glyph unicode="&#xfb;" d="M150 500v1000h300v-959q0 -241 240 -241h419q241 0 241 242v958h300v-1000q0 -500 -500 -500h-500q-500 0 -500 500zM550 1600l250 350h200l250 -350h-250l-100 150l-100 -150h-250z" />
<glyph unicode="&#xfc;" d="M150 500v1000h300v-959q0 -241 240 -241h419q241 0 241 242v958h300v-1000q0 -500 -500 -500h-500q-500 0 -500 500zM575 1600v250h250v-250h-250zM975 1600v250h250v-250h-250z" />
<glyph unicode="&#xfd;" horiz-adv-x="1700" d="M27 1500h392l431 -515l431 515h392l-673 -805v-695h-300v695zM700 1600l200 350h250l-200 -350h-250z" />
<glyph unicode="&#xfe;" d="M150 0v1500h300v-300h700q500 0 500 -450t-500 -450h-700v-300h-300zM450 600h650q250 0 250 150t-250 150h-650v-300z" />
<glyph unicode="&#xff;" horiz-adv-x="1700" d="M27 1500h392l431 -515l431 515h392l-673 -805v-695h-300v695zM525 1600v250h250v-250h-250zM925 1600v250h250v-250h-250z" />
<glyph unicode="&#x152;" horiz-adv-x="2550" d="M150 500v500q0 500 500 500h1750v-300h-775q25 -87 25 -200v-100h750v-300h-750v-100q0 -113 -25 -200h775v-300l-1750 -1v1q-500 0 -500 500zM450 550q0 -250 250 -250h400q250 0 250 250v400q0 250 -250 250h-450q-200 0 -200 -250v-400z" />
<glyph unicode="&#x153;" horiz-adv-x="2550" d="M150 500v500q0 500 500 500h1750v-300h-775q25 -87 25 -200v-100h750v-300h-750v-100q0 -113 -25 -200h775v-300l-1750 -1v1q-500 0 -500 500zM450 550q0 -250 250 -250h400q250 0 250 250v400q0 250 -250 250h-450q-200 0 -200 -250v-400z" />
<glyph unicode="&#x178;" horiz-adv-x="1700" d="M27 1500h392l431 -515l431 515h392l-673 -805v-695h-300v695zM525 1600v250h250v-250h-250zM925 1600v250h250v-250h-250z" />
<glyph unicode="&#x2c6;" horiz-adv-x="900" d="M100 1600l250 350h200l250 -350h-250l-100 150l-100 -150h-250z" />
<glyph unicode="&#x2dc;" horiz-adv-x="1200" d="M150 1658v232q115 -58 231 -58q93 0 231.5 58t233.5 58q116 0 233 -58v-232q-116 58 -232 58q-94 0 -232.5 -58t-232.5 -58q-116 0 -232 58z" />
<glyph unicode="&#x2000;" horiz-adv-x="975" />
<glyph unicode="&#x2001;" horiz-adv-x="1950" />
<glyph unicode="&#x2002;" horiz-adv-x="975" />
<glyph unicode="&#x2003;" horiz-adv-x="1950" />
<glyph unicode="&#x2004;" horiz-adv-x="650" />
<glyph unicode="&#x2005;" horiz-adv-x="487" />
<glyph unicode="&#x2006;" horiz-adv-x="325" />
<glyph unicode="&#x2007;" horiz-adv-x="325" />
<glyph unicode="&#x2008;" horiz-adv-x="243" />
<glyph unicode="&#x2009;" horiz-adv-x="390" />
<glyph unicode="&#x200a;" horiz-adv-x="108" />
<glyph unicode="&#x2010;" horiz-adv-x="1200" d="M150 600v300h900v-300h-900z" />
<glyph unicode="&#x2011;" horiz-adv-x="1200" d="M150 600v300h900v-300h-900z" />
<glyph unicode="&#x2012;" horiz-adv-x="1200" d="M150 600v300h900v-300h-900z" />
<glyph unicode="&#x2013;" d="M150 600v300h1500v-300h-1500z" />
<glyph unicode="&#x2014;" horiz-adv-x="2100" d="M150 600v300l1800 -1v-299h-1800z" />
<glyph unicode="&#x2018;" horiz-adv-x="600" d="M150 1200v300h300v-600q-300 0 -300 300z" />
<glyph unicode="&#x2019;" horiz-adv-x="600" d="M150 900v600h300v-300q0 -300 -300 -300z" />
<glyph unicode="&#x201a;" horiz-adv-x="600" d="M150 -300v600h300v-300q0 -300 -300 -300z" />
<glyph unicode="&#x201c;" horiz-adv-x="1050" d="M150 1199v300l300 1v-601q-300 0 -300 300zM600 1200v300h300v-600q-300 0 -300 300z" />
<glyph unicode="&#x201d;" horiz-adv-x="1050" d="M150 900v600h300v-300q0 -300 -300 -300zM600 899v601l300 -1v-300q0 -300 -300 -300z" />
<glyph unicode="&#x201e;" horiz-adv-x="1050" d="M150 -299v600h300v-300q0 -300 -300 -300zM600 -300v601l300 -1v-300q0 -300 -300 -300z" />
<glyph unicode="&#x2026;" d="M150 0v300h300l-1 -300h-299zM750 0v300h300l-1 -300h-299zM1350 0v300h300l-1 -300h-299z" />
<glyph unicode="&#x202f;" horiz-adv-x="390" />
<glyph unicode="&#x205f;" horiz-adv-x="487" />
<glyph unicode="&#x20ac;" horiz-adv-x="1950" d="M49 450v250h251v100h-251v250h252q25 450 499 450h1000v-300h-959q-191 0 -230 -150h1038v-250h-1049v-100h1049v-250h-1038q40 -150 231 -150h958v-300h-1000q-474 0 -499 450h-252z" />
<glyph unicode="&#x25fc;" horiz-adv-x="1500" d="M0 0v1500h1500v-1500h-1500z" />
</font>
</defs>
</svg>
