<?xml version="1.0" standalone="no"?>
<!DOCTYPE svg PUBLIC "-//W3C//DTD SVG 1.1//EN" "http://www.w3.org/Graphics/SVG/1.1/DTD/svg11.dtd" >
<svg xmlns="http://www.w3.org/2000/svg" xmlns:xlink="http://www.w3.org/1999/xlink" version="1.1">
<metadata>
Created by FontForge 20161013 at (null) By ,,,
Copyright by ClassicFontCorporation, USA RWE
</metadata>
<defs>
<font id="OptimaleBold" horiz-adv-x="1366" >
  <font-face 
    font-family="Optimale"
    font-weight="700"
    font-stretch="normal"
    units-per-em="2662"
    panose-1="0 0 7 0 0 0 0 0 0 0"
    ascent="2129"
    descent="-533"
    x-height="1307"
    cap-height="1893"
    bbox="-538 -770 2649 2455"
    underline-thickness="82"
    underline-position="-398"
    unicode-range="U+0020-F000"
  />
<missing-glyph horiz-adv-x="1331" 
d="M166 0v2048h999v-2048h-999zM333 166h665v1716h-665v-1716z" />
    <glyph glyph-name=".notdef" horiz-adv-x="1331" 
d="M166 0v2048h999v-2048h-999zM333 166h665v1716h-665v-1716z" />
    <glyph glyph-name=".null" horiz-adv-x="0" 
 />
    <glyph glyph-name="nonmarkingreturn" horiz-adv-x="681" 
 />
    <glyph glyph-name="space" unicode=" " horiz-adv-x="681" 
 />
    <glyph glyph-name="exclam" unicode="!" horiz-adv-x="681" 
d="M426 570h-91l-149 915q-12 74 -12 169q0 97 62 170q66 77 161 77q98 0 164 -77q63 -73 63 -173q0 -63 -20 -163zM392 373q91 0 152 -61.5t61 -152.5q0 -86 -61.5 -145t-147.5 -59q-92 0 -151.5 60.5t-59.5 152.5q0 82 62 143.5t145 61.5z" />
    <glyph glyph-name="quotedbl" unicode="&#x22;" horiz-adv-x="1129" 
d="M432 1896q56 0 98.5 -46t42.5 -103q0 -73 -78 -192l-370 -565l-93 48l173 650q55 208 227 208zM950 1887q69 0 114.5 -45.5t45.5 -113.5q0 -70 -88 -203l-362 -543l-96 48l187 660q55 197 199 197z" />
    <glyph glyph-name="numbersign" unicode="#" horiz-adv-x="1315" 
d="M269 548h-258v179h284l70 513h-285v182h311l78 548h183l-77 -548h330l77 548h184l-77 -548h221v-179h-248l-72 -516h245v-179h-269l-77 -548h-184l78 548h-330l-78 -548h-183zM551 1243l-72 -516h328l71 516h-327z" />
    <glyph glyph-name="dollar" unicode="$" 
d="M586 2087q67 -13 135 -13q43 0 88 5l-13 -229q94 0 248 -53q147 -51 231 -107l-122 -324h-59q-38 134 -110 198q-61 54 -204 100v-549q595 -138 595 -554q0 -502 -547 -625q-18 -3 -53 -11v-69q0 -118 13 -223q-87 16 -133 16q-48 0 -109 -16q26 117 29 295
q-361 39 -556 200q44 112 79 354h70q52 -180 144 -257q77 -64 271 -119v618q-245 44 -395 168q-177 148 -177 378q0 482 575 585v232zM604 1393v120l-2 169q-99 -21 -162 -87q-67 -70 -67 -168q0 -177 221 -266q0 33 6 116q4 74 4 116zM1012 381q0 194 -245 290l-14 -567
q110 24 180 94q79 76 79 183z" />
    <glyph glyph-name="percent" unicode="%" horiz-adv-x="2204" 
d="M394 1834q221 0 327 -204q83 -159 83 -403q0 -251 -81 -407q-105 -203 -334 -203q-432 0 -432 607q0 610 437 610zM386 729q136 0 136 395v191q0 410 -133 410q-104 0 -134 -199q-11 -77 -11 -277q0 -25 -1.5 -73t-1.5 -73q0 -374 145 -374zM1366 1850h186
q-178 -374 -519 -1190q-127 -303 -143 -343q-78 -196 -126 -349h-192q127 243 493 1107q205 486 301 775zM2144 524q0 -231 -90 -390q-111 -196 -325 -196q-228 0 -340 194q-90 157 -90 403q0 626 409 626q436 0 436 -637zM1722 50q136 0 136 390v220q0 392 -127 392
q-153 0 -153 -416q0 -259 8 -337q29 -249 136 -249z" />
    <glyph glyph-name="ampersand" unicode="&#x26;" horiz-adv-x="1786" 
d="M327 1401q0 206 157 328q143 113 355 113q168 0 285 -87q130 -96 130 -259q0 -225 -344 -460l416 -509q208 289 330 532l146 -194q-159 -242 -373 -455q125 -153 347 -381v-64q-208 12 -261 12q-95 0 -264 -14l-112 181q-342 -229 -609 -229q-215 0 -363 122
q-159 131 -159 341q0 208 161 357q102 93 345 213q-187 210 -187 453zM596 828q-204 -145 -204 -324q0 -150 107 -258t257 -108q88 0 159 33q71 38 142 77zM1028 1498q0 76 -47 131.5t-121 55.5q-70 0 -124.5 -58t-54.5 -128q0 -74 51 -174q8 -15 93 -159q203 127 203 332z
" />
    <glyph glyph-name="quotesingle" unicode="'" horiz-adv-x="535" 
d="M540 1853l91 -27l-181 -689q-58 -219 -215 -219q-61 0 -104 47t-43 108q0 77 82 205z" />
    <glyph glyph-name="parenleft" unicode="(" horiz-adv-x="681" 
d="M716 1781q-28 -37 -82 -112q-239 -338 -239 -1017q0 -668 313 -1001l-85 -88q-260 184 -405 519q-133 308 -133 650q0 336 144 634t407 508z" />
    <glyph glyph-name="parenright" unicode=")" horiz-adv-x="681" 
d="M341 777q0 637 -322 1007l90 87q260 -197 403 -520q135 -306 135 -648q0 -324 -134.5 -614.5t-382.5 -495.5q-13 -11 -39 -32l-83 88q333 408 333 1128z" />
    <glyph glyph-name="asterisk" unicode="*" horiz-adv-x="996" 
d="M367 1363l-370 154q72 88 133 203q47 -50 149 -122q107 -76 150 -118v112q0 146 -38 290q100 -19 248 -13q-31 -152 -51 -384q108 72 309 232q36 -70 117 -205q-164 -64 -367 -162q238 -107 378 -147q-74 -87 -133 -207q-55 55 -149 127q-145 113 -155 120
q8 -192 43 -404q-126 14 -232 10l48 389l-325 -234q-37 72 -125 210q174 51 370 149z" />
    <glyph glyph-name="plus" unicode="+" horiz-adv-x="1680" 
d="M24 918h647v650h277v-650h641v-274h-641v-644h-277v644h-647v274z" />
    <glyph glyph-name="comma" unicode="," horiz-adv-x="580" 
d="M330 415q64 0 104 -44.5t40 -108.5q0 -89 -93 -233l-360 -551l-85 32l176 666q63 239 218 239z" />
    <glyph glyph-name="hyphen" unicode="-" horiz-adv-x="841" 
d="M32 817q0 75 -11 149q275 -19 578 -19q127 0 258 3q-16 -78 -16 -172q0 -45 6 -152q-283 16 -431 16q-201 0 -395 -14q11 97 11 189z" />
    <glyph glyph-name="period" unicode="." horiz-adv-x="580" 
d="M304 395q87 0 147.5 -64.5t60.5 -152.5q0 -221 -248 -221q-66 0 -130 72q-62 69 -62 136q0 100 66 165t166 65z" />
    <glyph glyph-name="slash" unicode="/" horiz-adv-x="841" 
d="M607 1666q74 -10 151 -10q56 0 131 5q-339 -780 -641 -1690q-57 6 -118 6q-76 0 -165 -9q433 983 642 1698z" />
    <glyph glyph-name="zero" unicode="0" 
d="M634 1855q375 0 551 -297q141 -240 141 -642q0 -395 -126 -647q-165 -332 -520 -332q-693 0 -693 967q0 393 126 636q164 315 521 315zM672 95q147 0 192 317q20 134 20 432q0 33 1.5 98.5t1.5 98.5q0 665 -229 665q-161 0 -211 -347q-21 -149 -21 -473q0 -31 -1 -93
t-1 -93q0 -605 248 -605z" />
    <glyph glyph-name="one" unicode="1" 
d="M966 1863l59 -18q-33 -290 -33 -807l1 -673q0 -106 19 -408q-182 15 -234 15q-39 0 -110 -7q-74 -7 -109 -8q32 592 32 856v281q0 55 -8 426q-132 -79 -407 -216l-173 171q472 133 963 388z" />
    <glyph glyph-name="two" unicode="2" 
d="M630 1852q274 0 443 -127q189 -142 189 -407q0 -296 -281 -585q-119 -124 -523 -427q103 15 388 15q104 0 437 30q-13 -171 -13 -207q0 -71 16 -179q-320 16 -530 16q-423 0 -692 -13q5 131 5 152q0 11 -10 154q81 33 197 115q567 397 567 870q0 204 -41 289
q-61 129 -242 129q-123 0 -186 -136q-48 -105 -48 -245l-64 -37q-70 94 -221 232q99 195 245 279q141 82 364 82z" />
    <glyph glyph-name="three" unicode="3" 
d="M165 453h51q57 -336 308 -336q148 0 224 142q60 113 60 275q0 333 -343 333q-40 0 -84 -5q5 40 5 118q0 31 -13 98q73 -8 101 -8q148 0 229 91q78 86 78 237q0 123 -63 219q-71 111 -188 111q-217 0 -235 -322l-50 -35q-88 104 -202 213q175 295 553 295q237 0 397 -95
q194 -115 194 -336q0 -177 -119 -302q-108 -113 -288 -161q-16 -4 -48 -13q223 -6 369 -117q164 -124 164 -339q0 -273 -246 -427q-210 -132 -499 -132q-340 0 -533 240q80 89 178 256z" />
    <glyph glyph-name="four" unicode="4" 
d="M-19 732q104 167 381 562q38 54 351 556q128 -13 181 -13q49 0 208 13q-19 -453 -19 -642v-481l232 29v-354l-237 13q-3 -128 -3 -144q0 -104 22 -308q-82 8 -224 8q-101 0 -223 -14q29 232 31 461l-245 3q-166 0 -455 -16v327zM681 737q11 167 11 338q0 204 -11 416
l-492 -754h492z" />
    <glyph glyph-name="five" unicode="5" 
d="M130 394h48q69 -307 316 -307q143 0 223 146q66 120 66 276q0 393 -312 393q-81 0 -226 -111q-24 32 -75 56q27 142 27 335q0 222 -27 639q203 -29 537 -29q227 0 448 15q-15 -88 -15 -191q0 -75 23 -197q-365 29 -393 29q-14 0 -397 -8v-51q1 -105 -16 -359
q169 51 304 51q254 0 414 -141q167 -148 167 -400q0 -293 -243 -462q-215 -150 -521 -150q-251 0 -491 160q66 104 143 306z" />
    <glyph glyph-name="six" unicode="6" 
d="M1107 1685l-21 -19q-108 30 -146 30q-246 0 -379 -252q-103 -196 -114 -472q152 125 338 125q242 0 391.5 -148.5t149.5 -389.5q0 -288 -191 -460q-184 -166 -475 -166q-326 0 -496 243q-148 211 -148 551q0 474 218 777q246 343 703 343q18 0 101 -5zM663 80
q223 0 223 439q0 170 -28 254q-48 140 -184 140q-121 0 -186 -148q-49 -114 -49 -254q0 -152 42 -268q58 -163 182 -163z" />
    <glyph glyph-name="seven" unicode="7" 
d="M1038 1794q143 0 320 16l26 -56q-461 -767 -910 -1783q-115 3 -189 3q-75 0 -141 -3l-27 40q374 573 462 711q256 405 433 729q-310 -10 -929 -32q10 101 10 202q0 65 -13 202q630 -29 958 -29z" />
    <glyph glyph-name="eight" unicode="8" 
d="M72 1395q0 232 196 353q165 102 411 102q235 0 398 -109q188 -126 188 -350q0 -127 -91 -238q-82 -101 -208 -152q169 -53 262 -186q91 -129 91 -308q0 -260 -203 -425q-190 -154 -456 -154q-272 0 -455 131q-205 148 -205 410q0 202 83 325q81 118 268 202
q-142 76 -204 156q-75 97 -75 243zM644 77q242 0 242 429q0 399 -218 399q-234 0 -234 -402q0 -148 38 -262q55 -164 172 -164zM660 1054q200 0 200 312q0 338 -192 338q-109 0 -163 -131q-39 -97 -39 -225q0 -115 39 -193q52 -101 155 -101z" />
    <glyph glyph-name="nine" unicode="9" 
d="M138 181l38 13q116 -108 238 -108q242 0 356 249q72 157 100 461q-175 -112 -316 -112q-245 0 -399 148q-158 150 -158 393q0 265 190 445q187 178 453 178q339 0 512 -225q155 -203 155 -551q0 -451 -197 -768q-233 -373 -657 -373q-66 0 -248 45zM660 862
q125 0 181 156q38 107 38 261q0 417 -221 417q-126 0 -186 -179q-41 -123 -41 -284q0 -142 45 -240q60 -131 184 -131z" />
    <glyph glyph-name="colon" unicode=":" horiz-adv-x="681" 
d="M402 397q93 0 155.5 -63t62.5 -156q0 -90 -67.5 -155.5t-158.5 -65.5q-90 0 -151.5 64.5t-61.5 154.5q0 93 63.5 157t157.5 64zM403 1303q90 0 157.5 -66t67.5 -156t-68.5 -155t-158.5 -65q-88 0 -151.5 64.5t-63.5 152.5q0 94 62 159.5t155 65.5z" />
    <glyph glyph-name="semicolon" unicode=";" horiz-adv-x="681" 
d="M449 413q57 0 98.5 -42t41.5 -100q0 -87 -83 -215l-373 -578l-90 32l175 663q64 240 231 240zM229 1110q0 97 71 159t169 62q83 0 145 -72q59 -69 59 -154q0 -88 -71.5 -151t-159.5 -63t-150.5 65.5t-62.5 153.5z" />
    <glyph glyph-name="less" unicode="&#x3c;" horiz-adv-x="1437" 
d="M1390 1187l-1132 -514l1132 -513v-181l-1353 612v165l1353 612v-181z" />
    <glyph glyph-name="equal" unicode="=" horiz-adv-x="1680" 
d="M-101 668h1791v-277h-1791v277zM-101 1174h1791v-274h-1791v274z" />
    <glyph glyph-name="greater" unicode="&#x3e;" horiz-adv-x="1437" 
d="M53 160l1132 513l-1132 514v181l1353 -612v-165l-1353 -612v181z" />
    <glyph glyph-name="question" unicode="?" horiz-adv-x="1051" 
d="M534 1902q205 0 349 -111q156 -122 156 -321q0 -148 -113 -284q-104 -102 -209 -204q-113 -111 -113 -199q0 -52 33 -87.5t84 -35.5q54 0 128 35l29 -24l-50 -120q-102 -27 -139 -27q-186 0 -307 85q-138 97 -138 275q0 143 104 274q95 100 191 199q103 109 103 197
q0 70 -53 119t-123 49q-148 0 -258 -130h-46l-10 194q181 116 382 116zM545 386q90 0 157.5 -73.5t67.5 -163.5q0 -83 -67.5 -147t-150.5 -64t-152 61q-73 63 -73 145q0 98 60 168q62 74 158 74z" />
    <glyph glyph-name="at" unicode="@" horiz-adv-x="2702" 
d="M1408 1331q-170 0 -292 -179q-110 -162 -110 -340q0 -107 57 -180q62 -78 167 -78q162 0 286 190q110 170 110 342q0 93 -61 167q-65 78 -157 78zM1762 1480h181q-65 -217 -191 -654q-48 -177 -48 -214q0 -77 56 -77q159 0 277 215q101 185 101 360q0 309 -220 502
q-210 185 -523 185q-352 0 -584 -252q-225 -245 -225 -600q0 -350 238.5 -590.5t589.5 -240.5q185 0 357.5 81t288.5 223h179q-130 -217 -353.5 -343t-477.5 -126q-425 0 -721 293.5t-296 718.5q0 413 295 707t709 294q369 0 635 -228q281 -240 281 -603q0 -268 -181 -509
q-196 -260 -456 -260q-74 0 -121.5 46.5t-48.5 121.5l-5 -3q-153 -165 -320 -165q-171 0 -283 129q-108 123 -108 297q0 278 165 497q180 238 450 238q212 0 306 -208z" />
    <glyph glyph-name="A" unicode="A" horiz-adv-x="1626" 
d="M705 1871q101 -16 168 -16q74 0 184 11q163 -625 636 -1906q-114 11 -232 11q-59 0 -266 -14q-34 150 -157 570l-636 -3q-92 -236 -200 -564q-71 14 -166 14q-45 0 -124 -3q511 996 793 1900zM998 692q-156 426 -247 759l-288 -759h535z" />
    <glyph glyph-name="B" unicode="B" horiz-adv-x="1467" 
d="M146 1509q0 11 -16 365q131 -11 147 -11q93 0 279 10t278 10q231 0 388 -96q188 -115 188 -330q0 -208 -132 -320q-96 -81 -325 -147q243 -53 351 -139q144 -115 144 -337q0 -226 -181 -397q-102 -97 -252 -128q-96 -21 -286 -21q-65 0 -196.5 6.5t-197.5 6.5
q-124 0 -221 -13q32 297 32 710v831zM626 133q181 0 278 103t97 286q0 182 -111 279q-106 91 -291 91q16 0 -40 -3q-1 -71 -6 -237q-5 -153 -5 -238q0 -21 3 -281h75zM972 1422q0 134 -87 217t-222 83q-47 0 -93 -5q-19 -141 -19 -348v-143q0 -103 5 -175q45 -3 67 -3
q167 0 260 104q89 100 89 270z" />
    <glyph glyph-name="C" unicode="C" horiz-adv-x="1730" 
d="M1690 1459h-42q-102 143 -202 203q-113 69 -277 69q-304 0 -484 -241q-163 -217 -163 -532q0 -357 145 -580q172 -264 510 -264q290 0 511 227l53 -22l-72 -276q-258 -118 -564 -118q-472 0 -757 251q-300 264 -300 729q0 485 293 753q282 259 772 259q345 0 636 -141z
" />
    <glyph glyph-name="D" unicode="D" horiz-adv-x="1943" 
d="M120 615v577q0 377 -22 687q37 0 134 -4q84 -4 133 -4q75 0 226 4.5t226 4.5q268 0 445 -41q308 -69 478 -311q160 -229 160 -553q0 -277 -114 -502q-120 -236 -348.5 -374.5t-620.5 -138.5q-99 0 -364 11q-231 9 -365 5q32 253 32 639zM1440 956q0 338 -156 537
q-172 219 -501 219q-126 0 -235 -14q2 -45 2 -93q0 -109 -9 -326t-9 -326v-410l3 -415q136 -3 405 18q248 44 385 309q115 221 115 501z" />
    <glyph glyph-name="E" unicode="E" horiz-adv-x="1259" 
d="M162 1169q0 406 -16 716q254 -19 512 -19q84 0 253 8.5t253 8.5q38 0 74 -1q-13 -85 -13 -122q0 -56 10 -131q-226 26 -631 32v-583q330 3 618 32q-13 -68 -13 -125q0 -50 16 -133q-306 24 -623 24v-682l620 32q-11 -83 -11 -167q0 -52 11 -88q-415 10 -634 10
q-8 0 -450 -10q24 348 24 767v431z" />
    <glyph glyph-name="F" unicode="F" horiz-adv-x="1153" 
d="M160 1397q0 80 -19 490q333 -21 525 -21q281 0 572 21q-15 -97 -15 -146q0 -11 10 -128q-374 40 -637 43v-575h157q185 0 445 21q-7 -66 -7 -130q0 -63 7 -125q-262 24 -425 24q-25 0 -185 -3v-330q0 -361 19 -567q-158 13 -266 13q-61 0 -216 -13q35 446 35 1045v381z
" />
    <glyph glyph-name="G" unicode="G" horiz-adv-x="1887" 
d="M1717 1445h-64q-183 273 -474 273q-327 0 -508 -252q-160 -223 -160 -563q0 -790 611 -790q111 0 228 33q10 268 10 357q0 171 -13 341q96 -13 210 -13q84 0 258 24q-34 -204 -34 -480q0 -105 11 -346q-371 -106 -694 -106q-477 0 -759 236q-302 254 -302 722
q0 496 309 771q296 263 798 263q151 0 329 -37q208 -42 305 -110q-45 -151 -61 -323z" />
    <glyph glyph-name="H" unicode="H" horiz-adv-x="1887" 
d="M122 1445q0 167 -18 437q119 -17 236 -17q114 0 235 17q-24 -342 -24 -554v-215q302 -11 301 -11h242q6 0 240 5v231q0 268 -24 539q128 -19 271 -19q59 0 205 16q-25 -542 -25 -990v-294q0 -223 20 -627q-111 14 -231 14q-113 0 -248 -17q32 245 32 689q0 146 -3 229
q-231 8 -429 8q-54 0 -351 -13q-5 -164 -5 -266q0 -321 32 -639q-99 10 -220 10q-82 0 -267 -7q31 275 31 699v775z" />
    <glyph glyph-name="I" unicode="I" horiz-adv-x="735" 
d="M405 1870q61 0 223 23q-22 -969 -22 -997q0 -113 25 -931q-126 14 -221 14q-65 0 -242 -16q21 236 21 572v872q0 89 -24 480q111 -17 240 -17z" />
    <glyph glyph-name="J" unicode="J" horiz-adv-x="735" 
d="M-67 -317q84 0 144 78q49 65 67 156q32 167 32 701q0 106 -3 319t-3 319q0 335 -18 631q146 -21 261 -21q55 0 218 21q-24 -591 -24 -1654q0 -654 -687 -688l-48 152q43 -14 61 -14z" />
    <glyph glyph-name="K" unicode="K" horiz-adv-x="1520" 
d="M141 1334q0 136 -21 553q128 -18 237 -18q64 0 231 18q-24 -386 -26 -851q13 14 72 66q160 144 338 370q11 14 300 402q96 -13 134 -13q71 0 186 10l13 -37l-716 -748l785 -1131q-135 18 -238 18q-162 0 -326 -16q-87 157 -275 432q-199 290 -279 428v-271
q0 -223 22 -578q-152 9 -271 9q-102 0 -193 -6q27 612 27 1363z" />
    <glyph glyph-name="L" unicode="L" horiz-adv-x="1206" 
d="M157 1879q153 -16 234 -16q105 0 240 14q-29 -584 -29 -1140q0 -235 5 -548l626 27v-259q-400 24 -589 24q-223 0 -503 -16q29 558 29 1136q0 388 -13 778z" />
    <glyph glyph-name="M" unicode="M" horiz-adv-x="2255" 
d="M202 1871q94 -8 168 -8q3 0 112 11q41 -103 133 -306q172 -328 506 -988q414 788 644 1286q95 -11 122 -11q75 0 149 11q53 -808 259 -1914q-115 21 -160 21q-213 0 -362 -24q-29 759 -104 1230q-274 -494 -607 -1222h-136q-200 467 -500 1015q-31 53 -88 162
q-107 -511 -106 -1177q-129 19 -171 19q-58 0 -152 -16q146 758 293 1911z" />
    <glyph glyph-name="N" unicode="N" horiz-adv-x="1837" 
d="M128 1409q0 246 -14 470q81 -10 139 -10q64 0 138 13q195 -227 589 -676q44 -50 242 -292q148 -180 255 -280q11 76 11 223v405q0 140 -29 609q87 -13 133 -13q62 0 154 11q-38 -761 -40 -1901h-266q-198 265 -537 652q-474 540 -554 636q-3 -176 -3 -435q0 -371 32 -856
q-88 14 -130 14q-62 0 -157 -11q37 386 37 979v462z" />
    <glyph glyph-name="O" unicode="O" horiz-adv-x="2154" 
d="M2101 926q0 -494 -324 -761q-301 -246 -805 -246q-431 0 -693 276q-258 272 -258 705q0 463 281 737q278 273 742 273q489 0 766 -245q291 -257 291 -739zM1640 936q0 317 -116 532q-145 270 -435 270q-326 0 -481 -275q-124 -218 -124 -571q0 -327 116 -540
q146 -270 446 -270q304 0 464 289q130 234 130 565z" />
    <glyph glyph-name="P" unicode="P" 
d="M138 1877h698q271 0 431 -117q181 -133 181 -394q0 -309 -232 -462q-196 -130 -521 -130q-53 0 -107 3v-348q0 -192 16 -472q-134 15 -276 15q-95 0 -198 -7q30 286 30 719q0 827 -22 1193zM623 958q360 0 360 421q0 325 -341 325h-43q-11 -342 -11 -344v-199l3 -203h32z
" />
    <glyph glyph-name="Q" unicode="Q" horiz-adv-x="2154" 
d="M2172 -431v-43q-162 -61 -367 -170q-116 94 -354 277q-125 103 -386 292h-19q-467 -2 -743 256q-282 265 -282 730q0 471 281 738q276 262 749 262q482 0 761 -236q299 -252 299 -725q0 -307 -130 -540q-138 -246 -405 -375q-44 -20 -131 -59q343 -209 727 -407zM1061 92
q309 0 464 288q124 229 124 567q0 328 -125 539q-153 258 -460 258q-311 0 -462 -277q-120 -220 -120 -559q0 -346 114 -553q146 -263 465 -263z" />
    <glyph glyph-name="R" unicode="R" horiz-adv-x="1520" 
d="M277 1871h202q59 0 176.5 9t176.5 9q262 0 426 -116q188 -133 188 -385q0 -362 -418 -496q106 -185 296 -470q242 -364 305 -465q-165 23 -234 23q-169 0 -304 -23l-527 935q3 -309 35 -924q-98 8 -210 8q-120 0 -259 -13q19 264 19 474q0 915 -24 1450q131 -16 152 -16z
M639 977q161 0 257 110q92 105 92 268q0 349 -373 349q-13 0 -45 -6v-718q22 -3 69 -3z" />
    <glyph glyph-name="S" unicode="S" 
d="M152 447l82 -18q36 -123 141 -203t232 -80q130 0 214 53q101 63 101 185q0 160 -214 278q-390 217 -395 221q-213 166 -213 443q0 271 201 432q185 148 463 148q228 0 492 -136q-71 -179 -93 -327h-72q-129 253 -343 253q-112 0 -185 -49q-84 -58 -84 -164
q0 -160 217 -274q201 -104 403 -208q216 -156 216 -418q0 -305 -210 -480q-196 -165 -507 -165q-297 0 -507 105q56 249 61 404z" />
    <glyph glyph-name="T" unicode="T" 
d="M1435 1871q-6 -49 -6 -143q0 -61 11 -128q-281 35 -516 34q-6 -439 -6 -418v-521q0 -350 35 -743q-185 23 -253 23q-44 0 -125 -8q-85 -9 -125 -10q32 265 32 533v833q0 -1 -6 317q-287 -8 -537 -32q5 49 5 144q0 64 -11 125q548 -14 919 -14q310 0 583 8z" />
    <glyph glyph-name="U" unicode="U" horiz-adv-x="1837" 
d="M277 1863q158 0 274 14q-19 -430 -19 -951q0 -335 67 -505q104 -266 384 -266q310 0 425 258q76 172 76 528q0 519 -31 930q85 -16 144 -16q70 0 168 11l-32 -1208q-9 -335 -236 -536q-219 -194 -557 -194q-327 0 -544 138q-248 159 -284 466q-18 153 -18 402q0 75 2 226
t2 227q0 115 -21 492q121 -16 200 -16z" />
    <glyph glyph-name="V" unicode="V" horiz-adv-x="1626" 
d="M181 1861q97 0 261 21q158 -444 471 -1334q32 65 157 389q232 601 346 934q94 -13 144 -13q77 0 152 11q-287 -661 -407 -950q-223 -533 -379 -962q-121 19 -141 19q-31 0 -130 -19q-116 380 -264 735q-13 32 -143 383q-144 386 -325 810q157 -24 258 -24z" />
    <glyph glyph-name="W" unicode="W" horiz-adv-x="2516" 
d="M112 1862q79 0 226 25q227 -884 381 -1365q318 899 466 1363q83 -17 152 -17q41 0 140 11q5 -43 59 -206q44 -125 128 -377q127 -399 253 -766q51 184 208 672q136 423 199 675q85 -17 148 -17q43 0 121 11q-132 -356 -381 -1072q-97 -274 -266 -828q-99 10 -160 10
q-59 0 -136 -16q-149 452 -444 1355l-477 -1344q-82 8 -146 8q-48 0 -138 -13q-71 272 -264 889q-99 340 -314 1017q102 -15 245 -15z" />
    <glyph glyph-name="X" unicode="X" horiz-adv-x="1419" 
d="M495 849l-562 1025q113 -9 259 -9q60 0 266 22q155 -371 330 -647q170 263 378 637q130 -18 182 -18q55 0 135 10q-196 -282 -591 -841q115 -183 269 -496q57 -116 319 -575q-186 19 -266 19q-123 0 -272 -19q-41 113 -138 330q-68 120 -194 365q-158 -236 -381 -695
q-100 18 -200 18q-50 0 -112 -4q190 294 578 878z" />
    <glyph glyph-name="Y" unicode="Y" horiz-adv-x="1467" 
d="M197 1871q67 0 269 16q157 -369 407 -814q88 156 205 398q192 399 194 403q87 -13 169 -13q62 0 124 8q-149 -246 -583 -1052q0 -38 -1 -128q-1 -84 -1 -127q0 -340 24 -599q-188 21 -245 21q-104 0 -251 -13q41 374 46 790q-103 200 -311 563q-219 383 -312 561
q156 -14 266 -14z" />
    <glyph glyph-name="Z" unicode="Z" horiz-adv-x="1520" 
d="M-53 35q211 314 503 805q470 791 484 816q-298 -11 -894 -48q11 85 11 149q0 45 -14 125q408 -14 629 -14q555 0 881 19v-69q-174 -263 -658 -1070q-119 -183 -335 -562h130q368 0 868 40q-5 -49 -5 -138q0 -20 10 -125q-214 7 -473 9l-309 1q-304 0 -828 -16v78z" />
    <glyph glyph-name="bracketleft" unicode="[" horiz-adv-x="735" 
d="M178 1459q0 12 -21 423q309 -18 634 -11v-167l-330 13q-14 -429 -14 -953q0 -163 3 -488q3 -328 3 -489l327 11v-163q-147 9 -333 9q-107 0 -298 -3q29 458 29 1143v675z" />
    <glyph glyph-name="backslash" unicode="\" horiz-adv-x="740" 
d="M-45 1962h175l655 -2013h-178z" />
    <glyph glyph-name="bracketright" unicode="]" horiz-adv-x="735" 
d="M-3 -189l328 -16q21 605 21 877v579q0 -26 -5 477h-117q-53 0 -216 -16v173q338 -22 639 -14q-35 -422 -35 -1145v-614q0 -90 22 -474h-637v173z" />
    <glyph glyph-name="asciicircum" unicode="^" horiz-adv-x="0" 
d="M-429 2023q110 95 331 282h202q143 -143 325 -279v-40l-235 -48l-191 208l-192 -208l-240 53v32z" />
    <glyph glyph-name="underscore" unicode="_" horiz-adv-x="1480" 
d="M0 -333v133h1480v-133h-1480z" />
    <glyph glyph-name="grave" unicode="`" horiz-adv-x="0" 
d="M-375 1962h399l178 -535h-127q-224 251 -450 479v56z" />
    <glyph glyph-name="a" unicode="a" horiz-adv-x="1206" 
d="M700 857q0 119 -64 200q-69 88 -186 88q-136 0 -277 -141l-35 146q196 192 497 192q144 0 249 -59q226 -127 226 -455q0 -83 -9.5 -252.5t-9.5 -255.5q0 -103 33 -153q39 -57 138 -71v-85q-160 -68 -251 -68q-97 0 -164 47q-18 14 -123 119q-107 -105 -155 -133
q-78 -45 -199 -45q-153 0 -254 115q-97 110 -97 265q0 186 120 279q76 58 290 121q88 39 268 106q3 15 3 40zM412 362q0 -200 152 -200q147 0 147 277q0 20 -6 245q-162 -65 -210 -107q-83 -73 -83 -215z" />
    <glyph glyph-name="b" unicode="b" horiz-adv-x="1520" 
d="M106 2079q147 -19 227 -19q72 0 213 16l-43 -934q196 199 399 199q278 0 439 -195q149 -182 149 -466q0 -294 -154 -509q-172 -240 -456 -240q-157 0 -265 52q-89 43 -216 163l-170 -183h-125q30 370 30 979q0 846 -28 1137zM1057 642q0 508 -282 508q-263 0 -263 -548
q0 -512 249 -512q296 0 296 552z" />
    <glyph glyph-name="c" unicode="c" horiz-adv-x="1206" 
d="M1203 886h-80q-54 276 -255 276q-191 0 -289 -167q-80 -137 -80 -342q0 -230 94 -373q110 -168 328 -168q62 0 148 38q81 36 132 82l61 -35l-75 -178q-173 -99 -391 -99q-334 0 -534.5 197t-200.5 530q0 316 211 510q204 188 523 188q293 0 533 -168q-68 -112 -125 -291z
" />
    <glyph glyph-name="d" unicode="d" horiz-adv-x="1520" 
d="M1025 1438q0 177 -27 628q157 -24 235 -24q93 0 196 16q-21 -613 -21 -737v-1113q0 41 11 -251q-198 19 -210 19q-89 0 -176 -13v189q-101 -123 -177 -167q-92 -53 -236 -53q-286 0 -441 208q-137 186 -137 481q0 298 141 494q160 221 447 221q274 0 395 -207v309z
M749 117q149 0 223 186q54 136 54 313q0 523 -281 523q-149 0 -226 -185q-58 -140 -58 -315q0 -522 288 -522z" />
    <glyph glyph-name="e" unicode="e" horiz-adv-x="1312" 
d="M905 626q-69 0 -413 -11q5 -209 88 -336q100 -152 297 -152t369 129l45 -56q-34 -66 -69 -155q-193 -120 -439 -120q-339 0 -533 186q-197 189 -197 527q0 328 172 514q177 193 502 193q274 0 440 -163.5t166 -436.5q0 -62 -7 -133q-221 14 -421 14zM663 769q99 0 253 8
q2 23 2 59q0 131 -39 228q-55 132 -166 132q-123 0 -185 -157q-45 -114 -46 -262q108 -8 181 -8z" />
    <glyph glyph-name="f" unicode="f" horiz-adv-x="735" 
d="M-11 1296h187q80 750 551 750q44 0 125 -7q-19 -170 -16 -333l-51 -32q-103 75 -175 75q-142 0 -142 -126q0 -60 104 -335h216v-157h-208q-18 -345 -18 -697q0 -236 10 -477q-176 20 -224 20q-111 0 -183 -14q11 421 11 789v382h-187v162z" />
    <glyph glyph-name="g" unicode="g" horiz-adv-x="1419" 
d="M136 201q0 142 226 252q-141 32 -227 150q-82 114 -82 262q0 241 190 360q158 98 414 98q76 0 209 -11q150 -14 209 -16h402v-189l-300 32q95 -167 95 -271q0 -215 -176 -345q-159 -119 -381 -119q-116 0 -196 14q-27 -51 -27 -83q0 -92 172 -105q182 -9 365 -18
q233 -30 339 -161q85 -105 85 -229q0 -285 -250 -449q-218 -143 -518 -143q-259 0 -444 84q-247 111 -247 337q0 222 270 328q-80 74 -94 94q-34 49 -34 128zM439 -75q-114 -135 -114 -242q0 -154 122 -234q104 -68 267 -68q146 0 255 82q120 89 120 231q0 121 -129 183
q-100 48 -236 48h-285zM671 532q218 0 218 333q0 313 -213 313q-230 0 -230 -348q0 -123 49 -203q59 -95 176 -95z" />
    <glyph glyph-name="h" unicode="h" horiz-adv-x="1467" 
d="M131 686q0 903 -19 1361q97 -8 168 -8q115 0 263 16q-21 -427 -21 -672v-241q103 93 173 129q92 47 209 47q225 0 345 -142q111 -132 111 -361v-855q-139 16 -205 16q-27 0 -218 -19q21 326 21 678q0 440 -215 440q-227 0 -227 -476q0 -345 24 -636q-131 13 -223 13
q-94 0 -216 -13q30 424 30 723z" />
    <glyph glyph-name="i" unicode="i" horiz-adv-x="681" 
d="M378 1294q81 0 224 24q-30 -355 -30 -463v-557q0 -99 14 -333q-120 12 -246 12q-93 0 -186 -6q24 415 24 737q0 235 -26 607q147 -21 226 -21zM162 1784q0 85 65.5 152.5t150.5 67.5q92 0 160 -62q69 -65 69 -156q0 -94 -68.5 -157.5t-163.5 -63.5q-89 0 -151 64.5
t-62 154.5z" />
    <glyph glyph-name="j" unicode="j" horiz-adv-x="681" 
d="M178 376q0 322 -18 942q159 -16 215 -16q33 0 211 13l-4 -151q-14 -578 -14 -1315q0 -237 -159 -410q-164 -178 -398 -182l-38 85q128 67 175 215q31 101 31 285q0 35 -1.5 105t-1.5 105q0 54 1 162t1 162zM384 2031q87 0 153.5 -60.5t66.5 -147.5q0 -95 -60 -162
q-63 -69 -157 -69q-99 0 -162.5 63.5t-63.5 161.5q0 83 70 148.5t153 65.5z" />
    <glyph glyph-name="k" unicode="k" 
d="M313 2045q84 0 227 15q-18 -568 -18 -856q0 -38 2 -520q209 204 551 623q73 -20 170 -20q46 0 107 4l8 -35q-165 -148 -484 -457l524 -842q-167 19 -197 19q-131 0 -277 -19q-166 305 -402 653v-184q0 -134 19 -466q-146 16 -200 16q-89 0 -210 -13q8 227 8 375v998
q0 114 -27 719q124 -10 199 -10z" />
    <glyph glyph-name="l" unicode="l" horiz-adv-x="681" 
d="M184 1280q0 426 -16 780q141 -18 226 -18q77 0 197 18q-24 -629 -24 -812v-672q0 -388 16 -619q-35 1 -106.5 11.5t-109.5 10.5q-92 0 -213 -22q30 387 30 977v346z" />
    <glyph glyph-name="m" unicode="m" horiz-adv-x="2255" 
d="M85 918q0 138 -21 400q150 -14 265 -14q77 0 153 6v-165q185 183 396 183q161 0 252 -65q54 -38 174 -193q40 110 179 182q125 63 253 63q168 0 296 -112q132 -116 132 -282v-964q-88 14 -261 14q-50 0 -157 -14q24 501 24 746q0 368 -219 368q-245 0 -245 -470
q0 -31 2 -93t2 -93q0 -301 2 -452q-144 11 -282 11q-70 0 -138 -3q29 382 29 749q0 366 -202 366q-258 0 -258 -451q0 -400 21 -664q-205 13 -229 13q-43 0 -194 -13q26 627 26 947z" />
    <glyph glyph-name="n" unicode="n" horiz-adv-x="1467" 
d="M128 635q0 280 -19 675q161 -20 246 -20q35 0 164 12v-200q59 105 186 165q116 56 245 56q114 0 197 -45q125 -68 174 -174q41 -90 41 -244q0 -35 -2 -104.5t-2 -103.5q0 -86 2 -257t2 -257q0 -92 -2 -170q-100 13 -210 13q-50 0 -210 -21q35 341 35 719q0 391 -222 391
q-243 0 -243 -532v-341q0 -139 14 -240q-39 1 -119.5 10t-122.5 9q-55 0 -186 -13q32 278 32 672z" />
    <glyph glyph-name="o" unicode="o" horiz-adv-x="1520" 
d="M785 1350q304 0 501 -170q208 -179 208 -477q0 -347 -198 -555q-202 -212 -546 -212q-336 0 -520 175q-187 178 -187 512q0 338 203 533q200 194 539 194zM763 73q165 0 241 223q53 154 53 361q0 203 -47 345q-69 212 -228 212q-165 0 -244 -216q-56 -154 -56 -356
q0 -569 281 -569z" />
    <glyph glyph-name="p" unicode="p" horiz-adv-x="1520" 
d="M126 563q0 327 -17 747q156 -16 221 -16q73 0 184 16v-157q131 105 177 131q97 55 213 55q295 0 452 -208q140 -186 140 -491q0 -282 -146 -488q-164 -230 -435 -230q-244 0 -407 169v-299q0 1 19 -529q-119 21 -208 21q-127 0 -218 -16q25 474 25 1295zM778 114
q160 0 232 201q50 139 50 337q0 482 -275 482q-157 0 -230 -184q-52 -131 -52 -318q0 -518 275 -518z" />
    <glyph glyph-name="q" unicode="q" horiz-adv-x="1520" 
d="M1025 1318q138 -24 205 -24q75 0 197 21q-24 -549 -24 -1421v-211q0 -87 19 -410q-131 20 -207 20q-125 0 -214 -14l16 809q-193 -154 -410 -154q-275 0 -432 232q-136 202 -136 490q0 311 141 493q156 201 459 201q109 0 210 -60q51 -31 176 -135v163zM755 121
q154 0 223 205q47 139 47 333q0 185 -53 311q-74 175 -232 175q-153 0 -220 -186q-46 -127 -46 -315q0 -192 51 -328q72 -195 230 -195z" />
    <glyph glyph-name="r" unicode="r" horiz-adv-x="945" 
d="M168 977q0 113 -16 338q102 -16 234 -16q48 0 173 13q-17 -142 -16 -250v-34q211 298 455 306v-437q-100 51 -183 51q-156 0 -214 -120q-40 -83 -40 -257q0 -445 14 -614q-107 17 -257 17q-62 0 -180 -3q30 562 30 1006z" />
    <glyph glyph-name="s" unicode="s" horiz-adv-x="1051" 
d="M916 1001l-54 -16q-110 200 -290 200q-71 0 -118 -39q-52 -42 -52 -110q0 -84 165 -162q255 -120 306 -158q165 -122 165 -314q0 -218 -173 -352q-159 -122 -383 -122q-158 0 -381 83l24 303h48q94 -113 144 -150q83 -61 195 -61q73 0 125 31q64 38 64 107q0 96 -165 172
q-262 122 -305 155q-164 122 -164 329t164 337q153 122 365 122q183 0 370 -108z" />
    <glyph glyph-name="t" unicode="t" horiz-adv-x="735" 
d="M-24 1302h178v311q125 57 368 181l42 -32l-8 -466q40 -2 110 -2q42 0 117 13v-176h-229v-785q0 -224 143 -224q23 0 96 14v-117q-136 -54 -285 -54q-219 0 -302 137q-65 106 -65 340q0 82 8 245t8 245v202h-181v168z" />
    <glyph glyph-name="u" unicode="u" horiz-adv-x="1467" 
d="M299 1290q68 0 217 17v-876q0 -255 203 -255q237 0 237 399v274q0 8 -11 450q146 -12 216 -12q67 0 197 20q-16 -460 -16 -760q0 -321 16 -587q-130 16 -256 16q-71 0 -144 -5v162q-100 -108 -180 -151q-96 -50 -229 -50q-432 0 -432 489v353q0 299 -13 533
q117 -17 195 -17z" />
    <glyph glyph-name="v" unicode="v" horiz-adv-x="1206" 
d="M162 1294q124 0 240 10l293 -915q206 551 327 913q67 -12 134 -12q52 0 119 9q-242 -517 -530 -1342q-106 15 -192 15q-67 0 -127 -9q-205 691 -485 1344q158 -13 221 -13z" />
    <glyph glyph-name="w" unicode="w" horiz-adv-x="1943" 
d="M125 1291q102 0 232 16l247 -902q199 574 290 897q120 -12 162 -12q60 0 177 14l242 -907q122 348 154 445q84 253 136 452h253q-215 -536 -482 -1329q-91 16 -141 16q-105 0 -184 -13l-255 884l-298 -887q-75 11 -150 11q-74 0 -175 -13q-175 674 -434 1347
q150 -19 226 -19z" />
    <glyph glyph-name="x" unicode="x" horiz-adv-x="1105" 
d="M383 572q-184 331 -423 738q171 -16 240 -16q48 0 231 13l211 -410q153 218 266 407q65 -3 119 -3q85 0 158 9q-190 -239 -445 -591l431 -754q-142 10 -283 10q-95 0 -193 -4q-90 212 -219 436l-279 -436h-253q146 200 439 601z" />
    <glyph glyph-name="y" unicode="y" horiz-adv-x="1206" 
d="M173 1285q60 0 232 22q119 -368 303 -876l304 873q88 -11 161 -11q53 0 105 6q-250 -519 -668 -1560q-62 -163 -195 -487q-89 8 -112 8q-88 0 -159 -16l343 668q-343 895 -551 1384q149 -11 237 -11z" />
    <glyph glyph-name="z" unicode="z" horiz-adv-x="1206" 
d="M0 96l713 1033q-263 -2 -628 -35q6 48 6 98q0 62 -8 128q254 -14 563 -14q225 0 587 9v-130l-725 -1025h200q243 0 517 32q-11 -89 -11 -227q-349 13 -696 13q-260 0 -518 -7v125z" />
    <glyph glyph-name="braceleft" unicode="{" horiz-adv-x="889" 
d="M112 783q147 0 191 179q21 84 21 296v116q0 247 31 350q59 198 244 198h178v-173h-117q-122 0 -122 -218v-302v-151q-3 -113 -65 -223q-70 -124 -170 -150v-5q148 -44 202 -218q34 -111 34 -314q0 -38 -1.5 -114t-1.5 -114q0 -289 124 -289h117v-173h-178
q-127 0 -203 112q-69 99 -69 232v455q0 122 -47 221q-60 125 -168 125v160z" />
    <glyph glyph-name="bar" unicode="|" horiz-adv-x="692" 
d="M250 1962h195v-2013h-195v2013z" />
    <glyph glyph-name="braceright" unicode="}" horiz-adv-x="889" 
d="M777 623q-108 0 -168 -125q-47 -99 -47 -221v-455q0 -133 -68 -232q-77 -112 -204 -112h-178v173h117q124 0 124 289q0 38 -1.5 114t-1.5 114q0 203 34 314q54 174 202 218v5q-100 26 -170 150q-62 110 -65 223v453q0 218 -122 218h-117v173h178q277 0 277 -496
q0 -33 -1 -89.5t-1 -78.5q0 -211 21 -296q44 -179 191 -179v-160z" />
    <glyph glyph-name="asciitilde" unicode="~" horiz-adv-x="0" 
d="M-170 2319q79 0 228.5 -67t190.5 -67q62 0 99 29q27 21 65 83l103 -58q-65 -128 -122 -184q-83 -80 -200 -80q-89 0 -226 60.5t-203 60.5q-45 0 -91.5 -29.5t-64.5 -69.5l-96 53q31 110 116 187q91 82 201 82z" />
    <glyph glyph-name="nonbreakingspace" unicode="&#xa0;" horiz-adv-x="681" 
 />
    <glyph glyph-name="exclamdown" unicode="&#xa1;" horiz-adv-x="681" 
d="M269 1275h88l151 -908q12 -70 12 -158q0 -262 -225 -262q-218 0 -218 259q0 50 19 151zM297 1885q83 0 146 -68q60 -66 60 -151q0 -80 -62.5 -137.5t-143.5 -57.5q-87 0 -147.5 62.5t-60.5 149.5q0 80 63.5 141t144.5 61z" />
    <glyph glyph-name="cent" unicode="&#xa2;" horiz-adv-x="1206" 
d="M1328 1177q-68 -113 -125 -291h-80q-48 243 -213 272v-1046h11q143 -2 280 120l61 -35l-75 -178q-123 -70 -261 -91v-77q0 -98 16 -224q-88 16 -133 16q-47 0 -109 -16q26 118 29 295q-309 21 -488.5 217.5t-179.5 507.5q0 296 188 487q183 188 480 209v230
q68 -13 129 -13q40 0 84 5l-13 -229q216 -31 399 -159zM729 155v980q-230 -103 -230 -482t230 -498z" />
    <glyph glyph-name="sterling" unicode="&#xa3;" horiz-adv-x="1520" 
d="M354 705q0 26 -3 99l-229 -11v208h221q-5 58 -5 90q0 337 171 539q182 215 513 215q265 0 517 -163q-61 -103 -176 -314h-56q-50 291 -255 291q-176 0 -232 -192q-30 -100 -30 -335q0 -87 6 -142h157q108 0 383 27v-237q-112 19 -157 19q-70 0 -209.5 -1.5t-208.5 -1.5
q-26 -239 -316 -458h379q364 0 704 27q-21 -123 -21 -211q0 -96 24 -197q-566 19 -924 19q-176 0 -618 -19q19 109 19 187q0 22 -19 181q206 6 285.5 90t79.5 290z" />
    <glyph glyph-name="section" unicode="&#xa7;" horiz-adv-x="1206" 
d="M112 1434q0 225 178 359q162 121 394 121q269 0 431 -125q-55 -125 -85 -261h-74q-64 218 -280 218q-99 0 -172 -42q-87 -51 -87 -144q0 -113 212 -205q369 -161 392 -176q212 -131 212 -340q0 -218 -189 -402q106 -113 106 -272q0 -251 -204 -399q-182 -133 -443 -133
q-217 0 -439 109q45 190 50 325h70q61 -137 137 -196q86 -68 226 -68q101 0 181 53q90 61 90 157q0 142 -209 233q-381 167 -387 172q-209 134 -209 381q0 172 195 362q-96 141 -96 273zM945 522q40 66 40 114q0 113 -182 212q-17 9 -281 121q-109 46 -216 117
q-50 -52 -50 -117q0 -126 208 -234q159 -67 319 -133q5 -3 162 -80z" />
    <glyph glyph-name="dieresis" unicode="&#xa8;" horiz-adv-x="0" 
d="M-287 1938q69 0 122.5 -58.5t53.5 -128.5q0 -78 -64.5 -130.5t-143.5 -52.5q-64 0 -114.5 56t-50.5 120q0 76 60 135t137 59zM122 1760q0 74 62 123q57 47 133 47q71 0 122 -54.5t51 -126.5q0 -74 -58 -127.5t-133 -53.5q-78 0 -128 58q-49 55 -49 134z" />
    <glyph glyph-name="copyright" unicode="&#xa9;" horiz-adv-x="1970" 
d="M958 1744q369 0 630.5 -262t261.5 -630q0 -369 -261.5 -630.5t-630.5 -261.5q-368 0 -629.5 261.5t-261.5 630.5q0 368 261.5 630t629.5 262zM958 64q325 0 556.5 231.5t231.5 556.5t-231.5 556.5t-556.5 231.5q-324 0 -556 -231.5t-232 -556.5t232 -556.5t556 -231.5z
M1342 1336l10 -330h-53q-20 117 -105 193.5t-203 76.5q-162 0 -261 -146q-87 -128 -87 -298q0 -178 84 -285q93 -117 267 -117q110 0 181 34q36 17 153 103l30 -45q-189 -190 -387 -190q-222 0 -358.5 138t-136.5 361q0 210 135 359q140 154 348 154q46 0 135 -24.5
t135 -24.5q52 0 62 41h51z" />
    <glyph glyph-name="guillemotleft" unicode="&#xab;" horiz-adv-x="996" 
d="M407 1374q61 -64 173 -118l-340 -452q79 -114 157 -228q94 -131 173 -217q-108 -46 -187 -122q-120 192 -370 570q145 188 394 567zM844 1366q52 -60 160 -118l-331 -447l325 -444q-106 -49 -173 -125q-221 344 -388 572q207 255 407 562z" />
    <glyph glyph-name="logicalnot" unicode="&#xac;" horiz-adv-x="1776" 
d="M-19 743h1717v-743h-143v602h-1574v141z" />
    <glyph glyph-name="registered" unicode="&#xae;" horiz-adv-x="1970" 
d="M956 -51q-369 0 -630.5 260.5t-261.5 629.5q0 368 261.5 629.5t630.5 261.5q367 0 629 -262t262 -629q0 -368 -262 -629t-629 -261zM953 1626q-327 0 -556 -231.5t-229 -558.5q0 -326 230.5 -555.5t557.5 -229.5q324 0 556 231.5t232 556.5t-232.5 556t-558.5 231z
M823 511q0 -75 119 -74v-48h-412v48q128 0 128 66v745q0 61 -31 73q-12 5 -84 5v45h442q351 0 351 -240q0 -109 -75.5 -183t-185.5 -78l309 -396q30 -38 93 -37v-48h-244l-344 458h-66v-336zM823 905q151 7 222 36q118 48 118 170q0 105 -49 150q-44 40 -151 50q-71 7 -90 7
q-53 0 -53 -54z" />
    <glyph glyph-name="degree" unicode="&#xb0;" horiz-adv-x="681" 
d="M287 993q-159 0 -273.5 113t-114.5 273t114.5 273t273.5 113t274 -113.5t115 -272.5t-115 -272.5t-274 -113.5zM285 1664q-117 0 -199.5 -84t-82.5 -201q0 -116 84 -199t200 -83t200.5 83.5t84.5 198.5q0 116 -85.5 200.5t-201.5 84.5z" />
    <glyph glyph-name="plusminus" unicode="&#xb1;" 
d="M594 1054v612h141v-612h612v-144h-612v-609h-141v609h-613v144h613zM-19 0v141h1366v-141h-1366z" />
    <glyph glyph-name="acute" unicode="&#xb4;" horiz-adv-x="0" 
d="M16 1951h378v-64q-158 -151 -463 -463h-133q114 250 218 527z" />
    <glyph glyph-name="mu" unicode="&#xb5;" horiz-adv-x="1437" 
d="M335 1291v-857q0 -299 244 -299q82 0 169 60.5t120 137.5v958h223v-990q0 -75 32 -139q39 -78 106 -78q73 0 101 60l38 120h51q-73 -306 -313 -306q-114 0 -169 75q-39 53 -67 180q-61 -101 -174 -176q-121 -80 -231 -80q-79 0 -142 38l-118 88v-59q0 -72 42 -208.5
t42 -208.5q0 -67 -28 -118q-35 -64 -96 -64q-63 0 -97 63q-29 52 -29 119q0 72 36.5 209t36.5 208v1267h223z" />
    <glyph glyph-name="paragraph" unicode="&#xb6;" horiz-adv-x="1776" 
d="M1435 1879v-143h-91v-2181h-154v2181h-383v-2181h-155v1294q-197 31 -308 167q-110 133 -110 334q0 256 170 397q158 132 419 132h612z" />
    <glyph glyph-name="cedilla" unicode="&#xb8;" horiz-adv-x="0" 
d="M-168 -445q96 -66 165 -66q139 0 139 122q0 37 -39 65q-35 26 -73 26q-55 0 -128 -24l-24 50q54 118 112 301l77 -10l-56 -203q71 11 115 11q97 0 163 -71.5t66 -168.5q0 -96 -93 -165q-85 -64 -184 -64q-117 0 -274 59z" />
    <glyph glyph-name="guillemotright" unicode="&#xbb;" horiz-adv-x="996" 
d="M346 804l-330 447q81 24 184 112q152 -244 375 -556q-251 -339 -397 -575q-72 72 -167 117zM780 804q-69 83 -325 439q60 23 187 120q88 -169 359 -567q-129 -191 -389 -570q-92 77 -181 120z" />
    <glyph glyph-name="questiondown" unicode="&#xbf;" horiz-adv-x="1051" 
d="M165 1166l51 125q136 26 173 26q172 0 290 -96q125 -102 125 -271q0 -132 -102 -261q-95 -101 -190 -201q-103 -110 -103 -199q0 -173 199 -173q119 0 231 132h50l11 -195q-190 -113 -378 -113q-209 0 -354 111q-159 122 -159 325q0 137 113 273l210 210q113 115 113 203
q0 49 -35 86t-84 37q-24 0 -134 -32zM506 1895q94 0 154 -72q56 -68 56 -165q0 -83 -69.5 -141.5t-153.5 -58.5q-86 0 -152.5 66t-66.5 152q0 90 70.5 154.5t161.5 64.5z" />
    <glyph glyph-name="Agrave" unicode="&#xc0;" horiz-adv-x="1626" 
d="M311 2316h429l250 -327h-157q-172 90 -522 263v64zM705 1871q101 -16 168 -16q74 0 184 11q163 -625 636 -1906q-142 11 -232 11q-59 0 -266 -14q-34 150 -157 570l-636 -3q-92 -236 -200 -564q-70 14 -166 14q-45 0 -124 -3q511 996 793 1900zM998 692
q-156 426 -247 759l-288 -759h535z" />
    <glyph glyph-name="Aacute" unicode="&#xc1;" horiz-adv-x="1626" 
d="M764 2311q84 -3 167 -3q139 0 272 8v-67q-107 -41 -270 -130q-204 -112 -265 -141h-144q82 110 240 333zM705 1871q101 -16 168 -16q74 0 184 11q163 -625 636 -1906q-114 11 -232 11q-59 0 -266 -14q-34 150 -157 570l-636 -3q-92 -236 -200 -564q-71 14 -166 14
q-45 0 -124 -3q511 996 793 1900zM998 692q-156 426 -247 759l-288 -759h535z" />
    <glyph glyph-name="Acircumflex" unicode="&#xc2;" horiz-adv-x="1626" 
d="M309 2023q192 146 330 282h202q141 -141 325 -279v-40l-234 -48l-192 208l-192 -208l-239 53v32zM705 1871q101 -16 168 -16q74 0 184 11q163 -625 636 -1906q-114 11 -232 11q-59 0 -266 -14q-34 150 -157 570l-636 -3q-92 -236 -200 -564q-71 14 -166 14q-45 0 -124 -3
q511 996 793 1900zM998 692q-156 426 -247 759l-288 -759h535z" />
    <glyph glyph-name="Atilde" unicode="&#xc3;" horiz-adv-x="1626" 
d="M566 2319q81 0 231 -67t191 -67q113 0 162 112l104 -58q-67 -131 -122 -185q-81 -79 -200 -79q-88 0 -225.5 60.5t-203.5 60.5q-92 0 -157 -99l-96 53q28 107 116 186q93 83 200 83zM705 1871q101 -16 168 -16q74 0 184 11q163 -625 636 -1906q-114 11 -232 11
q-59 0 -266 -14q-34 150 -157 570l-636 -3q-92 -236 -200 -564q-71 14 -166 14q-45 0 -124 -3q511 996 793 1900zM998 692q-156 426 -247 759l-288 -759h535z" />
    <glyph glyph-name="Adieresis" unicode="&#xc4;" horiz-adv-x="1626" 
d="M703 1871q100 -16 167 -16q74 0 184 11q181 -695 634 -1906q-111 11 -229 11q-60 0 -266 -14q-51 190 -163 567h-631q-84 -223 -199 -564q-74 12 -160 12q-66 0 -136 -7q472 907 799 1906zM996 692q-158 438 -248 759l-287 -759h535zM194 2023q0 78 54 131t132 53
q88 0 144.5 -52.5t56.5 -139.5q0 -82 -58.5 -137t-141.5 -55q-79 0 -133 60t-54 140zM1358 2201q83 0 140 -49q59 -52 59 -134q0 -84 -59 -140.5t-143 -56.5q-72 0 -129 63t-57 136q0 79 54.5 130t134.5 51z" />
    <glyph glyph-name="Aring" unicode="&#xc5;" horiz-adv-x="1626" 
d="M875 2455q123 0 206 -66q91 -72 91 -192t-94 -193q-86 -66 -210 -66q-128 0 -212 69q-89 75 -89 200q0 120 97 188q85 60 211 60zM861 2047q59 0 105 38.5t46 97.5q0 58 -39 105q-42 49 -99 49q-55 0 -101 -32q-52 -37 -52 -90q0 -66 36 -115q40 -53 104 -53zM697 1871
q101 -16 168 -16q74 0 184 11q163 -625 636 -1906q-114 11 -232 11q-59 0 -266 -14q-34 150 -157 570l-636 -3q-91 -236 -200 -564q-71 14 -166 14q-45 0 -124 -3q511 996 793 1900zM990 692q-156 426 -247 759l-288 -759h535z" />
    <glyph glyph-name="AE" unicode="&#xc6;" horiz-adv-x="2255" 
d="M1001 1863l373 -2h375q2 0 458 10q-8 -80 -8 -161q0 -48 2 -97q-247 32 -633 35q-8 -301 -8 -336q0 -23 3 -237q30 0 102 -1q68 -1 103 -1q220 0 423 21q-11 -86 -11 -159q0 -52 6 -96q-375 28 -561 27l-62 -1q-4 -189 -4 -222q0 -141 17 -465q215 0 628 38
q-8 -76 -8 -146q0 -58 5 -113q-202 12 -474 12q-98 0 -294 -2t-294 -2v642q-140 5 -420 5q-16 0 -213 -5q-156 -275 -325 -647q-142 16 -325 11q103 143 519 841zM1137 804q8 126 8 280q0 348 -11 580q-249 -403 -519 -860h522z" />
    <glyph glyph-name="Ccedilla" unicode="&#xc7;" horiz-adv-x="1730" 
d="M1690 1459h-42q-104 143 -202 203q-113 69 -277 69q-304 0 -484 -241q-163 -217 -163 -532q0 -357 145 -580q172 -264 510 -264q290 0 511 227l53 -22l-72 -276q-258 -118 -564 -118q-135 0 -258 23l-38 -132q67 11 112 11q99 0 165.5 -70.5t66.5 -169.5q0 -97 -92 -166
q-85 -63 -185 -63q-133 0 -272 59l32 138q95 -66 168 -66q49 0 91 26q47 31 47 78t-33 78t-81 31q-62 0 -125 -24l-24 50q41 88 88 236q-346 86 -534 336q-185 245 -185 605q0 485 293 753q282 259 772 259q383 0 636 -141z" />
    <glyph glyph-name="Egrave" unicode="&#xc8;" horiz-adv-x="1259" 
d="M162 2316h429l253 -327h-160q-172 91 -522 263v64zM162 1169q0 406 -16 716q254 -19 512 -19q84 0 253 8.5t253 8.5q38 0 74 -1q-13 -85 -13 -122q0 -56 10 -131q-226 26 -631 32v-583q330 3 618 32q-13 -68 -13 -125q0 -50 16 -133q-306 24 -623 24v-682l620 32
q-11 -83 -11 -167q0 -52 11 -88q-415 10 -634 10q-8 0 -450 -10q24 348 24 767v431z" />
    <glyph glyph-name="Eacute" unicode="&#xc9;" horiz-adv-x="1259" 
d="M612 2311q86 -3 169 -3q139 0 273 8v-67q-177 -92 -535 -271h-146q83 108 239 333zM162 1169q0 406 -16 716q254 -19 512 -19q84 0 253 8.5t253 8.5q38 0 74 -1q-13 -85 -13 -122q0 -56 10 -131q-226 26 -631 32v-583q330 3 618 32q-13 -68 -13 -125q0 -50 16 -133
q-306 24 -623 24v-682l620 32q-11 -83 -11 -167q0 -52 11 -88q-415 10 -634 10q-8 0 -450 -10q24 348 24 767v431z" />
    <glyph glyph-name="Ecircumflex" unicode="&#xca;" horiz-adv-x="1259" 
d="M162 2023q177 132 328 282h202q116 -121 328 -279v-40l-240 -48l-189 208l-189 -208l-240 53v32zM162 1169q0 406 -16 716q254 -19 512 -19q84 0 253 8.5t253 8.5q38 0 74 -1q-13 -85 -13 -122q0 -56 10 -131q-226 26 -631 32v-583q330 3 618 32q-13 -68 -13 -125
q0 -50 16 -133q-306 24 -623 24v-682l620 32q-11 -83 -11 -167q0 -52 11 -88q-415 10 -634 10q-8 0 -450 -10q24 348 24 767v431z" />
    <glyph glyph-name="Edieresis" unicode="&#xcb;" horiz-adv-x="1259" 
d="M269 2329q73 0 131 -56.5t58 -129.5q0 -79 -55.5 -138t-133.5 -59q-79 0 -135.5 56.5t-56.5 135.5q0 80 56 135.5t136 55.5zM791 2151q0 72 61 126q58 51 132 51q76 0 133 -65q54 -62 54 -139q0 -73 -57 -126t-130 -53q-69 0 -129 48q-64 51 -64 118v40zM186 1169
q0 406 -16 716q254 -19 511 -19q85 0 254 8.5t253 8.5q38 0 74 -1q-14 -85 -14 -122q0 -56 11 -131q-226 26 -631 32v-583q330 3 618 32q-13 -68 -13 -125q0 -50 15 -133q-305 24 -622 24v-682l620 32q-11 -83 -11 -167q0 -52 11 -88q-415 10 -634 10q-8 0 -450 -10
q24 348 24 767v431z" />
    <glyph glyph-name="Igrave" unicode="&#xcc;" horiz-adv-x="735" 
d="M-75 2316h429l250 -327h-157q-172 90 -522 263v64zM410 1870q61 0 224 23q-22 -969 -22 -997q0 -113 24 -931q-126 14 -221 14q-65 0 -242 -16q21 236 21 572v872q0 89 -24 480q111 -17 240 -17z" />
    <glyph glyph-name="Iacute" unicode="&#xcd;" horiz-adv-x="735" 
d="M402 2311q87 -3 170 -3q139 0 269 8v-67q-103 -45 -267 -133q-199 -106 -265 -138h-147q84 108 240 333zM437 1870q61 0 223 23q-22 -969 -22 -997q0 -113 25 -931q-126 14 -221 14q-66 0 -242 -16q21 236 21 572v872q0 89 -24 480q111 -17 240 -17z" />
    <glyph glyph-name="Icircumflex" unicode="&#xce;" horiz-adv-x="735" 
d="M-83 2023q48 35 144 104q39 28 95 87q63 68 92 91h202q124 -124 325 -279v-40l-235 -48l-191 208l-192 -208l-240 53v32zM405 1870q61 0 223 23q-22 -969 -22 -997q0 -113 25 -931q-126 14 -221 14q-65 0 -242 -16q21 236 21 572v872q0 89 -24 480q111 -17 240 -17z" />
    <glyph glyph-name="Idieresis" unicode="&#xcf;" horiz-adv-x="735" 
d="M-197 2167q0 64 64 115q59 47 125 47q76 0 134 -58.5t58 -134.5q0 -74 -58 -132t-131 -58q-69 0 -129 49q-63 52 -63 119v53zM516 2151q0 74 61 126q58 51 133 51q77 0 132 -65q53 -61 53 -139q0 -71 -55.5 -125t-127.5 -54q-91 0 -143.5 57t-52.5 149zM397 1870
q61 0 223 23q-22 -969 -22 -997q0 -113 25 -931q-126 14 -221 14q-65 0 -242 -16q21 236 21 572v872q0 89 -24 480q111 -17 240 -17z" />
    <glyph glyph-name="Ntilde" unicode="&#xd1;" horiz-adv-x="1837" 
d="M686 2319q80 0 229.5 -67t191.5 -67q62 0 99 29q26 21 64 83l104 -58q-66 -128 -123 -184q-83 -80 -200 -80q-84 0 -222 60.5t-207 60.5q-104 0 -156 -99l-96 53q67 134 118 187q79 82 198 82zM128 1409q0 246 -14 470q81 -10 139 -10q64 0 138 13q195 -227 589 -676
q44 -50 242 -292q148 -180 255 -280q11 76 11 223v405q0 140 -29 609q87 -13 133 -13q62 0 154 11q-38 -761 -40 -1901h-266q-198 265 -537 652q-474 540 -554 636q-3 -176 -3 -435q0 -371 32 -856q-88 14 -130 14q-62 0 -157 -11q37 386 37 979v462z" />
    <glyph glyph-name="Ograve" unicode="&#xd2;" horiz-adv-x="2154" 
d="M572 2316h429l253 -327h-157q-173 91 -525 263v64zM2101 926q0 -494 -324 -761q-301 -246 -805 -246q-431 0 -693 276q-258 272 -258 705q0 463 281 737q278 273 742 273q489 0 766 -245q291 -257 291 -739zM1640 936q0 317 -116 532q-145 270 -435 270q-326 0 -481 -275
q-124 -218 -124 -571q0 -327 116 -540q146 -270 446 -270q304 0 464 289q130 234 130 565z" />
    <glyph glyph-name="Oacute" unicode="&#xd3;" horiz-adv-x="2154" 
d="M1025 2311q85 -3 169 -3q139 0 273 8v-67q-108 -43 -270 -130q-213 -115 -265 -141h-147q78 101 240 333zM2101 926q0 -494 -324 -761q-301 -246 -805 -246q-431 0 -693 276q-258 272 -258 705q0 463 281 737q278 273 742 273q489 0 766 -245q291 -257 291 -739z
M1640 936q0 317 -116 532q-145 270 -435 270q-326 0 -481 -275q-124 -218 -124 -571q0 -327 116 -540q146 -270 446 -270q304 0 464 289q130 234 130 565z" />
    <glyph glyph-name="Ocircumflex" unicode="&#xd4;" horiz-adv-x="2154" 
d="M572 2023q180 134 328 282h205q113 -117 322 -279v-40l-234 -48l-192 208l-189 -208l-240 53v32zM2101 926q0 -494 -324 -761q-301 -246 -805 -246q-431 0 -693 276q-258 272 -258 705q0 463 281 737q278 273 742 273q489 0 766 -245q291 -257 291 -739zM1640 936
q0 317 -116 532q-145 270 -435 270q-326 0 -481 -275q-124 -218 -124 -571q0 -327 116 -540q146 -270 446 -270q304 0 464 289q130 234 130 565z" />
    <glyph glyph-name="Otilde" unicode="&#xd5;" horiz-adv-x="2154" 
d="M829 2319q83 0 230.5 -67t189.5 -67q63 0 100 29q27 21 65 83l101 -58q-29 -107 -120 -184q-94 -80 -202 -80q-88 0 -224.5 60.5t-202.5 60.5q-44 0 -91 -29.5t-65 -69.5l-99 53q62 128 120 186q82 83 198 83zM2101 926q0 -494 -324 -761q-301 -246 -805 -246
q-431 0 -693 276q-258 272 -258 705q0 463 281 737q278 273 742 273q489 0 766 -245q291 -257 291 -739zM1640 936q0 317 -116 532q-145 270 -435 270q-326 0 -481 -275q-124 -218 -124 -571q0 -327 116 -540q146 -270 446 -270q304 0 464 289q130 234 130 565z" />
    <glyph glyph-name="Odieresis" unicode="&#xd6;" horiz-adv-x="2154" 
d="M2101 926q0 -494 -324 -761q-301 -246 -805 -246q-431 0 -693 276q-258 272 -258 705q0 463 281 737q278 273 742 273q489 0 766 -245q291 -257 291 -739zM1640 936q0 317 -116 532q-145 270 -435 270q-326 0 -481 -275q-124 -218 -124 -571q0 -327 116 -540
q146 -270 446 -270q304 0 464 289q130 234 130 565zM208 2042q0 74 60.5 129.5t134.5 55.5q73 0 128 -57.5t55 -130.5q0 -69 -61 -127.5t-130 -58.5q-76 0 -131.5 56t-55.5 133zM1722 2226q71 0 125 -56t54 -127q0 -72 -61 -130t-133 -58q-69 0 -122.5 55t-53.5 124
q0 85 52.5 138.5t138.5 53.5z" />
    <glyph glyph-name="Oslash" unicode="&#xd8;" horiz-adv-x="2154" 
d="M264 200q-143 163 -203 334q-57 163 -57 387q0 458 286 727q279 263 740 263q326 0 695 -181l309 360q60 -63 149 -139q-210 -185 -341 -330q123 -99 196 -306q64 -183 64 -362q0 -462 -288 -747.5t-749 -285.5q-376 0 -668 173l-301 -370q-42 68 -155 147zM1507 1499
q-123 146 -197 190q-97 57 -266 57q-320 0 -465 -318q-108 -234 -108 -597q0 -91 53 -349zM1040 90q338 0 488 315q112 234 112 615q0 130 -67 319l-971 -1020q95 -121 189 -173q103 -56 249 -56z" />
    <glyph glyph-name="Ugrave" unicode="&#xd9;" horiz-adv-x="1837" 
d="M431 2316h429l250 -327h-157q-172 90 -522 263v64zM277 1863q158 0 274 14q-19 -430 -19 -951q0 -335 67 -505q104 -266 384 -266q310 0 425 258q76 172 76 528q0 519 -31 930q85 -16 144 -16q70 0 168 11l-32 -1208q-9 -335 -236 -536q-219 -194 -557 -194
q-327 0 -544 138q-248 159 -284 466q-18 153 -18 402q0 75 2 226t2 227q0 115 -21 492q121 -16 200 -16z" />
    <glyph glyph-name="Uacute" unicode="&#xda;" horiz-adv-x="1837" 
d="M884 2311q86 -4 170 -4q138 0 269 9v-67q-109 -42 -270 -130q-216 -117 -265 -141h-146q137 178 242 333zM277 1863q158 0 274 14q-19 -430 -19 -951q0 -335 67 -505q104 -266 384 -266q310 0 425 258q76 172 76 528q0 519 -31 930q85 -16 144 -16q70 0 168 11l-32 -1208
q-9 -335 -236 -536q-219 -194 -557 -194q-327 0 -544 138q-248 159 -284 466q-18 153 -18 402q0 75 2 226t2 227q0 115 -21 492q121 -16 200 -16z" />
    <glyph glyph-name="Ucircumflex" unicode="&#xdb;" horiz-adv-x="1837" 
d="M429 2023q195 149 330 282h202q125 -124 325 -279v-40l-235 -48l-191 208l-192 -208l-239 53v32zM277 1863q158 0 274 14q-19 -430 -19 -951q0 -335 67 -505q104 -266 384 -266q310 0 425 258q76 172 76 528q0 519 -31 930q85 -16 144 -16q70 0 168 11l-32 -1208
q-9 -335 -236 -536q-219 -194 -557 -194q-327 0 -544 138q-248 159 -284 466q-18 153 -18 402q0 75 2 226t2 227q0 115 -21 492q121 -16 200 -16z" />
    <glyph glyph-name="Udieresis" unicode="&#xdc;" horiz-adv-x="1837" 
d="M277 1863q158 0 274 14q-19 -430 -19 -951q0 -335 67 -505q104 -266 384 -266q310 0 425 258q76 172 76 528q0 519 -31 930q85 -16 144 -16q70 0 168 11l-32 -1208q-9 -335 -236 -536q-219 -194 -557 -194q-327 0 -544 138q-248 159 -284 466q-18 153 -18 402q0 75 2 226
t2 227q0 115 -21 492q121 -16 200 -16zM759 2217q68 0 117 -59.5t49 -129.5q0 -81 -53 -138t-133 -57q-79 0 -132 65q-49 61 -49 142q0 80 61 131q57 46 140 46zM1075 2036q0 78 57 132.5t134 54.5q76 0 129.5 -60t53.5 -137q0 -74 -56 -132t-129 -58q-85 0 -138 59
q-51 56 -51 141z" />
    <glyph glyph-name="germandbls" unicode="&#xdf;" horiz-adv-x="1520" 
d="M114 1403q0 324 185 500q181 171 507 171q178 0 307 -91q143 -103 143 -274q0 -109 -72 -211q-8 -11 -135 -154q-72 -82 -72 -141q0 -71 136 -172q208 -153 252 -200q136 -140 136 -309q0 -213 -188 -407.5t-400 -194.5q-130 0 -282 56q59 151 72 290h50
q112 -171 247 -171q89 0 147.5 49.5t58.5 137.5q0 125 -140 241l-260 196q-141 124 -141 268q0 110 180.5 330.5t180.5 353.5q0 103 -61 179q-65 83 -165 83q-197 0 -257 -230q-21 -80 -35 -388q-5 -120 -5 -193v-731q0 -179 11 -434q-161 19 -283 19q-69 0 -138 -5
q21 358 21 1432z" />
    <glyph glyph-name="agrave" unicode="&#xe0;" horiz-adv-x="1206" 
d="M176 1962h399l178 -535h-127q-224 251 -450 479v56zM700 857q0 119 -64 200q-69 88 -186 88q-136 0 -277 -141l-35 146q196 192 497 192q144 0 249 -59q226 -127 226 -455q0 -83 -9.5 -252.5t-9.5 -255.5q0 -103 33 -153q39 -57 138 -71v-85q-160 -68 -251 -68
q-97 0 -164 47q-18 14 -123 119q-107 -105 -155 -133q-78 -45 -199 -45q-153 0 -254 115q-97 110 -97 265q0 186 120 279q76 58 290 121q88 39 268 106q3 15 3 40zM412 362q0 -200 152 -200q147 0 147 277q0 20 -6 245q-162 -65 -210 -107q-83 -73 -83 -215z" />
    <glyph glyph-name="aacute" unicode="&#xe1;" horiz-adv-x="1206" 
d="M567 1951h378v-64q-158 -151 -463 -463h-133q5 12 218 527zM700 857q0 119 -64 200q-69 88 -186 88q-136 0 -277 -141l-35 146q196 192 497 192q144 0 249 -59q226 -127 226 -455q0 -83 -9.5 -252.5t-9.5 -255.5q0 -103 33 -153q39 -57 138 -71v-85q-160 -68 -251 -68
q-97 0 -164 47q-18 14 -123 119q-107 -105 -155 -133q-78 -45 -199 -45q-153 0 -254 115q-97 110 -97 265q0 186 120 279q76 58 290 121q88 39 268 106q3 15 3 40zM412 362q0 -200 152 -200q147 0 147 277q0 20 -6 245q-162 -65 -210 -107q-83 -73 -83 -215z" />
    <glyph glyph-name="acircumflex" unicode="&#xe2;" horiz-adv-x="1206" 
d="M96 1528q161 147 394 429h160q152 -213 362 -429v-37l-219 -62l-242 336l-237 -343l-218 77v29zM700 857q0 119 -64 200q-69 88 -186 88q-136 0 -277 -141l-35 146q196 192 497 192q144 0 249 -59q226 -127 226 -455q0 -83 -9.5 -252.5t-9.5 -255.5q0 -103 33 -153
q39 -57 138 -71v-85q-160 -68 -251 -68q-97 0 -164 47q-18 14 -123 119q-107 -105 -155 -133q-78 -45 -199 -45q-153 0 -254 115q-97 110 -97 265q0 186 120 279q76 58 290 121q88 39 268 106q3 15 3 40zM412 362q0 -200 152 -200q147 0 147 277q0 20 -6 245
q-162 -65 -210 -107q-83 -73 -83 -215z" />
    <glyph glyph-name="atilde" unicode="&#xe3;" horiz-adv-x="1206" 
d="M383 1893q70 0 200 -56t197 -56q47 0 92 36t62 81l99 -48q-54 -136 -115 -196q-79 -77 -208 -77q-73 0 -201.5 52t-197.5 52q-105 0 -167 -113l-91 61q131 264 330 264zM700 857q0 119 -64 200q-69 88 -186 88q-136 0 -277 -141l-35 146q196 192 497 192q144 0 249 -59
q226 -127 226 -455q0 -83 -9.5 -252.5t-9.5 -255.5q0 -103 33 -153q39 -57 138 -71v-85q-160 -68 -251 -68q-97 0 -164 47q-18 14 -123 119q-107 -105 -155 -133q-78 -45 -199 -45q-153 0 -254 115q-97 110 -97 265q0 186 120 279q76 58 290 121q88 39 268 106q3 15 3 40z
M412 362q0 -200 152 -200q147 0 147 277q0 20 -6 245q-162 -65 -210 -107q-83 -73 -83 -215z" />
    <glyph glyph-name="adieresis" unicode="&#xe4;" horiz-adv-x="1206" 
d="M703 857q0 124 -64 202q-68 83 -189 83q-135 0 -274 -144l-35 155q202 188 493 188q264 0 377 -148q99 -129 99 -399q0 -68 -8 -202.5t-8 -201.5q0 -284 168 -294v-83q-127 -72 -244 -72q-164 0 -289 165q-137 -178 -364 -178q-149 0 -248 118q-93 111 -93 263
q0 177 117 276q81 69 268 127q232 73 291 103q3 16 3 42zM419 379q0 -219 147 -219q150 0 150 303q0 13 -5 221q-185 -86 -206 -101q-86 -67 -86 -204zM357 1948q70 0 121.5 -53.5t51.5 -124.5q0 -76 -51.5 -131t-127.5 -55q-85 0 -138.5 55t-53.5 142q0 69 65 120
q61 47 133 47zM764 1773q0 73 64 124q60 48 135 48q71 0 121 -53.5t50 -124.5q0 -77 -54 -128.5t-132 -51.5t-131 54t-53 132z" />
    <glyph glyph-name="aring" unicode="&#xe5;" horiz-adv-x="1206" 
d="M695 862q0 123 -66 201q-70 82 -191 82t-265 -147l-43 157q220 188 497 188q143 0 251 -63q131 -76 177 -174q39 -83 39 -246v-543q0 -109 25 -153q35 -60 135 -66v-87q-156 -67 -240 -67q-168 0 -290 162q-168 -174 -341 -174q-164 0 -266 111q-100 107 -100 273
q0 190 128 282q65 47 297 123q117 39 250 99q3 16 3 42zM409 363q0 -75 28 -130q34 -71 101 -71q163 0 163 270q0 126 -9 252q-165 -70 -207 -107q-76 -69 -76 -214zM618 2020q133 0 227 -79q98 -83 98 -215q0 -126 -94 -208q-90 -78 -218 -78q-131 0 -222 82
q-94 84 -94 214q0 121 91 204q89 80 212 80zM466 1738q0 -69 47 -125q50 -59 119 -59q59 0 107.5 47.5t48.5 107.5q0 78 -39 134q-45 63 -119 63q-71 0 -117.5 -48.5t-46.5 -119.5z" />
    <glyph glyph-name="ae" unicode="&#xe6;" horiz-adv-x="1943" 
d="M708 852q0 123 -90 209.5t-214 86.5q-81 0 -171 -41t-140 -103l-8 165q202 170 447 170q141 0 229 -49q93 -69 187 -137q102 103 188 142q93 42 232 42q249 0 403 -172q149 -167 149 -418q0 -34 -6 -124q-170 13 -439 13q-81 0 -397 -21q33 -237 114 -350
q105 -145 323 -145q131 0 311 117l37 -24l-71 -184q-275 -104 -421 -104q-170 0 -322 73q-159 75 -253 210q-158 -270 -456 -270q-173 0 -290 101q-122 105 -122 275q0 201 179 304q98 57 356 117q46 10 245 77v40zM332 352q0 -190 175 -190q104 0 157 98q41 78 41 193v103
l-2 102q-371 -65 -371 -306zM1520 777q0 8 2 31q1 19 1 31q0 351 -192 351q-127 0 -196 -151q-54 -117 -54 -262h439z" />
    <glyph glyph-name="ccedilla" unicode="&#xe7;" horiz-adv-x="1206" 
d="M1203 886h-80q-55 276 -255 276q-191 0 -289 -167q-80 -137 -80 -342q0 -230 94 -373q110 -168 328 -168q61 0 148 38q82 37 132 82l61 -35l-75 -178q-173 -99 -391 -99q-106 0 -201 21l-36 -125q69 11 114 11q93 0 162.5 -69.5t69.5 -162.5q0 -102 -90 -172
q-84 -65 -189 -65q-116 0 -272 59l35 138q95 -66 165 -66q138 0 138 122q0 37 -37 64t-75 27q-60 0 -127 -24l-24 50q45 100 90 234q-225 75 -345 263q-113 177 -113 422q0 316 211 510q204 188 523 188q296 0 533 -168q-67 -111 -125 -291z" />
    <glyph glyph-name="egrave" unicode="&#xe8;" horiz-adv-x="1312" 
d="M226 1962h400l178 -535h-128q-212 242 -450 479v56zM905 626q-69 0 -413 -11q5 -209 88 -336q100 -152 297 -152t369 129l45 -56q-34 -66 -69 -155q-193 -120 -439 -120q-339 0 -533 186q-197 189 -197 527q0 328 172 514q177 193 502 193q279 0 442 -165t163 -444
q0 -65 -6 -124q-221 14 -421 14zM663 769q99 0 253 8q2 23 2 59q0 131 -39 228q-55 132 -166 132q-123 0 -185 -157q-45 -114 -46 -262q108 -8 181 -8z" />
    <glyph glyph-name="eacute" unicode="&#xe9;" horiz-adv-x="1312" 
d="M615 1951h381v-64l-466 -463h-131q136 297 216 527zM905 626q-69 0 -413 -11q5 -209 88 -336q100 -152 297 -152t369 129l45 -56q-34 -66 -69 -155q-193 -120 -439 -120q-339 0 -533 186q-197 189 -197 527q0 328 172 514q177 193 502 193q279 0 442 -165t163 -444
q0 -65 -6 -124q-221 14 -421 14zM663 769q99 0 253 8q2 23 2 59q0 131 -39 228q-55 132 -166 132q-123 0 -185 -157q-45 -114 -46 -262q108 -8 181 -8z" />
    <glyph glyph-name="ecircumflex" unicode="&#xea;" horiz-adv-x="1312" 
d="M146 1528q133 110 392 429h162q167 -235 362 -429v-37l-221 -62l-242 336l-237 -343l-216 77v29zM905 626q-69 0 -413 -11q5 -209 88 -336q100 -152 297 -152t369 129l45 -56q-34 -66 -69 -155q-193 -120 -439 -120q-339 0 -533 186q-197 189 -197 527q0 328 172 514
q177 193 502 193q279 0 442 -165t163 -444q0 -65 -6 -124q-221 14 -421 14zM663 769q99 0 253 8q2 23 2 59q0 131 -39 228q-55 132 -166 132q-123 0 -185 -157q-45 -114 -46 -262q108 -8 181 -8z" />
    <glyph glyph-name="edieresis" unicode="&#xeb;" horiz-adv-x="1312" 
d="M314 1938q64 0 120 -57.5t56 -122.5q0 -80 -63 -135t-145 -55q-65 0 -115 55t-50 121q0 78 59.5 136t137.5 58zM721 1760q0 57 53 113.5t110 56.5h37q69 0 121 -56q49 -55 49 -125q0 -74 -57 -127.5t-132 -53.5q-78 0 -129.5 56.5t-51.5 135.5zM905 626q-69 0 -413 -11
q5 -209 88 -336q100 -152 297 -152t369 129l45 -56q-34 -66 -69 -155q-193 -120 -439 -120q-339 0 -533 186q-197 189 -197 527q0 328 172 514q177 193 502 193q279 0 442 -165t163 -444q0 -65 -6 -124q-221 14 -421 14zM663 769q99 0 253 8q2 23 2 59q0 131 -39 228
q-55 132 -166 132q-123 0 -185 -157q-45 -114 -46 -262q108 -8 181 -8z" />
    <glyph glyph-name="igrave" unicode="&#xec;" horiz-adv-x="681" 
d="M-51 1962h400l178 -535h-128q-224 251 -450 479v56zM397 1299q45 0 202 21q-21 -522 -21 -529v-294q0 -101 7 -264q10 -212 11 -265q-154 11 -237 11q-98 0 -199 -11q27 379 27 628q0 323 -30 722q131 -19 240 -19z" />
    <glyph glyph-name="iacute" unicode="&#xed;" horiz-adv-x="681" 
d="M365 1951h380v-64q-157 -152 -465 -463h-134q125 248 219 527zM421 1299q44 0 202 21q-21 -522 -21 -529v-294q0 -101 7 -264q10 -212 11 -265q-154 11 -237 11q-98 0 -199 -11q27 379 27 628q0 323 -30 722q131 -19 240 -19z" />
    <glyph glyph-name="icircumflex" unicode="&#xee;" horiz-adv-x="681" 
d="M-138 1528q163 149 391 429h160q9 -11 40 -59q74 -115 322 -370v-37l-219 -62l-242 336l-237 -343l-215 77v29zM386 1299q45 0 202 21q-21 -522 -21 -529v-294q0 -101 8 -264q9 -212 11 -265q-154 11 -237 11q-98 0 -200 -11q28 379 28 628q0 323 -31 722
q131 -19 240 -19z" />
    <glyph glyph-name="idieresis" unicode="&#xef;" horiz-adv-x="681" 
d="M27 1938q70 0 123 -58t53 -129q0 -78 -66 -132q-62 -51 -142 -51q-63 0 -114 56.5t-51 119.5q0 76 60 135t137 59zM437 1760q0 73 61 123q57 47 133 47q73 0 123 -53.5t50 -127.5q0 -73 -57.5 -127t-131.5 -54q-77 0 -127.5 56.5t-50.5 135.5zM386 1299q45 0 202 21
q-21 -522 -21 -529v-294q0 -101 8 -264q9 -212 11 -265q-154 11 -237 11q-98 0 -200 -11q28 379 28 628q0 323 -31 722q131 -19 240 -19z" />
    <glyph glyph-name="ntilde" unicode="&#xf1;" horiz-adv-x="1467" 
d="M522 1893q70 0 197 -56t197 -56q95 0 154 117l96 -48q-24 -116 -114 -194.5t-207 -78.5q-74 0 -202.5 52t-196.5 52q-107 0 -169 -113l-91 61q130 264 336 264zM128 635q0 280 -19 675q161 -20 246 -20q36 0 164 12v-200q59 105 186 165q116 56 245 56q205 0 312 -125
q101 -117 101 -325l1 -572q0 -158 -4 -333q-100 13 -210 13q-50 0 -210 -21q35 341 35 720q0 390 -223 390q-242 0 -242 -534v-343q0 -135 14 -236q-39 1 -119.5 10t-122.5 9q-55 0 -186 -13q32 278 32 672z" />
    <glyph glyph-name="ograve" unicode="&#xf2;" horiz-adv-x="1520" 
d="M327 1962h402l179 -535h-128q-236 269 -453 479v56zM785 1350q304 0 501 -170q208 -179 208 -477q0 -347 -198 -555q-202 -212 -546 -212q-336 0 -520 175q-187 178 -187 512q0 338 203 533q200 194 539 194zM763 73q165 0 241 223q53 154 53 361q0 203 -47 345
q-69 212 -228 212q-165 0 -244 -216q-56 -154 -56 -356q0 -569 281 -569z" />
    <glyph glyph-name="oacute" unicode="&#xf3;" horiz-adv-x="1520" 
d="M719 1951h378v-64q-157 -152 -463 -463h-134q74 150 219 527zM785 1350q304 0 501 -170q208 -179 208 -477q0 -347 -198 -555q-202 -212 -546 -212q-336 0 -520 175q-187 178 -187 512q0 338 203 533q200 194 539 194zM763 73q165 0 241 223q53 154 53 361q0 203 -47 345
q-69 212 -228 212q-165 0 -244 -216q-56 -154 -56 -356q0 -569 281 -569z" />
    <glyph glyph-name="ocircumflex" unicode="&#xf4;" horiz-adv-x="1520" 
d="M250 1528q133 110 392 429h162q150 -214 359 -429v-37l-218 -62l-242 336l-237 -343l-216 77v29zM785 1350q304 0 501 -170q208 -179 208 -477q0 -347 -198 -555q-202 -212 -546 -212q-336 0 -520 175q-187 178 -187 512q0 338 203 533q200 194 539 194zM763 73
q165 0 241 223q53 154 53 361q0 203 -47 345q-69 212 -228 212q-165 0 -244 -216q-56 -154 -56 -356q0 -569 281 -569z" />
    <glyph glyph-name="otilde" unicode="&#xf5;" horiz-adv-x="1520" 
d="M541 1893q69 0 196.5 -56t196.5 -56q95 0 155 117l96 -48q-53 -136 -114 -196q-78 -77 -208 -77q-72 0 -200.5 52t-197.5 52q-105 0 -167 -113l-93 61q65 129 128 187q85 77 208 77zM785 1350q304 0 501 -170q208 -179 208 -477q0 -347 -198 -555q-202 -212 -546 -212
q-336 0 -520 175q-187 178 -187 512q0 338 203 533q200 194 539 194zM763 73q165 0 241 223q53 154 53 361q0 203 -47 345q-69 212 -228 212q-165 0 -244 -216q-56 -154 -56 -356q0 -569 281 -569z" />
    <glyph glyph-name="odieresis" unicode="&#xf6;" horiz-adv-x="1520" 
d="M764 1353q325 0 520 -167q207 -178 207 -497q0 -359 -210 -558q-206 -196 -566 -196q-313 0 -494 189q-178 185 -178 499q0 329 196.5 529.5t524.5 200.5zM1052 658q0 553 -283 553q-167 0 -239 -234q-48 -154 -48 -373q0 -193 49 -331q71 -199 228 -199q168 0 243 222
q50 150 50 362zM269 1781q0 65 56 116.5t122 51.5q86 0 140.5 -51t54.5 -137q0 -72 -60.5 -124.5t-134.5 -52.5q-82 0 -131 58q-47 55 -47 139zM873 1773q0 76 56 124q53 47 130 47q81 0 132.5 -55.5t51.5 -136.5q0 -68 -64 -119q-61 -47 -130 -47q-77 0 -126.5 55
t-49.5 132z" />
    <glyph glyph-name="divide" unicode="&#xf7;" 
d="M-19 751h1358v-141h-1358v141zM647 1177q59 0 101.5 -42.5t42.5 -101.5t-42.5 -101.5t-101.5 -42.5t-101.5 42.5t-42.5 101.5t42.5 101.5t101.5 42.5zM647 474q59 0 101.5 -44t42.5 -103q0 -58 -42.5 -100.5t-101.5 -42.5t-101.5 42.5t-42.5 100.5q0 59 42.5 103
t101.5 44z" />
    <glyph glyph-name="oslash" unicode="&#xf8;" horiz-adv-x="1520" 
d="M242 101q-110 149 -145 230q-48 111 -48 267q0 345 184 544q191 205 533 205q206 0 384 -85q75 95 200 287l135 -114q-38 -34 -226 -258q213 -153 213 -501q0 -335 -206 -537.5t-542 -202.5q-188 0 -362 80q-115 -139 -216 -282l-138 109q106 93 234 258zM977 1046
q-76 165 -216 165q-153 0 -226 -237q-51 -164 -51 -365q0 -93 8 -191zM753 75q161 0 232 226q48 151 48 359q0 94 -11 221l-487 -636q86 -170 218 -170z" />
    <glyph glyph-name="ugrave" unicode="&#xf9;" horiz-adv-x="1467" 
d="M311 1962h397l178 -535h-127q-177 198 -448 479v56zM299 1290q68 0 217 17v-876q0 -255 203 -255q237 0 237 399v274q0 8 -11 450q146 -12 216 -12q67 0 197 20q-16 -460 -16 -760q0 -321 16 -587q-130 16 -256 16q-71 0 -144 -5v162q-100 -108 -180 -151
q-96 -50 -229 -50q-432 0 -432 489v353q0 299 -13 533q117 -17 195 -17z" />
    <glyph glyph-name="uacute" unicode="&#xfa;" horiz-adv-x="1467" 
d="M700 1951h381v-64q-302 -291 -466 -463h-131q75 175 216 527zM299 1290q68 0 217 17v-876q0 -255 203 -255q237 0 237 399v274q0 8 -11 450q146 -12 216 -12q67 0 197 20q-16 -460 -16 -760q0 -321 16 -587q-130 16 -256 16q-71 0 -144 -5v162q-100 -108 -180 -151
q-96 -50 -229 -50q-432 0 -432 489v353q0 299 -13 533q117 -17 195 -17z" />
    <glyph glyph-name="ucircumflex" unicode="&#xfb;" horiz-adv-x="1467" 
d="M232 1528q141 126 391 429h160q159 -220 362 -429v-37l-219 -62l-242 336l-237 -343l-215 77v29zM299 1290q68 0 217 17v-876q0 -255 203 -255q237 0 237 399v274q0 8 -11 450q146 -12 216 -12q67 0 197 20q-16 -460 -16 -760q0 -321 16 -587q-130 16 -256 16
q-71 0 -144 -5v162q-100 -108 -180 -151q-96 -50 -229 -50q-432 0 -432 489v353q0 299 -13 533q117 -17 195 -17z" />
    <glyph glyph-name="udieresis" unicode="&#xfc;" horiz-adv-x="1467" 
d="M317 1304q76 0 202 22l-11 -895q0 -97 53 -167q59 -78 152 -78q243 0 243 362q0 13 -11 767q132 -11 210 -11q85 0 203 14l-11 -820q0 -289 11 -522q-241 11 -213 11q-3 0 -189 -11v170q-91 -107 -173 -151q-94 -51 -224 -51q-439 0 -439 479l1 350q0 152 -17 545
q125 -14 213 -14zM242 1768q0 72 53.5 126.5t125.5 54.5q85 0 139.5 -52.5t54.5 -136.5q0 -74 -61 -125q-57 -49 -132 -49t-127.5 53t-52.5 129zM1039 1945q74 0 126 -53t52 -127t-54 -129t-127 -55q-74 0 -131.5 55.5t-57.5 128.5t59.5 126.5t132.5 53.5z" />
    <glyph glyph-name="ydieresis" unicode="&#xff;" horiz-adv-x="1206" 
d="M253 1938q73 0 126 -61q50 -58 50 -132q0 -75 -66 -128q-63 -49 -139 -49q-64 0 -116 56t-52 120q0 75 60.5 134.5t136.5 59.5zM663 1760q0 73 63 123q59 47 134 47q70 0 121.5 -55t51.5 -126q0 -74 -58.5 -127.5t-132.5 -53.5q-77 0 -128 57t-51 135zM173 1285
q60 0 232 22q119 -368 303 -876l304 873q88 -11 161 -11q53 0 105 6q-250 -519 -668 -1560q-62 -163 -195 -487q-89 8 -112 8q-88 0 -159 -16l343 668q-343 895 -551 1384q149 -11 237 -11z" />
    <glyph glyph-name="dotlessi" unicode="&#x131;" horiz-adv-x="681" 
d="M386 1299q45 0 202 21q-21 -522 -21 -529v-294q0 -101 8 -264q9 -212 11 -265q-154 11 -237 11q-98 0 -200 -11q28 379 28 628q0 323 -31 722q131 -19 240 -19z" />
    <glyph glyph-name="OE" unicode="&#x152;" horiz-adv-x="2675" 
d="M1579 1879q514 -24 822 -24q160 0 248 11q-9 -63 -9 -128t9 -130q-253 31 -652 40q-19 -203 -19 -578q60 3 141 3v0q129 1 259 1q148 4 257 20q-16 -74 -16 -152q0 -56 8 -111q-318 32 -618 32l-28 -1q-8 -251 -8 -431q0 -8 5 -261q339 0 652 40q-5 -128 0 -258
q-289 19 -546 19q-103 0 -269 -7q-213 -8 -268 -9l8 226q-108 -122 -290 -192q-170 -66 -344 -66q-113 0 -229 34q-698 209 -698 951q0 440 274.5 721.5t713.5 281.5q200 0 329 -58q90 -40 278 -184zM998 113q302 0 454 295q120 232 120 565q0 291 -116 498
q-143 255 -412 255q-290 0 -445 -263q-128 -218 -128 -529t109 -534q140 -287 418 -287z" />
    <glyph glyph-name="oe" unicode="&#x153;" horiz-adv-x="2311" 
d="M1710 1339q270 0 437 -143q177 -151 177 -416q0 -99 -8 -173q-289 5 -301 5h-301q-18 0 -263 -5q6 -224 110 -352q115 -142 333 -142q186 0 342 132l40 -43q-26 -62 -83 -186q-218 -107 -425 -107q-171 0 -299 64q-106 52 -244 184q-167 -240 -526 -240q-308 0 -506 200
t-198 509q0 318 211 522q208 202 529 202q317 0 519 -232q103 118 201 167q106 54 255 54zM738 74q303 0 303 577q0 548 -304 548q-169 0 -249 -212q-57 -151 -57 -356q0 -212 54 -353q77 -204 253 -204zM1597 764q177 0 325 16q3 23 3 59q0 132 -46 226q-60 122 -178 122
q-143 0 -213 -142q-53 -109 -53 -270q83 -11 162 -11z" />
    <glyph glyph-name="Ydieresis" unicode="&#x178;" horiz-adv-x="1467" 
d="M319 2329q77 0 133.5 -57.5t56.5 -135.5q0 -76 -56.5 -133t-133.5 -57t-134 57.5t-57 134.5q0 79 56 135t135 56zM1032 2328q78 0 135.5 -62t57.5 -141q0 -73 -57 -126.5t-130 -53.5q-80 0 -138 53.5t-58 132.5q0 81 54.5 139t135.5 58zM197 1871q67 0 269 16
q157 -369 407 -814q88 156 205 398q192 399 194 403q87 -13 169 -13q62 0 124 8q-149 -246 -583 -1052q0 -38 -1 -128q-1 -84 -1 -127q0 -340 24 -599q-188 21 -245 21q-104 0 -251 -13q41 374 46 790q-103 200 -311 563q-219 383 -312 561q156 -14 266 -14z" />
    <glyph glyph-name="circumflex" unicode="&#x2c6;" horiz-adv-x="0" 
d="M-455 1528q136 116 394 429h159q153 -213 363 -429v-37l-219 -62l-242 336l-237 -343l-218 77v29z" />
    <glyph glyph-name="caron" unicode="&#x2c7;" horiz-adv-x="0" 
d="M-450 1893l218 58l237 -333l240 336l218 -67v-34q-94 -88 -386 -431h-160q-128 189 -367 428v43z" />
    <glyph glyph-name="tilde" unicode="&#x2dc;" horiz-adv-x="0" 
d="M-161 1893q69 0 195.5 -56t194.5 -56q98 0 157 117l96 -48q-56 -138 -114 -196q-78 -77 -208 -77q-72 0 -201 52t-199 52q-86 0 -167 -113l-91 61q130 264 337 264z" />
    <glyph glyph-name="summation" unicode="&#x3a3;" horiz-adv-x="1776" 
d="M1549 1512h-50q-55 186 -128.5 240.5t-268.5 54.5h-679l706 -923l-759 -876h958q157 0 232 74q53 53 117 219h59q-78 -320 -112 -581q-162 30 -197 30q-4 0 -1448 -8l899 1027l-894 1172q481 -16 1549 -16z" />
    <glyph glyph-name="Omega" unicode="&#x3a9;" horiz-adv-x="1911" 
d="M785 0h-761v418h40q26 -157 170 -157h408l-6 72q-263 76 -407 249q-153 182 -153 448q0 345 259 553q240 193 594 193q355 0 596 -192q260 -208 260 -554q0 -534 -560 -697l-6 -72h407q145 0 171 157h40v-418h-762l40 391q204 90 292 259q77 148 77 386q0 293 -128 464
q-144 193 -427 193q-280 0 -424 -193q-129 -171 -129 -461q0 -239 77 -388q89 -170 292 -260z" />
    <glyph glyph-name="pi" unicode="&#x3c0;" 
d="M527 1033q-27 -328 -42 -455q-29 -256 -75 -450q-43 -180 -172 -180q-56 0 -96.5 41.5t-40.5 98.5q0 53 90 160q94 112 104 194l75 591h-120q-80 0 -135 -48q-31 -27 -91 -115h-43q71 188 121 257q92 127 239 127h961v-221h-325q-32 -301 -32 -607q0 -87 40 -154
q47 -78 129 -78q80 0 116 61q23 38 40 134h53q-4 -158 -75 -283q-86 -150 -231 -150q-142 0 -206 178q-44 123 -44 299q0 120 53 600h-293z" />
    <glyph glyph-name="endash" unicode="&#x2013;" 
d="M11 799q0 64 -11 162q501 -21 628 -21q363 0 684 16q-18 -107 -18 -218q0 -59 5 -123q-378 27 -498 27q-62 0 -186 2t-187 2q-262 0 -436 -31q19 120 19 184z" />
    <glyph glyph-name="emdash" unicode="&#x2014;" horiz-adv-x="1680" 
d="M-101 926h1791v-279h-1791v279z" />
    <glyph glyph-name="quoteleft" unicode="&#x2018;" horiz-adv-x="580" 
d="M535 1853l91 -27l-181 -689q-58 -219 -215 -219q-61 0 -104 47t-43 108q0 77 82 205z" />
    <glyph glyph-name="quoteright" unicode="&#x2019;" horiz-adv-x="580" 
d="M366 1893q64 0 111 -47t47 -110q0 -92 -171 -375q-121 -188 -241 -376l-101 32l143 599q67 277 212 277z" />
    <glyph glyph-name="quotesinglbase" unicode="&#x201a;" horiz-adv-x="538" 
d="M354 415q64 0 104 -44.5t40 -108.5q0 -89 -93 -233l-360 -551l-85 32l176 666q63 239 218 239z" />
    <glyph glyph-name="quotedblleft" unicode="&#x201c;" horiz-adv-x="1153" 
d="M532 1861l102 -43l-200 -695q-48 -167 -191 -167q-68 0 -112 43t-44 110q0 80 83 206zM1067 1853l88 -40l-157 -618q-63 -248 -230 -248q-66 0 -106 49q-37 45 -37 111q0 76 86 205z" />
    <glyph glyph-name="quotedblright" unicode="&#x201d;" horiz-adv-x="1153" 
d="M411 1896q56 0 98.5 -46t42.5 -103q0 -73 -78 -192l-370 -565l-93 48l173 650q55 208 227 208zM929 1887q68 0 114 -45.5t46 -113.5q0 -70 -88 -203l-362 -543l-96 48l186 660q56 197 200 197z" />
    <glyph glyph-name="quotedblbase" unicode="&#x201e;" horiz-adv-x="1153" 
d="M340 389q64 0 104.5 -45.5t40.5 -110.5q0 -73 -83 -201l-357 -551l-96 40l160 607q34 129 68 179q56 82 163 82zM861 381q164 0 164 -160q0 -68 -83 -192l-367 -551l-93 38l189 692q47 173 190 173z" />
    <glyph glyph-name="dagger" unicode="&#x2020;" horiz-adv-x="1259" 
d="M322 1278h147q-3 248 -35 593q181 -13 224 -13q39 0 189 13q-24 -272 -30 -583q160 -3 181 -3q142 0 269 19q-3 -80 -3 -141q0 -101 8 -183q-137 10 -460 18v-466q0 -64 24 -580q-72 11 -193 11q-74 0 -212 -16q32 483 32 1051h-170q-9 0 -290 -16q8 143 8 160
q0 92 -14 168q197 -32 325 -32z" />
    <glyph glyph-name="bullet" unicode="&#x2022;" horiz-adv-x="886" 
d="M791 940q0 -147 -97.5 -246.5t-243.5 -99.5q-144 0 -249 101t-105 245q0 142 105.5 244t248.5 102q142 0 241.5 -102t99.5 -244z" />
    <glyph glyph-name="ellipsis" unicode="&#x2026;" horiz-adv-x="2662" 
d="M583 0h-277v282h277v-282zM1469 0h-276v282h276v-282zM2356 0h-277v282h277v-282z" />
    <glyph glyph-name="guilsinglleft" unicode="&#x2039;" horiz-adv-x="886" 
d="M652 287l-418 328v245l418 327v-234l-279 -216l279 -215v-235z" />
    <glyph glyph-name="guilsinglright" unicode="&#x203a;" horiz-adv-x="886" 
d="M234 522l280 215l-280 216v234l418 -327v-245l-418 -328v235z" />
    <glyph glyph-name="trademark" unicode="&#x2122;" horiz-adv-x="2220" 
d="M801 1738l8 -250l-48 -3l1 22q2 114 -98 151q-51 19 -195 22v-804q0 -73 127 -72v-48h-412v48q133 -1 133 72v804q-152 -4 -206 -26q-96 -41 -90 -169l-48 3l8 250h820zM1177 1738l343 -745l325 745h287v-48l-23 1q-102 0 -102 -65v-750q0 -72 128 -72v-48h-413v48
q133 0 133 72v716l-346 -836h-48l-372 793v-673q0 -72 133 -72v-48h-333v48q131 0 131 72v724q0 66 -40 82q-20 9 -96 8v48h293z" />
    <glyph glyph-name="partialdiff" unicode="&#x2202;" horiz-adv-x="1230" 
d="M128 1850q167 75 341 75q333 0 522 -301q162 -257 162 -610q0 -381 -133 -678q-173 -389 -504 -389q-208 0 -348.5 149t-140.5 358t135 389q146 195 349 195q131 0 225 -45q60 -29 190 -131q27 138 27 299q0 262 -93 432q-117 213 -358 213q-81 0 -273 -84zM626 937
q-179 0 -287 -196q-89 -163 -89 -358q0 -360 233 -360q328 0 422 749q-81 92 -119 119q-66 46 -160 46z" />
    <glyph glyph-name="Delta" unicode="&#x2206;" horiz-adv-x="1525" 
d="M1520 0h-1555l826 1776zM136 128h1062l-501 1206z" />
    <glyph glyph-name="product" unicode="&#x220f;" horiz-adv-x="2050" 
d="M1754 8q0 -123 67 -171q55 -40 183 -39v-59h-790v59q127 -1 182 40q65 47 65 170v1789h-923v-1789q0 -123 66 -171q56 -40 184 -39v-59h-793v59q129 -1 184 39q66 47 66 171v1616q0 257 -245 255v59h1997v-59q-243 2 -243 -255v-1616z" />
    <glyph glyph-name="fraction" unicode="&#x2215;" horiz-adv-x="317" 
d="M450 1858h186q-87 -174 -476 -1086l-172 -394q-95 -230 -134 -407h-195q158 306 373 846q147 344 418 1041z" />
    <glyph glyph-name="periodcentered" unicode="&#x2219;" horiz-adv-x="429" 
d="M245 993q83 0 142.5 -64.5t59.5 -148.5t-64 -147t-149 -63q-86 0 -145.5 64t-59.5 151t64.5 147.5t151.5 60.5z" />
    <glyph glyph-name="radical" unicode="&#x221a;" 
d="M-19 1161l376 186l508 -1041l330 2061l91 -11l-389 -2454l-628 1296l-248 -123z" />
    <glyph glyph-name="infinity" unicode="&#x221e;" horiz-adv-x="1776" 
d="M1355 1044q148 0 256 -105t108 -252q0 -144 -102 -254q-105 -112 -247 -112q-149 0 -280 86q-24 17 -228 189q-179 -159 -227 -190q-130 -86 -280 -86q-142 0 -247 114q-102 111 -102 255q0 145 109.5 250t255.5 105q127 0 268 -93q74 -49 223 -184q151 136 225 184
q140 93 268 93zM370 910q-96 0 -164 -72t-68 -170q0 -92 75 -159q72 -63 166 -63q112 0 221 76q49 35 177 159q-129 111 -187 150q-121 79 -220 79zM1347 446q94 0 168 64.5t74 157.5q0 97 -68 169.5t-165 72.5q-98 0 -220 -80q-54 -35 -188 -149q132 -125 178 -158
q110 -77 221 -77z" />
    <glyph glyph-name="integral" unicode="&#x222b;" horiz-adv-x="681" 
d="M138 -276q-59 0 -106.5 48.5t-47.5 106.5q0 43 35.5 77.5t77.5 34.5q37 0 80 -41.5t58 -41.5q69 0 69 253q0 134 -8 400t-8 399l-1 586q0 819 267 819q69 0 120 -38q56 -42 56 -109q0 -49 -43 -81q-39 -30 -89 -30q-38 0 -74 31t-57 31q-47 0 -47 -80q0 -139 24.5 -415
t24.5 -415q0 -47 1 -141t1 -141q0 -1015 -168 -1190q-60 -63 -165 -63z" />
    <glyph glyph-name="approxequal" unicode="&#x2248;" 
d="M1315 956q-122 -205 -363 -205q-103 0 -297.5 71t-298.5 71q-87 0 -148 -43q-40 -29 -107 -113l-109 72q152 203 369 203q103 0 295.5 -67.5t292.5 -67.5q178 0 270 140zM1315 564q-121 -203 -359 -203q-104 0 -300 70.5t-301 70.5q-87 0 -147 -42q-35 -25 -107 -111
l-109 69q153 204 373 204q102 0 292.5 -68t290.5 -68q76 0 154 40t117 102z" />
    <glyph glyph-name="notequal" unicode="&#x2260;" 
d="M1118 1344l-194 -351h426v-141h-503l-203 -360h706v-141h-783l-232 -415l-127 72l191 343h-404v141h484l200 360h-684v141h764l234 426z" />
    <glyph glyph-name="lessequal" unicode="&#x2264;" 
d="M29 141h1283v-141h-1283v141zM29 1057l1283 593v-159l-1118 -514l1118 -514v-162l-1283 596v160z" />
    <glyph glyph-name="greaterequal" unicode="&#x2265;" 
d="M1312 0h-1283v141h1283v-141zM1312 897l-1283 -596v162l1118 514l-1118 514v159l1283 -593v-160z" />
    <glyph glyph-name="lozenge" unicode="&#x25ca;" horiz-adv-x="1230" 
d="M508 0l-503 974l503 951h155l500 -951l-500 -974h-155zM586 1784l-424 -810l424 -836l423 836z" />
    <glyph glyph-name="apple" unicode="&#xf000;" horiz-adv-x="1685" 
d="M660 1863v-159h-761v159h761zM1629 1531v-171h-1730v171h1730zM1629 1190v-170h-1730v170h1730zM1629 847v-171h-1730v171h1730zM1629 170v-170h-1730v170h1730zM1629 1863v-159h-761v159h761zM660 506v-160h-761v160h761zM1629 506v-160h-761v160h761z" />
    <glyph glyph-name="Caron" horiz-adv-x="0" 
d="M-184 2305q90 -88 189 -202l189 202l240 -48v-37q-205 -138 -325 -282h-207q-130 153 -323 274l-8 51z" />
    <glyph glyph-name="Dieresis" horiz-adv-x="0" 
d="M-346 2329q78 0 135 -60t57 -139q0 -72 -59.5 -128t-132.5 -56q-77 0 -134.5 57.5t-57.5 134.5q0 79 56.5 135t135.5 56zM178 2151q0 75 62 127q58 50 134 50t131 -65q52 -62 52 -140q0 -71 -56 -124.5t-128 -53.5q-70 0 -130 47q-65 50 -65 119v40z" />
    <glyph glyph-name="Tilde" horiz-adv-x="0" 
d="M-170 2319q79 0 228.5 -67t190.5 -67q62 0 99 29q27 21 65 83l103 -58q-65 -128 -122 -184q-83 -80 -200 -80q-89 0 -226 60.5t-203 60.5q-45 0 -91.5 -29.5t-64.5 -69.5l-96 53q31 110 116 187q91 82 201 82z" />
    <glyph glyph-name="Circumflex" horiz-adv-x="0" 
d="M-429 2023q110 95 331 282h202q143 -143 325 -279v-40l-235 -48l-191 208l-192 -208l-240 53v32z" />
    <glyph glyph-name="Acute" horiz-adv-x="0" 
d="M27 2311q84 -3 166 -3q138 0 273 8v-67q-109 -42 -270 -130q-216 -117 -265 -141h-147q80 112 243 333z" />
    <glyph glyph-name="Grave" horiz-adv-x="0" 
d="M-426 2316h426l253 -327h-157q-173 90 -522 263v64z" />
    <glyph glyph-name="onefitted" horiz-adv-x="1376" 
d="M1090 1863l59 -18q-33 -290 -33 -807l1 -673q0 -106 19 -408q-182 15 -234 15q-39 0 -110 -7q-75 -7 -109 -8q32 592 32 856v281q0 55 -8 426q-132 -79 -407 -216l-173 171q472 133 963 388z" />
    </font>
</defs>
</svg>
