<?xml version="1.0" standalone="no"?>
<!DOCTYPE svg PUBLIC "-//W3C//DTD SVG 1.1//EN" "http://www.w3.org/Graphics/SVG/1.1/DTD/svg11.dtd" >
<svg xmlns="http://www.w3.org/2000/svg" xmlns:xlink="http://www.w3.org/1999/xlink" version="1.1">
<metadata>
Created by FontForge 20161013 at Sat Dec  4 18:47:28 2010
 By ,,,
Copyright (c) 1995, 2002 Adobe Systems Incorporated.  All Rights Reserved.(c) 1995, 2002 Heidelberger Druckmaschinen AG. All rights reserved.
</metadata>
<defs>
<font id="OptimaLTStd-DemiBold" horiz-adv-x="259" >
  <font-face 
    font-family="Optima LT Std"
    font-weight="600"
    font-stretch="normal"
    units-per-em="1000"
    panose-1="2 11 6 2 5 5 8 2 3 4"
    ascent="733"
    descent="-267"
    x-height="479"
    cap-height="686"
    bbox="-140 -264 1002 919"
    underline-thickness="50"
    underline-position="-150"
    unicode-range="U+0020-FB02"
  />
<missing-glyph horiz-adv-x="500" 
d="M50 95l170 255l-170 255v-510zM420 50l-170 255l-170 -255h340zM450 95v510l-170 -255zM420 650h-340l170 -255zM0 700h500v-700h-500v700z" />
    <glyph glyph-name="fi" unicode="fi" horiz-adv-x="556" 
d="M425 572q-27 0 -48 20t-21 49q0 28 20.5 49t48.5 21t49 -21t21 -49q0 -29 -21.5 -49t-48.5 -20zM488 435q-1 -16 -2 -39.5t-2 -48.5t-1.5 -47.5t-0.5 -35.5q0 -17 0.5 -42.5t1 -52t1 -50.5t0.5 -37q0 -5 0.5 -16.5t1.5 -24.5t1.5 -25t0.5 -16q-14 2 -27.5 4t-30.5 2
t-34 -2l-34 -4l5 108q2 38 2.5 67t0.5 57q0 27 -0.5 59t-2 65.5t-3 65.5t-4.5 58l30 -4t37 -2q23 0 36.5 2t25.5 4zM317 634q-20 14 -42.5 17t-31.5 3q-7 0 -18.5 -1.5t-22 -7.5t-18.5 -19t-8 -36q0 -10 3 -25.5t7.5 -32.5t9.5 -33t8 -27h27.5h17.5t12 0.5t12 0.5l37 3
q-2 -6 -3 -12.5t-1 -14.5q0 -9 1 -15.5t3 -11.5q-6 1 -12.5 1.5t-17.5 1t-28.5 0.5h-45.5v-55v-30t0.5 -57.5t1.5 -74t2 -79.5t2.5 -73.5t3.5 -55.5q-14 2 -31.5 4t-31.5 2q-17 0 -34.5 -2t-30.5 -4q2 12 3 20.5t2 19t1.5 25t0.5 36.5q1 59 2 99.5t1 76.5v40.5t-0.5 44
t-1 38.5t-0.5 25h-32q-15 0 -24.5 -1t-18.5 -2q3 13 3 27q0 5 -1 12t-2 15q18 -2 23.5 -2.5t9 -0.5t11.5 -0.5t32 -0.5q3 27 5.5 48t7 40t12 37.5t19.5 40.5q4 8 15.5 26t31 36.5t47.5 32.5t66 14q4 0 8.5 -0.5t21.5 -3.5q-4 -11 -6 -25t-2 -25v-28t1 -25z" />
    <glyph glyph-name="fl" unicode="fl" horiz-adv-x="556" 
d="M317 634q-20 14 -42.5 17t-31.5 3q-7 0 -18.5 -1.5t-22 -7.5t-18.5 -19t-8 -36q0 -10 3 -25.5t7.5 -32.5t9.5 -33t8 -27h27.5h17.5t12 0.5t12 0.5l37 3q-2 -6 -3 -12.5t-1 -14.5q0 -9 1 -15.5t3 -11.5q-6 1 -12.5 1.5t-17.5 1t-28.5 0.5h-45.5v-55v-30t0.5 -57.5t1.5 -74
t2 -79.5t2.5 -73.5t3.5 -55.5q-14 2 -31.5 4t-31.5 2q-17 0 -34.5 -2t-30.5 -4q2 12 3 20.5t2 19t1.5 25t0.5 36.5q1 59 2 99.5t1 76.5v40.5t-0.5 44t-1 38.5t-0.5 25h-32q-15 0 -24.5 -1t-18.5 -2q3 13 3 27q0 5 -1 12t-2 15q18 -2 23.5 -2.5t9 -0.5t11.5 -0.5t32 -0.5
q3 27 5.5 48t7 40t12 37.5t19.5 40.5q4 8 15.5 26t31 36.5t47.5 32.5t66 14q4 0 8.5 -0.5t21.5 -3.5q-4 -11 -6 -25t-2 -25v-28t1 -25zM360 741q37 -6 69 -6q16 0 32.5 2t31.5 4q-4 -41 -6 -89t-3 -97t-1 -96v-86v-26.5v-54v-71.5t1 -78.5t3 -77t5 -65.5l-30 4t-31 2
q-13 0 -28 -1.5t-41 -4.5q3 19 4.5 54.5t3 77.5t2 86.5t0.5 82.5v64.5v32.5q0 70 -1 121t-2.5 91t-3.5 71t-5 60z" />
    <glyph glyph-name=".notdef" horiz-adv-x="500" 
d="M50 95l170 255l-170 255v-510zM420 50l-170 255l-170 -255h340zM450 95v510l-170 -255zM420 650h-340l170 -255zM0 700h500v-700h-500v700z" />
    <glyph glyph-name=".null" horiz-adv-x="0" 
 />
    <glyph glyph-name="nonmarkingreturn" horiz-adv-x="260" 
 />
    <glyph glyph-name="space" unicode=" " horiz-adv-x="260" 
 />
    <glyph glyph-name="exclam" unicode="!" horiz-adv-x="278" 
d="M68 68q0 29 20.5 50t50.5 21q29 0 50 -21t21 -50t-21 -50t-50 -21q-30 0 -50.5 21t-20.5 50zM148 192h-21l-46 329q-4 26 -6 45t-2 46q0 25 8 40.5t19 23.5t22 10.5t18 2.5q31 0 48.5 -21.5t17.5 -50.5q0 -14 -0.5 -26.5t-2 -24.5t-3.5 -25t-4 -29z" />
    <glyph glyph-name="quotedbl" unicode="&#x22;" horiz-adv-x="444" 
d="M365 710l-34 -309h-45l-26 309h105zM184 710l-34 -309h-45l-26 309h105z" />
    <glyph glyph-name="numbersign" unicode="#" horiz-adv-x="519" 
d="M334 0h-75l37 200h-123l-37 -200h-75l37 200h-100v70h113l24 133h-105v70h118l35 195h75l-35 -195h123l35 195h75l-35 -195h100v-70h-113l-24 -133h105v-70h-118zM309 270l24 133h-123l-24 -133h123z" />
    <glyph glyph-name="dollar" unicode="$" horiz-adv-x="519" 
d="M278 44q39 14 59.5 46.5t20.5 69.5q0 48 -24 73t-56 40v-229zM231 641q-42 -11 -60.5 -40t-18.5 -59q0 -22 4.5 -38t14.5 -28t24.5 -22t35.5 -19v206zM231 293q-21 9 -43 17.5t-42.5 19t-39 24.5t-31.5 34q-17 26 -23 53t-6 50q0 27 8 59t28.5 61t56.5 51t92 29v65h47
v-62h1q27 0 48 -3t40.5 -8t38 -13t40.5 -17q-5 -11 -8.5 -18.5t-6.5 -17t-7 -23t-10 -36.5h-14q-11 40 -43 62.5t-79 25.5v-231q19 -7 39 -14.5t39.5 -16.5t37.5 -20.5t32 -26.5q25 -27 37.5 -62t12.5 -70q0 -45 -16 -82.5t-43 -65.5t-63 -45t-76 -21v-98h-47v93h-10
q-49 0 -95.5 14t-90.5 37q6 19 9.5 32t5.5 25t4 25t4 31h14q18 -41 38 -64.5t40 -34.5t39.5 -13.5t36.5 -2.5h5v258z" />
    <glyph glyph-name="percent" unicode="%" horiz-adv-x="870" 
d="M659 696l-400 -717h-48l400 717h48zM577 152q0 -58 16.5 -93.5t60.5 -35.5q25 0 39 16t21 38.5t8.5 46.5t1.5 41q0 10 -1 31t-8 42.5t-21 37.5t-39 16q-27 0 -42.5 -13t-23.5 -33.5t-10 -45.5t-2 -48zM653 325q78 0 120 -43.5t42 -120.5q0 -45 -15 -77.5t-38.5 -53.5
t-51.5 -30.5t-54 -9.5q-35 0 -65.5 10t-54 30.5t-37 51.5t-13.5 72q0 33 9.5 64t29.5 54.5t52 38t76 14.5zM146 508q0 -58 16.5 -93.5t60.5 -35.5q25 0 39 16t21 38.5t8.5 46.5t1.5 41q0 10 -1 31t-8 42.5t-21 37.5t-39 16q-27 0 -42.5 -13t-23.5 -33.5t-10 -45.5t-2 -48z
M222 681q78 0 120 -43.5t42 -120.5q0 -45 -15 -77.5t-38.5 -53.5t-51.5 -30.5t-54 -9.5q-35 0 -65.5 10t-54 30.5t-37 51.5t-13.5 72q0 33 9.5 64t29.5 54.5t52 38t76 14.5z" />
    <glyph glyph-name="ampersand" unicode="&#x26;" horiz-adv-x="722" 
d="M259 552q0 -16 7 -34t17.5 -36t22.5 -35t22 -30q12 9 27 21.5t28.5 29t22.5 37.5t9 46q0 7 -2.5 21.5t-10.5 28t-23 24t-40 10.5q-35 0 -57.5 -24.5t-22.5 -58.5zM310 51q24 0 44 6t35.5 15t27.5 18.5t19 15.5q-35 40 -57 65.5t-40.5 47.5t-38 47t-49.5 65
q-10 -7 -24.5 -18.5t-28 -28.5t-23 -40.5t-9.5 -53.5q0 -34 13.5 -60t34.5 -43.5t46.5 -26.5t49.5 -9zM676 330q-16 -28 -28.5 -48t-26.5 -38.5t-31.5 -39t-42.5 -49.5q47 -50 81.5 -87t55.5 -54v-14q-6 0 -19.5 1t-28.5 2t-28.5 2t-18.5 1q-18 0 -33 -1t-31 -3l-60 70
q-17 -13 -38.5 -28t-48 -28t-58.5 -21.5t-70 -8.5q-17 0 -48 3.5t-68 25.5q-8 4 -21 15t-26 28.5t-22.5 40.5t-9.5 52q0 41 16 74t41 58.5t56 44.5t61 32q-24 26 -37.5 49.5t-20 43t-8 35.5t-1.5 28q0 31 12 59t34.5 49t54.5 33.5t73 12.5q42 0 69 -11.5t43 -29.5
t22.5 -39.5t6.5 -40.5q0 -42 -34 -84t-93 -77q25 -31 44.5 -55t38 -46.5t39 -45.5t47.5 -53q30 36 48.5 65t28.5 52.5t14 42t7 34.5l9 2z" />
    <glyph glyph-name="quotesingle" unicode="'" 
d="M182 710l-34 -309h-45l-26 309h105z" />
    <glyph glyph-name="parenleft" unicode="(" horiz-adv-x="315" 
d="M287 707q-30 -44 -53.5 -87.5t-39 -90.5t-24 -99.5t-8.5 -113.5q0 -57 5.5 -113t20 -109t38.5 -103.5t62 -96.5l-22 -24q-104 88 -150.5 199.5t-46.5 234.5q0 58 13.5 116t39 112t62 103t81.5 88z" />
    <glyph glyph-name="parenright" unicode=")" horiz-adv-x="315" 
d="M27 -114q30 44 53.5 87.5t39 90.5t24 99t8.5 114q0 57 -5.5 113t-20 109t-39 103t-61.5 97l22 24q104 -88 150.5 -199.5t46.5 -234.5q0 -58 -13.5 -116t-39 -112t-62 -103t-81.5 -88z" />
    <glyph glyph-name="asterisk" unicode="*" horiz-adv-x="407" 
d="M223 542q20 13 32.5 22t23.5 18t24 20t34 29q5 -11 8.5 -18t7 -13.5t7 -14t9.5 -18.5q-31 -10 -65.5 -25t-67.5 -30q21 -11 36.5 -18t29.5 -13.5t29 -12.5t36 -14q-6 -10 -10 -16.5t-7.5 -13t-7 -13.5l-8.5 -17q-15 12 -37 30t-48 37l-26 19q3 -35 4.5 -56.5t3 -35.5
t2.5 -24.5t3 -23.5l-16 2t-16 1t-16 -1l-16 -2q1 8 3 28t4.5 42t4.5 41.5t2 27.5q-14 -10 -23.5 -17t-21 -15t-27 -20t-41.5 -32q-10 20 -15.5 30.5t-17.5 30.5q35 14 55.5 22t33.5 13.5t21.5 10t19.5 10.5q-32 14 -65 30t-67 27q13 20 18.5 30.5t13.5 31.5
q11 -9 26.5 -21.5t32 -25.5t31.5 -24t26 -18q-1 26 -2 44.5t-2.5 34.5t-4 31.5t-5.5 36.5q16 -3 33 -3q15 0 32 3q-2 -12 -3 -24.5t-2 -24.5z" />
    <glyph glyph-name="plus" unicode="+" horiz-adv-x="667" 
d="M366 565v-227h227v-65h-227v-227h-65v227h-227v65h227v227h65z" />
    <glyph glyph-name="comma" unicode="," 
d="M27 -178l-22 10l62 233q3 13 8 26.5t12.5 24t18.5 17.5t27 7q19 0 36 -12.5t17 -38.5q0 -18 -9 -34.5t-17 -29.5z" />
    <glyph glyph-name="hyphen" unicode="-" horiz-adv-x="407" 
d="M67 197q2 13 3.5 28.5t1.5 29.5t-1.5 24t-3.5 22q31 -2 62 -2.5t62 -0.5h37t34 0.5t36 1t42 1.5q-2 -13 -3.5 -26.5t-1.5 -25.5q0 -8 2 -25.5t3 -26.5q-32 0 -70 1.5t-74 1.5h-28.5t-34.5 -0.5t-35.5 -1t-30.5 -1.5z" />
    <glyph glyph-name="period" unicode="." 
d="M59 69q0 29 20.5 50t50.5 21q29 0 50 -21t21 -50t-21 -50t-50 -21q-30 0 -50.5 21t-20.5 50z" />
    <glyph glyph-name="slash" unicode="/" horiz-adv-x="389" 
d="M365 707l-275 -737h-66l275 737h66z" />
    <glyph glyph-name="zero" unicode="0" horiz-adv-x="519" 
d="M262 676q59 0 104.5 -28.5t71.5 -82.5q12 -26 19.5 -57.5t11.5 -63t5.5 -60.5t1.5 -50q0 -165 -56 -256t-162 -91q-58 0 -98.5 22.5t-66.5 66t-38 107t-12 146.5q0 79 9 135t34 103q10 20 25 39.5t36 35t49 25t66 9.5zM259 30q25 0 40.5 14.5t25 35.5t13.5 43.5t6 37.5
q1 12 2.5 32.5t2.5 45t1.5 49.5t0.5 45q0 28 -1 56.5t-2.5 53t-2.5 42.5t-2 24q-3 20 -7.5 42t-13.5 40t-23.5 30t-38.5 12q-36 0 -54 -28.5t-26 -69.5q-4 -23 -6.5 -50t-3.5 -52.5t-1.5 -47t-0.5 -32.5v-51.5t1 -56t3 -55.5t5 -50q3 -19 7.5 -38.5t13 -35.5t23 -26
t38.5 -10z" />
    <glyph glyph-name="one" unicode="1" horiz-adv-x="519" 
d="M60 536q27 10 50 19.5t46 20t48 22.5t56 27q9 4 24 12.5t31 17.5t30 17.5t22 13.5l11 -7q-3 -21 -4.5 -55t-3 -73.5t-2 -82.5t-1 -82.5t-0.5 -72v-52.5q0 -72 1.5 -139.5t5.5 -121.5q-10 1 -28.5 3.5t-35.5 2.5t-37 -2.5t-33 -3.5q2 24 4 43.5t3.5 39.5t2.5 44.5t1.5 59
t0.5 81.5v113v185q-9 -6 -29 -17.5t-43 -25t-44.5 -25t-32.5 -17.5q-11 12 -19 20t-24 27v8z" />
    <glyph glyph-name="two" unicode="2" horiz-adv-x="519" 
d="M30 35q22 20 48.5 45.5t53.5 53t51.5 55.5t43.5 52q15 20 31 44.5t28.5 53.5t20.5 62.5t8 71.5q0 27 -4.5 54t-16.5 49t-32.5 35.5t-51.5 13.5q-22 0 -42.5 -9t-36.5 -28q-20 -23 -25.5 -49t-7.5 -49l-8 -6l-59 59q29 66 77 99t128 33q34 0 71 -8.5t67.5 -29.5t50 -55.5
t19.5 -85.5q0 -30 -5 -56t-17 -51.5t-32 -52.5t-50 -61q-13 -15 -40 -42t-55 -54.5t-51.5 -50t-30.5 -26.5q125 0 198 1t110 6q-5 -25 -5 -58q0 -17 1 -29t3 -22q-44 2 -73 3t-51.5 2t-44 1h-51.5q-66 0 -119 -1.5t-101 -4.5v35z" />
    <glyph glyph-name="three" unicode="3" horiz-adv-x="519" 
d="M84 509q-5 7 -8.5 13t-9 13t-13.5 16.5t-21 24.5q35 55 88 75.5t111 20.5q44 0 80 -9t62 -27.5t40.5 -46t14.5 -64.5q0 -68 -36.5 -106.5t-105.5 -58.5q-4 -1 -4 -4t7 -3q34 -2 65 -11.5t54.5 -28.5t37.5 -49t14 -72q0 -53 -24 -91t-61.5 -63t-84.5 -37t-93 -12
q-15 0 -36 2.5t-45 9t-49 19t-47 33.5q7 11 12 19t9.5 16t9.5 19t13 28h11q1 -8 8.5 -25t23 -34t40 -29.5t59.5 -12.5q56 0 91.5 40t35.5 115q0 25 -6.5 49.5t-21 44t-37.5 31t-56 11.5q-14 0 -27.5 -3t-27.5 -5q2 5 3.5 13.5t1.5 14.5q0 13 -1.5 21.5t-3.5 15.5
q11 -4 18 -5.5t18 -1.5q52 0 83.5 33t31.5 99q0 33 -8 55.5t-22.5 37t-33.5 20.5t-41 6q-19 0 -37 -5t-32.5 -18.5t-25 -36t-14.5 -57.5h-10z" />
    <glyph glyph-name="four" unicode="4" horiz-adv-x="519" 
d="M262 574q17 24 27 38t16.5 23.5t10.5 16.5t9 16q8 -2 20.5 -4t23.5 -2q14 0 24.5 2t19.5 4q-1 -17 -1.5 -47.5t-1.5 -69t-1.5 -81t-1 -82.5t-0.5 -74.5v-56.5h17h15.5t20.5 0.5t32 1.5q-3 -14 -4 -22.5t-1 -23.5q0 -14 1 -21.5t4 -20.5q-23 1 -43.5 2t-41.5 1v-66
t0.5 -42t1.5 -31.5t3 -34.5q-17 2 -30 4t-26 2q-17 0 -34 -2l-34 -4q3 19 4.5 34.5t2.5 34.5t1 43.5v61.5q-57 1 -98.5 1h-79.5q-23 0 -49 -0.5t-45 -1.5v60q0 5 9 17t16 21q18 24 35 49l34 50zM296 542l-200 -285h200v285z" />
    <glyph glyph-name="five" unicode="5" horiz-adv-x="519" 
d="M76 137q10 -24 22 -43t27.5 -31.5t36 -19.5t48.5 -7q25 0 47 11t38.5 31.5t26.5 51t10 69.5q0 31 -7 58.5t-22.5 48.5t-39.5 33t-57 12q-31 0 -55.5 -11.5t-45.5 -24.5l-12 10q3 72 3 143v57t-1 44.5t-3 41.5t-6 48l5 9q56 -4 96.5 -5t79.5 -1t82.5 2t81.5 4
q-2 -11 -3.5 -21.5t-1.5 -29.5q0 -10 1.5 -24.5t3.5 -29.5q-14 2 -38 2h-37h-209q-1 -10 -1.5 -30.5t-0.5 -70.5q0 -21 -0.5 -41t-0.5 -43q22 8 46 14t59 6q44 0 82.5 -11t67 -33.5t44.5 -57t16 -80.5q0 -58 -22.5 -101t-59.5 -71t-84 -41.5t-96 -13.5q-46 0 -89 12t-85 53
q10 17 16.5 27.5t11 19t7.5 16t8 18.5h10z" />
    <glyph glyph-name="six" unicode="6" horiz-adv-x="519" 
d="M331 672q18 0 30.5 -1t26.5 -3q3 -14 5 -21.5t9 -21.5l-5 -3q-8 3 -15.5 4.5t-24.5 1.5q-52 0 -86.5 -26t-56 -66.5t-32.5 -90.5t-15 -98q24 29 54.5 43t71.5 14q38 0 73 -11.5t61.5 -36t42 -62t15.5 -89.5q0 -60 -21 -101.5t-53 -67t-70 -37t-72 -11.5q-64 0 -107.5 24
t-69.5 64.5t-37.5 93t-11.5 109.5q0 87 20.5 159.5t58 124.5t90.5 80.5t119 28.5zM263 30q33 0 52 17t29 42.5t13 55t3 53.5q0 33 -5 62t-16 50t-30 33t-47 12q-29 0 -47 -14.5t-28 -38t-14 -52t-4 -56.5q0 -16 2 -43.5t11 -54.5t28 -46.5t53 -19.5z" />
    <glyph glyph-name="seven" unicode="7" horiz-adv-x="519" 
d="M507 636q-4 -5 -16.5 -25.5t-30 -50.5t-37.5 -65t-38 -67.5t-33 -59t-22 -39.5q-47 -86 -89 -165t-85 -164q-13 2 -25.5 4t-28.5 2q-13 0 -24 -2t-25 -4l-2 7l25 36q15 21 41 61.5t57 91t64.5 105.5t63 105t52.5 89.5t33 58.5h-137h-33t-37 -1t-50 -2t-73 -4q3 19 4 30.5
t1 25.5q0 16 -1.5 32t-3.5 33q28 -3 77.5 -4.5t111 -2.5t129.5 -1h132v-24z" />
    <glyph glyph-name="eight" unicode="8" horiz-adv-x="519" 
d="M190 377q-23 4 -44.5 14.5t-39 27t-28 40.5t-10.5 55q0 41 14.5 70.5t40 49t61 29t76.5 9.5q35 0 69.5 -8t61.5 -27t44 -49t17 -74q0 -58 -34.5 -90t-86.5 -45v-4q83 -22 114.5 -65t31.5 -113q0 -59 -20.5 -99t-52 -64.5t-69.5 -35t-72 -10.5q-50 0 -90.5 12.5t-70 37.5
t-45.5 63t-16 89q0 53 17.5 86.5t41.5 53t49 28.5t41 14v5zM259 628q-26 0 -41 -13.5t-22.5 -32t-9.5 -38t-2 -30.5q0 -16 2.5 -36.5t11 -39t23.5 -31t39 -12.5q12 0 25 4t24 16.5t18.5 35t7.5 58.5q0 11 -1 31t-8.5 39.5t-23 34t-43.5 14.5zM260 352q-30 0 -47.5 -17.5
t-27.5 -42.5t-13 -52.5t-3 -48.5q0 -20 2 -47.5t11 -52.5t27 -42.5t50 -17.5q30 0 48 15.5t27.5 39.5t12.5 52t3 53q0 14 -1.5 41t-10 53.5t-26.5 46.5t-52 20z" />
    <glyph glyph-name="nine" unicode="9" horiz-adv-x="519" 
d="M252 303q36 0 55.5 21t28.5 49t10.5 56t1.5 42q0 19 -3 46.5t-13 53t-29.5 43t-51.5 17.5t-50.5 -19t-28.5 -45t-13 -53.5t-3 -43.5q0 -35 5.5 -65.5t17 -53t29.5 -35.5t44 -13zM252 671q13 0 34 -1.5t45.5 -10.5t49.5 -28t47 -55q16 -26 25 -56t14 -58t6.5 -52t1.5 -38
q0 -27 -3.5 -65.5t-14.5 -81.5t-30 -85t-51 -76t-77.5 -55t-108.5 -21q-9 0 -34 3.5t-54 17.5q-3 12 -4.5 20t-4 15.5t-5.5 16t-7 20.5l12 2q14 -14 41 -30t69 -16q34 0 58.5 16t40.5 41t25.5 56t14.5 61.5t6.5 56t1.5 40.5q-13 -16 -30 -26t-35.5 -16t-36 -8t-30.5 -2
q-6 0 -22 1.5t-36.5 8t-42.5 18.5t-40.5 34t-30.5 55t-12 80q0 101 57.5 159.5t160.5 58.5z" />
    <glyph glyph-name="colon" unicode=":" horiz-adv-x="278" 
d="M68 390q0 29 20.5 50t50.5 21q29 0 50 -21t21 -50t-21 -50t-50 -21q-30 0 -50.5 21t-20.5 50zM68 69q0 29 20.5 50t50.5 21q29 0 50 -21t21 -50t-21 -50t-50 -21q-30 0 -50.5 21t-20.5 50z" />
    <glyph glyph-name="semicolon" unicode=";" horiz-adv-x="278" 
d="M68 390q0 29 20.5 50t50.5 21q29 0 50 -21t21 -50t-21 -50t-50 -21q-30 0 -50.5 21t-20.5 50zM37 -178l-22 10l63 233q13 46 28.5 60.5t37.5 14.5q20 0 36.5 -12.5t16.5 -38.5q0 -17 -6.5 -30.5t-20.5 -33.5z" />
    <glyph glyph-name="less" unicode="&#x3c;" horiz-adv-x="667" 
d="M584 496v-70l-422 -178l422 -178v-70l-501 213v70z" />
    <glyph glyph-name="equal" unicode="=" horiz-adv-x="667" 
d="M593 416v-65h-519v65h519zM593 261v-65h-519v65h519z" />
    <glyph glyph-name="greater" unicode="&#x3e;" horiz-adv-x="667" 
d="M83 0v70l422 178l-422 178v70l501 -213v-70z" />
    <glyph glyph-name="question" unicode="?" horiz-adv-x="370" 
d="M88 69q0 29 20.5 50t50.5 21q29 0 50 -21t21 -50t-21 -50t-50 -21q-30 0 -50.5 21t-20.5 50zM248 206q-17 -7 -26.5 -8.5t-27.5 -1.5q-63 0 -94.5 33t-31.5 81q0 10 1.5 23t9 30t24 39.5t47.5 53.5l35 35q28 28 33 47.5t5 29.5q0 22 -8.5 36.5t-21.5 22.5t-28 11t-27 3
q-26 0 -46 -13t-34 -40h-9l-7 59q20 13 47 25.5t75 12.5q35 0 66 -10.5t53.5 -29t35.5 -43.5t13 -55q0 -27 -7 -49t-19 -41t-29 -37t-36 -38q-25 -26 -39.5 -41.5t-22.5 -26.5t-10.5 -19t-2.5 -18q0 -20 13.5 -33t33.5 -13q13 0 23 4.5t21 9.5l2 -2z" />
    <glyph glyph-name="at" unicode="@" horiz-adv-x="800" 
d="M302 257q0 -37 16.5 -58.5t46.5 -21.5q26 0 45.5 16.5t33.5 45.5q8 16 17 41t16.5 50.5t12.5 49.5t5 39q0 28 -16.5 43t-37.5 15q-29 0 -54.5 -23t-44 -57t-29.5 -72t-11 -68zM684 71q-62 -44 -133 -67.5t-165 -23.5q-66 0 -128.5 20.5t-111 62.5t-78 105.5t-29.5 149.5
q0 83 30.5 152.5t84.5 119.5t127 78t159 28q72 0 131.5 -22t101.5 -60.5t65 -91.5t23 -115q0 -54 -15.5 -102.5t-42.5 -85t-63 -57.5t-77 -21t-66 18.5t-29 60.5q-7 -14 -17.5 -28.5t-25.5 -25.5t-33.5 -18t-42.5 -7q-57 0 -91 36.5t-34 104.5q0 39 16 79.5t43.5 74.5
t64 55.5t78.5 21.5q32 0 58.5 -14.5t34.5 -47.5l15 51h72q-20 -66 -34.5 -113t-23.5 -79.5t-13 -52.5t-4 -32q0 -29 14 -38.5t31 -9.5q27 0 53.5 19t47 50t33.5 72.5t13 86.5q0 57 -20.5 104t-58 81t-89.5 52.5t-115 18.5q-71 0 -131 -28.5t-104.5 -76t-69.5 -109.5
t-25 -130q0 -67 21.5 -122.5t61.5 -95.5t95.5 -62t124.5 -22q71 0 135 22t120 61z" />
    <glyph glyph-name="A" unicode="A" horiz-adv-x="648" 
d="M293 525l-102 -246q26 -1 52 -2.5t52 -1.5q23 0 46 1t46 3zM458 111l-42 106q-32 2 -64 3t-64 1q-30 0 -60 -1t-60 -3q-24 -58 -46 -116t-34 -101q-10 2 -23 4t-25 2q-13 0 -23.5 -2t-21.5 -4l116 258q38 85 68 152.5t52.5 120.5t38 93.5t24.5 71.5q8 -2 16 -3.5t17 -1.5
q14 0 32 5q18 -51 37.5 -102t39 -98t36.5 -88.5t31 -72.5q14 -33 33 -75.5t39 -88t40 -90.5t37 -81q-11 1 -34 3.5t-44 2.5t-40.5 -2.5t-33.5 -3.5z" />
    <glyph glyph-name="B" unicode="B" horiz-adv-x="593" 
d="M211 391q11 -1 21 -1.5t20 -0.5q66 0 101 33.5t35 99.5q0 51 -27 82.5t-79 31.5q-35 0 -69 -3q-1 -20 -1.5 -40.5t-0.5 -40.5v-161zM211 139q0 -12 0.5 -37t1.5 -46q15 -2 27 -4t27 -2q71 0 109 35.5t38 108.5q0 43 -12 71.5t-33.5 46t-52.5 24.5t-69 7q-17 0 -36 -3
v-201zM546 190q0 -28 -7 -50t-17 -38.5t-20 -27t-16 -16.5q-10 -10 -24.5 -20t-35.5 -18.5t-50.5 -14t-70.5 -5.5q-32 0 -63 2.5t-63 2.5q-24 0 -48 -2t-48 -3q4 87 5.5 180.5t1.5 174.5q0 83 -1.5 165.5t-6.5 165.5q19 -2 36 -3t51 -2q8 0 28 1t42 1.5t41.5 1.5t27.5 1
q42 0 79.5 -7t66.5 -25t46 -49t17 -80q0 -35 -15 -62t-39 -46.5t-54 -31.5t-61 -16q41 -4 77 -14t63 -30.5t42.5 -53t15.5 -81.5z" />
    <glyph glyph-name="C" unicode="C" horiz-adv-x="704" 
d="M645 546h-10q-5 9 -15 25t-31 31t-56 26.5t-89 11.5q-126 0 -191 -78t-65 -221q0 -13 1 -36t6.5 -51.5t18 -60t35.5 -61.5q13 -18 30.5 -34t39.5 -29t49.5 -20.5t61.5 -7.5q46 0 81.5 10.5t63 27t48.5 36.5t38 40l11 -7l-11 -99q-114 -63 -253 -63q-73 0 -138 22.5
t-113.5 66t-77 108.5t-28.5 149q0 75 23.5 141t71.5 115t121.5 77.5t173.5 28.5q62 0 118 -11.5t116 -38.5z" />
    <glyph glyph-name="D" unicode="D" horiz-adv-x="778" 
d="M213 197q0 -35 1.5 -69.5t3.5 -69.5q8 0 27 -1t40 -2t40.5 -1.5t28.5 -0.5q16 0 40 5t50.5 17.5t52.5 34t46.5 55.5t33.5 82t13 112q0 48 -13 97t-43.5 88.5t-82.5 64t-130 24.5q-26 0 -51.5 -1.5t-51.5 -3.5q-2 -30 -3.5 -60.5t-1.5 -60.5v-310zM727 363
q0 -106 -39 -183.5t-110 -122.5q-53 -34 -104 -45.5t-113 -11.5q-46 0 -92 2.5t-92 2.5q-23 0 -47 -1.5t-47 -3.5l6 183q0 16 0.5 30.5t0.5 34v47.5v73v94t-2 94q-2 32 -2.5 64.5t-2.5 65.5q20 -2 41 -3.5t41 -1.5q41 0 84.5 2.5t88.5 2.5q32 0 67 -1.5t70.5 -8.5t70.5 -21
t66 -38q58 -45 86.5 -110.5t28.5 -143.5z" />
    <glyph glyph-name="E" unicode="E" horiz-adv-x="500" 
d="M215 389h47.5t59.5 1t60 2.5t49 3.5q-2 -8 -3.5 -16.5t-1.5 -19.5q0 -22 5 -34q-20 2 -39 3l-38 2q-35 1 -69.5 1.5t-69.5 0.5v-271q10 0 36.5 0.5t61 1.5t72 2t69.5 3q-5 -11 -5 -33t5 -36q-90 6 -184 6q-91 0 -187 -6q2 32 3 62.5t2 62.5q1 22 1.5 53.5t1 64t1 62
t0.5 46.5q0 16 -0.5 56t-1.5 89.5t-2.5 100.5t-4.5 89q18 -1 41 -2t47.5 -2t48.5 -1.5t44 -0.5q35 0 82.5 2t101.5 4q-2 -9 -3.5 -16t-1.5 -16q0 -24 5 -37l-94 5q-14 1 -24.5 1.5t-24.5 0.5h-35h-55v-235z" />
    <glyph glyph-name="F" unicode="F" horiz-adv-x="500" 
d="M220 391h69q57 0 93 1.5t67 3.5q-5 -17 -5 -33q0 -8 1.5 -16t3.5 -18l-55 2q-21 1 -35.5 1.5t-32 0.5h-42h-64.5v-134v-61.5v-38.5t0.5 -25t0.5 -22q1 -17 1.5 -26.5t2.5 -25.5q-17 4 -34 5t-38 1t-36 -1.5t-29 -4.5q3 63 5 104t2.5 76.5t1 74.5t0.5 99q0 96 -3 178
t-7 154q13 -1 37.5 -2t52 -2t54.5 -1.5t45 -0.5q48 0 97.5 2t91.5 4q-2 -11 -3.5 -20t-1.5 -18q0 -5 0.5 -13t4.5 -20q-34 2 -64 4t-59 3t-59 1.5t-63 0.5v-233z" />
    <glyph glyph-name="G" unicode="G" horiz-adv-x="778" 
d="M51 332q0 75 23.5 141t71.5 115t121.5 77.5t173.5 28.5q62 0 118 -11.5t116 -38.5l-30 -98h-10q-5 9 -15 25t-31 31t-56 26.5t-89 11.5q-126 0 -191 -78t-65 -221q0 -57 13 -110t48 -99q13 -18 30.5 -34t39.5 -29t49.5 -20.5t61.5 -7.5q35 0 73.5 8t68.5 28q1 26 1.5 42
t1 25t0.5 14v10q0 37 -2 73.5t-4 73.5q17 -2 34 -4.5t37 -2.5q21 0 34 2t29 5q-2 -14 -3.5 -38t-2.5 -49.5t-1.5 -48t-0.5 -32.5q0 -29 0.5 -49.5t2.5 -41.5q-64 -34 -141 -52t-149 -18q-73 0 -138 22.5t-113.5 66t-77 108.5t-28.5 149z" />
    <glyph glyph-name="H" unicode="H" horiz-adv-x="759" 
d="M546 337q-41 2 -81 3t-81 1q-43 0 -85.5 -1t-85.5 -3v-100q0 -48 0.5 -82.5t2 -61t3 -48t3.5 -45.5q-11 1 -29.5 3.5t-39.5 2.5q-18 0 -35.5 -2t-35.5 -4q6 115 7.5 227.5t1.5 227.5q0 59 -2.5 116t-7.5 115q15 -2 37.5 -4t34.5 -2q7 0 17 0.5t20 1.5t18.5 2t13.5 2
q-2 -21 -3.5 -41.5t-3 -51.5t-2 -76.5t-0.5 -115.5q38 -2 75.5 -3t75.5 -1q46 0 91 1t91 3v34.5t-0.5 52t-1 52t-0.5 33.5v20.5t-1 20t-2 28t-2 44.5q14 -2 35 -4t38 -2q14 0 35 2t35 4q-5 -39 -7.5 -99.5t-4 -125.5t-2 -125.5t-0.5 -99.5q0 -60 1 -121t9 -115
q-18 2 -36.5 4t-36.5 2q-16 0 -34 -2t-34 -4q0 7 1.5 30t3 51t2.5 54.5t1 40.5z" />
    <glyph glyph-name="I" unicode="I" horiz-adv-x="315" 
d="M97 455q0 48 -1 103t-9 128q14 -2 37 -4t34 -2q17 0 35 2l36 4q-4 -28 -6.5 -71.5t-3.5 -92.5t-1 -97.5v-86.5q0 -112 2 -194.5t8 -143.5q-17 1 -35 3.5t-35 2.5t-36 -2.5t-36 -3.5q8 90 9.5 208t1.5 247z" />
    <glyph glyph-name="J" unicode="J" horiz-adv-x="315" 
d="M-14 -101q44 5 68 20.5t35.5 44t13.5 72t2 105.5v368q0 40 -2.5 88.5t-5.5 88.5q23 -3 43 -4.5t29 -1.5q12 0 26 1t43 5q0 -9 -1.5 -33t-3 -53t-2.5 -56t-1 -42v-63t-0.5 -90t-0.5 -94v-74v-13t0.5 -19.5t0.5 -20v-15.5q0 -23 -1.5 -52.5t-10 -60.5t-27 -59.5
t-51.5 -48.5q-42 -25 -79 -31.5t-68 -9.5z" />
    <glyph glyph-name="K" unicode="K" horiz-adv-x="648" 
d="M89 455q0 43 -0.5 70t-1 50.5t-2.5 48t-5 62.5q17 -2 35.5 -4t34.5 -2q17 0 35 2t35 4q-3 -18 -4.5 -40t-2 -44t-1 -41.5t-0.5 -32.5q-1 -38 -1 -79v-80q28 24 50 45t42 40.5t39 40t40 43.5q16 18 34 37.5t35 39t32.5 37.5t26.5 34q8 -3 21 -4.5t26 -1.5t28.5 1t38.5 5
q-19 -16 -41 -36t-44 -40.5t-42 -40t-36 -34.5q-19 -18 -32.5 -31.5t-28 -28.5t-33 -34.5t-45.5 -49.5l53 -70l32.5 -42.5t43 -56t49.5 -63t51.5 -62.5t48.5 -55.5t40 -41.5q-35 5 -55 5.5t-34 0.5q-18 0 -40.5 -2t-44.5 -4q-54 75 -114.5 157t-140.5 170q0 -83 1 -165
t8 -162q-13 1 -32.5 3.5t-37.5 2.5q-16 0 -35 -2.5t-35 -3.5q2 42 3.5 73t2.5 59t1.5 56t1 64.5t0.5 85v117.5z" />
    <glyph glyph-name="L" unicode="L" horiz-adv-x="500" 
d="M93 413v28t-0.5 26.5t-1 35t-1.5 53.5q0 8 -0.5 26.5t-1.5 39t-1.5 39t-0.5 25.5q19 -4 34.5 -5t34.5 -1t35 1.5t35 4.5q-3 -57 -4.5 -109.5l-3 -105t-2 -105.5t-0.5 -111q0 -53 1 -100.5t2 -89.5h18h40t64.5 1t70.5 3t57 5q-2 -8 -3.5 -15.5t-1.5 -24.5q0 -11 1 -17.5
t4 -16.5q-19 1 -43.5 2t-50.5 2t-51.5 1.5t-45.5 0.5q-48 0 -92 -1.5t-99 -4.5q0 4 0.5 24t1.5 48.5t1.5 61t1.5 61.5t1.5 50.5t0.5 27.5v140z" />
    <glyph glyph-name="M" unicode="M" horiz-adv-x="907" 
d="M214 623q25 -51 44 -89t39.5 -76.5t45 -83.5t60.5 -109l54 -96l37 65q35 62 62.5 111.5t54.5 100t56 107t67 133.5q10 -3 22 -3q10 0 21 3l8 -83q8 -89 18 -173t22 -175q3 -23 8 -58.5t11 -73t11.5 -71t9.5 -52.5q-18 2 -39.5 4t-32.5 2q-14 0 -29.5 -1.5t-38.5 -4.5
l-3 37q-1 7 -2 25.5t-2.5 38.5t-2.5 38t-2 25q-1 11 -4 34.5t-6 52t-6.5 60t-7 60t-5.5 51t-3 32.5q-25 -43 -57 -100t-65 -118.5t-63.5 -123t-52.5 -112.5q-5 1 -10 1.5t-10 0.5t-9.5 -0.5t-9.5 -1.5q-14 28 -27 52.5t-28 53t-35 66t-48 91.5q-6 11 -20 37t-30 54.5
t-30.5 54t-19.5 35.5q-14 -106 -25.5 -218.5t-16.5 -225.5q-27 6 -46 6q-12 0 -22 -2l-20 -4l6 31q6 31 14.5 83.5t18.5 115.5t19.5 131.5t18.5 131t15.5 113.5t9.5 80q12 -3 23 -3q5 0 11 1t11 2z" />
    <glyph glyph-name="N" unicode="N" horiz-adv-x="759" 
d="M90 405q0 71 -0.5 141t-1.5 140q6 -1 12 -1.5t12 -0.5t11.5 0.5t11.5 1.5q36 -39 71 -77t72 -76t77 -78.5t85 -84.5l118 -116q14 -14 23.5 -22t26.5 -21v222q0 64 -3.5 127.5t-8.5 125.5q9 -2 19 -4t24 -2t23.5 2t18.5 4q-3 -45 -5.5 -83t-3.5 -76.5t-1.5 -81t-0.5 -97.5
v-57t0.5 -72.5t0.5 -71.5v-53v-21t0.5 -27.5t0.5 -28v-22.5q-5 1 -10 1.5t-10 0.5t-10.5 -0.5t-10.5 -1.5q-32 34 -72.5 76.5t-84.5 87.5t-90 91t-89 88t-80 77.5t-63 59.5v-91.5t0.5 -77t1 -71.5t1.5 -75q0 -22 0.5 -36.5t1.5 -30.5t2.5 -37.5t4.5 -55.5q-8 1 -21 3.5
t-24 2.5t-21 -2t-19 -4l8 139q1 10 1.5 27.5t1 37t0.5 37v28.5v136z" />
    <glyph glyph-name="O" unicode="O" horiz-adv-x="852" 
d="M429 694q70 0 136.5 -19.5t118.5 -61.5t83.5 -106.5t31.5 -154.5q0 -84 -27 -151.5t-76 -115t-118 -73.5t-152 -26q-78 0 -146 22.5t-118.5 66t-79.5 107.5t-29 146q0 95 30.5 164t82 114t119.5 66.5t144 21.5zM190 340q0 -56 12.5 -110.5t41 -97t73 -69t109.5 -26.5
q64 0 108.5 27t73 70.5t41.5 97.5t13 108q0 61 -12.5 116t-40 96.5t-72.5 66t-111 24.5q-65 0 -109.5 -28t-73 -72t-41 -98t-12.5 -105z" />
    <glyph glyph-name="P" unicode="P" horiz-adv-x="574" 
d="M218 356q14 -2 26.5 -3t26.5 -1q42 0 69 16t42.5 39t21.5 48.5t6 45.5q0 59 -30 97.5t-92 38.5q-19 0 -36 -1t-34 -3v-277zM218 157q0 -34 0.5 -58t1.5 -42t2.5 -31.5t2.5 -25.5q-17 3 -33.5 4.5t-36.5 1.5t-36 -1.5t-33 -4.5q4 60 5.5 92.5t1.5 51.5l2 245v39.5v47.5
t-0.5 46.5t-1.5 37.5l-5 126q17 -2 39.5 -3.5t60.5 -1.5q8 0 27.5 1t41 1.5t40.5 1.5t27 1q36 0 74 -6t73 -32q29 -21 48.5 -53.5t19.5 -87.5q0 -36 -12 -72t-41.5 -65.5t-78 -48t-120.5 -18.5q-23 0 -37.5 1t-31.5 3v-150z" />
    <glyph glyph-name="Q" unicode="Q" horiz-adv-x="852" 
d="M188 323q0 -41 11 -91t38.5 -93.5t73.5 -72.5t115 -29q56 0 104 26.5t79 74.5t41 104.5t10 119.5q0 54 -13.5 105t-42.5 90t-73.5 62.5t-105.5 23.5q-38 0 -80 -14.5t-77 -51t-57.5 -98.5t-22.5 -156zM457 -13q-8 -1 -16.5 -1h-16.5q-33 0 -68 3.5t-70.5 14t-70.5 30.5
t-68 53q-32 32 -50.5 66t-29 66t-13.5 60.5t-3 48.5q0 95 30.5 164t82 114t119.5 66.5t144 21.5q70 0 136.5 -19.5t118.5 -61.5t83.5 -106.5t31.5 -154.5q0 -128 -60.5 -216.5t-165.5 -125.5l226 -140q-26 -11 -57 -28.5t-54 -33.5z" />
    <glyph glyph-name="R" unicode="R" horiz-adv-x="630" 
d="M410 300q11 -16 26 -37.5t26 -37.5q30 -42 51 -71t39.5 -53.5t36.5 -47.5t42 -53q-21 2 -41.5 4t-47.5 2q-29 0 -44 -1.5t-37 -4.5q-11 17 -26 41.5t-26 41.5q-38 60 -82 123t-85 120h-24v-142q0 -11 0.5 -37.5t1.5 -55.5t1.5 -55t0.5 -36q-15 2 -31.5 4t-35.5 2
q-17 0 -34.5 -2t-34.5 -4q2 49 3.5 85.5t2.5 66t1.5 56t1 56t0.5 65v83.5v80t-1 58t-2 57.5t-4 78.5q17 -2 39.5 -3.5t60.5 -1.5q10 0 33.5 1t50 1.5t49.5 1.5t32 1q49 0 87 -9t70 -40q23 -22 34.5 -51t11.5 -61q0 -42 -14.5 -73.5t-38.5 -54t-55.5 -37t-65.5 -20.5z
M218 373q14 -1 31.5 -2t37.5 -1q37 0 63.5 12.5t42.5 32t23.5 44.5t7.5 49q0 32 -8 58t-34 46q-20 15 -44 20t-49 5q-14 0 -37 -2t-34 -3v-259z" />
    <glyph glyph-name="S" unicode="S" horiz-adv-x="537" 
d="M83 150q17 -38 35 -60.5t37.5 -34.5t40 -16t42.5 -4q30 0 54 9.5t41 26t26.5 39.5t9.5 50q0 30 -10 50.5t-23.5 34t-27.5 20.5t-21 10q-21 9 -51.5 21t-51.5 21q-36 16 -60.5 34t-39 39.5t-20.5 47t-6 56.5q0 33 11 68.5t37.5 64.5t71.5 48t113 19q55 0 92 -12t74 -29
q-8 -18 -12.5 -30t-7.5 -21.5t-5.5 -19.5t-5.5 -24h-14q-11 43 -47 65t-84 22q-59 0 -88.5 -32t-29.5 -76q0 -27 9.5 -45.5t27 -32.5t43.5 -25t59 -24q29 -11 49.5 -19.5t36.5 -16.5t27.5 -16.5t22.5 -20.5q16 -17 25.5 -35.5t14.5 -36.5t7 -34t2 -26q0 -38 -14 -77
t-44.5 -70.5t-78.5 -51.5t-117 -20q-32 0 -60.5 5.5t-52 13.5t-42.5 16.5t-32 15.5q6 19 10 32.5t6 25.5t3.5 24.5t3.5 30.5h14z" />
    <glyph glyph-name="T" unicode="T" horiz-adv-x="556" 
d="M341 137q0 -57 2.5 -86.5t4.5 -50.5q-22 2 -43 4t-30 2q-13 0 -27 -1.5t-41 -4.5q3 57 6.5 114.5t3.5 114.5l-1 279q0 28 -0.5 55t-1.5 56h-50q-3 0 -21 -0.5t-41.5 -1t-49 -2t-44.5 -3.5q5 20 5 37t-5 37q30 -2 64.5 -3t70 -2t69.5 -1h63q63 0 129 1t138 5
q-5 -28 -5 -38q0 -8 1.5 -16t3.5 -20q-45 5 -96 6t-103 1q-1 -27 -1.5 -55t-0.5 -57v-370z" />
    <glyph glyph-name="U" unicode="U" horiz-adv-x="722" 
d="M208 610q-2 -57 -2.5 -125t-0.5 -133q0 -60 1 -98.5t4 -63.5t9 -41t17 -31q22 -29 61 -45t92 -16q61 0 105.5 28.5t61.5 74.5q3 8 5.5 18.5t4 26.5t2.5 37.5t1 52.5q0 98 -1.5 195.5t-7.5 195.5l22 -4t23 -2t24 2t23 4l-3 -48q-2 -32 -3.5 -83.5t-2.5 -107.5t-2 -110
t-2 -92q-1 -44 -7.5 -77t-19.5 -58.5t-31.5 -44t-43.5 -34.5q-35 -23 -81.5 -33t-86.5 -10q-45 0 -92 8.5t-87.5 30t-69.5 59t-37 95.5q-2 11 -2 28.5v24.5v272q0 19 -0.5 42.5t-1 47.5t-1.5 47.5t-2 42.5q17 -2 35 -4t35 -2t33.5 2t31.5 4z" />
    <glyph glyph-name="V" unicode="V" horiz-adv-x="630" 
d="M387 257q2 6 12 31t24.5 62t32 82.5t34.5 91t32 88t25 74.5q17 -3 27.5 -4.5t18.5 -1.5q9 0 20 1.5t28 4.5q-17 -33 -35.5 -73.5t-37.5 -83.5t-37 -85t-33 -76q-38 -91 -74 -182.5t-69 -185.5q-9 2 -16 4t-21 2q-18 0 -26.5 -2t-19.5 -4q-17 48 -28 79.5t-22.5 62t-27 69
t-41.5 100.5q-4 9 -11 27t-16.5 40.5t-19.5 47t-19 46.5t-16 39t-10 25q-4 9 -13 30.5t-19.5 45.5t-20 45t-12.5 29q18 -4 40 -5t41 -1q17 0 36 2l38 4q11 -37 21 -69t23.5 -71t33.5 -92t51 -132q16 -41 34 -80t35 -79z" />
    <glyph glyph-name="W" unicode="W" horiz-adv-x="1000" 
d="M317 178l25 65q2 7 12 34t23.5 66t30 86t31.5 94t28 90t21 73l20 -4t24 -2q15 0 24 2t20 4q0 -1 5 -16t12 -39t16 -53t17.5 -56.5t16 -50.5t11.5 -35q22 -66 45 -131t47 -130q11 28 18.5 48.5t15.5 43.5t19 55t29 85q11 32 20 61.5t18.5 61.5t20 69.5t24.5 86.5
q8 -2 20 -4t26 -2q22 0 45 6q-23 -56 -41 -103t-35.5 -92.5t-34.5 -93.5t-38 -106q-14 -40 -24 -69t-18 -51.5t-14 -40.5t-12 -37t-13.5 -41t-16.5 -52q-11 2 -20 4t-20 2t-23.5 -2.5t-19.5 -3.5q-14 45 -22.5 72.5t-14 45.5t-10 31t-10.5 30q-5 13 -15.5 44t-22 66
t-22 65.5t-14.5 42.5q-8 24 -20.5 57.5t-20.5 57.5l-30 -83q-19 -53 -31 -86.5t-21 -60.5t-18.5 -54.5t-24.5 -70.5q-11 -31 -24 -74.5t-25 -82.5q-13 3 -21.5 4.5t-16.5 1.5t-19 -2l-22 -4l-25 76q-14 41 -26.5 79.5t-26 78t-28 81.5t-31.5 91q-20 57 -46 128t-57 152
q15 -2 37.5 -4t40.5 -2q32 0 70 6q12 -44 29 -100.5t36.5 -117.5t39.5 -121.5t38 -112.5z" />
    <glyph glyph-name="X" unicode="X" horiz-adv-x="611" 
d="M359 375q8 -15 25 -43t38 -63t45.5 -74.5t47.5 -76.5t43 -68t33 -50q-29 2 -48 4t-39 2t-38.5 -2t-38.5 -4l-44 90q-18 37 -31 61.5t-24 43.5t-21 35.5t-22 38.5l-51 -72q-12 -16 -27.5 -41t-32 -52.5t-32.5 -55t-28 -48.5q-16 2 -28.5 4t-23.5 2q-13 0 -24.5 -2
t-22.5 -4l100 138q11 15 24.5 35t24.5 34l86 121q-18 31 -32 55.5l-26 45.5t-24 40.5t-25 40.5l-112 176q11 -2 34.5 -4t46.5 -2q17 0 36 1.5t43 4.5q27 -59 57 -119t76 -134q4 7 15.5 24.5t24.5 37t24 36.5t15 24q20 32 38.5 65.5t38.5 65.5q13 -2 26.5 -4t27.5 -2
q11 0 23.5 2t24.5 4q-21 -27 -36.5 -47.5t-30 -39.5t-28.5 -39t-32 -46t-41 -59.5t-55 -79.5z" />
    <glyph glyph-name="Y" unicode="Y" horiz-adv-x="593" 
d="M357 231q0 -32 0.5 -58.5t1.5 -53.5t2 -55.5t3 -63.5q-17 2 -34.5 4t-34.5 2q-15 0 -34 -2t-33 -4q1 29 2 66.5l2 75t1.5 72t0.5 57.5l-59 102q-19 33 -43.5 74t-50 83t-50.5 82.5t-44 73.5q28 -3 46.5 -4.5t35.5 -1.5q18 0 39 1t43 5q19 -41 37 -78t38 -76t44 -83.5
t56 -100.5q32 55 53 92.5t38.5 72t36 74.5t45.5 99q12 -2 26.5 -4t31.5 -2q15 0 24.5 1.5t17.5 4.5q-6 -10 -20.5 -34t-31 -50.5t-31 -50t-20.5 -32.5q-34 -54 -64 -109.5t-62 -109.5q-5 -9 -9 -17t-4 -15v-37z" />
    <glyph glyph-name="Z" unicode="Z" horiz-adv-x="611" 
d="M8 32q8 12 28.5 40t43.5 59t43 58t28 38q11 17 31 47l44 66t50 76t50 77.5t44.5 70.5t33.5 55q-85 0 -173 -1.5t-181 -9.5q1 9 2 19t1 20q0 12 -0.5 20.5t-2.5 18.5q29 -3 58 -4t61.5 -1.5t69 -0.5h80.5q57 0 98.5 0.5t73 1t54.5 1.5t44 3q1 -5 1.5 -9t0.5 -8
q0 -6 -2.5 -10t-11.5 -17l-51 -71q-14 -20 -31 -44.5t-35 -51t-36.5 -54.5t-35.5 -53l-88 -132q-38 -57 -63 -96.5t-45 -72.5h96q17 0 40.5 0.5t48.5 1t50 2t46 3.5q29 2 57 3.5t57 3.5q-2 -9 -3.5 -18t-1.5 -23q0 -23 5 -40q-11 0 -30.5 1t-52.5 2t-83.5 2t-123.5 1h-88.5
t-69.5 -0.5t-62.5 -2t-68.5 -3.5v32z" />
    <glyph glyph-name="bracketleft" unicode="[" horiz-adv-x="315" 
d="M174 566q-2 -55 -2.5 -110t-0.5 -111v-259q0 -9 0.5 -32t1.5 -48t2 -47t1 -30q27 0 54.5 0.5t54.5 1.5q-2 -5 -3 -10.5t-1 -10.5q0 -6 1 -12.5t3 -11.5q-50 3 -102 3h-25t-28 -0.5t-27.5 -1t-23.5 -1.5q1 28 2.5 59.5t2.5 63t1.5 61.5t0.5 55v375q0 23 -1.5 57t-3 66.5
t-3.5 56.5t-2 27q69 -3 119 -3q25 0 52 1t38 2q-4 -10 -4 -21q0 -7 1 -12.5t3 -12.5q-54 3 -107 3z" />
    <glyph glyph-name="backslash" unicode="\" horiz-adv-x="389" 
d="M90 707l275 -737h-66l-275 737h66z" />
    <glyph glyph-name="bracketright" unicode="]" horiz-adv-x="315" 
d="M229 125q0 -37 0.5 -73.5t1.5 -72.5q1 -21 2.5 -47t2.5 -46q-10 1 -23.5 1.5t-28 1t-28 1t-24.5 0.5q-26 0 -51 -1t-51 -3q3 16 3 24q0 12 -3 21q27 -1 54.5 -1.5t54.5 -0.5q0 9 1 31.5t2 47.5t1.5 47t0.5 31v259q0 56 -0.5 111t-2.5 110l-4 98q-53 0 -107 -3q1 7 2 13.5
t1 12.5t-0.5 10.5t-2.5 9.5q18 -1 40.5 -1.5t49.5 -0.5q26 1 54.5 1t63.5 1q-3 -52 -6 -103.5t-3 -103.5v-375z" />
    <glyph glyph-name="asciicircum" unicode="^" horiz-adv-x="667" 
d="M298 668h72l194 -415h-75l-155 336l-155 -336h-75z" />
    <glyph glyph-name="underscore" unicode="_" horiz-adv-x="500" 
d="M0 -75h500v-50h-500v50z" />
    <glyph glyph-name="grave" unicode="`" 
d="M208 561h-51l-163 101q-6 4 -13.5 12t-7.5 25q0 11 5 18.5t11.5 12.5t14 7.5t13.5 2.5q18 0 29 -8.5t21 -18.5z" />
    <glyph glyph-name="a" unicode="a" horiz-adv-x="500" 
d="M304 248q-43 -11 -72.5 -20t-48 -20.5t-26.5 -28.5t-8 -44q0 -40 18 -63t48 -23q41 0 65 28t24 67v104zM231 273q22 6 35.5 10t21 7t10.5 5.5t5 5.5q4 8 4 20q0 57 -28 81.5t-69 24.5q-29 0 -48.5 -7.5t-32 -19t-19 -23.5t-8.5 -21q-10 2 -15 2q-6 0 -16 -2q2 14 3.5 25
t1.5 24v13.5t-1 13.5q28 17 49.5 28t39 17t34 8.5t36.5 2.5q81 0 131.5 -37t50.5 -113q0 -14 -0.5 -38t-1 -49.5t-1 -48.5t-0.5 -35q0 -37 0.5 -60.5t4 -37t10.5 -19t20 -5.5q8 0 14.5 2.5t13.5 5.5q-2 -5 -3 -9t-1 -9t1 -9t3 -9q-20 -8 -42 -15t-43 -7q-22 0 -36 5
t-23 13.5t-14.5 19.5t-9.5 23q-23 -31 -59 -49.5t-75 -18.5q-44 0 -71 13.5t-42 33t-20 40t-5 35.5q0 42 12 67.5t33.5 41.5t51 26t64.5 19z" />
    <glyph glyph-name="b" unicode="b" horiz-adv-x="593" 
d="M299 34q39 0 62.5 20.5t37 51.5t18 67t4.5 68q0 25 -3 57t-15 60.5t-36 48.5t-66 20q-39 0 -63 -19t-36.5 -48.5t-17 -64t-4.5 -64.5q0 -23 2.5 -57t14.5 -65t36 -53t66 -22zM545 251q0 -51 -15 -98t-44 -84t-71.5 -59t-97.5 -22q-23 0 -44 3t-40.5 10.5t-37.5 21
t-34 35.5q-11 -8 -18.5 -13t-13.5 -11t-13 -13.5t-18 -20.5h-34q2 38 4 71t3.5 72t2 91t0.5 127q0 49 -0.5 88.5t-1.5 81t-3.5 91.5t-6.5 119q15 -3 30.5 -4.5t36.5 -1.5t34.5 2t26.5 4q-2 -28 -3 -49.5t-1.5 -42t-1 -42.5t-1 -50t-1 -65.5t-0.5 -88.5q29 39 65.5 62
t87.5 23q37 0 74.5 -13.5t67.5 -42.5t49 -73.5t19 -107.5z" />
    <glyph glyph-name="c" unicode="c" horiz-adv-x="481" 
d="M462 94q-11 -15 -14 -33.5t-6 -36.5q-42 -22 -80.5 -29t-66.5 -7q-62 0 -108.5 21t-78 55.5t-47 78.5t-15.5 89q0 49 15.5 95t48 82t81.5 57.5t117 21.5q46 0 80 -9t73 -26q-5 -10 -12 -33t-11 -61h-19q0 2 -4.5 15t-16.5 28t-32.5 27.5t-52.5 12.5q-35 0 -63.5 -17.5
t-43.5 -40.5q-19 -28 -25 -62t-6 -73q0 -37 7 -73.5t24 -66t45.5 -47.5t72.5 -18q22 0 38.5 4.5t30.5 12.5t26.5 19t26.5 23z" />
    <glyph glyph-name="d" unicode="d" horiz-adv-x="593" 
d="M288 46q56 0 90 47.5t34 147.5q0 36 -5.5 70t-19 61t-36.5 43.5t-59 16.5q-37 0 -61 -18t-37.5 -45t-18.5 -59t-5 -60q0 -29 4 -64.5t16.5 -66.5t35.5 -52t62 -21zM416 69q-9 -13 -23 -27.5t-33 -27t-43 -20.5t-53 -8q-49 0 -89.5 19t-69 52t-44.5 77.5t-16 95.5
q0 63 17.5 110.5t48 79.5t71.5 48.5t87 16.5q28 0 49 -5.5t37.5 -14.5t30 -21t26.5 -25q0 97 -2 178t-10 144q17 -3 33 -4.5t38 -1.5q31 0 57 6q-5 -90 -8 -179t-3 -179v-30t0.5 -63.5t1.5 -81.5t2 -85.5t3 -74.5t4 -48q-8 2 -23 4t-34 2t-32.5 -2t-25.5 -4z" />
    <glyph glyph-name="e" unicode="e" horiz-adv-x="537" 
d="M378 285q0 18 -1.5 46t-11 53.5t-30 44t-57.5 18.5q-39 0 -60.5 -20t-32.5 -47t-14 -54t-4 -41h211zM165 236q0 -9 0.5 -26.5t5 -38.5t14 -43t27.5 -40t45 -29.5t67 -11.5q17 0 36.5 4.5t39 12.5t37 20t29.5 26l11 -7q-2 -5 -4 -10.5t-4 -10.5l-9 -43q-3 -3 -16 -11.5
t-34.5 -17t-51.5 -15.5t-66 -7q-14 0 -36 2.5t-47.5 9.5t-51 20t-46.5 34q-25 25 -38.5 53t-20 54.5t-7.5 48.5t-1 35q0 62 19.5 107.5t52 75.5t74.5 44.5t86 14.5q14 0 38 -1.5t51 -10t53.5 -27t45.5 -52.5q13 -24 22 -63.5t7 -96.5h-328z" />
    <glyph glyph-name="f" unicode="f" horiz-adv-x="315" 
d="M317 634q-20 14 -42.5 17t-31.5 3q-7 0 -18.5 -1.5t-22 -7.5t-18.5 -19t-8 -36q0 -10 3 -25.5t7.5 -32.5t9.5 -33t8 -27h27.5h17.5t12 0.5t12 0.5l37 3q-2 -6 -3 -12.5t-1 -14.5q0 -9 1 -15.5t3 -11.5q-6 1 -12.5 1.5t-17.5 1t-28.5 0.5h-45.5v-55v-30t0.5 -57.5t1.5 -74
t2 -79.5t2.5 -73.5t3.5 -55.5q-14 2 -31.5 4t-31.5 2q-17 0 -34.5 -2t-30.5 -4q2 12 3 20.5t2 19t1.5 25t0.5 36.5q1 59 2 99.5t1 76.5v40.5t-0.5 44t-1 38.5t-0.5 25h-32q-15 0 -24.5 -1t-18.5 -2q3 13 3 27q0 5 -1 12t-2 15q18 -2 23.5 -2.5t9 -0.5t11.5 -0.5t32 -0.5
q3 27 5.5 48t7 40t12 37.5t19.5 40.5q4 8 15.5 26t31 36.5t47.5 32.5t66 14q4 0 8.5 -0.5t21.5 -3.5q-4 -11 -6 -25t-2 -25v-28t1 -25z" />
    <glyph glyph-name="g" unicode="g" horiz-adv-x="519" 
d="M245 203q35 0 59.5 30.5t24.5 96.5q0 10 -2 29.5t-10.5 39t-25 34t-46.5 14.5q-32 0 -49.5 -14t-25.5 -34.5t-9.5 -42.5t-1.5 -37q0 -22 3 -42.5t12.5 -37t26.5 -26.5t44 -10zM247 -218q27 0 54.5 7t50 21t36.5 36.5t14 54.5q0 31 -14.5 48.5t-36.5 26.5t-48 11t-50 2
q-27 0 -59 -5t-52 -21l-7.5 -7.5t-10.5 -14t-9 -20t-4 -26.5q0 -30 10.5 -51.5t29 -35t43 -20t53.5 -6.5zM396 426q33 -32 40.5 -60.5t7.5 -48.5q0 -22 -7 -46t-25.5 -45t-50.5 -36t-81 -19q-5 0 -18 -0.5t-27 -1t-26.5 -1t-16.5 -1.5q-14 -2 -25.5 -11t-11.5 -31
q0 -16 5.5 -25.5t14.5 -14.5t19.5 -6.5t20.5 -2.5q4 0 25.5 -0.5t46.5 -1t48.5 -1t32.5 -1.5q23 -3 38.5 -7.5t25.5 -9t16 -9.5t10 -9q23 -23 29.5 -46.5t6.5 -43.5q0 -48 -20.5 -87t-55 -66.5t-79.5 -42.5t-94 -15q-45 0 -84.5 8.5t-69 25.5t-47 42.5t-17.5 60.5
q0 34 11 56.5t25 35.5t27.5 18.5t19.5 7.5l24 7q-34 11 -52 33.5t-18 45.5q0 10 2 24t10.5 28.5t26.5 28t51 24.5q-36 13 -58 30t-33.5 35.5t-15.5 37.5t-4 37q0 40 15 70.5t41 51.5t61.5 31.5t76.5 10.5q19 0 35.5 -2t36.5 -5q21 -3 33.5 -5t23 -2.5l21 -1t27.5 -0.5
q16 0 40.5 1t38.5 4q-2 -8 -2.5 -13t-0.5 -13q0 -18 3 -30q-4 0 -12.5 1t-18 2t-18 1.5t-11.5 0.5z" />
    <glyph glyph-name="h" unicode="h" horiz-adv-x="574" 
d="M192 709q-3 -42 -4 -78t-2 -71t-1 -73v-84q32 46 72.5 64t83.5 18q39 0 77 -14.5t62 -52.5q17 -27 20 -57.5t3 -64.5q0 -9 -0.5 -22.5t-0.5 -28.5t-0.5 -30t-0.5 -27q0 -21 0.5 -47t1.5 -52.5t2 -50t2 -38.5q-30 6 -62 6q-17 0 -36.5 -2.5t-30.5 -3.5q2 21 4 46.5t3.5 53
t2.5 55.5t1 54q0 35 -0.5 58t-1 39t-2 26t-3.5 19q-8 31 -31.5 46.5t-54.5 15.5q-28 0 -57.5 -14t-41.5 -51q-3 -9 -5.5 -19t-4 -23t-2 -31t-0.5 -44v-78.5t0.5 -52t1.5 -44.5t3 -56q-15 2 -31 4t-32 2t-34.5 -2.5t-26.5 -3.5q3 51 4.5 88.5t2.5 78.5t1 93v132l-1 195
q0 30 -2.5 72t-4.5 82q30 -6 68 -6q19 0 32.5 1.5t27.5 4.5z" />
    <glyph glyph-name="i" unicode="i" 
d="M128 572q-27 0 -48 20t-21 49q0 28 20.5 49t48.5 21t49 -21t21 -49q0 -29 -21.5 -49t-48.5 -20zM71 108q2 38 2.5 67t0.5 57q0 27 -0.5 59t-2 65.5t-3 65.5t-4.5 58l30 -4t37 -2q23 0 36.5 2t25.5 4l-2 -45q-1 -16 -2 -39.5t-2 -48.5t-1.5 -47.5t-0.5 -35.5
q0 -17 0.5 -42.5t1 -52t1 -50.5t0.5 -37q0 -5 0.5 -16.5t1.5 -24.5t1.5 -25t0.5 -16q-14 2 -27.5 4t-30.5 2t-34 -2l-34 -4z" />
    <glyph glyph-name="j" unicode="j" 
d="M139 572q-27 0 -48.5 20t-21.5 49q0 28 21 49t49 21t48.5 -21t20.5 -49q0 -29 -21 -49t-48 -20zM-20 -225q25 6 44.5 14t32.5 28t19.5 57t6.5 100q0 43 -0.5 90.5t-0.5 93t-0.5 87t-0.5 72.5q0 39 -2.5 80.5t-4.5 82.5q30 -6 65 -6q20 0 35.5 2t29.5 4q-2 -23 -3 -45
t-2.5 -48.5t-2 -60t-0.5 -77.5q0 -57 1 -113t1 -113q0 -12 -0.5 -31.5t-1.5 -40t-2.5 -39.5t-3.5 -30q-8 -42 -31.5 -68t-53.5 -42t-61 -23.5t-53 -11.5z" />
    <glyph glyph-name="k" unicode="k" horiz-adv-x="537" 
d="M189 194v-44t1 -55.5t1.5 -54t2.5 -40.5q-10 2 -26.5 4t-32.5 2t-32.5 -2t-33.5 -4q2 32 4.5 80.5t2.5 130.5q0 11 0.5 38.5t0.5 58t0.5 57.5t0.5 37v64.5t-1 90t-3 97.5t-6 87q16 -3 33 -4l34 -2q20 0 34.5 1.5t28.5 4.5l-4 -64q-1 -23 -2 -53t-1.5 -63t-1 -66.5t-1 -62
t-0.5 -50v-30.5v-15.5t0.5 -20t0.5 -20v-15.5q0 -13 5 -13q4 0 7 1t8 6q13 12 38 38.5t52 57.5t52 61t38 48q9 -2 29.5 -4t34.5 -2q17 0 29.5 1t24.5 5l2 -6q-53 -43 -102 -86t-104 -92l78 -108q4 -6 13.5 -19t20 -28t20 -28t13.5 -18q18 -24 30 -39t20 -24.5t13 -15.5
t11 -11l-1 -5q-6 0 -17.5 1t-25 2t-27.5 2t-23 1q-16 0 -33.5 -2t-35.5 -4q-4 6 -13.5 21.5t-20 33l-19.5 32.5t-13 21l-61 90q-10 15 -16 23t-9.5 11.5t-5.5 4t-5 0.5q-5 0 -6 -6t-1 -17v-20z" />
    <glyph glyph-name="l" unicode="l" 
d="M63 741q19 -3 32 -4.5t37 -1.5q25 0 37 2t27 4q-4 -41 -6 -89t-3 -97t-1 -96v-86v-26.5v-54v-71.5t1 -78.5t3 -77t5 -65.5l-30 4t-31 2q-13 0 -28 -1.5t-41 -4.5q3 19 4.5 54.5t3 77.5t2 86.5t0.5 82.5v64.5v32.5q0 70 -1 121t-2.5 91t-3.5 71t-5 60z" />
    <glyph glyph-name="m" unicode="m" horiz-adv-x="870" 
d="M186 215q0 -54 0.5 -108t4.5 -107l-28 4t-29 2q-18 0 -38 -2.5l-28 -3.5q2 40 3.5 67.5t2 54t1 59t0.5 83.5q0 41 -0.5 72.5t-2 56.5t-3 46t-2.5 41q17 -2 32.5 -4t36.5 -2q18 0 30 2t23 4q-2 -9 -2.5 -16t-1 -16t-1 -22t-1.5 -35q26 45 63 69t89 24q39 0 64.5 -10
t42 -24.5t25.5 -30.5t15 -28q25 38 64 65.5t99 27.5q43 0 72 -14.5t47 -35.5t25.5 -45.5t7.5 -44.5q0 -31 -1.5 -73.5t-1.5 -73.5v-43.5t1 -57t2 -56.5t3 -40q-20 2 -35 4t-28 2q-14 0 -33.5 -2.5t-28.5 -3.5q3 37 5.5 86t2.5 91v27.5v40.5t-0.5 39.5t-0.5 25.5
q-1 11 -3.5 28.5t-11 34t-25.5 28.5t-46 12q-40 0 -61.5 -17.5t-31.5 -48.5t-11.5 -72.5t-1.5 -89.5q0 -47 2.5 -93t4.5 -92l-30 4t-31 2q-15 0 -29 -2t-36 -4q3 22 4.5 51.5t2.5 57.5t1 51v34q0 52 -1 94t-6 63q-7 26 -26.5 44t-60.5 18q-29 0 -51.5 -16t-33.5 -42
q-5 -12 -8 -29t-4.5 -36.5t-1.5 -39v-35.5z" />
    <glyph glyph-name="n" unicode="n" horiz-adv-x="574" 
d="M504 316q0 -11 -0.5 -35.5t-1.5 -53.5t-1.5 -57.5t-0.5 -46.5q0 -38 2 -72t5 -51q-17 2 -32.5 4t-32.5 2t-34 -2t-31 -4q3 18 5 43t3.5 51.5t2.5 51.5t1 43v43t-1 47t-2 42t-4 29q-9 35 -35 50.5t-58 15.5q-29 0 -53 -16.5t-36 -41.5q-5 -11 -8.5 -28t-5.5 -36t-2.5 -37
t-0.5 -31q0 -69 1.5 -122t5.5 -104q-4 0 -13 1t-19 2t-19 2t-12 1q-15 0 -31 -2l-32 -4q3 50 5 81t3 57.5t1.5 55t0.5 73.5q0 48 -0.5 76.5t-1 49.5t-2 40t-4.5 47q8 -2 23.5 -4t42.5 -2q20 0 31.5 2t23.5 4q-2 -11 -3 -18t-1.5 -15.5t-0.5 -19.5v-30q15 21 30.5 37
t33.5 27.5t40 17.5t51 6q82 0 124.5 -44t42.5 -125z" />
    <glyph glyph-name="o" unicode="o" horiz-adv-x="593" 
d="M170 238q0 -32 4.5 -68.5t18 -68t38 -52.5t65.5 -21t65.5 21t38 52.5t18 68t4.5 68.5t-4.5 68.5t-18 68t-38 52t-65.5 20.5t-65.5 -21t-38 -52.5t-18 -68t-4.5 -67.5zM45 237q0 58 18 104t51 78.5t79 50t103 17.5q116 0 183.5 -63.5t67.5 -186.5q0 -58 -17.5 -104
t-50 -78.5t-79 -49.5t-104.5 -17q-57 0 -103 17t-79 49.5t-51 78.5t-18 104z" />
    <glyph glyph-name="p" unicode="p" horiz-adv-x="593" 
d="M423 235q0 21 -3 54.5t-15 65.5t-36.5 55t-66.5 23q-37 0 -60.5 -19.5t-37 -48.5t-18.5 -62.5t-5 -62.5q0 -33 5 -67t18.5 -62t38 -46t63.5 -18q36 0 59 19t35.5 47.5t17.5 61.5t5 60zM177 410q10 14 24 29t33.5 27t44 20t54.5 8q51 0 91 -21.5t67.5 -56.5t42 -79.5
t14.5 -91.5q0 -43 -12.5 -87.5t-39.5 -80.5t-69.5 -59t-103.5 -23q-29 0 -50.5 5.5t-38 15t-29 21t-24.5 23.5q0 -56 0.5 -100.5t2 -83t3.5 -71.5t5 -65q-15 3 -27.5 4.5t-38.5 1.5q-18 0 -31.5 -1.5t-30.5 -4.5q4 46 6 102t3.5 108.5t2 96.5t0.5 67q0 40 -0.5 87.5
t-1.5 96.5t-3.5 96t-5.5 86q14 -2 29.5 -4t31.5 -2q17 0 30 2t24 4z" />
    <glyph glyph-name="q" unicode="q" horiz-adv-x="593" 
d="M168 229q0 -27 5 -59t18 -59t35.5 -45.5t57.5 -18.5q42 0 68 20t39.5 49.5t18 62.5t4.5 60q0 41 -8 76.5t-24 61.5t-39.5 41t-54.5 15q-40 0 -63.5 -20.5t-36 -51t-16.5 -66.5t-4 -66zM411 480q11 -2 25.5 -4t29.5 -2t30 2t29 4q-7 -91 -8 -182.5t-1 -182.5
q0 -38 0.5 -89t1.5 -103.5t3.5 -101t5.5 -81.5q-14 4 -30 5t-33 1q-24 0 -38 -2l-28 -4q3 26 5.5 67.5t4 86.5t2 89.5t0.5 76.5q-17 -17 -33 -29.5t-32.5 -20.5t-35 -11.5t-40.5 -3.5q-57 0 -99.5 20.5t-70.5 55t-42 80.5t-14 96q0 53 16.5 98.5t45.5 78.5t68.5 51.5
t86.5 18.5q32 0 57 -8.5t43.5 -21.5t32 -27.5t21.5 -26.5z" />
    <glyph glyph-name="r" unicode="r" horiz-adv-x="370" 
d="M73 98q1 16 1.5 38t0.5 44v42.5v35.5q0 41 -0.5 68.5t-1 50.5t-2 46.5t-3.5 56.5q17 -3 31.5 -4.5t34.5 -1.5q18 0 31.5 1.5t25.5 4.5q-2 -19 -3.5 -31t-2 -22.5t-0.5 -22v-29.5q10 16 23 35.5t30.5 36t40.5 27.5t53 11q14 0 26 -3q-3 -6 -5 -16t-2.5 -20.5t-1 -20.5
t-0.5 -15q0 -23 5 -43l-7 -5q-6 5 -15.5 8t-18.5 4.5t-16 1.5h-9q-34 0 -57 -17t-32 -37q-3 -6 -5 -12.5t-3.5 -17t-2.5 -27t-1 -42.5q0 -24 0.5 -53t1.5 -59t3 -59t4 -52q-9 1 -25.5 3.5t-32.5 2.5q-13 0 -29.5 -2t-39.5 -4z" />
    <glyph glyph-name="s" unicode="s" horiz-adv-x="407" 
d="M74 113q3 -8 9.5 -21t20 -25t36 -21t57.5 -9q38 0 56.5 22t18.5 49q0 16 -7 26.5t-18.5 19t-27 14.5t-33.5 13q-5 2 -15 5.5t-21 7.5t-20 7t-12 5q-8 4 -21 11.5t-26 21.5t-22.5 37t-9.5 57q0 67 45 110.5t129 43.5q45 0 78.5 -10.5t55.5 -19.5q-15 -29 -19 -50.5
t-6 -38.5h-16q-6 12 -13 24.5t-18 22.5t-26.5 16.5t-38.5 6.5q-36 0 -58.5 -17.5t-22.5 -48.5q0 -17 6.5 -28t20 -19.5t34 -16t48.5 -16.5q24 -8 48 -17.5t43.5 -24.5t31.5 -39t12 -60q0 -23 -10 -52t-32.5 -54t-59 -42t-89.5 -17q-43 0 -76.5 11t-71.5 28q2 6 7 18.5
t8 23.5q4 13 4.5 25.5t2.5 20.5h18z" />
    <glyph glyph-name="t" unicode="t" horiz-adv-x="333" 
d="M218 653q-2 -5 -2.5 -13t-1.5 -26.5t-1.5 -52t-1.5 -89.5h27.5h17.5t12 0.5t12 0.5l37 3q-2 -7 -2.5 -12t-0.5 -13q0 -15 3 -30q-16 1 -27.5 2t-22.5 1.5t-24.5 0.5h-34.5q0 -16 -0.5 -42t-1 -54t-1 -54t-0.5 -42q0 -56 2 -92.5t9 -58.5t21.5 -31t39.5 -9q17 0 31 5
t29 16q-1 -4 -2.5 -11t-1.5 -13q0 -8 1 -13t3 -10q-22 -11 -55 -20t-58 -9q-21 0 -47 6t-43 20q-26 20 -34 51.5t-8 61.5q0 16 1 54t2 82t2 88.5t1 74.5h-30q-14 0 -26 -1t-21 -2q1 4 2 9t1 13q0 14 -3 32q5 -1 14.5 -2.5t19.5 -1.5h44v50t-2 64q43 20 71.5 39t42.5 31z" />
    <glyph glyph-name="u" unicode="u" horiz-adv-x="574" 
d="M69 164q0 53 2 105.5t2 105.5v28t-1 23.5t-2 24t-3 29.5q34 -6 64 -6q32 0 65 6q-3 -17 -5.5 -47t-4 -62.5t-2 -62t-0.5 -46.5v-30t1 -39t2.5 -38t3.5 -27q8 -31 33 -48t55 -17q23 0 39.5 7t28 16.5t17.5 19t9 14.5q5 10 8 25t5 32t3 34.5t1 31.5v57.5t-1 64t-2 62.5
t-4 53q14 -2 29 -4t29 -2q12 0 27 1t41 5q-5 -67 -7.5 -133.5t-2.5 -134.5q0 -47 0.5 -78.5t1.5 -54t2.5 -40.5t3.5 -39q-21 2 -35 4t-28 2t-27 -2t-30 -4q1 14 2 22.5t1.5 16t0.5 17v25.5q-10 -14 -24 -30t-33.5 -29.5t-45 -23t-59.5 -9.5q-44 0 -81.5 20t-58.5 59
q-7 13 -11 28t-6 28.5t-2.5 24t-0.5 15.5z" />
    <glyph glyph-name="v" unicode="v" horiz-adv-x="500" 
d="M163 442q15 -49 29.5 -91.5t29 -82.5t28.5 -78t29 -77l11 29q3 7 8.5 22.5t11.5 32t11 31t7 20.5q3 8 9.5 28.5t13.5 43t13.5 42t9.5 27.5q1 4 5 16t7.5 25.5l7 27t5.5 22.5q21 -6 41 -6q10 0 23 1.5t25 4.5l-58 -130q-21 -48 -40.5 -95.5t-38.5 -95.5q-18 -46 -33.5 -87
t-24.5 -77q-10 2 -19 4t-23 2q-13 0 -25.5 -2t-25.5 -4q-11 34 -21.5 68t-23.5 67q-6 14 -17 42t-25 62.5t-29 72.5t-29 72.5t-24.5 61t-15.5 39.5q17 -2 34.5 -4t34.5 -2q15 0 31 1t36 5z" />
    <glyph glyph-name="w" unicode="w" horiz-adv-x="796" 
d="M178 384q6 -22 16.5 -54.5t22 -69t23.5 -74t22 -68.5l25 70q10 29 23 68t25.5 79.5t24 79t19.5 65.5q10 -3 18.5 -4.5t21.5 -1.5q24 0 48 6l16 -56q22 -76 46.5 -152.5t53.5 -151.5l15 40q20 55 46.5 138.5t53.5 181.5q24 -6 44 -6q12 0 22 2l20 4q-12 -31 -24 -61
t-25 -61l-42 -103q-26 -64 -50.5 -129t-44.5 -131q-10 3 -18.5 4.5t-21.5 1.5q-14 0 -26.5 -2t-24.5 -4l-17 56l-24 78t-25 77q-5 14 -10.5 30.5t-10.5 31t-8.5 25l-4.5 13.5l-11 34q-2 -4 -3.5 -8t-4.5 -11.5t-7.5 -20.5t-11.5 -34l-60 -170q-11 -30 -17 -54t-12 -47
q-8 3 -16.5 4.5t-22.5 1.5q-26 0 -51 -6l-39 129q-8 25 -21 62.5t-30.5 84t-39 99.5t-45.5 110q18 -3 36 -4.5t33 -1.5q36 0 66 6z" />
    <glyph glyph-name="x" unicode="x" horiz-adv-x="500" 
d="M268 313q28 38 53 75.5t55 91.5q10 -3 18.5 -4.5t22.5 -1.5t26.5 2t25.5 4l-59 -69q-29 -33 -57.5 -68t-56.5 -72q13 -21 35.5 -54t48.5 -70.5t52.5 -76t49.5 -70.5q-25 2 -41 4t-30 2t-33 -2t-36 -4q-9 15 -23.5 38.5t-31 49.5t-32 50.5t-25.5 39.5q-15 -20 -28 -38.5
t-26 -39t-28 -44.5t-34 -56q-10 2 -19 4t-23 2t-27 -2t-27 -4q18 23 43.5 53t48.5 57q12 14 25 29.5t25 30.5t22.5 28.5t17.5 23.5q-5 9 -14 23t-19.5 30t-21.5 32.5t-21 30.5q-4 6 -14.5 20.5t-21.5 31t-21.5 30.5t-14.5 20q-6 8 -15.5 22t-12.5 18q16 -2 34 -4t41 -2
q20 0 34.5 2t31.5 4q11 -18 20.5 -36t20.5 -35z" />
    <glyph glyph-name="y" unicode="y" horiz-adv-x="500" 
d="M281 127l18 42q8 19 20 51t23 63.5t19 54.5t8 24q8 25 18.5 59t18.5 59q12 -3 22 -4.5t22 -1.5q13 0 23.5 2t21.5 4q-13 -25 -38.5 -80t-57 -126t-66 -151t-64.5 -153.5t-52 -134t-30 -93.5q-10 2 -20.5 4t-24.5 2q-12 0 -22.5 -1.5t-23.5 -4.5l16 26q8 13 23 41t31.5 60
t32.5 63t25 50q-3 11 -7.5 23t-14.5 36t-27.5 64.5t-47.5 109.5l-119 265q26 -4 42 -5t28 -1q22 0 69 6q3 -10 9.5 -30t15.5 -44t18.5 -50.5t18.5 -49.5t15.5 -40.5t9.5 -24.5z" />
    <glyph glyph-name="z" unicode="z" horiz-adv-x="481" 
d="M19 31q19 24 43 56t46.5 63t39.5 55.5t23 32.5t19 27.5t28 41t28 41t18 26.5l30 44h-39q-5 0 -31 -1t-59.5 -2.5t-66.5 -3t-51 -3.5q3 15 3 32q0 10 -0.5 19t-2.5 20q36 -5 85 -5.5t116 -0.5q76 0 124 0.5t77 5.5v-34l-30 -39q-39 -50 -75.5 -101.5t-68 -98t-55.5 -84.5
t-37 -61h35q27 0 59.5 0.5t64.5 1t61 2t48 3.5q-3 -11 -4 -20t-1 -17t0.5 -15.5t2.5 -15.5q-53 1 -105.5 3.5t-109.5 2.5q-75 0 -132 -2t-83 -4v31z" />
    <glyph glyph-name="braceleft" unicode="{" horiz-adv-x="400" 
d="M30 317q72 2 102 37t30 101v50q0 36 3.5 73.5t23 68t62 51t120.5 22.5v-43q-47 -3 -72 -18t-36.5 -37t-13.5 -48.5t-2 -50.5v-46q0 -27 -2 -56.5t-15 -55t-40 -44.5t-78 -25q50 -6 77.5 -24t40 -43t15 -55t2.5 -59v-46q0 -24 2 -50.5t13.5 -48.5t36.5 -37t72 -18v-43
q-75 2 -117 20.5t-62.5 48t-25 67.5t-4.5 79v50q0 73 -29.5 104.5t-102.5 33.5v42z" />
    <glyph glyph-name="bar" unicode="|" horiz-adv-x="222" 
d="M75 750h72v-1000h-72v1000z" />
    <glyph glyph-name="braceright" unicode="}" horiz-adv-x="400" 
d="M370 275q-72 -2 -102 -37t-30 -101v-50q0 -36 -3.5 -73.5t-23 -68t-62 -51t-120.5 -22.5v43q47 3 72 18t36.5 37t13.5 48.5t2 50.5v46q0 27 2 56.5t15 55t40 44.5t78 25q-50 6 -77.5 24t-40.5 43t-15 55t-2 59v46q0 24 -2 50.5t-13.5 48.5t-37 37t-71.5 18v43
q75 -2 117 -20.5t62.5 -48t25 -67.5t4.5 -79v-50q0 -73 29 -105t103 -33v-42z" />
    <glyph glyph-name="asciitilde" unicode="~" horiz-adv-x="667" 
d="M58 173q2 28 11 54.5t25 47.5t39.5 33.5t54.5 12.5q33 0 72.5 -12t78.5 -26q41 -15 77.5 -27t64.5 -12q35 0 54 24t24 59h50q-2 -28 -11 -54.5t-25 -47.5t-39.5 -33.5t-54.5 -12.5q-32 0 -71.5 12t-79.5 27t-76.5 26.5t-65.5 11.5q-12 0 -25 -4.5t-24 -14.5t-19 -26
t-10 -38h-50z" />
    <glyph glyph-name="uni00A0" unicode="&#xa0;" horiz-adv-x="260" 
 />
    <glyph glyph-name="exclamdown" unicode="&#xa1;" horiz-adv-x="278" 
d="M66 415q0 29 20.5 50t50.5 21q29 0 50 -21t21 -50t-21 -50t-50 -21q-30 0 -50.5 21t-20.5 50zM130 292h20l47 -328q1 -9 2.5 -22t2.5 -26.5t2 -25t1 -17.5q0 -23 -7 -38t-17.5 -23.5t-22 -12t-20.5 -3.5q-20 0 -32.5 7.5t-20 19t-10.5 24t-3 21.5v16.5t1 19.5t3 27.5
t6 41.5z" />
    <glyph glyph-name="cent" unicode="&#xa2;" horiz-adv-x="519" 
d="M334 440q-5 1 -10.5 1.5t-10.5 0.5q-41 0 -67.5 -17.5t-42 -45.5t-22 -62.5t-6.5 -67.5q0 -20 2 -42.5t7.5 -44.5t15.5 -42.5t25 -35.5zM201 4q-39 14 -68 38t-48.5 54.5t-29 65.5t-9.5 70q0 49 15.5 95t48 82t81.5 57.5t117 21.5q11 0 21 -0.5t19 -1.5l34 112l45 -11
l-34 -110q17 -5 34 -11t34 -13q-5 -10 -12 -33t-11 -61h-19q0 1 -2.5 8t-7 16.5t-12.5 20t-20 19.5l-113 -366q17 -8 33 -10.5t27 -2.5q22 0 38.5 4.5t30.5 12.5t26.5 19t26.5 23q3 -2 8 -4.5t8 -4.5q-4 -5 -6.5 -9.5t-4.5 -12t-4 -18.5t-5 -30q-42 -22 -80.5 -29t-66.5 -7
q-14 0 -26 1t-24 3l-39 -126l-44 11z" />
    <glyph glyph-name="sterling" unicode="&#xa3;" horiz-adv-x="519" 
d="M463 553q-10 19 -20 34.5t-22.5 27t-29 18t-40.5 6.5q-20 0 -35.5 -6.5t-26.5 -16.5t-18.5 -21.5t-11.5 -21.5q-6 -15 -8 -38.5t-2 -74.5l1 -85h35q34 0 66 1.5t49 3.5q-2 -10 -3 -16.5t-1 -13.5q0 -8 4 -31l-46 4q-7 1 -35 1.5t-69 0.5q-2 -29 -5 -59.5t-17 -67.5
q-15 -40 -36.5 -60.5t-38.5 -33.5h109h78.5t52.5 1l46 2t59 4q-1 -11 -3 -24.5t-2 -29.5q0 -11 2 -28.5t3 -28.5q-56 5 -111 6t-111 1q-81 0 -140.5 -1t-104.5 -6q2 10 3.5 20t1.5 23t-1 21.5t-4 22.5q14 0 33 2t36 14t28.5 37.5t11.5 73.5q0 42 -2.5 68t-4.5 43
q-50 0 -99 -3q2 8 3 15t1 15q0 7 -1 13.5t-3 14.5q11 -1 20.5 -2t20 -1.5t23 -1t29.5 -0.5q-1 13 -1.5 23t-0.5 21q0 73 14 119t45 79q26 27 69 47.5t103 20.5q16 0 35 -2.5t37 -6.5t34.5 -8.5t28.5 -8.5q-5 -23 -7.5 -37t-4.5 -25t-3.5 -20.5t-3.5 -23.5h-9z" />
    <glyph glyph-name="currency" unicode="&#xa4;" horiz-adv-x="519" 
d="M115 330q0 -30 11.5 -56.5t31 -46t46 -31t56.5 -11.5t56.5 11.5t46 31t31 46t11.5 56.5q0 31 -11.5 58t-31 46t-46 30t-56.5 11t-56.5 -11t-46 -30t-31 -46t-11.5 -58zM508 128l-46 -46l-67 67q-63 -46 -134 -46q-75 0 -136 46l-67 -67l-46 46l67 67q-23 33 -34.5 64.5
t-11.5 70.5q0 37 11.5 71.5t34.5 63.5l-67 67l46 46l67 -67q32 24 64 35t71 11t70 -11.5t65 -34.5l67 67l46 -46l-67 -67q23 -29 34.5 -64t11.5 -71q0 -75 -46 -135z" />
    <glyph glyph-name="yen" unicode="&#xa5;" horiz-adv-x="519" 
d="M317 210q49 0 88.5 1.5t74.5 3.5q-2 -10 -3 -16.5t-1 -13.5q0 -5 1 -11.5t3 -18.5q-38 3 -76.5 4t-86.5 1q0 -40 1.5 -77.5t3.5 -82.5q-16 2 -31 4t-31 2t-32 -2t-30 -4q3 39 4 78t1 82q-45 0 -81.5 -1t-81.5 -4q2 9 3 16.5t1 15.5q0 7 -1 13.5t-3 14.5q29 -2 67.5 -3.5
t95.5 -1.5v51l-10 22q-39 0 -74.5 -1t-78.5 -4q2 9 3 16.5t1 15.5q0 7 -1 13.5t-3 14.5q24 -2 55.5 -3.5t76.5 -1.5q-50 88 -99 171.5t-103 163.5q20 -3 39.5 -4.5t35.5 -1.5q23 0 41.5 2t29.5 4q19 -41 37 -78.5t37.5 -76.5t43 -82.5t53.5 -96.5q31 55 52 93t38 72.5
t35 73.5t44 95q11 -2 24.5 -4t24.5 -2q14 0 24 1.5t20 4.5q-23 -35 -49.5 -77.5t-53.5 -87t-52.5 -88.5t-47.5 -82q36 0 69 1.5t65 3.5q-2 -10 -3 -16.5t-1 -13.5q0 -5 1 -11.5t3 -18.5q-37 3 -74 4t-79 1q-10 -15 -10 -25v-48z" />
    <glyph glyph-name="brokenbar" unicode="&#xa6;" horiz-adv-x="222" 
d="M75 675h72v-350h-72v350zM75 175h72v-350h-72v350z" />
    <glyph glyph-name="section" unicode="&#xa7;" horiz-adv-x="519" 
d="M399 233q0 32 -24.5 51t-82.5 45q-29 13 -48 21.5t-33 16t-27 16t-31 20.5q-14 -13 -26 -28t-12 -38t8.5 -38.5t22.5 -27t31 -20t35 -15.5q39 -17 81.5 -35.5t71.5 -36.5q13 13 23.5 28.5t10.5 40.5zM88 7h9q6 -11 16.5 -28.5t28 -34t42 -28t57.5 -11.5q27 0 47.5 8
t34 21.5t20.5 30.5t7 36q0 23 -10.5 39.5t-30.5 30.5t-49 27t-66 29q-8 3 -21 9.5t-26.5 14t-25 14.5t-17.5 11q-20 14 -31 31t-16 33t-6 28t-1 17q0 30 9 52.5t22 39t26.5 27.5t22.5 17q-15 16 -28 36.5t-13 58.5q0 34 13 63.5t37 51t58 33.5t75 12q10 0 29 -1.5t41 -6.5
t44.5 -14.5t40.5 -26.5q-7 -12 -11.5 -21t-8 -17t-6.5 -16.5t-7 -21.5h-7q-7 15 -15.5 29.5t-22 26t-33 19t-49.5 7.5q-16 0 -32.5 -4.5t-30 -14.5t-22 -24.5t-8.5 -35.5q0 -22 9 -38t27 -29t44.5 -25.5t62.5 -27.5q28 -12 54.5 -24.5t47.5 -30t33.5 -41t12.5 -56.5
q0 -27 -7 -48.5t-17.5 -38t-24 -30t-25.5 -24.5q7 -7 16.5 -16t17 -21.5t13 -29t5.5 -37.5q0 -51 -28 -90t-65 -58q-20 -10 -51.5 -19t-68.5 -9q-45 0 -83 13t-75 38z" />
    <glyph glyph-name="dieresis" unicode="&#xa8;" 
d="M86 630q0 -23 -17 -41t-42 -18t-42 17.5t-17 41.5q0 25 17 42t42 17t42 -17.5t17 -41.5zM291 630q0 -23 -17 -41t-42 -18t-42 17.5t-17 41.5q0 25 17 42t42 17t42 -17.5t17 -41.5z" />
    <glyph glyph-name="copyright" unicode="&#xa9;" horiz-adv-x="820" 
d="M554 464h-6q-17 33 -48 44t-66 11q-76 0 -115 -46.5t-39 -131.5q0 -33 8.5 -65t26.5 -57.5t45 -41t65 -15.5q28 0 49.5 6t38 16t29 21.5t22.5 23.5l6 -4l-6 -59q-70 -38 -152 -38q-44 0 -83 13.5t-68 40t-46 65t-17 89.5q0 45 14 84.5t43 69t73 46.5t104 17q37 0 70.5 -7
t69.5 -23zM721 338q0 65 -24.5 122t-66.5 99.5t-99 67t-121 24.5t-120.5 -24.5t-99 -67t-67 -99.5t-24.5 -122t24.5 -121.5t66.5 -99.5t98.5 -67.5t121.5 -24.5q66 0 123 24.5t99 66.5t65.5 99t23.5 123zM410 696q74 0 140 -28t115 -76.5t77.5 -113.5t28.5 -140
q0 -74 -28.5 -139t-77 -113.5t-114.5 -77t-141 -28.5t-141 28.5t-114.5 77t-77 113.5t-28.5 139q0 75 28.5 140t77.5 113.5t115 76.5t140 28z" />
    <glyph glyph-name="ordfeminine" unicode="&#xaa;" horiz-adv-x="325" 
d="M191 528q-26 -7 -44.5 -12t-29.5 -12t-16 -16t-5 -24q0 -21 11 -33.5t29 -12.5q26 0 40.5 15.5t14.5 36.5v58zM307 393q-13 -5 -27.5 -9t-29.5 -4q-22 0 -34 7t-21 26q-13 -16 -36 -26.5t-50 -10.5q-37 0 -65 18t-28 57q0 25 8 41t22.5 25.5t33.5 15.5t42 12l22 5
q31 7 40 11t9 15q0 31 -17.5 44.5t-43.5 13.5q-18 0 -30.5 -4.5t-20 -10.5t-12 -13t-5.5 -12h-25q4 13 4 28v20q23 17 51.5 25.5t55.5 8.5q26 0 48.5 -5.5t38 -16.5t24.5 -28t8 -40q0 -8 -0.5 -22.5t-0.5 -30t-0.5 -29.5t-0.5 -21q0 -41 3 -54.5t19 -13.5q5 0 9 1.5t9 3.5
v-27z" />
    <glyph glyph-name="guillemotleft" unicode="&#xab;" horiz-adv-x="444" 
d="M314 105q-6 8 -14.5 20t-14.5 21q-16 23 -26 37.5t-17 24t-13 18t-15 19.5l29 44q22 33 34 52t21 33t18 29t23 39q9 -8 15 -12.5t11.5 -8.5t12 -8t16.5 -10q-12 -13 -26.5 -34t-29.5 -44t-28.5 -44.5t-21.5 -35.5q15 -21 37 -50.5t37 -50.5l32 -44q-17 -12 -26 -19
l-27 -21zM78 289q34 52 57.5 88t38.5 65q9 -7 15 -12t12 -9t12.5 -8t16.5 -10q-12 -13 -26.5 -33t-29 -42.5t-28 -44.5t-23.5 -38q4 -6 15 -20.5t22.5 -30.5t22 -30.5t14.5 -19.5l33 -44l-15 -10t-11.5 -8.5t-11.5 -9.5t-15 -12q-27 42 -60.5 93t-67.5 92z" />
    <glyph glyph-name="logicalnot" unicode="&#xac;" horiz-adv-x="667" 
d="M593 416v-265h-65v200h-454v65h519z" />
    <glyph glyph-name="uni00AD" unicode="&#xad;" horiz-adv-x="407" 
d="M67 197q2 13 3.5 28.5t1.5 29.5t-1.5 24t-3.5 22q31 -2 62 -2.5t62 -0.5h37t34 0.5t36 1t42 1.5q-2 -13 -3.5 -26.5t-1.5 -25.5q0 -8 2 -25.5t3 -26.5q-32 0 -70 1.5t-74 1.5h-28.5t-34.5 -0.5t-35.5 -1t-30.5 -1.5z" />
    <glyph glyph-name="registered" unicode="&#xae;" horiz-adv-x="500" 
d="M429 481q0 38 -14 70.5t-38 56.5t-56.5 38t-70.5 14t-70.5 -14t-56.5 -38t-38 -56.5t-14 -70.5t14 -70.5t38 -56.5t56.5 -38t70.5 -14t70.5 14t56.5 38.5t38 57t14 69.5zM250 696q46 0 85.5 -16.5t68.5 -45.5t46 -68.5t17 -84.5t-17 -84t-46 -68t-68.5 -46t-85.5 -17
t-85.5 17t-69 46t-46 68t-16.5 84t16.5 84.5t46 68.5t69 45.5t85.5 16.5zM156 505v25v21.5t-0.5 23t-1.5 29.5q7 -1 17 -1.5t25 -0.5q4 0 13 0.5t19.5 0.5t20 0.5t13.5 0.5q14 0 28.5 -2.5t26.5 -9t19.5 -17.5t7.5 -27q0 -30 -21 -45.5t-50 -19.5q24 -29 48.5 -59.5
t49.5 -59.5q-9 1 -17 1.5t-17 0.5q-10 0 -16.5 -0.5t-15.5 -1.5q-23 29 -43 57t-44 55h-9q0 -27 0.5 -55t1.5 -57q-8 1 -14.5 1.5t-14.5 0.5q-7 0 -14 -0.5t-15 -1.5q2 51 2.5 82.5t0.5 58.5zM209 499q6 -1 12.5 -1h13.5q29 0 41.5 15t12.5 30q0 23 -15 31t-38 8
q-3 0 -12.5 -0.5t-14.5 -1.5v-81z" />
    <glyph glyph-name="macron" unicode="&#xaf;" 
d="M-13 665h286v-65h-286v65z" />
    <glyph glyph-name="degree" unicode="&#xb0;" horiz-adv-x="400" 
d="M110 523q0 -40 25.5 -66t64.5 -26q40 0 65 26.5t25 65.5t-25 65.5t-65 26.5q-38 0 -64 -26.5t-26 -65.5zM48 523q0 33 11.5 61t32 48t48.5 31.5t60 11.5q33 0 60.5 -11.5t48 -32t32 -48t11.5 -60.5q0 -32 -11.5 -59.5t-32 -48t-48 -32.5t-60.5 -12t-60.5 12t-48 32.5
t-32 48t-11.5 59.5z" />
    <glyph glyph-name="plusminus" unicode="&#xb1;" horiz-adv-x="667" 
d="M593 0h-519v65h519v-65zM366 565v-196h227v-65h-227v-196h-65v196h-227v65h227v196h65z" />
    <glyph glyph-name="twosuperior" unicode="&#xb2;" horiz-adv-x="340" 
d="M20 294q14 12 31.5 27.5t35 32t33.5 33t28 31.5q20 24 38 58t18 78q0 15 -2.5 30t-9.5 27.5t-19.5 20.5t-31.5 8q-35 0 -51.5 -22t-20.5 -54l-8 -6l-40 38q18 39 49.5 59t86.5 20q24 0 48 -5t44 -18t32.5 -34t12.5 -52q0 -18 -3 -34t-11 -31t-21 -31.5t-33 -36.5
q-6 -6 -22 -21t-33 -30.5t-32 -29t-21 -17.5q75 0 121.5 0.5t70.5 3.5q-3 -14 -3 -38q0 -11 0.5 -18t1.5 -13q-29 1 -47.5 2t-33.5 1.5t-29 0.5h-34q-43 0 -77.5 -1t-67.5 -3v24z" />
    <glyph glyph-name="threesuperior" unicode="&#xb3;" horiz-adv-x="340" 
d="M313 384q0 -32 -15.5 -55t-40 -38t-55 -22t-59.5 -7q-26 0 -59 7t-62 32q4 6 7.5 11t6.5 10.5t6 12.5t8 19h13q1 -5 5.5 -15t14.5 -19.5t26 -17t39 -7.5q32 0 54 22t22 63q0 31 -17 56.5t-58 25.5q-11 0 -20 -1.5t-18 -3.5q3 6 3 19t-3 25q7 -2 12 -3t13 -1q32 0 52 19.5
t20 56.5q0 36 -18.5 51t-43.5 15t-45 -13t-26 -54h-12q-5 11 -10.5 18t-22.5 24q23 33 57.5 45.5t73.5 12.5q59 0 95 -21.5t36 -66.5q0 -42 -23.5 -65t-67.5 -34q-5 -1 -5 -2q0 -2 7 -2q21 -1 41 -6.5t35.5 -17t24.5 -29.5t9 -44z" />
    <glyph glyph-name="acute" unicode="&#xb4;" 
d="M102 570h-51l141 152q10 11 22 19t26 8q19 0 33 -11t14 -30q0 -17 -8 -25t-13 -12z" />
    <glyph glyph-name="mu" unicode="&#xb5;" horiz-adv-x="574" 
d="M499 212q0 -47 0.5 -78.5t1.5 -54t2.5 -40.5t3.5 -39q-21 2 -35 4t-28 2t-27 -2t-30 -4q1 14 2 22.5t1.5 16t0.5 17v25.5q-19 -44 -59 -68t-85 -24q-19 0 -35 4.5t-31 16.5q0 -48 0.5 -86.5t2 -70.5t3 -59.5t4.5 -53.5q-14 3 -26.5 4.5t-38.5 1.5q-18 0 -31 -1.5
t-30 -4.5q3 39 5 87.5t3 98t1.5 96.5t0.5 83v96.5t-1 107.5t-2.5 99t-4.5 72q34 -6 64 -6q32 0 65 6q-4 -18 -6 -50.5t-3.5 -68t-2 -68.5t-0.5 -51q0 -38 2 -71t11.5 -57t30 -37.5t56.5 -13.5q32 0 52.5 15t32.5 40.5t16.5 57.5t4.5 67v57.5t-1 64t-2 62.5t-4 53
q14 -2 29 -4t29 -2q12 0 27 1t41 5q-5 -67 -7.5 -133.5t-2.5 -134.5z" />
    <glyph glyph-name="paragraph" unicode="&#xb6;" horiz-adv-x="600" 
d="M508 626v-829h-75v829h-112v-829h-75v426q-100 8 -153 68t-53 161q0 34 11 75t40 76.5t79 59t129 23.5h259v-60h-50z" />
    <glyph glyph-name="periodcentered" unicode="&#xb7;" 
d="M59 306q0 29 20.5 50t50.5 21q29 0 50 -21t21 -50t-21 -50t-50 -21q-30 0 -50.5 21t-20.5 50z" />
    <glyph glyph-name="cedilla" unicode="&#xb8;" 
d="M153 0l-31 -64q5 2 12 3t17 1q16 0 32.5 -3.5t29 -11.5t20.5 -21t8 -32q0 -29 -13.5 -46.5t-33 -26.5t-42.5 -12t-42 -3q-21 0 -45.5 3.5t-43.5 12.5l16 35q18 -6 31 -9t32 -3q6 0 15.5 1t18 5.5t15 12t6.5 21.5q0 23 -17 30t-34 7q-8 0 -13 -1t-11 -3l-12 8l43 96h42z
" />
    <glyph glyph-name="onesuperior" unicode="&#xb9;" horiz-adv-x="340" 
d="M229 431q0 -44 1 -84.5t4 -72.5q-7 1 -19 2.5t-26 1.5q-11 0 -24.5 -1.5t-24.5 -2.5q3 22 4.5 38t2 39t1 58t0.5 94v107q-4 -2 -16 -8.5t-26.5 -14t-28.5 -15.5t-22 -12l-13 13l-16 16v9q17 6 32 11.5t29.5 12t30.5 13.5t36 16q6 3 15.5 8t20 10t19.5 10t14 8l13 -6
q-2 -19 -3.5 -53.5t-2.5 -72.5t-1 -72v-52z" />
    <glyph glyph-name="ordmasculine" unicode="&#xba;" horiz-adv-x="386" 
d="M114 527q0 -18 3 -39t11 -39t23.5 -30.5t41.5 -12.5q25 0 41 12.5t24 30.5t11 39t3 38q0 18 -3 39t-11 39.5t-24 30.5t-41 12q-26 0 -41.5 -12.5t-23.5 -30.5t-11 -39t-3 -38zM359 526q0 -70 -44 -109.5t-122 -39.5q-76 0 -121 39.5t-45 109.5q0 69 45 109.5t121 40.5
q78 0 122 -38t44 -112z" />
    <glyph glyph-name="guillemotright" unicode="&#xbb;" horiz-adv-x="444" 
d="M395 245q-50 -64 -82.5 -114t-44.5 -71q-9 7 -15 12t-11.5 9t-11.5 8t-15 11q0 1 15 21t33.5 45t35.5 48.5t22 30.5q-19 32 -46.5 75.5t-59.5 82.5q10 6 16.5 10t12 8t11.5 8.5t15 12.5q7 -13 15.5 -27.5t20 -32.5t26 -40.5t34.5 -52.5zM231 245q-18 -23 -39 -52
t-39.5 -57t-32 -49t-17.5 -27q-9 7 -15 12t-11 9t-11 8t-16 11q5 6 20 26.5t32.5 44t33 45t21.5 29.5q-10 16 -23.5 38t-28 44.5t-29 42.5t-26.5 33q10 6 16.5 10t12.5 8t12 9t15 12q15 -29 38.5 -65t57.5 -88z" />
    <glyph glyph-name="onequarter" unicode="&#xbc;" horiz-adv-x="845" 
d="M229 431q0 -44 1 -84.5t4 -72.5q-7 1 -19 2.5t-26 1.5q-11 0 -24.5 -1.5t-24.5 -2.5q3 22 4.5 38t2 39t1 58t0.5 94v107q-4 -2 -16 -8.5t-26.5 -14t-28.5 -15.5t-22 -12l-13 13l-16 16v9q17 6 32 11.5t29.5 12t30.5 13.5t36 16q6 3 15.5 8t20 10t19.5 10t14 8l13 -6
q-2 -19 -3.5 -53.5t-2.5 -72.5t-1 -72v-52zM652 696l-400 -717h-48l400 717h48zM668 344q11 14 17.5 22.5t11 14.5t7 10t5.5 10q5 -2 13.5 -3t19.5 -1q8 0 15 1t14 3q-1 -15 -1.5 -48t-1 -70.5t-1 -72t-0.5 -53.5h20.5t34.5 1q-2 -10 -3 -15.5t-1 -14.5q0 -8 1 -13t3 -14
q-15 0 -28 0.5t-27 0.5v-38t0.5 -24.5t1 -19t2.5 -20.5q-12 2 -21 3t-19 1q-11 0 -22 -1.5t-25 -2.5q2 12 3 21t1.5 20t0.5 25.5v35.5q-32 1 -59.5 1h-47.5q-18 0 -37 -0.5t-32 -1.5v39q0 3 6 10t11 13q11 14 22.5 29t22.5 30zM689 317l-121 -160h121v160z" />
    <glyph glyph-name="onehalf" unicode="&#xbd;" horiz-adv-x="845" 
d="M229 431q0 -44 1 -84.5t4 -72.5q-7 1 -19 2.5t-26 1.5q-11 0 -24.5 -1.5t-24.5 -2.5q3 22 4.5 38t2 39t1 58t0.5 94v107q-4 -2 -16 -8.5t-26.5 -14t-28.5 -15.5t-22 -12l-13 13l-16 16v9q17 6 32 11.5t29.5 12t30.5 13.5t36 16q6 3 15.5 8t20 10t19.5 10t14 8l13 -6
q-2 -19 -3.5 -53.5t-2.5 -72.5t-1 -72v-52zM525 24q14 12 31.5 27.5t35 32t33.5 33t28 31.5q20 24 38 58t18 78q0 15 -2.5 30t-9.5 27.5t-19.5 20.5t-31.5 8q-35 0 -51.5 -22t-20.5 -54l-8 -6l-40 38q18 39 49.5 59t86.5 20q24 0 48 -5t44 -18t32.5 -34t12.5 -52
q0 -18 -3 -34t-11 -31t-21 -31.5t-33 -36.5q-6 -6 -22 -21t-33 -30.5t-32 -29t-21 -17.5q75 0 121.5 0.5t70.5 3.5q-3 -14 -3 -38q0 -11 0.5 -18t1.5 -13q-29 1 -47.5 2t-33.5 1.5t-29 0.5h-34q-43 0 -77.5 -1t-67.5 -3v24zM647 696l-400 -717h-48l400 717h48z" />
    <glyph glyph-name="threequarters" unicode="&#xbe;" horiz-adv-x="845" 
d="M313 384q0 -32 -15.5 -55t-40 -38t-55 -22t-59.5 -7q-26 0 -59 7t-62 32q4 6 7.5 11t6.5 10.5t6 12.5t8 19h13q1 -5 5.5 -15t14.5 -19.5t26 -17t39 -7.5q32 0 54 22t22 63q0 31 -17 56.5t-58 25.5q-11 0 -20 -1.5t-18 -3.5q3 6 3 19t-3 25q7 -2 12 -3t13 -1q32 0 52 19.5
t20 56.5q0 36 -18.5 51t-43.5 15t-45 -13t-26 -54h-12q-5 11 -10.5 18t-22.5 24q23 33 57.5 45.5t73.5 12.5q59 0 95 -21.5t36 -66.5q0 -42 -23.5 -65t-67.5 -34q-5 -1 -5 -2q0 -2 7 -2q21 -1 41 -6.5t35.5 -17t24.5 -29.5t9 -44zM657 696l-400 -717h-48l400 717h48z
M668 344q11 14 17.5 22.5t11 14.5t7 10t5.5 10q5 -2 13.5 -3t19.5 -1q8 0 15 1t14 3q-1 -15 -1.5 -48t-1 -70.5t-1 -72t-0.5 -53.5h20.5t34.5 1q-2 -10 -3 -15.5t-1 -14.5q0 -8 1 -13t3 -14q-15 0 -28 0.5t-27 0.5v-38t0.5 -24.5t1 -19t2.5 -20.5q-12 2 -21 3t-19 1
q-11 0 -22 -1.5t-25 -2.5q2 12 3 21t1.5 20t0.5 25.5v35.5q-32 1 -59.5 1h-47.5q-18 0 -37 -0.5t-32 -1.5v39q0 3 6 10t11 13q11 14 22.5 29t22.5 30zM689 317l-121 -160h121v160z" />
    <glyph glyph-name="questiondown" unicode="&#xbf;" horiz-adv-x="370" 
d="M134 414q0 29 20.5 50t50.5 21q29 0 50 -21t21 -50t-21 -50t-50 -21q-30 0 -50.5 21t-20.5 50zM117 275q17 7 26.5 8.5t27.5 1.5q63 0 94.5 -33t31.5 -81q0 -11 -1.5 -23.5t-9 -29.5t-24 -39.5t-47.5 -53.5l-35 -35q-14 -14 -22 -26t-11.5 -22t-4 -17t-0.5 -12
q0 -23 8.5 -37t21.5 -22t28 -11t27 -3q53 0 80 53h9l7 -59q-20 -13 -47 -25.5t-75 -12.5q-35 0 -66 10.5t-53.5 29t-35.5 43.5t-13 55q0 27 7 49t19 41t28.5 37t36.5 38q25 25 39.5 41t22.5 27t10.5 19t2.5 18q0 20 -13.5 33t-33.5 13q-13 0 -23 -4.5t-21 -9.5l-2 2z" />
    <glyph glyph-name="Agrave" unicode="&#xc0;" horiz-adv-x="648" 
d="M413 721h-51l-163 101q-6 4 -13.5 12t-7.5 25q0 11 5 18.5t11.5 12.5t14 7.5t13.5 2.5q18 0 29 -8.5t21 -18.5zM293 525l-102 -246q26 -1 52 -2.5t52 -1.5q23 0 46 1t46 3zM458 111l-42 106q-32 2 -64 3t-64 1q-30 0 -60 -1t-60 -3q-24 -58 -46 -116t-34 -101
q-10 2 -23 4t-25 2q-13 0 -23.5 -2t-21.5 -4l116 258q38 85 68 152.5t52.5 120.5t38 93.5t24.5 71.5q8 -2 16 -3.5t17 -1.5q14 0 32 5q18 -51 37.5 -102t39 -98t36.5 -88.5t31 -72.5q14 -33 33 -75.5t39 -88t40 -90.5t37 -81q-11 1 -34 3.5t-44 2.5t-40.5 -2.5t-33.5 -3.5z
" />
    <glyph glyph-name="Aacute" unicode="&#xc1;" horiz-adv-x="648" 
d="M297 730h-51l141 152q10 11 22 19t26 8q19 0 33 -11t14 -30q0 -17 -8 -25t-13 -12zM293 525l-102 -246q26 -1 52 -2.5t52 -1.5q23 0 46 1t46 3zM458 111l-42 106q-32 2 -64 3t-64 1q-30 0 -60 -1t-60 -3q-24 -58 -46 -116t-34 -101q-10 2 -23 4t-25 2q-13 0 -23.5 -2
t-21.5 -4l116 258q38 85 68 152.5t52.5 120.5t38 93.5t24.5 71.5q8 -2 16 -3.5t17 -1.5q14 0 32 5q18 -51 37.5 -102t39 -98t36.5 -88.5t31 -72.5q14 -33 33 -75.5t39 -88t40 -90.5t37 -81q-11 1 -34 3.5t-44 2.5t-40.5 -2.5t-33.5 -3.5z" />
    <glyph glyph-name="Acircumflex" unicode="&#xc2;" horiz-adv-x="648" 
d="M488 721h-50l-113 100l-114 -100h-49l123 172h79zM293 525l-102 -246q26 -1 52 -2.5t52 -1.5q23 0 46 1t46 3zM458 111l-42 106q-32 2 -64 3t-64 1q-30 0 -60 -1t-60 -3q-24 -58 -46 -116t-34 -101q-10 2 -23 4t-25 2q-13 0 -23.5 -2t-21.5 -4l116 258q38 85 68 152.5
t52.5 120.5t38 93.5t24.5 71.5q8 -2 16 -3.5t17 -1.5q14 0 32 5q18 -51 37.5 -102t39 -98t36.5 -88.5t31 -72.5q14 -33 33 -75.5t39 -88t40 -90.5t37 -81q-11 1 -34 3.5t-44 2.5t-40.5 -2.5t-33.5 -3.5z" />
    <glyph glyph-name="Atilde" unicode="&#xc3;" horiz-adv-x="648" 
d="M502 856q-3 -12 -9 -31t-18.5 -37t-32.5 -31t-51 -13q-22 0 -44 6.5t-41.5 15t-35.5 15t-27 6.5q-21 0 -33.5 -13.5t-18.5 -30.5h-36q4 13 11 32.5t19.5 37t31.5 30t48 12.5q18 0 38 -6.5t40 -14.5t38 -15t32 -7t23.5 5t15.5 11.5t9 14t5 13.5h36zM293 525l-102 -246
q26 -1 52 -2.5t52 -1.5q23 0 46 1t46 3zM458 111l-42 106q-32 2 -64 3t-64 1q-30 0 -60 -1t-60 -3q-24 -58 -46 -116t-34 -101q-10 2 -23 4t-25 2q-13 0 -23.5 -2t-21.5 -4l116 258q38 85 68 152.5t52.5 120.5t38 93.5t24.5 71.5q8 -2 16 -3.5t17 -1.5q14 0 32 5
q18 -51 37.5 -102t39 -98t36.5 -88.5t31 -72.5q14 -33 33 -75.5t39 -88t40 -90.5t37 -81q-11 1 -34 3.5t-44 2.5t-40.5 -2.5t-33.5 -3.5z" />
    <glyph glyph-name="Adieresis" unicode="&#xc4;" horiz-adv-x="648" 
d="M281 790q0 -23 -17 -41t-42 -18t-42 17.5t-17 41.5q0 25 17 42t42 17t42 -17.5t17 -41.5zM486 790q0 -23 -17 -41t-42 -18t-42 17.5t-17 41.5q0 25 17 42t42 17t42 -17.5t17 -41.5zM293 525l-102 -246q26 -1 52 -2.5t52 -1.5q23 0 46 1t46 3zM458 111l-42 106
q-32 2 -64 3t-64 1q-30 0 -60 -1t-60 -3q-24 -58 -46 -116t-34 -101q-10 2 -23 4t-25 2q-13 0 -23.5 -2t-21.5 -4l116 258q38 85 68 152.5t52.5 120.5t38 93.5t24.5 71.5q8 -2 16 -3.5t17 -1.5q14 0 32 5q18 -51 37.5 -102t39 -98t36.5 -88.5t31 -72.5q14 -33 33 -75.5
t39 -88t40 -90.5t37 -81q-11 1 -34 3.5t-44 2.5t-40.5 -2.5t-33.5 -3.5z" />
    <glyph glyph-name="Aring" unicode="&#xc5;" horiz-adv-x="648" 
d="M385 816q0 24 -18.5 42.5t-42.5 18.5q-25 0 -43 -18.5t-18 -42.5q0 -26 18.5 -43.5t42.5 -17.5t42.5 17.5t18.5 43.5zM427 816q0 -21 -8.5 -39.5t-22.5 -33t-32.5 -22.5t-39.5 -8t-40 8.5t-33 22.5t-22 32.5t-8 39.5q0 20 8 38.5t22 33t33 23t40 8.5t39.5 -8.5
t32.5 -22.5t22.5 -32.5t8.5 -39.5zM293 525l-102 -246q26 -1 52 -2.5t52 -1.5q23 0 46 1t46 3zM458 111l-42 106q-32 2 -64 3t-64 1q-30 0 -60 -1t-60 -3q-24 -58 -46 -116t-34 -101q-10 2 -23 4t-25 2q-13 0 -23.5 -2t-21.5 -4l116 258q38 85 68 152.5t52.5 120.5t38 93.5
t24.5 71.5q8 -2 16 -3.5t17 -1.5q14 0 32 5q18 -51 37.5 -102t39 -98t36.5 -88.5t31 -72.5q14 -33 33 -75.5t39 -88t40 -90.5t37 -81q-11 1 -34 3.5t-44 2.5t-40.5 -2.5t-33.5 -3.5z" />
    <glyph glyph-name="AE" unicode="&#xc6;" horiz-adv-x="852" 
d="M449 603q-2 -5 -6 -11t-13 -20.5t-25.5 -40.5t-44.5 -70l-94 -148q-6 -9 -11.5 -18.5t-11.5 -17.5q31 -2 54.5 -3t49.5 -1q25 0 50 1t50 3zM570 62q10 0 37 0.5t61.5 1.5t71.5 2t69 3q-5 -11 -5 -33t5 -36q-90 6 -180 6q-96 0 -189 -6l4 106q1 26 2 56.5t1 53.5
q-30 3 -60 3.5t-58 0.5q-29 0 -59.5 -1t-63.5 -3q-6 -8 -17 -24.5t-22 -34t-20.5 -33t-12.5 -21.5q-4 -6 -12.5 -20.5t-17.5 -31t-17 -31t-11 -20.5q-14 2 -27 4t-27 2t-26.5 -2.5t-26.5 -3.5q8 8 30 38t48 67.5l52 75t42 60.5q15 22 36.5 53.5t44.5 65.5t44.5 66t36.5 55
q28 42 45 69t29.5 47.5t23.5 40t27 48.5q38 -2 84.5 -4t102.5 -2q51 0 100 2t88 4q-2 -9 -3.5 -16t-1.5 -16q0 -24 5 -37l-94 5q-14 1 -24.5 1.5t-24.5 0.5h-35h-55v-235h47.5t59.5 1t60 2.5t49 3.5q-2 -8 -3.5 -16.5t-1.5 -19.5q0 -22 5 -34q-20 2 -39 3l-38 2
q-35 1 -69.5 1.5t-69.5 0.5v-271z" />
    <glyph glyph-name="Ccedilla" unicode="&#xc7;" horiz-adv-x="704" 
d="M379 -12q-68 4 -128 28.5t-104.5 68t-70 105.5t-25.5 142q0 75 23.5 141t71.5 115t121.5 77.5t173.5 28.5q62 0 118 -11.5t116 -38.5l-30 -98h-10q-5 9 -15 25t-31 31t-56 26.5t-89 11.5q-126 0 -191 -78t-65 -221q0 -13 1 -36t6.5 -51.5t18 -60t35.5 -61.5
q13 -18 30.5 -34t39.5 -29t49.5 -20.5t61.5 -7.5q46 0 81.5 10.5t63 27t48.5 36.5t38 40l11 -7l-11 -99q-110 -60 -241 -62l-25 -51q5 2 12 3t17 1q16 0 32.5 -3.5t29 -11.5t20.5 -21t8 -32q0 -29 -13.5 -46.5t-33 -26.5t-42.5 -12t-42 -3q-21 0 -45.5 3.5t-43.5 12.5l16 35
q18 -6 31 -9t32 -3q6 0 15.5 1t18 5.5t15 12t6.5 21.5q0 23 -17 30t-34 7q-8 0 -13 -1t-11 -3l-12 8z" />
    <glyph glyph-name="Egrave" unicode="&#xc8;" horiz-adv-x="500" 
d="M329 721h-51l-163 101q-6 4 -13.5 12t-7.5 25q0 11 5 18.5t11.5 12.5t14 7.5t13.5 2.5q18 0 29 -8.5t21 -18.5zM215 389h47.5t59.5 1t60 2.5t49 3.5q-2 -8 -3.5 -16.5t-1.5 -19.5q0 -22 5 -34q-20 2 -39 3l-38 2q-35 1 -69.5 1.5t-69.5 0.5v-271q10 0 36.5 0.5t61 1.5
t72 2t69.5 3q-5 -11 -5 -33t5 -36q-90 6 -184 6q-91 0 -187 -6q2 32 3 62.5t2 62.5q1 22 1.5 53.5t1 64t1 62t0.5 46.5q0 16 -0.5 56t-1.5 89.5t-2.5 100.5t-4.5 89q18 -1 41 -2t47.5 -2t48.5 -1.5t44 -0.5q35 0 82.5 2t101.5 4q-2 -9 -3.5 -16t-1.5 -16q0 -24 5 -37l-94 5
q-14 1 -24.5 1.5t-24.5 0.5h-35h-55v-235z" />
    <glyph glyph-name="Eacute" unicode="&#xc9;" horiz-adv-x="500" 
d="M253 730h-51l141 152q10 11 22 19t26 8q19 0 33 -11t14 -30q0 -17 -8 -25t-13 -12zM215 389h47.5t59.5 1t60 2.5t49 3.5q-2 -8 -3.5 -16.5t-1.5 -19.5q0 -22 5 -34q-20 2 -39 3l-38 2q-35 1 -69.5 1.5t-69.5 0.5v-271q10 0 36.5 0.5t61 1.5t72 2t69.5 3q-5 -11 -5 -33
t5 -36q-90 6 -184 6q-91 0 -187 -6q2 32 3 62.5t2 62.5q1 22 1.5 53.5t1 64t1 62t0.5 46.5q0 16 -0.5 56t-1.5 89.5t-2.5 100.5t-4.5 89q18 -1 41 -2t47.5 -2t48.5 -1.5t44 -0.5q35 0 82.5 2t101.5 4q-2 -9 -3.5 -16t-1.5 -16q0 -24 5 -37l-94 5q-14 1 -24.5 1.5t-24.5 0.5
h-35h-55v-235z" />
    <glyph glyph-name="Ecircumflex" unicode="&#xca;" horiz-adv-x="500" 
d="M429 721h-50l-113 100l-114 -100h-49l123 172h79zM215 389h47.5t59.5 1t60 2.5t49 3.5q-2 -8 -3.5 -16.5t-1.5 -19.5q0 -22 5 -34q-20 2 -39 3l-38 2q-35 1 -69.5 1.5t-69.5 0.5v-271q10 0 36.5 0.5t61 1.5t72 2t69.5 3q-5 -11 -5 -33t5 -36q-90 6 -184 6q-91 0 -187 -6
q2 32 3 62.5t2 62.5q1 22 1.5 53.5t1 64t1 62t0.5 46.5q0 16 -0.5 56t-1.5 89.5t-2.5 100.5t-4.5 89q18 -1 41 -2t47.5 -2t48.5 -1.5t44 -0.5q35 0 82.5 2t101.5 4q-2 -9 -3.5 -16t-1.5 -16q0 -24 5 -37l-94 5q-14 1 -24.5 1.5t-24.5 0.5h-35h-55v-235z" />
    <glyph glyph-name="Edieresis" unicode="&#xcb;" horiz-adv-x="500" 
d="M217 790q0 -23 -17 -41t-42 -18t-42 17.5t-17 41.5q0 25 17 42t42 17t42 -17.5t17 -41.5zM422 790q0 -23 -17 -41t-42 -18t-42 17.5t-17 41.5q0 25 17 42t42 17t42 -17.5t17 -41.5zM215 389h47.5t59.5 1t60 2.5t49 3.5q-2 -8 -3.5 -16.5t-1.5 -19.5q0 -22 5 -34
q-20 2 -39 3l-38 2q-35 1 -69.5 1.5t-69.5 0.5v-271q10 0 36.5 0.5t61 1.5t72 2t69.5 3q-5 -11 -5 -33t5 -36q-90 6 -184 6q-91 0 -187 -6q2 32 3 62.5t2 62.5q1 22 1.5 53.5t1 64t1 62t0.5 46.5q0 16 -0.5 56t-1.5 89.5t-2.5 100.5t-4.5 89q18 -1 41 -2t47.5 -2t48.5 -1.5
t44 -0.5q35 0 82.5 2t101.5 4q-2 -9 -3.5 -16t-1.5 -16q0 -24 5 -37l-94 5q-14 1 -24.5 1.5t-24.5 0.5h-35h-55v-235z" />
    <glyph glyph-name="Igrave" unicode="&#xcc;" horiz-adv-x="315" 
d="M236 721h-51l-163 101q-6 4 -13.5 12t-7.5 25q0 11 5 18.5t11.5 12.5t14 7.5t13.5 2.5q18 0 29 -8.5t21 -18.5zM97 455q0 48 -1 103t-9 128q14 -2 37 -4t34 -2q17 0 35 2l36 4q-4 -28 -6.5 -71.5t-3.5 -92.5t-1 -97.5v-86.5q0 -112 2 -194.5t8 -143.5q-17 1 -35 3.5
t-35 2.5t-36 -2.5t-36 -3.5q8 90 9.5 208t1.5 247z" />
    <glyph glyph-name="Iacute" unicode="&#xcd;" horiz-adv-x="315" 
d="M130 730h-51l141 152q10 11 22 19t26 8q19 0 33 -11t14 -30q0 -17 -8 -25t-13 -12zM97 455q0 48 -1 103t-9 128q14 -2 37 -4t34 -2q17 0 35 2l36 4q-4 -28 -6.5 -71.5t-3.5 -92.5t-1 -97.5v-86.5q0 -112 2 -194.5t8 -143.5q-17 1 -35 3.5t-35 2.5t-36 -2.5t-36 -3.5
q8 90 9.5 208t1.5 247z" />
    <glyph glyph-name="Icircumflex" unicode="&#xce;" horiz-adv-x="315" 
d="M321 721h-50l-113 100l-114 -100h-49l123 172h79zM97 455q0 48 -1 103t-9 128q14 -2 37 -4t34 -2q17 0 35 2l36 4q-4 -28 -6.5 -71.5t-3.5 -92.5t-1 -97.5v-86.5q0 -112 2 -194.5t8 -143.5q-17 1 -35 3.5t-35 2.5t-36 -2.5t-36 -3.5q8 90 9.5 208t1.5 247z" />
    <glyph glyph-name="Idieresis" unicode="&#xcf;" horiz-adv-x="315" 
d="M114 790q0 -23 -17 -41t-42 -18t-42 17.5t-17 41.5q0 25 17 42t42 17t42 -17.5t17 -41.5zM319 790q0 -23 -17 -41t-42 -18t-42 17.5t-17 41.5q0 25 17 42t42 17t42 -17.5t17 -41.5zM97 455q0 48 -1 103t-9 128q14 -2 37 -4t34 -2q17 0 35 2l36 4q-4 -28 -6.5 -71.5
t-3.5 -92.5t-1 -97.5v-86.5q0 -112 2 -194.5t8 -143.5q-17 1 -35 3.5t-35 2.5t-36 -2.5t-36 -3.5q8 90 9.5 208t1.5 247z" />
    <glyph glyph-name="Eth" unicode="&#xd0;" horiz-adv-x="778" 
d="M336 341q-15 0 -32.5 0.5t-34 1t-31.5 0.5h-25v-92.5t0.5 -64t1.5 -57t3 -71.5q8 0 27 -1t40 -2t40.5 -1.5t28.5 -0.5q16 0 40 5t50.5 17.5t52.5 34t46.5 55.5t33.5 82t13 112q0 48 -13 97t-43.5 88.5t-82.5 64t-130 24.5q-26 0 -51.5 -1.5t-51.5 -3.5q-2 -30 -3.5 -60.5
t-1.5 -60.5v-108q31 0 50.5 0.5t37 1.5t36 2.5t47.5 3.5q-1 -8 -2 -16.5t-1 -16.5t1 -16t2 -18zM89 195q0 32 0.5 68.5t0.5 79.5q-17 0 -39.5 -1.5t-43.5 -3.5q3 18 3 35q0 15 -3 32q15 -2 25 -3t18.5 -2t17.5 -1h22v32t-0.5 48t-1 47t-0.5 30q0 7 -0.5 26t-1.5 39.5
t-2 38.5t-1 25q20 -2 41 -3.5t41 -1.5q41 0 84.5 2.5t88.5 2.5q32 0 67 -1.5t70.5 -8.5t70.5 -21t66 -38q58 -45 86.5 -110t28.5 -143q0 -106 -39 -183.5t-110 -122.5q-53 -34 -104 -45.5t-113 -11.5q-46 0 -92 2.5t-92 2.5q-23 0 -47 -1.5t-47 -3.5z" />
    <glyph glyph-name="Ntilde" unicode="&#xd1;" horiz-adv-x="759" 
d="M557 856q-3 -12 -9 -31t-18.5 -37t-32.5 -31t-51 -13q-22 0 -44 6.5t-41.5 15t-35.5 15t-27 6.5q-21 0 -33.5 -13.5t-18.5 -30.5h-36q4 13 11 32.5t19.5 37t31.5 30t48 12.5q18 0 38 -6.5t40 -14.5t38 -15t32 -7t23.5 5t15.5 11.5t9 14t5 13.5h36zM90 405q0 71 -0.5 141
t-1.5 140q6 -1 12 -1.5t12 -0.5t11.5 0.5t11.5 1.5q36 -39 71 -77t72 -76t77 -78.5t85 -84.5l118 -116q14 -14 23.5 -22t26.5 -21v222q0 64 -3.5 127.5t-8.5 125.5q9 -2 19 -4t24 -2t23.5 2t18.5 4q-3 -45 -5.5 -83t-3.5 -76.5t-1.5 -81t-0.5 -97.5v-57t0.5 -72.5t0.5 -71.5
v-53v-21t0.5 -27.5t0.5 -28v-22.5q-5 1 -10 1.5t-10 0.5t-10.5 -0.5t-10.5 -1.5q-32 34 -72.5 76.5t-84.5 87.5t-90 91t-89 88t-80 77.5t-63 59.5v-91.5t0.5 -77t1 -71.5t1.5 -75q0 -22 0.5 -36.5t1.5 -30.5t2.5 -37.5t4.5 -55.5q-8 1 -21 3.5t-24 2.5t-21 -2t-19 -4l8 139
q1 10 1.5 27.5t1 37t0.5 37v28.5v136z" />
    <glyph glyph-name="Ograve" unicode="&#xd2;" horiz-adv-x="852" 
d="M505 721h-51l-163 101q-6 4 -13.5 12t-7.5 25q0 11 5 18.5t11.5 12.5t14 7.5t13.5 2.5q18 0 29 -8.5t21 -18.5zM429 694q70 0 136.5 -19.5t118.5 -61.5t83.5 -106.5t31.5 -154.5q0 -84 -27 -151.5t-76 -115t-118 -73.5t-152 -26q-78 0 -146 22.5t-118.5 66t-79.5 107.5
t-29 146q0 95 30.5 164t82 114t119.5 66.5t144 21.5zM190 340q0 -56 12.5 -110.5t41 -97t73 -69t109.5 -26.5q64 0 108.5 27t73 70.5t41.5 97.5t13 108q0 61 -12.5 116t-40 96.5t-72.5 66t-111 24.5q-65 0 -109.5 -28t-73 -72t-41 -98t-12.5 -105z" />
    <glyph glyph-name="Oacute" unicode="&#xd3;" horiz-adv-x="852" 
d="M399 730h-51l141 152q10 11 22 19t26 8q19 0 33 -11t14 -30q0 -17 -8 -25t-13 -12zM429 694q70 0 136.5 -19.5t118.5 -61.5t83.5 -106.5t31.5 -154.5q0 -84 -27 -151.5t-76 -115t-118 -73.5t-152 -26q-78 0 -146 22.5t-118.5 66t-79.5 107.5t-29 146q0 95 30.5 164
t82 114t119.5 66.5t144 21.5zM190 340q0 -56 12.5 -110.5t41 -97t73 -69t109.5 -26.5q64 0 108.5 27t73 70.5t41.5 97.5t13 108q0 61 -12.5 116t-40 96.5t-72.5 66t-111 24.5q-65 0 -109.5 -28t-73 -72t-41 -98t-12.5 -105z" />
    <glyph glyph-name="Ocircumflex" unicode="&#xd4;" horiz-adv-x="852" 
d="M590 721h-50l-113 100l-114 -100h-49l123 172h79zM429 694q70 0 136.5 -19.5t118.5 -61.5t83.5 -106.5t31.5 -154.5q0 -84 -27 -151.5t-76 -115t-118 -73.5t-152 -26q-78 0 -146 22.5t-118.5 66t-79.5 107.5t-29 146q0 95 30.5 164t82 114t119.5 66.5t144 21.5zM190 340
q0 -56 12.5 -110.5t41 -97t73 -69t109.5 -26.5q64 0 108.5 27t73 70.5t41.5 97.5t13 108q0 61 -12.5 116t-40 96.5t-72.5 66t-111 24.5q-65 0 -109.5 -28t-73 -72t-41 -98t-12.5 -105z" />
    <glyph glyph-name="Otilde" unicode="&#xd5;" horiz-adv-x="852" 
d="M604 856q-3 -12 -9 -31t-18.5 -37t-32.5 -31t-51 -13q-22 0 -44 6.5t-41.5 15t-35.5 15t-27 6.5q-21 0 -33.5 -13.5t-18.5 -30.5h-36q4 13 11 32.5t19.5 37t31.5 30t48 12.5q18 0 38 -6.5t40 -14.5t38 -15t32 -7t23.5 5t15.5 11.5t9 14t5 13.5h36zM429 694
q70 0 136.5 -19.5t118.5 -61.5t83.5 -106.5t31.5 -154.5q0 -84 -27 -151.5t-76 -115t-118 -73.5t-152 -26q-78 0 -146 22.5t-118.5 66t-79.5 107.5t-29 146q0 95 30.5 164t82 114t119.5 66.5t144 21.5zM190 340q0 -56 12.5 -110.5t41 -97t73 -69t109.5 -26.5q64 0 108.5 27
t73 70.5t41.5 97.5t13 108q0 61 -12.5 116t-40 96.5t-72.5 66t-111 24.5q-65 0 -109.5 -28t-73 -72t-41 -98t-12.5 -105z" />
    <glyph glyph-name="Odieresis" unicode="&#xd6;" horiz-adv-x="852" 
d="M383 790q0 -23 -17 -41t-42 -18t-42 17.5t-17 41.5q0 25 17 42t42 17t42 -17.5t17 -41.5zM588 790q0 -23 -17 -41t-42 -18t-42 17.5t-17 41.5q0 25 17 42t42 17t42 -17.5t17 -41.5zM429 694q70 0 136.5 -19.5t118.5 -61.5t83.5 -106.5t31.5 -154.5q0 -84 -27 -151.5
t-76 -115t-118 -73.5t-152 -26q-78 0 -146 22.5t-118.5 66t-79.5 107.5t-29 146q0 95 30.5 164t82 114t119.5 66.5t144 21.5zM190 340q0 -56 12.5 -110.5t41 -97t73 -69t109.5 -26.5q64 0 108.5 27t73 70.5t41.5 97.5t13 108q0 61 -12.5 116t-40 96.5t-72.5 66t-111 24.5
q-65 0 -109.5 -28t-73 -72t-41 -98t-12.5 -105z" />
    <glyph glyph-name="multiply" unicode="&#xd7;" horiz-adv-x="667" 
d="M82 510l46 46l205 -205l204 205l46 -46l-205 -204l205 -205l-46 -47l-204 205l-205 -205l-46 47l205 205z" />
    <glyph glyph-name="Oslash" unicode="&#xd8;" horiz-adv-x="852" 
d="M622 528q-76 -85 -167 -188.5t-199 -226.5q28 -34 69 -55t101 -21q68 0 113 29.5t72 76.5t38 104.5t11 114.5q0 45 -9 87.5t-29 78.5zM596 567q-29 35 -71 55.5t-100 20.5q-38 0 -80 -14.5t-77 -51t-57.5 -98.5t-22.5 -156q0 -38 9 -82.5t31 -86.5q85 94 175 195t193 218
zM86 -79q-10 11 -17 17t-25 17q29 30 56.5 60t56.5 62l-10 10q-32 32 -50.5 66t-29 66t-13.5 60.5t-3 48.5q0 95 30.5 164t82 114t119.5 66.5t144 21.5q61 0 119.5 -14.5t107.5 -46.5l102 120q7 -11 14 -17.5t27 -19.5q-24 -25 -50 -52.5t-55 -59.5q48 -42 76.5 -104
t28.5 -148q0 -84 -27 -151.5t-76 -115t-118 -73.5t-152 -26q-54 0 -112.5 11t-114.5 49z" />
    <glyph glyph-name="Ugrave" unicode="&#xd9;" horiz-adv-x="722" 
d="M440 721h-51l-163 101q-6 4 -13.5 12t-7.5 25q0 11 5 18.5t11.5 12.5t14 7.5t13.5 2.5q18 0 29 -8.5t21 -18.5zM208 610q-2 -57 -2.5 -125t-0.5 -133q0 -60 1 -98.5t4 -63.5t9 -41t17 -31q22 -29 61 -45t92 -16q61 0 105.5 28.5t61.5 74.5q3 8 5.5 18.5t4 26.5t2.5 37.5
t1 52.5q0 98 -1.5 195.5t-7.5 195.5l22 -4t23 -2t24 2t23 4l-3 -48q-2 -32 -3.5 -83.5t-2.5 -107.5t-2 -110t-2 -92q-1 -44 -7.5 -77t-19.5 -58.5t-31.5 -44t-43.5 -34.5q-35 -23 -81.5 -33t-86.5 -10q-45 0 -92 8.5t-87.5 30t-69.5 59t-37 95.5q-2 11 -2 28.5v24.5v272
q0 19 -0.5 42.5t-1 47.5t-1.5 47.5t-2 42.5q17 -2 35 -4t35 -2t33.5 2t31.5 4z" />
    <glyph glyph-name="Uacute" unicode="&#xda;" horiz-adv-x="722" 
d="M364 730h-51l141 152q10 11 22 19t26 8q19 0 33 -11t14 -30q0 -17 -8 -25t-13 -12zM208 610q-2 -57 -2.5 -125t-0.5 -133q0 -60 1 -98.5t4 -63.5t9 -41t17 -31q22 -29 61 -45t92 -16q61 0 105.5 28.5t61.5 74.5q3 8 5.5 18.5t4 26.5t2.5 37.5t1 52.5q0 98 -1.5 195.5
t-7.5 195.5l22 -4t23 -2t24 2t23 4l-3 -48q-2 -32 -3.5 -83.5t-2.5 -107.5t-2 -110t-2 -92q-1 -44 -7.5 -77t-19.5 -58.5t-31.5 -44t-43.5 -34.5q-35 -23 -81.5 -33t-86.5 -10q-45 0 -92 8.5t-87.5 30t-69.5 59t-37 95.5q-2 11 -2 28.5v24.5v272q0 19 -0.5 42.5t-1 47.5
t-1.5 47.5t-2 42.5q17 -2 35 -4t35 -2t33.5 2t31.5 4z" />
    <glyph glyph-name="Ucircumflex" unicode="&#xdb;" horiz-adv-x="722" 
d="M540 721h-50l-113 100l-114 -100h-49l123 172h79zM208 610q-2 -57 -2.5 -125t-0.5 -133q0 -60 1 -98.5t4 -63.5t9 -41t17 -31q22 -29 61 -45t92 -16q61 0 105.5 28.5t61.5 74.5q3 8 5.5 18.5t4 26.5t2.5 37.5t1 52.5q0 98 -1.5 195.5t-7.5 195.5l22 -4t23 -2t24 2t23 4
l-3 -48q-2 -32 -3.5 -83.5t-2.5 -107.5t-2 -110t-2 -92q-1 -44 -7.5 -77t-19.5 -58.5t-31.5 -44t-43.5 -34.5q-35 -23 -81.5 -33t-86.5 -10q-45 0 -92 8.5t-87.5 30t-69.5 59t-37 95.5q-2 11 -2 28.5v24.5v272q0 19 -0.5 42.5t-1 47.5t-1.5 47.5t-2 42.5q17 -2 35 -4t35 -2
t33.5 2t31.5 4z" />
    <glyph glyph-name="Udieresis" unicode="&#xdc;" horiz-adv-x="722" 
d="M328 790q0 -23 -17 -41t-42 -18t-42 17.5t-17 41.5q0 25 17 42t42 17t42 -17.5t17 -41.5zM533 790q0 -23 -17 -41t-42 -18t-42 17.5t-17 41.5q0 25 17 42t42 17t42 -17.5t17 -41.5zM208 610q-2 -57 -2.5 -125t-0.5 -133q0 -60 1 -98.5t4 -63.5t9 -41t17 -31
q22 -29 61 -45t92 -16q61 0 105.5 28.5t61.5 74.5q3 8 5.5 18.5t4 26.5t2.5 37.5t1 52.5q0 98 -1.5 195.5t-7.5 195.5l22 -4t23 -2t24 2t23 4l-3 -48q-2 -32 -3.5 -83.5t-2.5 -107.5t-2 -110t-2 -92q-1 -44 -7.5 -77t-19.5 -58.5t-31.5 -44t-43.5 -34.5q-35 -23 -81.5 -33
t-86.5 -10q-45 0 -92 8.5t-87.5 30t-69.5 59t-37 95.5q-2 11 -2 28.5v24.5v272q0 19 -0.5 42.5t-1 47.5t-1.5 47.5t-2 42.5q17 -2 35 -4t35 -2t33.5 2t31.5 4z" />
    <glyph glyph-name="Yacute" unicode="&#xdd;" horiz-adv-x="593" 
d="M299 730h-51l141 152q10 11 22 19t26 8q19 0 33 -11t14 -30q0 -17 -8 -25t-13 -12zM357 231q0 -32 0.5 -58.5t1.5 -53.5t2 -55.5t3 -63.5q-17 2 -34.5 4t-34.5 2q-15 0 -34 -2t-33 -4q1 29 2 66.5l2 75t1.5 72t0.5 57.5l-59 102q-19 33 -43.5 74t-50 83t-50.5 82.5
t-44 73.5q28 -3 46.5 -4.5t35.5 -1.5q18 0 39 1t43 5q19 -41 37 -78t38 -76t44 -83.5t56 -100.5q32 55 53 92.5t38.5 72t36 74.5t45.5 99q12 -2 26.5 -4t31.5 -2q15 0 24.5 1.5t17.5 4.5q-6 -10 -20.5 -34t-31 -50.5t-31 -50t-20.5 -32.5q-34 -54 -64 -109.5t-62 -109.5
q-5 -9 -9 -17t-4 -15v-37z" />
    <glyph glyph-name="Thorn" unicode="&#xde;" horiz-adv-x="574" 
d="M218 206q14 -2 26.5 -3t26.5 -1q42 0 69 16t42.5 39t21.5 48.5t6 45.5q0 28 -7.5 52.5t-22 43t-36.5 29.5t-52 11q-19 0 -38 -1t-36 -3v-277zM88 686q17 -2 34.5 -4t37.5 -2q14 0 31.5 2t33.5 4q-5 -32 -6 -66.5t-1 -86.5q24 2 49.5 2.5t48.5 0.5q42 0 81 -6t74 -32
q29 -21 48.5 -53.5t19.5 -87.5q0 -36 -12 -72t-41.5 -65.5t-78 -48t-120.5 -18.5q-23 0 -37.5 1t-31.5 3v-47q0 -32 2.5 -61t4.5 -49q-17 3 -33.5 4.5t-36.5 1.5t-36 -1.5t-33 -4.5q4 60 5.5 92.5t1.5 51.5l2 245v39.5v47.5t-0.5 46.5t-1.5 37.5z" />
    <glyph glyph-name="germandbls" unicode="&#xdf;" horiz-adv-x="574" 
d="M69 91q3 74 4 147.5t1 145.5v23.5t-0.5 30.5t-0.5 30.5v22.5q0 31 0.5 56t5 46.5t14 40t27.5 38.5q31 34 76 53t99 19q74 0 116.5 -32.5t42.5 -93.5q0 -26 -6 -44.5t-15.5 -32.5t-22.5 -26t-28 -24q-17 -14 -27.5 -23.5t-16 -15.5t-7 -10t-1.5 -8t1 -7.5t5 -9t13 -14
t26 -21.5q4 -3 14.5 -11t22 -16t21.5 -15.5l14 -10.5q18 -14 34 -29t28 -31.5t19 -35.5t7 -43q0 -36 -15.5 -71t-43 -63.5t-65 -46t-80.5 -17.5q-18 0 -35 3t-31 7.5t-24 9t-14 7.5q6 13 10 22.5t7 18.5t5.5 20t5.5 26h16q4 -17 13 -30t21 -21t25.5 -12t26.5 -4q17 0 33 5.5
t29 16.5t20.5 28t7.5 40q0 21 -8.5 39t-23.5 34.5t-36.5 33t-47.5 35.5q-24 17 -41.5 30t-29 26t-17 26t-5.5 30q0 9 1.5 16.5t6.5 15.5t13.5 17.5t22.5 22.5q21 19 36 34t24.5 31t14.5 34t5 44q0 10 -2 28t-10.5 35t-25 29.5t-45.5 12.5q-24 0 -39.5 -8t-24.5 -18.5
t-13 -21t-5 -16.5q-5 -16 -7 -32t-3.5 -36.5t-1.5 -48v-66.5l1 -271q0 -47 1 -93.5t4 -91.5q-11 2 -27 3.5t-32 1.5q-15 0 -31.5 -1.5t-33.5 -3.5z" />
    <glyph glyph-name="agrave" unicode="&#xe0;" horiz-adv-x="500" 
d="M329 561h-51l-163 101q-6 4 -13.5 12t-7.5 25q0 11 5 18.5t11.5 12.5t14 7.5t13.5 2.5q18 0 29 -8.5t21 -18.5zM304 248q-43 -11 -72.5 -20t-48 -20.5t-26.5 -28.5t-8 -44q0 -40 18 -63t48 -23q41 0 65 28t24 67v104zM231 273q22 6 35.5 10t21 7t10.5 5.5t5 5.5q4 8 4 20
q0 57 -28 81.5t-69 24.5q-29 0 -48.5 -7.5t-32 -19t-19 -23.5t-8.5 -21q-10 2 -15 2q-6 0 -16 -2q2 14 3.5 25t1.5 24v13.5t-1 13.5q28 17 49.5 28t39 17t34 8.5t36.5 2.5q81 0 131.5 -37t50.5 -113q0 -14 -0.5 -38t-1 -49.5t-1 -48.5t-0.5 -35q0 -37 0.5 -60.5t4 -37
t10.5 -19t20 -5.5q8 0 14.5 2.5t13.5 5.5q-2 -5 -3 -9t-1 -9t1 -9t3 -9q-20 -8 -42 -15t-43 -7q-22 0 -36 5t-23 13.5t-14.5 19.5t-9.5 23q-23 -31 -59 -49.5t-75 -18.5q-44 0 -71 13.5t-42 33t-20 40t-5 35.5q0 42 12 67.5t33.5 41.5t51 26t64.5 19z" />
    <glyph glyph-name="aacute" unicode="&#xe1;" horiz-adv-x="500" 
d="M213 570h-51l141 152q10 11 22 19t26 8q19 0 33 -11t14 -30q0 -17 -8 -25t-13 -12zM304 248q-43 -11 -72.5 -20t-48 -20.5t-26.5 -28.5t-8 -44q0 -40 18 -63t48 -23q41 0 65 28t24 67v104zM231 273q22 6 35.5 10t21 7t10.5 5.5t5 5.5q4 8 4 20q0 57 -28 81.5t-69 24.5
q-29 0 -48.5 -7.5t-32 -19t-19 -23.5t-8.5 -21q-10 2 -15 2q-6 0 -16 -2q2 14 3.5 25t1.5 24v13.5t-1 13.5q28 17 49.5 28t39 17t34 8.5t36.5 2.5q81 0 131.5 -37t50.5 -113q0 -14 -0.5 -38t-1 -49.5t-1 -48.5t-0.5 -35q0 -37 0.5 -60.5t4 -37t10.5 -19t20 -5.5
q8 0 14.5 2.5t13.5 5.5q-2 -5 -3 -9t-1 -9t1 -9t3 -9q-20 -8 -42 -15t-43 -7q-22 0 -36 5t-23 13.5t-14.5 19.5t-9.5 23q-23 -31 -59 -49.5t-75 -18.5q-44 0 -71 13.5t-42 33t-20 40t-5 35.5q0 42 12 67.5t33.5 41.5t51 26t64.5 19z" />
    <glyph glyph-name="acircumflex" unicode="&#xe2;" horiz-adv-x="500" 
d="M414 561h-50l-113 100l-114 -100h-49l123 172h79zM304 248q-43 -11 -72.5 -20t-48 -20.5t-26.5 -28.5t-8 -44q0 -40 18 -63t48 -23q41 0 65 28t24 67v104zM231 273q22 6 35.5 10t21 7t10.5 5.5t5 5.5q4 8 4 20q0 57 -28 81.5t-69 24.5q-29 0 -48.5 -7.5t-32 -19
t-19 -23.5t-8.5 -21q-10 2 -15 2q-6 0 -16 -2q2 14 3.5 25t1.5 24v13.5t-1 13.5q28 17 49.5 28t39 17t34 8.5t36.5 2.5q81 0 131.5 -37t50.5 -113q0 -14 -0.5 -38t-1 -49.5t-1 -48.5t-0.5 -35q0 -37 0.5 -60.5t4 -37t10.5 -19t20 -5.5q8 0 14.5 2.5t13.5 5.5q-2 -5 -3 -9
t-1 -9t1 -9t3 -9q-20 -8 -42 -15t-43 -7q-22 0 -36 5t-23 13.5t-14.5 19.5t-9.5 23q-23 -31 -59 -49.5t-75 -18.5q-44 0 -71 13.5t-42 33t-20 40t-5 35.5q0 42 12 67.5t33.5 41.5t51 26t64.5 19z" />
    <glyph glyph-name="atilde" unicode="&#xe3;" horiz-adv-x="500" 
d="M428 696q-3 -12 -9 -31t-18.5 -37t-32.5 -31t-51 -13q-22 0 -44 6.5t-41.5 15t-35.5 15t-27 6.5q-21 0 -33.5 -13.5t-18.5 -30.5h-36q4 13 11 32.5t19.5 37t31.5 30t48 12.5q18 0 38 -6.5t40 -14.5t38 -15t32 -7t23.5 5t15.5 11.5t9 14t5 13.5h36zM304 248
q-43 -11 -72.5 -20t-48 -20.5t-26.5 -28.5t-8 -44q0 -40 18 -63t48 -23q41 0 65 28t24 67v104zM231 273q22 6 35.5 10t21 7t10.5 5.5t5 5.5q4 8 4 20q0 57 -28 81.5t-69 24.5q-29 0 -48.5 -7.5t-32 -19t-19 -23.5t-8.5 -21q-10 2 -15 2q-6 0 -16 -2q2 14 3.5 25t1.5 24v13.5
t-1 13.5q28 17 49.5 28t39 17t34 8.5t36.5 2.5q81 0 131.5 -37t50.5 -113q0 -14 -0.5 -38t-1 -49.5t-1 -48.5t-0.5 -35q0 -37 0.5 -60.5t4 -37t10.5 -19t20 -5.5q8 0 14.5 2.5t13.5 5.5q-2 -5 -3 -9t-1 -9t1 -9t3 -9q-20 -8 -42 -15t-43 -7q-22 0 -36 5t-23 13.5t-14.5 19.5
t-9.5 23q-23 -31 -59 -49.5t-75 -18.5q-44 0 -71 13.5t-42 33t-20 40t-5 35.5q0 42 12 67.5t33.5 41.5t51 26t64.5 19z" />
    <glyph glyph-name="adieresis" unicode="&#xe4;" horiz-adv-x="500" 
d="M207 630q0 -23 -17 -41t-42 -18t-42 17.5t-17 41.5q0 25 17 42t42 17t42 -17.5t17 -41.5zM412 630q0 -23 -17 -41t-42 -18t-42 17.5t-17 41.5q0 25 17 42t42 17t42 -17.5t17 -41.5zM304 248q-43 -11 -72.5 -20t-48 -20.5t-26.5 -28.5t-8 -44q0 -40 18 -63t48 -23
q41 0 65 28t24 67v104zM231 273q22 6 35.5 10t21 7t10.5 5.5t5 5.5q4 8 4 20q0 57 -28 81.5t-69 24.5q-29 0 -48.5 -7.5t-32 -19t-19 -23.5t-8.5 -21q-10 2 -15 2q-6 0 -16 -2q2 14 3.5 25t1.5 24v13.5t-1 13.5q28 17 49.5 28t39 17t34 8.5t36.5 2.5q81 0 131.5 -37
t50.5 -113q0 -14 -0.5 -38t-1 -49.5t-1 -48.5t-0.5 -35q0 -37 0.5 -60.5t4 -37t10.5 -19t20 -5.5q8 0 14.5 2.5t13.5 5.5q-2 -5 -3 -9t-1 -9t1 -9t3 -9q-20 -8 -42 -15t-43 -7q-22 0 -36 5t-23 13.5t-14.5 19.5t-9.5 23q-23 -31 -59 -49.5t-75 -18.5q-44 0 -71 13.5t-42 33
t-20 40t-5 35.5q0 42 12 67.5t33.5 41.5t51 26t64.5 19z" />
    <glyph glyph-name="aring" unicode="&#xe5;" horiz-adv-x="500" 
d="M306 656q0 24 -18.5 42.5t-42.5 18.5q-25 0 -43 -18.5t-18 -42.5q0 -26 18.5 -43.5t42.5 -17.5t42.5 17.5t18.5 43.5zM348 656q0 -21 -8.5 -39.5t-22.5 -33t-32.5 -22.5t-39.5 -8t-40 8.5t-33 22.5t-22 32.5t-8 39.5q0 20 8 38.5t22 33t33 23t40 8.5t39.5 -8.5
t32.5 -22.5t22.5 -32.5t8.5 -39.5zM304 248q-43 -11 -72.5 -20t-48 -20.5t-26.5 -28.5t-8 -44q0 -40 18 -63t48 -23q41 0 65 28t24 67v104zM231 273q22 6 35.5 10t21 7t10.5 5.5t5 5.5q4 8 4 20q0 57 -28 81.5t-69 24.5q-29 0 -48.5 -7.5t-32 -19t-19 -23.5t-8.5 -21
q-10 2 -15 2q-6 0 -16 -2q2 14 3.5 25t1.5 24v13.5t-1 13.5q28 17 49.5 28t39 17t34 8.5t36.5 2.5q81 0 131.5 -37t50.5 -113q0 -14 -0.5 -38t-1 -49.5t-1 -48.5t-0.5 -35q0 -37 0.5 -60.5t4 -37t10.5 -19t20 -5.5q8 0 14.5 2.5t13.5 5.5q-2 -5 -3 -9t-1 -9t1 -9t3 -9
q-20 -8 -42 -15t-43 -7q-22 0 -36 5t-23 13.5t-14.5 19.5t-9.5 23q-23 -31 -59 -49.5t-75 -18.5q-44 0 -71 13.5t-42 33t-20 40t-5 35.5q0 42 12 67.5t33.5 41.5t51 26t64.5 19z" />
    <glyph glyph-name="ae" unicode="&#xe6;" horiz-adv-x="796" 
d="M638 285q0 31 -2 59.5t-14 51.5q-13 25 -35 37.5t-50 12.5q-40 0 -62.5 -17.5t-33.5 -42.5t-13.5 -53t-3.5 -48h214zM319 248q-6 -2 -19.5 -5.5t-28.5 -7.5t-28 -8t-18 -5q-14 -5 -27.5 -10.5t-24.5 -15t-18 -24.5t-7 -39q0 -10 3 -24.5t11.5 -28t24 -23t40.5 -9.5
q22 0 44 13t35 36q9 16 11 36t2 33v82zM72 354l6 29q1 5 1.5 10.5t0.5 10.5q0 9 -1 15.5t-3 13.5q4 4 19.5 13t38.5 18.5t53.5 16.5t65.5 7q54 0 86.5 -16t49.5 -34q16 12 32 21.5t34 15.5t39.5 9t47.5 3q66 0 117.5 -28t75.5 -87q14 -33 16 -69.5t2 -67.5l-162 3
q-17 0 -30 0.5t-30 0t-41.5 -1t-65.5 -1.5q0 -11 0.5 -26t3.5 -32.5t9.5 -36t18.5 -35.5q14 -20 32.5 -32t37 -18t35.5 -8t29 -2q38 0 72 18t63 44l10 -6q-3 -10 -5 -16.5t-3.5 -13.5t-3 -14.5t-2.5 -18.5q-9 -6 -24 -15t-36 -17.5t-48 -14.5t-61 -6q-49 0 -84.5 11.5
t-59 28t-36.5 33t-18 27.5q-9 -13 -21.5 -28.5t-36.5 -32.5q-20 -14 -39.5 -22t-36 -11.5t-27.5 -4t-13 -0.5t-11.5 0.5t-23 2.5t-29 7.5t-29.5 14.5q-5 3 -14 10t-17 19.5t-14 32t-6 47.5q0 39 15 64t42 41t63 26t78 19q25 6 40 9t23 5.5t11 3.5t5 3q8 8 8 30
q0 19 -3.5 37.5t-15 33.5t-33 24.5t-58.5 9.5q-28 0 -47.5 -8.5t-32.5 -20t-20.5 -24t-10.5 -20.5h-28z" />
    <glyph glyph-name="ccedilla" unicode="&#xe7;" horiz-adv-x="481" 
d="M257 -8q-53 6 -92.5 29t-65.5 56t-39.5 73.5t-13.5 81.5q0 49 15.5 95t48 82t81.5 57.5t117 21.5q46 0 80 -9t73 -26q-5 -10 -12 -33t-11 -61h-19q0 2 -4.5 15t-16.5 28t-32.5 27.5t-52.5 12.5q-35 0 -63.5 -17.5t-43.5 -40.5q-19 -28 -25 -62t-6 -73q0 -37 7 -73.5
t24 -66t45.5 -47.5t72.5 -18q22 0 38.5 4.5t30.5 12.5t26.5 19t26.5 23l16 -9q-11 -15 -14 -33.5t-6 -36.5q-41 -22 -79 -29t-66 -7l-25 -52q5 2 12 3t17 1q16 0 32.5 -3.5t29 -11.5t20.5 -21t8 -32q0 -29 -13.5 -46.5t-33 -26.5t-42.5 -12t-42 -3q-21 0 -45.5 3.5
t-43.5 12.5l16 35q18 -6 31 -9t32 -3q6 0 15.5 1t18 5.5t15 12t6.5 21.5q0 23 -17 30t-34 7q-8 0 -13 -1t-11 -3l-12 8z" />
    <glyph glyph-name="egrave" unicode="&#xe8;" horiz-adv-x="537" 
d="M347 561h-51l-163 101q-6 4 -13.5 12t-7.5 25q0 11 5 18.5t11.5 12.5t14 7.5t13.5 2.5q18 0 29 -8.5t21 -18.5zM378 285q0 18 -1.5 46t-11 53.5t-30 44t-57.5 18.5q-39 0 -60.5 -20t-32.5 -47t-14 -54t-4 -41h211zM165 236q0 -9 0.5 -26.5t5 -38.5t14 -43t27.5 -40
t45 -29.5t67 -11.5q17 0 36.5 4.5t39 12.5t37 20t29.5 26l11 -7q-2 -5 -4 -10.5t-4 -10.5l-9 -43q-3 -3 -16 -11.5t-34.5 -17t-51.5 -15.5t-66 -7q-14 0 -36 2.5t-47.5 9.5t-51 20t-46.5 34q-25 25 -38.5 53t-20 54.5t-7.5 48.5t-1 35q0 62 19.5 107.5t52 75.5t74.5 44.5
t86 14.5q14 0 38 -1.5t51 -10t53.5 -27t45.5 -52.5q13 -24 22 -63.5t7 -96.5h-328z" />
    <glyph glyph-name="eacute" unicode="&#xe9;" horiz-adv-x="537" 
d="M251 570h-51l141 152q10 11 22 19t26 8q19 0 33 -11t14 -30q0 -17 -8 -25t-13 -12zM378 285q0 18 -1.5 46t-11 53.5t-30 44t-57.5 18.5q-39 0 -60.5 -20t-32.5 -47t-14 -54t-4 -41h211zM165 236q0 -9 0.5 -26.5t5 -38.5t14 -43t27.5 -40t45 -29.5t67 -11.5q17 0 36.5 4.5
t39 12.5t37 20t29.5 26l11 -7q-2 -5 -4 -10.5t-4 -10.5l-9 -43q-3 -3 -16 -11.5t-34.5 -17t-51.5 -15.5t-66 -7q-14 0 -36 2.5t-47.5 9.5t-51 20t-46.5 34q-25 25 -38.5 53t-20 54.5t-7.5 48.5t-1 35q0 62 19.5 107.5t52 75.5t74.5 44.5t86 14.5q14 0 38 -1.5t51 -10
t53.5 -27t45.5 -52.5q13 -24 22 -63.5t7 -96.5h-328z" />
    <glyph glyph-name="ecircumflex" unicode="&#xea;" horiz-adv-x="537" 
d="M432 561h-50l-113 100l-114 -100h-49l123 172h79zM378 285q0 18 -1.5 46t-11 53.5t-30 44t-57.5 18.5q-39 0 -60.5 -20t-32.5 -47t-14 -54t-4 -41h211zM165 236q0 -9 0.5 -26.5t5 -38.5t14 -43t27.5 -40t45 -29.5t67 -11.5q17 0 36.5 4.5t39 12.5t37 20t29.5 26l11 -7
q-2 -5 -4 -10.5t-4 -10.5l-9 -43q-3 -3 -16 -11.5t-34.5 -17t-51.5 -15.5t-66 -7q-14 0 -36 2.5t-47.5 9.5t-51 20t-46.5 34q-25 25 -38.5 53t-20 54.5t-7.5 48.5t-1 35q0 62 19.5 107.5t52 75.5t74.5 44.5t86 14.5q14 0 38 -1.5t51 -10t53.5 -27t45.5 -52.5
q13 -24 22 -63.5t7 -96.5h-328z" />
    <glyph glyph-name="edieresis" unicode="&#xeb;" horiz-adv-x="537" 
d="M225 630q0 -23 -17 -41t-42 -18t-42 17.5t-17 41.5q0 25 17 42t42 17t42 -17.5t17 -41.5zM430 630q0 -23 -17 -41t-42 -18t-42 17.5t-17 41.5q0 25 17 42t42 17t42 -17.5t17 -41.5zM378 285q0 18 -1.5 46t-11 53.5t-30 44t-57.5 18.5q-39 0 -60.5 -20t-32.5 -47t-14 -54
t-4 -41h211zM165 236q0 -9 0.5 -26.5t5 -38.5t14 -43t27.5 -40t45 -29.5t67 -11.5q17 0 36.5 4.5t39 12.5t37 20t29.5 26l11 -7q-2 -5 -4 -10.5t-4 -10.5l-9 -43q-3 -3 -16 -11.5t-34.5 -17t-51.5 -15.5t-66 -7q-14 0 -36 2.5t-47.5 9.5t-51 20t-46.5 34q-25 25 -38.5 53
t-20 54.5t-7.5 48.5t-1 35q0 62 19.5 107.5t52 75.5t74.5 44.5t86 14.5q14 0 38 -1.5t51 -10t53.5 -27t45.5 -52.5q13 -24 22 -63.5t7 -96.5h-328z" />
    <glyph glyph-name="igrave" unicode="&#xec;" 
d="M208 561h-51l-163 101q-6 4 -13.5 12t-7.5 25q0 11 5 18.5t11.5 12.5t14 7.5t13.5 2.5q18 0 29 -8.5t21 -18.5zM191 435q-1 -16 -2 -39.5t-2 -48.5t-1.5 -47.5t-0.5 -35.5q0 -17 0.5 -42.5t1 -52t1 -50.5t0.5 -37q0 -5 0.5 -16.5t1.5 -24.5t1.5 -25t0.5 -16
q-14 2 -27.5 4t-30.5 2t-34 -2l-34 -4l5 108q2 38 2.5 67t0.5 57q0 27 -0.5 59t-2 65.5t-3 65.5t-4.5 58l30 -4t37 -2q23 0 36.5 2t25.5 4z" />
    <glyph glyph-name="iacute" unicode="&#xed;" 
d="M102 570h-51l141 152q10 11 22 19t26 8q19 0 33 -11t14 -30q0 -17 -8 -25t-13 -12zM191 435q-1 -16 -2 -39.5t-2 -48.5t-1.5 -47.5t-0.5 -35.5q0 -17 0.5 -42.5t1 -52t1 -50.5t0.5 -37q0 -5 0.5 -16.5t1.5 -24.5t1.5 -25t0.5 -16q-14 2 -27.5 4t-30.5 2t-34 -2l-34 -4
l5 108q2 38 2.5 67t0.5 57q0 27 -0.5 59t-2 65.5t-3 65.5t-4.5 58l30 -4t37 -2q23 0 36.5 2t25.5 4z" />
    <glyph glyph-name="icircumflex" unicode="&#xee;" 
d="M293 561h-50l-113 100l-114 -100h-49l123 172h79zM191 435q-1 -16 -2 -39.5t-2 -48.5t-1.5 -47.5t-0.5 -35.5q0 -17 0.5 -42.5t1 -52t1 -50.5t0.5 -37q0 -5 0.5 -16.5t1.5 -24.5t1.5 -25t0.5 -16q-14 2 -27.5 4t-30.5 2t-34 -2l-34 -4l5 108q2 38 2.5 67t0.5 57
q0 27 -0.5 59t-2 65.5t-3 65.5t-4.5 58l30 -4t37 -2q23 0 36.5 2t25.5 4z" />
    <glyph glyph-name="idieresis" unicode="&#xef;" 
d="M86 630q0 -23 -17 -41t-42 -18t-42 17.5t-17 41.5q0 25 17 42t42 17t42 -17.5t17 -41.5zM291 630q0 -23 -17 -41t-42 -18t-42 17.5t-17 41.5q0 25 17 42t42 17t42 -17.5t17 -41.5zM191 435q-1 -16 -2 -39.5t-2 -48.5t-1.5 -47.5t-0.5 -35.5q0 -17 0.5 -42.5t1 -52
t1 -50.5t0.5 -37q0 -5 0.5 -16.5t1.5 -24.5t1.5 -25t0.5 -16q-14 2 -27.5 4t-30.5 2t-34 -2l-34 -4l5 108q2 38 2.5 67t0.5 57q0 27 -0.5 59t-2 65.5t-3 65.5t-4.5 58l30 -4t37 -2q23 0 36.5 2t25.5 4z" />
    <glyph glyph-name="eth" unicode="&#xf0;" horiz-adv-x="593" 
d="M170 238q0 -32 4.5 -68.5t18 -68t38 -52.5t65.5 -21t65.5 21t38 52.5t18 68t4.5 68.5t-4.5 68.5t-18 68t-38 52t-65.5 20.5t-65.5 -21t-38 -52.5t-18 -68t-4.5 -67.5zM45 237q0 58 18 104t51 78.5t79 50t103 17.5q14 0 27.5 -1t28.5 -4q-19 32 -46.5 61t-57.5 57
q-41 -14 -75.5 -26.5t-72.5 -31.5q-6 14 -12 24t-16 22q36 9 70.5 20t69.5 24q-29 24 -59 45t-61 40q14 5 23.5 8.5t17.5 7t15 6.5t16 8q35 -18 68.5 -40t63.5 -45q35 12 72 25.5t76 32.5q11 -23 28 -46q-35 -9 -70 -19t-69 -24q47 -36 86 -76.5t67.5 -88t44.5 -102.5
t16 -119q0 -63 -17.5 -111t-50 -80.5t-79 -49t-104.5 -16.5q-57 0 -103 17t-79 49.5t-51 78.5t-18 104z" />
    <glyph glyph-name="ntilde" unicode="&#xf1;" horiz-adv-x="574" 
d="M465 696q-3 -12 -9 -31t-18.5 -37t-32.5 -31t-51 -13q-22 0 -44 6.5t-41.5 15t-35.5 15t-27 6.5q-21 0 -33.5 -13.5t-18.5 -30.5h-36q4 13 11 32.5t19.5 37t31.5 30t48 12.5q18 0 38 -6.5t40 -14.5t38 -15t32 -7t23.5 5t15.5 11.5t9 14t5 13.5h36zM504 316
q0 -11 -0.5 -35.5t-1.5 -53.5t-1.5 -57.5t-0.5 -46.5q0 -38 2 -72t5 -51q-17 2 -32.5 4t-32.5 2t-34 -2t-31 -4q3 18 5 43t3.5 51.5t2.5 51.5t1 43v43t-1 47t-2 42t-4 29q-9 35 -35 50.5t-58 15.5q-29 0 -53 -16.5t-36 -41.5q-5 -11 -8.5 -28t-5.5 -36t-2.5 -37t-0.5 -31
q0 -69 1.5 -122t5.5 -104q-4 0 -13 1t-19 2t-19 2t-12 1q-15 0 -31 -2l-32 -4q3 50 5 81t3 57.5t1.5 55t0.5 73.5q0 48 -0.5 76.5t-1 49.5t-2 40t-4.5 47q8 -2 23.5 -4t42.5 -2q20 0 31.5 2t23.5 4q-2 -11 -3 -18t-1.5 -15.5t-0.5 -19.5v-30q15 21 30.5 37t33.5 27.5
t40 17.5t51 6q82 0 124.5 -44t42.5 -125z" />
    <glyph glyph-name="ograve" unicode="&#xf2;" horiz-adv-x="593" 
d="M375 561h-51l-163 101q-6 4 -13.5 12t-7.5 25q0 11 5 18.5t11.5 12.5t14 7.5t13.5 2.5q18 0 29 -8.5t21 -18.5zM170 238q0 -32 4.5 -68.5t18 -68t38 -52.5t65.5 -21t65.5 21t38 52.5t18 68t4.5 68.5t-4.5 68.5t-18 68t-38 52t-65.5 20.5t-65.5 -21t-38 -52.5t-18 -68
t-4.5 -67.5zM45 237q0 58 18 104t51 78.5t79 50t103 17.5q116 0 183.5 -63.5t67.5 -186.5q0 -58 -17.5 -104t-50 -78.5t-79 -49.5t-104.5 -17q-57 0 -103 17t-79 49.5t-51 78.5t-18 104z" />
    <glyph glyph-name="oacute" unicode="&#xf3;" horiz-adv-x="593" 
d="M269 570h-51l141 152q10 11 22 19t26 8q19 0 33 -11t14 -30q0 -17 -8 -25t-13 -12zM170 238q0 -32 4.5 -68.5t18 -68t38 -52.5t65.5 -21t65.5 21t38 52.5t18 68t4.5 68.5t-4.5 68.5t-18 68t-38 52t-65.5 20.5t-65.5 -21t-38 -52.5t-18 -68t-4.5 -67.5zM45 237
q0 58 18 104t51 78.5t79 50t103 17.5q116 0 183.5 -63.5t67.5 -186.5q0 -58 -17.5 -104t-50 -78.5t-79 -49.5t-104.5 -17q-57 0 -103 17t-79 49.5t-51 78.5t-18 104z" />
    <glyph glyph-name="ocircumflex" unicode="&#xf4;" horiz-adv-x="593" 
d="M460 561h-50l-113 100l-114 -100h-49l123 172h79zM170 238q0 -32 4.5 -68.5t18 -68t38 -52.5t65.5 -21t65.5 21t38 52.5t18 68t4.5 68.5t-4.5 68.5t-18 68t-38 52t-65.5 20.5t-65.5 -21t-38 -52.5t-18 -68t-4.5 -67.5zM45 237q0 58 18 104t51 78.5t79 50t103 17.5
q116 0 183.5 -63.5t67.5 -186.5q0 -58 -17.5 -104t-50 -78.5t-79 -49.5t-104.5 -17q-57 0 -103 17t-79 49.5t-51 78.5t-18 104z" />
    <glyph glyph-name="otilde" unicode="&#xf5;" horiz-adv-x="593" 
d="M474 696q-3 -12 -9 -31t-18.5 -37t-32.5 -31t-51 -13q-22 0 -44 6.5t-41.5 15t-35.5 15t-27 6.5q-21 0 -33.5 -13.5t-18.5 -30.5h-36q4 13 11 32.5t19.5 37t31.5 30t48 12.5q18 0 38 -6.5t40 -14.5t38 -15t32 -7t23.5 5t15.5 11.5t9 14t5 13.5h36zM170 238
q0 -32 4.5 -68.5t18 -68t38 -52.5t65.5 -21t65.5 21t38 52.5t18 68t4.5 68.5t-4.5 68.5t-18 68t-38 52t-65.5 20.5t-65.5 -21t-38 -52.5t-18 -68t-4.5 -67.5zM45 237q0 58 18 104t51 78.5t79 50t103 17.5q116 0 183.5 -63.5t67.5 -186.5q0 -58 -17.5 -104t-50 -78.5
t-79 -49.5t-104.5 -17q-57 0 -103 17t-79 49.5t-51 78.5t-18 104z" />
    <glyph glyph-name="odieresis" unicode="&#xf6;" horiz-adv-x="593" 
d="M253 630q0 -23 -17 -41t-42 -18t-42 17.5t-17 41.5q0 25 17 42t42 17t42 -17.5t17 -41.5zM458 630q0 -23 -17 -41t-42 -18t-42 17.5t-17 41.5q0 25 17 42t42 17t42 -17.5t17 -41.5zM170 238q0 -32 4.5 -68.5t18 -68t38 -52.5t65.5 -21t65.5 21t38 52.5t18 68t4.5 68.5
t-4.5 68.5t-18 68t-38 52t-65.5 20.5t-65.5 -21t-38 -52.5t-18 -68t-4.5 -67.5zM45 237q0 58 18 104t51 78.5t79 50t103 17.5q116 0 183.5 -63.5t67.5 -186.5q0 -58 -17.5 -104t-50 -78.5t-79 -49.5t-104.5 -17q-57 0 -103 17t-79 49.5t-51 78.5t-18 104z" />
    <glyph glyph-name="divide" unicode="&#xf7;" horiz-adv-x="667" 
d="M399 499q0 -26 -19.5 -45.5t-45.5 -19.5q-27 0 -46.5 19t-19.5 46t19.5 46.5t46.5 19.5q26 0 45.5 -20t19.5 -46zM399 111q0 -26 -19.5 -45.5t-45.5 -19.5q-27 0 -46.5 19t-19.5 46t19.5 46.5t46.5 19.5q26 0 45.5 -20t19.5 -46zM593 273h-519v65h519v-65z" />
    <glyph glyph-name="oslash" unicode="&#xf8;" horiz-adv-x="593" 
d="M422 240q0 12 -1.5 41.5t-10.5 61.5q-22 -27 -48 -58.5t-53.5 -65.5t-55.5 -68t-54 -66q14 -23 38 -40t57 -17q42 0 67 20t38.5 51.5t18 68.5t4.5 72zM393 389q-14 25 -37 41.5t-59 16.5q-41 0 -65.5 -20.5t-38.5 -51t-18.5 -66.5t-4.5 -67q0 -19 1.5 -48t10.5 -63z
M75 -67l-34 28l76 91q-33 32 -52.5 77.5t-19.5 106.5q0 56 17 102.5t49 79.5t77 51t102 18q48 0 86 -10t67 -27l79 95l34 -28l-78 -92q36 -34 52.5 -78.5t16.5 -93.5q0 -61 -15.5 -110t-46.5 -83.5t-77.5 -53t-107.5 -18.5q-37 0 -76.5 8t-72.5 30z" />
    <glyph glyph-name="ugrave" unicode="&#xf9;" horiz-adv-x="574" 
d="M366 561h-51l-163 101q-6 4 -13.5 12t-7.5 25q0 11 5 18.5t11.5 12.5t14 7.5t13.5 2.5q18 0 29 -8.5t21 -18.5zM69 164q0 53 2 105.5t2 105.5v28t-1 23.5t-2 24t-3 29.5q34 -6 64 -6q32 0 65 6q-3 -17 -5.5 -47t-4 -62.5t-2 -62t-0.5 -46.5v-30t1 -39t2.5 -38t3.5 -27
q8 -31 33 -48t55 -17q23 0 39.5 7t28 16.5t17.5 19t9 14.5q5 10 8 25t5 32t3 34.5t1 31.5v57.5t-1 64t-2 62.5t-4 53q14 -2 29 -4t29 -2q12 0 27 1t41 5q-5 -67 -7.5 -133.5t-2.5 -134.5q0 -47 0.5 -78.5t1.5 -54t2.5 -40.5t3.5 -39q-21 2 -35 4t-28 2t-27 -2t-30 -4
q1 14 2 22.5t1.5 16t0.5 17v25.5q-10 -14 -24 -30t-33.5 -29.5t-45 -23t-59.5 -9.5q-44 0 -81.5 20t-58.5 59q-7 13 -11 28t-6 28.5t-2.5 24t-0.5 15.5z" />
    <glyph glyph-name="uacute" unicode="&#xfa;" horiz-adv-x="574" 
d="M290 570h-51l141 152q10 11 22 19t26 8q19 0 33 -11t14 -30q0 -17 -8 -25t-13 -12zM69 164q0 53 2 105.5t2 105.5v28t-1 23.5t-2 24t-3 29.5q34 -6 64 -6q32 0 65 6q-3 -17 -5.5 -47t-4 -62.5t-2 -62t-0.5 -46.5v-30t1 -39t2.5 -38t3.5 -27q8 -31 33 -48t55 -17
q23 0 39.5 7t28 16.5t17.5 19t9 14.5q5 10 8 25t5 32t3 34.5t1 31.5v57.5t-1 64t-2 62.5t-4 53q14 -2 29 -4t29 -2q12 0 27 1t41 5q-5 -67 -7.5 -133.5t-2.5 -134.5q0 -47 0.5 -78.5t1.5 -54t2.5 -40.5t3.5 -39q-21 2 -35 4t-28 2t-27 -2t-30 -4q1 14 2 22.5t1.5 16t0.5 17
v25.5q-10 -14 -24 -30t-33.5 -29.5t-45 -23t-59.5 -9.5q-44 0 -81.5 20t-58.5 59q-7 13 -11 28t-6 28.5t-2.5 24t-0.5 15.5z" />
    <glyph glyph-name="ucircumflex" unicode="&#xfb;" horiz-adv-x="574" 
d="M451 561h-50l-113 100l-114 -100h-49l123 172h79zM69 164q0 53 2 105.5t2 105.5v28t-1 23.5t-2 24t-3 29.5q34 -6 64 -6q32 0 65 6q-3 -17 -5.5 -47t-4 -62.5t-2 -62t-0.5 -46.5v-30t1 -39t2.5 -38t3.5 -27q8 -31 33 -48t55 -17q23 0 39.5 7t28 16.5t17.5 19t9 14.5
q5 10 8 25t5 32t3 34.5t1 31.5v57.5t-1 64t-2 62.5t-4 53q14 -2 29 -4t29 -2q12 0 27 1t41 5q-5 -67 -7.5 -133.5t-2.5 -134.5q0 -47 0.5 -78.5t1.5 -54t2.5 -40.5t3.5 -39q-21 2 -35 4t-28 2t-27 -2t-30 -4q1 14 2 22.5t1.5 16t0.5 17v25.5q-10 -14 -24 -30t-33.5 -29.5
t-45 -23t-59.5 -9.5q-44 0 -81.5 20t-58.5 59q-7 13 -11 28t-6 28.5t-2.5 24t-0.5 15.5z" />
    <glyph glyph-name="udieresis" unicode="&#xfc;" horiz-adv-x="574" 
d="M244 630q0 -23 -17 -41t-42 -18t-42 17.5t-17 41.5q0 25 17 42t42 17t42 -17.5t17 -41.5zM449 630q0 -23 -17 -41t-42 -18t-42 17.5t-17 41.5q0 25 17 42t42 17t42 -17.5t17 -41.5zM69 164q0 53 2 105.5t2 105.5v28t-1 23.5t-2 24t-3 29.5q34 -6 64 -6q32 0 65 6
q-3 -17 -5.5 -47t-4 -62.5t-2 -62t-0.5 -46.5v-30t1 -39t2.5 -38t3.5 -27q8 -31 33 -48t55 -17q23 0 39.5 7t28 16.5t17.5 19t9 14.5q5 10 8 25t5 32t3 34.5t1 31.5v57.5t-1 64t-2 62.5t-4 53q14 -2 29 -4t29 -2q12 0 27 1t41 5q-5 -67 -7.5 -133.5t-2.5 -134.5
q0 -47 0.5 -78.5t1.5 -54t2.5 -40.5t3.5 -39q-21 2 -35 4t-28 2t-27 -2t-30 -4q1 14 2 22.5t1.5 16t0.5 17v25.5q-10 -14 -24 -30t-33.5 -29.5t-45 -23t-59.5 -9.5q-44 0 -81.5 20t-58.5 59q-7 13 -11 28t-6 28.5t-2.5 24t-0.5 15.5z" />
    <glyph glyph-name="yacute" unicode="&#xfd;" horiz-adv-x="500" 
d="M253 570h-51l141 152q10 11 22 19t26 8q19 0 33 -11t14 -30q0 -17 -8 -25t-13 -12zM281 127l18 42q8 19 20 51t23 63.5t19 54.5t8 24q8 25 18.5 59t18.5 59q12 -3 22 -4.5t22 -1.5q13 0 23.5 2t21.5 4q-13 -25 -38.5 -80t-57 -126t-66 -151t-64.5 -153.5t-52 -134
t-30 -93.5q-10 2 -20.5 4t-24.5 2q-12 0 -22.5 -1.5t-23.5 -4.5l16 26q8 13 23 41t31.5 60t32.5 63t25 50q-3 11 -7.5 23t-14.5 36t-27.5 64.5t-47.5 109.5l-119 265q26 -4 42 -5t28 -1q22 0 69 6q3 -10 9.5 -30t15.5 -44t18.5 -50.5t18.5 -49.5t15.5 -40.5t9.5 -24.5z" />
    <glyph glyph-name="thorn" unicode="&#xfe;" horiz-adv-x="593" 
d="M423 235q0 21 -3 54.5t-15 65.5t-36.5 55t-66.5 23q-37 0 -60.5 -19.5t-37 -48.5t-18.5 -62.5t-5 -62.5q0 -33 5 -67t18.5 -62t38 -46t63.5 -18q36 0 59 19t35.5 47.5t17.5 61.5t5 60zM548 245q0 -43 -12.5 -87.5t-39.5 -80.5t-69.5 -59t-103.5 -23q-29 0 -50.5 5.5
t-38 15t-29 21t-24.5 23.5q0 -56 0.5 -100.5t2 -83t3.5 -71.5t5 -65q-15 3 -27.5 4.5t-38.5 1.5q-25 0 -36 -1t-26 -5q4 46 6 104t3.5 123t2 135.5t0.5 142.5q0 178 -2 298t-9 198q14 -2 31.5 -4t34.5 -2t34 2.5t31 3.5q-10 -83 -14.5 -165.5t-4.5 -165.5q10 14 24 29
t33.5 27t44 20t54.5 8q51 0 91 -21.5t67.5 -56.5t42 -79.5t14.5 -91.5z" />
    <glyph glyph-name="ydieresis" unicode="&#xff;" horiz-adv-x="500" 
d="M212 630q0 -23 -17 -41t-42 -18t-42 17.5t-17 41.5q0 25 17 42t42 17t42 -17.5t17 -41.5zM417 630q0 -23 -17 -41t-42 -18t-42 17.5t-17 41.5q0 25 17 42t42 17t42 -17.5t17 -41.5zM281 127l18 42q8 19 20 51t23 63.5t19 54.5t8 24q8 25 18.5 59t18.5 59q12 -3 22 -4.5
t22 -1.5q13 0 23.5 2t21.5 4q-13 -25 -38.5 -80t-57 -126t-66 -151t-64.5 -153.5t-52 -134t-30 -93.5q-10 2 -20.5 4t-24.5 2q-12 0 -22.5 -1.5t-23.5 -4.5l16 26q8 13 23 41t31.5 60t32.5 63t25 50q-3 11 -7.5 23t-14.5 36t-27.5 64.5t-47.5 109.5l-119 265q26 -4 42 -5
t28 -1q22 0 69 6q3 -10 9.5 -30t15.5 -44t18.5 -50.5t18.5 -49.5t15.5 -40.5t9.5 -24.5z" />
    <glyph glyph-name="dotlessi" unicode="&#x131;" 
d="M191 435q-1 -16 -2 -39.5t-2 -48.5t-1.5 -47.5t-0.5 -35.5q0 -17 0.5 -42.5t1 -52t1 -50.5t0.5 -37q0 -5 0.5 -16.5t1.5 -24.5t1.5 -25t0.5 -16q-14 2 -27.5 4t-30.5 2t-34 -2l-34 -4l5 108q2 38 2.5 67t0.5 57q0 27 -0.5 59t-2 65.5t-3 65.5t-4.5 58l30 -4t37 -2
q23 0 36.5 2t25.5 4z" />
    <glyph glyph-name="Lslash" unicode="&#x141;" horiz-adv-x="500" 
d="M93 417q0 19 -1 57.5t-2 80t-2.5 78t-1.5 53.5q19 -4 34.5 -5t34.5 -1t35 1.5t35 4.5l-2 -50q0 -10 -1.5 -44t-3 -73t-2.5 -73.5t-1 -46.5q27 17 46.5 29t36.5 22.5t34 22t40 26.5q-2 -10 -3 -19.5t-1 -22.5q0 -11 1 -21.5t3 -16.5q-14 -6 -25 -10.5t-26.5 -12.5t-40 -22
t-65.5 -38v-105q0 -13 0.5 -33t1 -42.5t1 -46t0.5 -44.5h18h40t64.5 1t70.5 3t57 5q-2 -8 -3.5 -17t-1.5 -21q0 -10 1 -18t4 -18q-19 1 -43.5 2t-50.5 2t-51.5 1.5t-45.5 0.5q-48 0 -92 -1.5t-99 -4.5q1 34 2 75t2 78.5t2 67.5t1 41q-12 -8 -20 -13.5t-15.5 -11l-15 -11
t-19.5 -13.5q1 10 2.5 20.5t1.5 23.5q0 11 -1.5 18t-2.5 14q12 6 20 10.5t15.5 8.5t15 9t19.5 12v88z" />
    <glyph glyph-name="lslash" unicode="&#x142;" 
d="M75 329q-11 -10 -19 -17.5t-15 -14.5t-14.5 -15.5t-16.5 -19.5q3 28 3 46q0 20 -3 35q32 27 65 56q0 69 -0.5 117t-2 85.5t-4 69.5t-5.5 70q19 -3 32 -4.5t37 -1.5q25 0 37 1.5t27 4.5q0 -7 -1.5 -23.5t-3 -34.5t-2.5 -34.5t-1 -22.5q-2 -29 -2 -59.5v-50.5
q18 17 33.5 34.5t29.5 34.5q-3 -24 -3 -48q0 -9 1 -19t2 -18q-17 -13 -32.5 -25.5t-30.5 -26.5v-112q0 -30 0.5 -63t0.5 -63.5t0.5 -54.5t0.5 -36q0 -30 2.5 -59.5t4.5 -59.5q-14 2 -27.5 4t-30.5 2q-18 0 -36 -2l-36 -4q4 44 7 110.5t3 144.5v74z" />
    <glyph glyph-name="OE" unicode="&#x152;" horiz-adv-x="1000" 
d="M610 346q0 80 -17.5 136.5t-46.5 92t-68.5 52t-82.5 16.5q-61 0 -103 -28.5t-68 -73t-37.5 -99.5t-11.5 -108q0 -78 19 -134t50.5 -92t70.5 -53.5t80 -17.5q60 0 101 28.5t66.5 73t36.5 99.5t11 108zM41 338q0 83 25.5 149t71 112t107.5 70.5t136 24.5q45 0 79 -8
t60.5 -20.5t46.5 -27.5t36 -28v18.5v15t-0.5 17.5t-1.5 25q18 -1 41 -2t47 -2t47.5 -1.5t42.5 -0.5q37 0 83.5 2t94.5 4q-2 -9 -3.5 -16t-1.5 -16q0 -24 5 -37l-94 5q-14 1 -24.5 1.5t-24 0.5h-34h-54.5v-235h46.5t59 1t59.5 2.5t49 3.5q-2 -8 -3.5 -16.5t-1.5 -19.5
q0 -22 5 -34q-20 2 -39 3l-38 2q-35 1 -69.5 1.5t-67.5 0.5v-271q9 0 35.5 0.5t61 1.5t71.5 2t69 3q-5 -11 -5 -33t5 -36q-90 6 -180 6q-48 0 -94 -1.5t-87 -4.5q1 15 1.5 25t1 17.5t0.5 14.5v17q-14 -22 -42.5 -38.5t-61.5 -27.5t-66 -16.5t-57 -5.5q-59 0 -119 20.5
t-108.5 63t-79 109t-30.5 159.5z" />
    <glyph glyph-name="oe" unicode="&#x153;" horiz-adv-x="889" 
d="M731 285q0 18 -1.5 46t-11 53.5t-30 44t-58.5 18.5t-60 -20.5t-32.5 -47.5t-13.5 -54t-4 -40h211zM421 240q0 9 -0.5 27.5t-4 42t-11 48t-21.5 44.5t-35.5 33t-52.5 13q-41 0 -65.5 -20.5t-38.5 -51.5t-18.5 -67t-4.5 -67t4 -68t17 -69.5t37.5 -54.5t65.5 -22q42 0 67 21
t38.5 52.5t18 69t4.5 69.5zM830 103q-8 -12 -10.5 -31t-5.5 -33q-4 -4 -18 -12.5t-36 -17t-51.5 -15t-64.5 -6.5q-45 0 -92.5 14.5t-82.5 45.5q-12 -10 -29 -20.5t-39 -19.5t-49.5 -14.5t-60.5 -5.5q-56 0 -101.5 18t-77.5 50.5t-50 78t-18 101.5t17 102.5t49 79.5t77 51
t102 18q68 0 112 -17.5t69 -38.5q35 29 74.5 42.5t85.5 13.5q60 0 102 -16.5t68 -48.5t36.5 -79t9.5 -107h-327q0 -40 8 -74.5t26.5 -60t49 -40t74.5 -14.5q12 0 30.5 3t38 10.5t39 19.5t34.5 30z" />
    <glyph glyph-name="Scaron" unicode="&#x160;" horiz-adv-x="537" 
d="M106 893h49l114 -101l113 101h50l-124 -172h-79zM83 150q17 -38 35 -60.5t37.5 -34.5t40 -16t42.5 -4q30 0 54 9.5t41 26t26.5 39.5t9.5 50q0 30 -10 50.5t-23.5 34t-27.5 20.5t-21 10q-21 9 -51.5 21t-51.5 21q-36 16 -60.5 34t-39 39.5t-20.5 47t-6 56.5q0 33 11 68.5
t37.5 64.5t71.5 48t113 19q55 0 92 -12t74 -29q-8 -18 -12.5 -30t-7.5 -21.5t-5.5 -19.5t-5.5 -24h-14q-11 43 -47 65t-84 22q-59 0 -88.5 -32t-29.5 -76q0 -27 9.5 -45.5t27 -32.5t43.5 -25t59 -24q29 -11 49.5 -19.5t36.5 -16.5t27.5 -16.5t22.5 -20.5q16 -17 25.5 -35.5
t14.5 -36.5t7 -34t2 -26q0 -38 -14 -77t-44.5 -70.5t-78.5 -51.5t-117 -20q-32 0 -60.5 5.5t-52 13.5t-42.5 16.5t-32 15.5q6 19 10 32.5t6 25.5t3.5 24.5t3.5 30.5h14z" />
    <glyph glyph-name="scaron" unicode="&#x161;" horiz-adv-x="407" 
d="M41 733h49l114 -101l113 101h50l-124 -172h-79zM74 113q3 -8 9.5 -21t20 -25t36 -21t57.5 -9q38 0 56.5 22t18.5 49q0 16 -7 26.5t-18.5 19t-27 14.5t-33.5 13q-5 2 -15 5.5t-21 7.5t-20 7t-12 5q-8 4 -21 11.5t-26 21.5t-22.5 37t-9.5 57q0 67 45 110.5t129 43.5
q45 0 78.5 -10.5t55.5 -19.5q-15 -29 -19 -50.5t-6 -38.5h-16q-6 12 -13 24.5t-18 22.5t-26.5 16.5t-38.5 6.5q-36 0 -58.5 -17.5t-22.5 -48.5q0 -17 6.5 -28t20 -19.5t34 -16t48.5 -16.5q24 -8 48 -17.5t43.5 -24.5t31.5 -39t12 -60q0 -23 -10 -52t-32.5 -54t-59 -42
t-89.5 -17q-43 0 -76.5 11t-71.5 28q2 6 7 18.5t8 23.5q4 13 4.5 25.5t2.5 20.5h18z" />
    <glyph glyph-name="Ydieresis" unicode="&#x178;" horiz-adv-x="593" 
d="M263 790q0 -23 -17 -41t-42 -18t-42 17.5t-17 41.5q0 25 17 42t42 17t42 -17.5t17 -41.5zM468 790q0 -23 -17 -41t-42 -18t-42 17.5t-17 41.5q0 25 17 42t42 17t42 -17.5t17 -41.5zM357 231q0 -32 0.5 -58.5t1.5 -53.5t2 -55.5t3 -63.5q-17 2 -34.5 4t-34.5 2
q-15 0 -34 -2t-33 -4q1 29 2 66.5l2 75t1.5 72t0.5 57.5l-59 102q-19 33 -43.5 74t-50 83t-50.5 82.5t-44 73.5q28 -3 46.5 -4.5t35.5 -1.5q18 0 39 1t43 5q19 -41 37 -78t38 -76t44 -83.5t56 -100.5q32 55 53 92.5t38.5 72t36 74.5t45.5 99q12 -2 26.5 -4t31.5 -2
q15 0 24.5 1.5t17.5 4.5q-6 -10 -20.5 -34t-31 -50.5t-31 -50t-20.5 -32.5q-34 -54 -64 -109.5t-62 -109.5q-5 -9 -9 -17t-4 -15v-37z" />
    <glyph glyph-name="Zcaron" unicode="&#x17d;" horiz-adv-x="611" 
d="M143 893h49l114 -101l113 101h50l-124 -172h-79zM8 32q8 12 28.5 40t43.5 59t43 58t28 38q11 17 31 47l44 66t50 76t50 77.5t44.5 70.5t33.5 55q-85 0 -173 -1.5t-181 -9.5q1 9 2 19t1 20q0 12 -0.5 20.5t-2.5 18.5q29 -3 58 -4t61.5 -1.5t69 -0.5h80.5q57 0 98.5 0.5
t73 1t54.5 1.5t44 3q1 -5 1.5 -9t0.5 -8q0 -6 -2.5 -10t-11.5 -17l-51 -71q-14 -20 -31 -44.5t-35 -51t-36.5 -54.5t-35.5 -53l-88 -132q-38 -57 -63 -96.5t-45 -72.5h96q17 0 40.5 0.5t48.5 1t50 2t46 3.5q29 2 57 3.5t57 3.5q-2 -9 -3.5 -18t-1.5 -23q0 -23 5 -40
q-11 0 -30.5 1t-52.5 2t-83.5 2t-123.5 1h-88.5t-69.5 -0.5t-62.5 -2t-68.5 -3.5v32z" />
    <glyph glyph-name="zcaron" unicode="&#x17e;" horiz-adv-x="481" 
d="M78 733h49l114 -101l113 101h50l-124 -172h-79zM19 31q19 24 43 56t46.5 63t39.5 55.5t23 32.5t19 27.5t28 41t28 41t18 26.5l30 44h-39q-5 0 -31 -1t-59.5 -2.5t-66.5 -3t-51 -3.5q3 15 3 32q0 10 -0.5 19t-2.5 20q36 -5 85 -5.5t116 -0.5q76 0 124 0.5t77 5.5v-34
l-30 -39q-39 -50 -75.5 -101.5t-68 -98t-55.5 -84.5t-37 -61h35q27 0 59.5 0.5t64.5 1t61 2t48 3.5q-3 -11 -4 -20t-1 -17t0.5 -15.5t2.5 -15.5q-53 1 -105.5 3.5t-109.5 2.5q-75 0 -132 -2t-83 -4v31z" />
    <glyph glyph-name="florin" unicode="&#x192;" horiz-adv-x="519" 
d="M21 -120q5 -6 16.5 -13.5t36.5 -7.5q18 0 29 7t17 22t9.5 38.5t6.5 57.5q3 30 6 53t6.5 46t8 47.5t9.5 57.5q1 9 5 32t8 48.5t7.5 48t5.5 31.5q-31 0 -53.5 -0.5t-48.5 -2.5q6 15 6 28q0 9 -0.5 15t-1.5 11q26 -2 52 -2.5t52 -0.5q10 37 21 71t25 64.5t34 58t50 52.5
q23 19 43.5 30t39 15.5t35 5.5t30.5 1q-5 -25 -8 -48t-5 -48l-11 -4q-7 8 -18.5 16t-34.5 8q-31 0 -46 -20.5t-20 -49.5q-2 -9 -4.5 -31t-5.5 -46t-5.5 -45.5t-3.5 -29.5q29 0 56 0.5t58 2.5q-2 -6 -4 -13.5t-2 -12.5v-14t2 -14q-26 2 -56.5 2.5t-62.5 0.5q-4 -27 -9 -55.5
t-10 -57.5l-21 -135q-4 -26 -11 -59t-21 -69t-37 -72t-58 -66q-24 -20 -43.5 -31.5t-36.5 -16.5t-31.5 -6t-27.5 -1q5 10 8 24.5t3 28.5q0 12 -1 23.5t-2 17.5z" />
    <glyph glyph-name="circumflex" unicode="&#x2c6;" 
d="M293 561h-50l-113 100l-114 -100h-49l123 172h79z" />
    <glyph glyph-name="caron" unicode="&#x2c7;" 
d="M-33 733h49l114 -101l113 101h50l-124 -172h-79z" />
    <glyph glyph-name="uni02C9" unicode="&#x2c9;" 
d="M-13 665h286v-65h-286v65z" />
    <glyph glyph-name="breve" unicode="&#x2d8;" 
d="M21 720q2 -9 6.5 -24t15.5 -29.5t30.5 -25t50.5 -10.5q20 0 39 4t34 14t26 27.5t15 44.5h40q-2 -18 -5 -34.5t-8.5 -32t-15.5 -30.5t-26 -29q-20 -17 -42 -25.5t-57 -8.5q-49 0 -77 19.5t-42 46t-18 53t-5 40.5h39z" />
    <glyph glyph-name="dotaccent" unicode="&#x2d9;" 
d="M188 630q0 -23 -17 -41t-42 -18t-42 17.5t-17 41.5q0 25 17 42t42 17t42 -17.5t17 -41.5z" />
    <glyph glyph-name="ring" unicode="&#x2da;" 
d="M190 656q0 24 -18.5 42.5t-42.5 18.5q-25 0 -43 -18.5t-18 -42.5q0 -26 18.5 -43.5t42.5 -17.5t42.5 17.5t18.5 43.5zM232 656q0 -21 -8.5 -39.5t-22.5 -33t-32.5 -22.5t-39.5 -8t-40 8.5t-33 22.5t-22 32.5t-8 39.5q0 20 8 38.5t22 33t33 23t40 8.5t39.5 -8.5
t32.5 -22.5t22.5 -32.5t8.5 -39.5z" />
    <glyph glyph-name="ogonek" unicode="&#x2db;" 
d="M231 12q-12 -14 -30 -33t-29 -34q-13 -19 -15 -28.5t-2 -15.5q0 -15 5 -24.5t12.5 -15t15.5 -8t14 -2.5q14 0 27.5 7.5t28.5 19.5l17 -18q-28 -31 -52.5 -51t-62.5 -20q-20 0 -34.5 7t-24 18.5t-14 25t-4.5 26.5q0 24 11 44.5t28.5 38.5t38 33.5t39.5 29.5h31z" />
    <glyph glyph-name="tilde" unicode="&#x2dc;" 
d="M307 696q-3 -12 -9 -31t-18.5 -37t-32.5 -31t-51 -13q-22 0 -44 6.5t-41.5 15t-35.5 15t-27 6.5q-21 0 -33.5 -13.5t-18.5 -30.5h-36q4 13 11 32.5t19.5 37t31.5 30t48 12.5q18 0 38 -6.5t40 -14.5t38 -15t32 -7t23.5 5t15.5 11.5t9 14t5 13.5h36z" />
    <glyph glyph-name="hungarumlaut" unicode="&#x2dd;" 
d="M155 561l120 152q9 11 21 19t26 8q20 0 33.5 -11t13.5 -29q0 -25 -20 -38l-146 -101h-48zM4 561l120 152q9 11 21 19t26 8q20 0 33.5 -11t13.5 -29q0 -25 -20 -38l-146 -101h-48z" />
    <glyph glyph-name="uni03A9" unicode="&#x3a9;" horiz-adv-x="679" 
d="M623 0h-230l-8 20q14 34 32.5 75.5t35 86.5t27.5 93t11 95q0 75 -12.5 126.5t-33.5 83t-48.5 45.5t-58.5 14q-32 0 -60 -13t-48 -44.5t-31.5 -84t-11.5 -131.5q0 -46 10 -92t25 -90t33.5 -85.5t35.5 -78.5l-8 -20h-230l-22 153l29 1q7 -22 14 -35.5t15 -21t18.5 -10
t25.5 -2.5h90q-24 20 -52 46.5t-52 61.5t-40.5 80t-16.5 101q0 69 21.5 124.5t59 94.5t88.5 60t110 21q60 0 110 -20.5t87 -58.5t57.5 -92.5t20.5 -122.5q0 -51 -15.5 -94t-40 -79t-54 -66t-57.5 -56h99q14 0 24 2.5t17.5 9.5t14 20.5t14.5 36.5l30 -1z" />
    <glyph glyph-name="uni03BC" unicode="&#x3bc;" horiz-adv-x="574" 
d="M499 212q0 -47 0.5 -78.5t1.5 -54t2.5 -40.5t3.5 -39q-21 2 -35 4t-28 2t-27 -2t-30 -4q1 14 2 22.5t1.5 16t0.5 17v25.5q-19 -44 -59 -68t-85 -24q-19 0 -35 4.5t-31 16.5q0 -48 0.5 -86.5t2 -70.5t3 -59.5t4.5 -53.5q-14 3 -26.5 4.5t-38.5 1.5q-18 0 -31 -1.5
t-30 -4.5q3 39 5 87.5t3 98t1.5 96.5t0.5 83v96.5t-1 107.5t-2.5 99t-4.5 72q34 -6 64 -6q32 0 65 6q-4 -18 -6 -50.5t-3.5 -68t-2 -68.5t-0.5 -51q0 -38 2 -71t11.5 -57t30 -37.5t56.5 -13.5q32 0 52.5 15t32.5 40.5t16.5 57.5t4.5 67v57.5t-1 64t-2 62.5t-4 53
q14 -2 29 -4t29 -2q12 0 27 1t41 5q-5 -67 -7.5 -133.5t-2.5 -134.5z" />
    <glyph glyph-name="pi" unicode="&#x3c0;" horiz-adv-x="542" 
d="M518 449q-5 -29 -15 -59t-20 -44q-11 -4 -26.5 -5t-33.5 -1q-5 -46 -5 -97.5v-100.5q1 -45 10 -65t28 -20q13 0 22.5 6t20.5 17l13 -24q-18 -31 -47.5 -49.5t-59.5 -18.5q-19 0 -36 6t-29.5 20.5t-20 39t-7.5 62.5q0 34 0.5 63t2 56.5t3 53.5t3.5 54q-36 0 -67 1t-59 1
v-13q0 -83 -7.5 -142t-18 -97.5t-20.5 -59.5t-16 -28q-16 -7 -33.5 -11.5t-30.5 -5.5l-7 19q26 36 43 80t27.5 89.5t14.5 89.5t4 80q-22 0 -38 -2t-29.5 -7t-25.5 -12t-27 -17l-15 27q11 13 24 29.5t32 31t46 24t66 8.5q54 0 119.5 -1t132.5 -1q23 0 33.5 6t21.5 25z" />
    <glyph glyph-name="endash" unicode="&#x2013;" horiz-adv-x="500" 
d="M503 292v-84h-506v84h506z" />
    <glyph glyph-name="emdash" unicode="&#x2014;" horiz-adv-x="1000" 
d="M870 292v-84h-740v84h740z" />
    <glyph glyph-name="quoteleft" unicode="&#x2018;" 
d="M214 705l-63 -234q-4 -15 -8.5 -28.5t-12 -24t-19 -16.5t-28.5 -6q-23 0 -37 14t-14 36q0 17 7 30.5t20 33.5l133 205z" />
    <glyph glyph-name="quoteright" unicode="&#x2019;" 
d="M45 406l63 234q4 15 8.5 28.5t12 24t19 16.5t28.5 6q23 0 37 -14t14 -36q0 -17 -7 -30.5t-20 -33.5l-133 -205z" />
    <glyph glyph-name="quotesinglbase" unicode="&#x201a;" 
d="M31 -168l63 234q4 15 8.5 28.5t12 24t19 16.5t28.5 6q23 0 37 -14t14 -36q0 -17 -7 -30.5t-20 -33.5l-133 -205z" />
    <glyph glyph-name="quotedblleft" unicode="&#x201c;" horiz-adv-x="444" 
d="M399 705l-63 -234q-4 -15 -8.5 -28.5t-12 -24t-19 -16.5t-28.5 -6q-23 0 -37 14t-14 36q0 17 7 30.5t20 33.5l133 205zM218 705l-63 -234q-4 -15 -8.5 -28.5t-12 -24t-19 -16.5t-28.5 -6q-23 0 -37 14t-14 36q0 17 7 30.5t20 33.5l133 205z" />
    <glyph glyph-name="quotedblright" unicode="&#x201d;" horiz-adv-x="444" 
d="M226 406l63 234q4 15 8.5 28.5t12 24t19 16.5t28.5 6q23 0 37 -14t14 -36q0 -17 -7 -30.5t-20 -33.5l-133 -205zM45 406l63 234q4 15 8.5 28.5t12 24t19 16.5t28.5 6q23 0 37 -14t14 -36q0 -17 -7 -30.5t-20 -33.5l-133 -205z" />
    <glyph glyph-name="quotedblbase" unicode="&#x201e;" horiz-adv-x="444" 
d="M212 -168l63 234q4 15 8.5 28.5t12 24t19 16.5t28.5 6q23 0 37 -14t14 -36q0 -17 -7 -30.5t-20 -33.5l-133 -205zM31 -168l63 234q4 15 8.5 28.5t12 24t19 16.5t28.5 6q23 0 37 -14t14 -36q0 -17 -7 -30.5t-20 -33.5l-133 -205z" />
    <glyph glyph-name="dagger" unicode="&#x2020;" horiz-adv-x="519" 
d="M308 468h69q9 0 23 0.5t28.5 1t27.5 1.5t21 1q-3 -20 -3 -40t3 -41q-30 1 -59.5 3t-45.5 2h-64v-292q0 -11 0.5 -25t1 -29t1.5 -28t2 -22q-10 1 -25 3.5t-30 2.5q-24 0 -52 -6q2 38 3 67t1.5 69t0.5 100v160h-65q-26 0 -52 -1.5t-52 -2.5q1 11 2 21.5t1 21.5
q0 8 -0.5 18.5t-2.5 18.5q17 -1 33 -2t35 -1.5t43 -0.5h58v66.5t-0.5 47.5t-1.5 45.5t-3 61.5l26 -4t28 -2q13 0 26.5 2t28.5 4q-3 -26 -5 -53t-2 -54v-114z" />
    <glyph glyph-name="daggerdbl" unicode="&#x2021;" horiz-adv-x="519" 
d="M212 442h-66q-26 0 -52 -1l-52 -2q3 21 3 42q0 8 -1 19.5t-2 18.5q35 -4 79.5 -5t90.5 -1q0 24 -0.5 43.5t-1 39.5t-2 42t-2.5 51l26 -4t28 -2q13 0 26.5 2t28.5 4q-5 -49 -6 -77t-1 -30v-69h69q25 0 50 2l50 4q-1 -11 -2 -20.5t-1 -20.5q0 -6 1 -17.5t2 -22.5
q-25 0 -50 2t-50 2h-69v-195h69q23 0 49 1.5t51 3.5q-3 -20 -3 -40t3 -41q-25 0 -50 2.5t-50 2.5h-69v-72q0 -11 0.5 -25t1 -29t1.5 -28t2 -22q-10 1 -23 3.5t-28 2.5q-13 0 -26 -1.5t-30 -4.5q5 89 6 176h-66q-26 0 -52 -1t-52 -3q3 22 3 44q0 6 -1 18t-2 18q19 -1 36.5 -2
t37 -1.5t43 -1t53.5 -0.5v195z" />
    <glyph glyph-name="bullet" unicode="&#x2022;" horiz-adv-x="500" 
d="M424 351q0 -36 -14 -67.5t-37.5 -55t-55 -37.5t-67.5 -14t-67.5 14t-55 37.5t-37.5 55t-14 67.5t14 67.5t38 55.5t55.5 37.5t66.5 13.5t66.5 -13.5t55.5 -37.5t38 -55.5t14 -67.5z" />
    <glyph glyph-name="ellipsis" unicode="&#x2026;" horiz-adv-x="1000" 
d="M762 69q0 29 20.5 50t50.5 21q29 0 50 -21t21 -50t-21 -50t-50 -21q-30 0 -50.5 21t-20.5 50zM429 69q0 29 20.5 50t50.5 21q29 0 50 -21t21 -50t-21 -50t-50 -21q-30 0 -50.5 21t-20.5 50zM96 69q0 29 20.5 50t50.5 21q29 0 50 -21t21 -50t-21 -50t-50 -21
q-30 0 -50.5 21t-20.5 50z" />
    <glyph glyph-name="perthousand" unicode="&#x2030;" horiz-adv-x="1000" 
d="M546 696l-400 -717h-48l400 717h48zM309 518q0 -50 -16.5 -82.5t-40 -51t-49.5 -25.5t-46 -7q-35 0 -63 12t-47.5 32.5t-30 47.5t-10.5 56q0 37 8.5 69.5t27 57t47 38.5t69.5 14q74 0 112.5 -45.5t38.5 -115.5zM220 521q0 15 -2 36.5t-8.5 41t-19 33.5t-33.5 14
q-23 0 -35.5 -14t-18.5 -34t-7 -43t-1 -42q0 -17 1 -39t7 -42t18.5 -33.5t36.5 -13.5q23 0 35.5 14.5t18.5 35.5t7 44.5t1 41.5zM905 161q0 15 -2 36.5t-8.5 41t-19 33.5t-33.5 14q-23 0 -35.5 -14t-18.5 -34t-7 -43t-1 -42q0 -17 1 -39t7 -42t18.5 -33.5t36.5 -13.5
q23 0 35.5 14.5t18.5 35.5t7 44.5t1 41.5zM994 158q0 -50 -16.5 -82.5t-40 -51t-49.5 -25.5t-46 -7q-35 0 -63 12t-47.5 32.5t-30 47.5t-10.5 56q0 37 8.5 69.5t27 57t47 38.5t69.5 14q74 0 112.5 -45.5t38.5 -115.5zM634 158q0 -50 -16.5 -82.5t-40 -51t-49.5 -25.5t-46 -7
q-35 0 -63 12t-47.5 32.5t-30 47.5t-10.5 56q0 37 8.5 69.5t27 57t47 38.5t69.5 14q74 0 112.5 -45.5t38.5 -115.5zM545 161q0 15 -2 36.5t-8.5 41t-19 33.5t-33.5 14q-23 0 -35.5 -14t-18.5 -34t-7 -43t-1 -42q0 -17 1 -39t7 -42t18.5 -33.5t36.5 -13.5q23 0 35.5 14.5
t18.5 35.5t7 44.5t1 41.5z" />
    <glyph glyph-name="guilsinglleft" unicode="&#x2039;" horiz-adv-x="278" 
d="M77 289q34 52 57.5 88t38.5 65q9 -7 15 -12t12 -9t12.5 -8t16.5 -10q-12 -13 -26.5 -33t-29 -42.5t-28 -44.5t-23.5 -38q4 -6 15 -20.5t22.5 -30.5t22 -30.5t14.5 -19.5l33 -44l-15 -10t-11.5 -8.5t-11.5 -9.5t-15 -12q-27 42 -60.5 93t-67.5 92z" />
    <glyph glyph-name="guilsinglright" unicode="&#x203a;" horiz-adv-x="278" 
d="M229 245q-19 -24 -39 -53t-38 -55t-31 -47t-19 -30q-9 7 -15 12t-11.5 9t-11.5 8t-15 11q1 2 15 20.5t31.5 42.5t34.5 47t25 35q-12 22 -28 46.5t-31 47t-27.5 39.5t-19.5 25q10 6 16.5 10t12 8t11.5 8.5t15 12.5q21 -36 37.5 -62.5t20.5 -32.5q2 -3 8 -11.5t12 -18
t11.5 -17.5t7.5 -11z" />
    <glyph glyph-name="fraction" unicode="&#x2044;" horiz-adv-x="167" 
d="M308 696l-400 -717h-48l400 717h48z" />
    <glyph glyph-name="Euro" unicode="&#x20ac;" horiz-adv-x="519" 
d="M530 110l-16 -71q-49 -32 -93.5 -41.5t-77.5 -9.5q-48 0 -86.5 10.5t-69.5 28.5q-40 23 -65.5 54.5t-40.5 62.5t-21.5 57.5t-8.5 38.5l-81 -5l17 44l59 -1q-2 24 -2 46.5t2 43.5l-76 -4l17 43l63 -2q8 51 27.5 97t55.5 84q26 27 55.5 44.5t59 27.5t57 14t50.5 4
q35 0 78.5 -11.5t94.5 -43.5q-8 -17 -13.5 -37t-8.5 -48l-10 -1q-23 43 -63.5 69t-86.5 26q-24 0 -58.5 -15.5t-63.5 -59.5q-23 -35 -34 -75t-15 -75l310 4l-18 -45l-296 3q-2 -24 -1 -46t3 -43l267 3l-17 -45l-247 4q2 -32 13.5 -68.5t31.5 -65.5q26 -38 62.5 -55.5
t75.5 -17.5q25 0 48.5 7.5t44 19t38 26.5t31.5 30z" />
    <glyph glyph-name="afii61289" unicode="&#x2113;" horiz-adv-x="409" 
d="M192 355q33 40 55 97.5t22 123.5q0 46 -9 73t-29 27q-12 0 -19.5 -9.5t-12 -34t-6 -65.5t-1.5 -104v-108zM393 107q-29 -56 -70.5 -87t-98.5 -31q-39 0 -64 10t-41 28q-8 10 -14.5 21.5t-10.5 27.5t-6 38t-2 54v71l-54 -38l-13 28l66 50v131q0 54 2.5 91.5t8.5 65
t15.5 48t24.5 38.5q21 29 46.5 43t51.5 14q24 0 42 -10.5t29.5 -28.5t17.5 -42t6 -51q0 -42 -9.5 -78.5t-27.5 -69.5t-43.5 -64t-56.5 -63v-82q0 -47 4.5 -78.5t13.5 -51t24 -27.5t36 -8q32 0 57 21t44 49z" />
    <glyph glyph-name="trademark" unicode="&#x2122;" horiz-adv-x="951" 
d="M485 652q14 -26 25 -46.5t23 -40.5t26.5 -44t35.5 -57l29 -46q42 63 80 131t76 137q9 -2 14.5 -2t16.5 2l4 -44q5 -47 11 -91t12 -92q1 -12 4 -30.5t6.5 -38t7 -37l5.5 -27.5q-10 2 -21.5 3t-22.5 1q-8 0 -18 -1t-24 -3q0 6 -1 17t-1.5 23t-1.5 24.5t-2 21.5t-3.5 30.5
t-5.5 45t-5.5 43.5t-2.5 26q-13 -20 -31 -48.5t-36.5 -60t-36 -63.5t-29.5 -59q-15 3 -28 0q-8 15 -15 28t-15.5 28t-20 34t-28.5 47q-4 6 -12.5 19.5t-17.5 28t-16 26.5t-8 15q-7 -51 -14 -108.5t-9 -117.5q-11 2 -18 3t-12 1q-8 0 -14 -1t-14 -3q19 88 33.5 178.5
t25.5 181.5q17 -3 32 0zM181 592v23t-1 30q-30 0 -59.5 -0.5t-58.5 -2.5q3 9 3 23q0 10 -3 21q17 -1 39 -2t44.5 -1.5t42 -0.5h32.5q38 0 75.5 1t75.5 3q-3 -14 -3 -20q0 -5 0.5 -9t2.5 -15q-26 2 -55 2.5t-57 0.5q-1 -14 -1 -28.5v-26.5v-193q0 -30 1 -45t2 -26q-8 2 -21 3
t-23 1q-8 0 -18 -1t-23 -3q2 30 3.5 60t1.5 60v146z" />
    <glyph glyph-name="Omega" unicode="&#x2126;" horiz-adv-x="679" 
d="M623 0h-230l-8 20q14 34 32.5 75.5t35 86.5t27.5 93t11 95q0 75 -12.5 126.5t-33.5 83t-48.5 45.5t-58.5 14q-32 0 -60 -13t-48 -44.5t-31.5 -84t-11.5 -131.5q0 -46 10 -92t25 -90t33.5 -85.5t35.5 -78.5l-8 -20h-230l-22 153l29 1q7 -22 14 -35.5t15 -21t18.5 -10
t25.5 -2.5h90q-24 20 -52 46.5t-52 61.5t-40.5 80t-16.5 101q0 69 21.5 124.5t59 94.5t88.5 60t110 21q60 0 110 -20.5t87 -58.5t57.5 -92.5t20.5 -122.5q0 -51 -15.5 -94t-40 -79t-54 -66t-57.5 -56h99q14 0 24 2.5t17.5 9.5t14 20.5t14.5 36.5l30 -1z" />
    <glyph glyph-name="estimated" unicode="&#x212e;" horiz-adv-x="829" 
d="M656 534q0 13 -9 22q-45 45 -104.5 71.5t-127.5 26.5q-69 0 -128.5 -27.5t-104.5 -73.5q-9 -9 -9 -23v-184q0 -2 1.5 -4t3.5 -2h474q2 0 3 2t1 4v188zM178 321q-5 0 -5 -4v-187q0 -11 8 -21q45 -47 105 -74.5t129 -27.5q74 0 137.5 31t108.5 83h55q-51 -61 -130 -97
t-172 -36q-79 0 -148.5 27t-121.5 73.5t-82 108.5t-30 133q0 72 30 134.5t82 109t121.5 73.5t148.5 27t148.5 -27t121.5 -73.5t82 -109t30 -134.5v-9h-618z" />
    <glyph glyph-name="partialdiff" unicode="&#x2202;" horiz-adv-x="512" 
d="M276 370q-23 0 -45.5 -11t-42.5 -43q-21 -37 -32 -90.5t-11 -105.5q0 -45 18.5 -71.5t53.5 -26.5q16 0 30.5 9.5t26.5 24t21.5 32.5t17.5 36q18 43 28 85.5t18 101.5q-4 9 -11.5 19t-18 19t-24 15t-28.5 6h-1zM253 414q30 0 61.5 -14t53.5 -45q3 24 6 51t5 56
q2 35 -2.5 73t-20.5 73q-14 29 -42 51t-70 22q-39 0 -73.5 -18.5t-60.5 -40.5q-6 0 -13.5 8t-13 20t-8 25.5t0.5 22.5q25 15 57.5 26.5t77.5 11.5q71 0 121.5 -36.5t83.5 -101.5q15 -28 24.5 -58.5t15 -60.5t8 -58t2.5 -50q0 -58 -11 -121.5t-36 -114.5
q-30 -65 -80.5 -105.5t-122.5 -40.5q-80 0 -128.5 49.5t-48.5 140.5q0 51 17.5 93t40.5 70q26 32 67 52t88 20h1z" />
    <glyph glyph-name="Delta" unicode="&#x2206;" horiz-adv-x="608" 
d="M264 514l-171 -459h347zM32 0v31l243 630l48 12l252 -642v-31h-543z" />
    <glyph glyph-name="product" unicode="&#x220f;" horiz-adv-x="666" 
d="M640 638q-30 -3 -47.5 -6.5t-26.5 -12t-11 -24t-2 -41.5v-515q0 -29 2.5 -45.5t11 -26t25.5 -13t47 -6.5v-30h-269v30q25 2 40 5.5t22 12.5t9 25.5t2 46.5v558q0 23 -6.5 28.5t-29.5 5.5h-152q-21 0 -26.5 -5t-5.5 -25v-562q0 -27 1 -44t7 -26.5t19 -13.5t38 -6v-30h-262
v30q29 2 46 6t26 13t11.5 26t2.5 45v516q0 26 -2.5 41.5t-11.5 24.5t-26.5 12.5t-48.5 5.5v30h617v-30z" />
    <glyph glyph-name="summation" unicode="&#x2211;" horiz-adv-x="528" 
d="M463 -88h-437v28l206 312l-203 387v29h435q0 -7 1.5 -24t3 -40t3 -49t3.5 -51l-30 -6q-13 63 -34 98q-5 10 -11.5 17t-17.5 11t-28 5.5t-43 1.5h-148l163 -301l-210 -324h224q31 0 51 2.5t34 13.5t25 33.5t26 62.5l31 -8z" />
    <glyph glyph-name="minus" unicode="&#x2212;" horiz-adv-x="667" 
d="M593 273h-519v65h519v-65z" />
    <glyph glyph-name="uni2215" unicode="&#x2215;" horiz-adv-x="167" 
d="M308 696l-400 -717h-48l400 717h48z" />
    <glyph glyph-name="uni2219" unicode="&#x2219;" 
d="M59 306q0 29 20.5 50t50.5 21q29 0 50 -21t21 -50t-21 -50t-50 -21q-30 0 -50.5 21t-20.5 50z" />
    <glyph glyph-name="radical" unicode="&#x221a;" horiz-adv-x="529" 
d="M352 -156l-25 -11l-200 522l-83 -37l-12 36l167 74l142 -387h2l129 808l45 -9z" />
    <glyph glyph-name="infinity" unicode="&#x221e;" horiz-adv-x="717" 
d="M522 365q-21 0 -39.5 -10t-34 -24t-29 -30t-24.5 -29q21 -26 37.5 -44t31.5 -29t30 -16t32 -5q19 0 34 8.5t25.5 21.5t15.5 29.5t5 31.5q0 42 -22.5 69t-60.5 27h-1zM198 178q19 0 36.5 8t33 20.5t29.5 28t27 31.5q-14 19 -28 37t-29 31.5t-33 22t-40 8.5
q-40 0 -62 -27.5t-22 -69.5q0 -18 6.5 -34.5t18 -29t27.5 -19.5t35 -7h1zM673 274q0 -38 -12.5 -68t-33.5 -50.5t-48 -31.5t-55 -11q-40 0 -79 22t-85 83q-18 -22 -36.5 -41t-39 -33.5t-44 -22.5t-51.5 -8q-29 0 -55.5 11.5t-46.5 32t-32 49t-12 63.5t11.5 64.5t32.5 50.5
t49 32.5t61 11.5q51 0 90.5 -28t75.5 -74q14 16 30.5 34t36 33t44 25t55.5 10q30 0 56.5 -11t46 -31t30.5 -48.5t11 -62.5v-1z" />
    <glyph glyph-name="integral" unicode="&#x222b;" horiz-adv-x="377" 
d="M133 382q-6 131 7.5 213t38 127.5t56 62t61.5 16.5q11 0 23 -3t21.5 -9.5t16 -16.5t6.5 -23q0 -27 -16.5 -40t-36.5 -13q-13 0 -20 8.5t-11.5 19t-8.5 19.5t-12 9q-7 0 -13.5 -6t-10.5 -22t-5.5 -45t0.5 -74l18 -355q6 -126 -5.5 -211.5t-35.5 -138t-57 -75.5t-69 -23
q-29 0 -48 16t-19 38q-1 25 18 41t42 16q12 0 18.5 -9.5t11 -21t8.5 -21t12 -9.5q20 0 27 39t3 106z" />
    <glyph glyph-name="approxequal" unicode="&#x2248;" horiz-adv-x="501" 
d="M465 215q-21 -41 -52.5 -68.5t-72.5 -27.5q-27 0 -49.5 9.5t-51.5 26.5q-20 14 -38 23t-39 9q-16 0 -28 -6t-22 -15.5t-18.5 -21.5t-16.5 -24l-45 38q20 41 56.5 68t78.5 27q34 0 56.5 -11.5t39.5 -21.5q21 -12 38.5 -22.5t38.5 -10.5q26 0 44 18t38 49zM465 387
q-21 -42 -53 -69t-72 -27q-27 0 -49.5 8.5t-51.5 27.5q-20 13 -38 22t-39 9q-31 0 -49.5 -20.5t-35.5 -45.5l-45 38q20 41 56 68t79 27q33 0 56 -11.5t40 -22.5q25 -15 41 -24t36 -9q26 0 44.5 18.5t37.5 49.5z" />
    <glyph glyph-name="notequal" unicode="&#x2260;" horiz-adv-x="501" 
d="M334 400h122v-69h-148l-54 -124h202v-68h-228l-44 -104l-54 21l36 83h-122v68h148l53 124h-201v69h226l45 102l54 -22z" />
    <glyph glyph-name="lessequal" unicode="&#x2264;" horiz-adv-x="501" 
d="M45 -7v69h413v-69h-413zM49 304v74l405 206v-79l-338 -162v-2l338 -164v-80z" />
    <glyph glyph-name="greaterequal" unicode="&#x2265;" horiz-adv-x="501" 
d="M46 -7v69h410v-69h-410zM456 378v-74l-406 -207v80l338 163v2l-338 163v79z" />
    <glyph glyph-name="lozenge" unicode="&#x25ca;" horiz-adv-x="533" 
d="M269 638h-3l-144 -316l144 -320h3l143 319zM308 -67h-83l-180 388l182 390h82l180 -390z" />
    </font>
</defs>
</svg>
