<?xml version="1.0" standalone="no"?>
<!DOCTYPE svg PUBLIC "-//W3C//DTD SVG 1.1//EN" "http://www.w3.org/Graphics/SVG/1.1/DTD/svg11.dtd" >
<svg xmlns="http://www.w3.org/2000/svg" xmlns:xlink="http://www.w3.org/1999/xlink" version="1.1">
<metadata>
Created by FontForge 20161013 at Sat Oct  8 15:10:46 2005
 By ,,,
Copyright c 1995, 1998, 2002 Adobe Systems Incorporated.  All Rights Reserved.c 1995, 1998, 2002 Heidelberger Druckmaschinen AG. All rights reserved.
</metadata>
<defs>
<font id="OptimaLTStd-BoldItalic" horiz-adv-x="556" >
  <font-face 
    font-family="Optima LT Std"
    font-weight="700"
    font-style="italic"
    font-stretch="normal"
    units-per-em="1000"
    panose-1="2 11 7 2 5 5 8 9 3 4"
    ascent="733"
    descent="-267"
    x-height="476"
    cap-height="681"
    bbox="-148 -264 1028 931"
    underline-thickness="50"
    underline-position="-150"
    slope="-12"
    unicode-range="U+0020-FB02"
  />
<missing-glyph horiz-adv-x="588" 
d="M88 700h500v-700h-500v700zM508 650h-340l170 -255zM538 95v510l-170 -255zM508 50l-170 255l-170 -255h340zM138 95l170 255l-170 255v-510z" />
    <glyph glyph-name=".notdef" horiz-adv-x="588" 
d="M88 700h500v-700h-500v700zM508 650h-340l170 -255zM538 95v510l-170 -255zM508 50l-170 255l-170 -255h340zM138 95l170 255l-170 255v-510z" />
    <glyph glyph-name=".null" horiz-adv-x="0" 
 />
    <glyph glyph-name="nonmarkingreturn" horiz-adv-x="278" 
 />
    <glyph glyph-name="space" unicode=" " horiz-adv-x="278" 
 />
    <glyph glyph-name="exclam" unicode="!" horiz-adv-x="333" 
d="M169 589q0 6 1.5 21.5t10 31t25 27.5t46.5 12q37 0 58.5 -20.5t21.5 -51.5q0 -8 -1 -16t-5 -19.5t-10.5 -28t-17.5 -42.5l-121 -290h-24zM142 144q33 0 56.5 -23.5t23.5 -56.5t-23.5 -56.5t-56.5 -23.5t-56.5 23.5t-23.5 56.5t23.5 56.5t56.5 23.5z" />
    <glyph glyph-name="quotedbl" unicode="&#x22;" horiz-adv-x="500" 
d="M139 363l37 298h125l-107 -298h-55zM331 363l37 298h125l-107 -298h-55z" />
    <glyph glyph-name="numbersign" unicode="#" 
d="M95 0l40 190h-92l15 68h92l30 144h-92l15 68h92l40 191h78l-41 -191h110l41 191h78l-41 -191h92l-15 -68h-92l-30 -144h92l-15 -68h-92l-40 -190h-78l41 190h-110l-41 -190h-77zM337 258l31 144h-110l-31 -144h110z" />
    <glyph glyph-name="dollar" unicode="$" 
d="M340 391q25 -12 55 -28t56 -39.5t43 -56t17 -77.5q0 -21 -6 -45t-18 -47.5t-31 -44t-46 -34.5q-23 -12 -45.5 -19t-42.5 -10.5t-36.5 -5t-26.5 -1.5q-4 -16 -6.5 -28.5t-4.5 -24.5t-4 -25.5t-4 -30.5q-7 2 -13.5 2.5t-19.5 0.5q-12 0 -19 -0.5t-17 -2.5q5 17 9 30t7 25
t6 24.5t7 29.5q-35 3 -61.5 8.5t-48.5 13.5t-40 17.5t-35 21.5q8 15 14.5 31.5t12 32.5t9 29t5.5 20h20q6 -42 23 -66.5t38 -37.5t41 -17.5t32 -6.5l49 248q-29 14 -58 30t-52 37.5t-37.5 50.5t-14.5 69q0 14 4 36.5t15 47.5t31 48.5t52 40.5q41 20 77.5 24t63.5 5
q2 11 3.5 18.5t3 16t3 19.5t4.5 29q7 -1 14.5 -1.5t17.5 -0.5q8 0 16.5 0.5t17.5 1.5q-7 -22 -12 -41.5t-10 -41.5q12 -2 29 -5t37 -9t43 -16.5t46 -26.5q-13 -23 -25.5 -51.5t-20.5 -48.5h-13q-6 35 -20 56.5t-30 33.5t-31.5 17.5t-24.5 7.5zM331 624q-12 -2 -31 -5.5
t-37 -17.5q-26 -19 -35.5 -45t-9.5 -44q0 -20 6.5 -35t16.5 -25.5t22.5 -18.5t24.5 -15zM266 29q17 2 36 6.5t39 18.5t33 38t13 52q0 23 -7 39.5t-18 28.5t-24.5 20t-26.5 15z" />
    <glyph glyph-name="percent" unicode="%" horiz-adv-x="889" 
d="M81 482q0 29 11.5 61.5t34.5 60.5t59 46t86 18q42 0 70 -13t45 -33t24 -43.5t7 -44.5q0 -26 -10 -59.5t-32.5 -63t-59.5 -50t-92 -20.5q-43 0 -70.5 13.5t-43.5 34.5t-22.5 46t-6.5 47zM172 438q0 -25 12 -45t41 -20q22 0 37.5 13.5t27 34t18.5 44.5t11.5 46.5t6 39
t1.5 21.5q0 11 -2.5 22.5t-8.5 20.5t-16.5 15t-25.5 6q-30 0 -50 -26t-31.5 -60t-16 -66.5t-4.5 -45.5zM508 130q0 29 11.5 61.5t34.5 60.5t59 46t86 18q42 0 70 -13t45 -33t24 -43.5t7 -44.5q0 -26 -10 -59.5t-32.5 -63t-59.5 -50t-92 -20.5q-43 0 -70.5 13.5t-43.5 34.5
t-22.5 46t-6.5 47zM599 86q0 -25 12 -45t41 -20q21 0 37 13.5t27.5 34t19 44.5t11.5 46.5t5.5 39t1.5 21.5q0 11 -2.5 22.5t-8.5 20.5t-16.5 15t-25.5 6q-30 0 -50 -26t-31.5 -60t-16 -66.5t-4.5 -45.5zM711 691l-450 -723h-54l449 723h55z" />
    <glyph glyph-name="ampersand" unicode="&#x26;" horiz-adv-x="722" 
d="M645 368q12 -27 23 -43t30 -33q-17 -26 -50 -67t-84 -83l115 -147q-20 2 -42 3.5t-45 1.5q-25 0 -45.5 -1.5t-40.5 -3.5l-45 64q-14 -10 -34 -23t-47 -24.5t-60 -19.5t-73 -8q-42 0 -80 10t-67 31t-46 53.5t-17 77.5q0 51 23 88.5t55 64t67 43.5t59 28q-23 42 -35 73
t-12 64q0 27 11 56t35 53t61 39.5t90 15.5q48 0 81.5 -12t54.5 -31.5t30 -43t9 -45.5q0 -41 -19 -68.5t-47 -46t-58.5 -29.5t-52.5 -18q17 -27 37 -55.5t39 -56t36.5 -51t29.5 -39.5q27 25 45 49.5t28.5 47.5t15.5 44t8 39zM365 426q22 9 41.5 22.5t34.5 31t23.5 39
t8.5 46.5q0 30 -19.5 49t-49.5 19q-18 0 -32 -7.5t-23.5 -20t-14.5 -28.5t-5 -34q0 -31 10.5 -59.5t25.5 -57.5zM267 338q-16 -8 -33.5 -18.5t-32.5 -26t-25 -37.5t-10 -52q0 -28 10.5 -54t30 -45.5t47 -31.5t62.5 -12q41 0 68 13.5t47 27.5q-12 16 -32.5 43.5t-43.5 60.5
t-46.5 67.5t-41.5 64.5z" />
    <glyph glyph-name="quotesingle" unicode="'" horiz-adv-x="278" 
d="M124 363l37 298h125l-107 -298h-55z" />
    <glyph glyph-name="parenleft" unicode="(" horiz-adv-x="333" 
d="M424 662l-27.5 -20t-36.5 -31t-41.5 -46.5t-42.5 -64.5q-30 -53 -49 -112t-30.5 -114t-15.5 -102t-4 -75q0 -36 5.5 -67t13.5 -57.5t17.5 -48.5t17.5 -40l-24 -18q-40 49 -63.5 94.5t-36 86t-16 75t-3.5 60.5q0 27 5 72.5t20 99.5t43 110t75 104q28 29 54 49.5t49.5 34.5
t42.5 23t32 15z" />
    <glyph glyph-name="parenright" unicode=")" horiz-adv-x="333" 
d="M-73 -106q11 7 27.5 19.5t36.5 31t41.5 45.5t42.5 65q30 53 49 112t30.5 114.5t15.5 102t4 74.5q0 36 -5.5 67t-13.5 58t-17.5 49t-17.5 40l24 18q40 -49 63.5 -95t36 -86.5t16 -75t3.5 -60.5q0 -27 -5 -72.5t-20 -99t-43.5 -109.5t-74.5 -104q-28 -29 -54 -49.5
t-49.5 -35t-42.5 -23t-32 -14.5z" />
    <glyph glyph-name="asterisk" unicode="*" horiz-adv-x="444" 
d="M261 693q23 -7 38.5 -9t38.5 -3q-4 -9 -11.5 -30t-16 -44t-15.5 -44t-10 -28q18 7 37 16.5t37 19t33.5 18t26.5 14.5q4 -20 9 -35t16 -40q-17 -3 -36.5 -6.5t-40 -7.5t-39 -7.5t-31.5 -7.5q27 -23 60.5 -45t65.5 -43q-14 -11 -25.5 -22.5t-29.5 -35.5q-9 12 -22 29
t-27.5 34.5t-27 33t-19.5 23.5q-2 -14 -4 -36t-3.5 -44.5t-2.5 -43t-1 -32.5q-10 3 -26 6t-52 5q14 38 27 76l26 76l-17 -8.5l-39 -19.5l-44 -22t-34 -18q-5 25 -10 40t-16 35q14 2 35 5.5t42.5 7.5t40.5 8t29 6q-23 18 -39 29.5t-29.5 21t-26.5 18t-30 20.5q11 9 22.5 21
t28.5 40q6 -7 20 -25t30 -37.5t30 -37t19 -23.5q5 34 8 75t5 77z" />
    <glyph glyph-name="plus" unicode="+" horiz-adv-x="593" 
d="M253 212h-212v84h212v211h88v-211h212v-84h-212v-212h-88v212z" />
    <glyph glyph-name="comma" unicode="," horiz-adv-x="278" 
d="M-68 -173l140 262q15 27 30 44t41 17t46 -17t20 -42q0 -20 -13.5 -36.5t-29.5 -31.5l-217 -208z" />
    <glyph glyph-name="hyphen" unicode="-" horiz-adv-x="333" 
d="M313 319l-24 -101h-249l20 101h253z" />
    <glyph glyph-name="period" unicode="." horiz-adv-x="278" 
d="M113 144q33 0 56.5 -23.5t23.5 -56.5t-23.5 -56.5t-56.5 -23.5t-56.5 23.5t-23.5 56.5t23.5 56.5t56.5 23.5z" />
    <glyph glyph-name="slash" unicode="/" horiz-adv-x="389" 
d="M474 711l-438 -748h-77l438 748h77z" />
    <glyph glyph-name="zero" unicode="0" 
d="M51 221q0 43 6.5 90.5t20 94t33.5 90t47 77.5q29 38 74.5 63.5t111.5 25.5q63 0 102 -23.5t60 -57.5t28.5 -72t7.5 -67q0 -33 -5.5 -78t-17 -94t-30 -97t-44.5 -88q-65 -100 -186 -100q-62 0 -102 23t-63.5 57.5t-33 76t-9.5 79.5zM418 538q0 16 -3 31.5t-10.5 27.5
t-20 19.5t-31.5 7.5q-20 0 -35 -10t-26 -27t-20 -39.5t-17 -48.5q-8 -25 -21.5 -74.5t-26.5 -106.5t-22.5 -112t-9.5 -91q0 -17 2.5 -33t10 -29.5t20 -21.5t32.5 -8q37 0 57 33t40 94q5 15 13 43t17 62.5t18 73.5t16.5 77.5t12 72.5t4.5 59z" />
    <glyph glyph-name="one" unicode="1" 
d="M137 566q56 14 136 41t175 71l19 -7q-15 -52 -29 -105t-25.5 -98.5t-19.5 -80t-11 -50.5q-4 -18 -11.5 -57t-17 -87t-18.5 -100.5t-16 -97.5q-17 2 -36.5 3.5t-40.5 1.5q-20 0 -40 -1.5t-38 -3.5q37 137 68 274.5t56 277.5h-5q-23 -11 -51.5 -22t-58.5 -22
q-11 17 -17.5 27t-18.5 27v9z" />
    <glyph glyph-name="two" unicode="2" 
d="M3 32q55 43 100.5 80t83.5 72t70.5 70.5t60.5 75.5q30 43 49.5 86.5t19.5 92.5q0 21 -5 40.5t-15.5 35t-27 24.5t-40.5 9q-27 0 -47 -10.5t-32.5 -27.5t-19.5 -40t-9 -47l-10 -4q-9 11 -16.5 20t-16 17.5t-17.5 17t-21 19.5q9 13 23.5 30t39 32t61 25.5t90.5 10.5
q59 0 99.5 -15t66 -39.5t37 -55.5t11.5 -63q0 -44 -18 -80.5t-48 -69t-69 -61.5t-81 -58q-32 -23 -54 -38t-37 -26t-25 -19l-20 -16v-7q44 -2 86.5 -1.5t79 2t66 3t46.5 3.5q-5 -19 -9 -33.5t-7 -28.5t-5.5 -29t-5.5 -34q-19 1 -49 2t-63 1.5t-63.5 1t-51.5 0.5
q-17 0 -45 -0.5t-58.5 -1.5t-59 -1.5t-44.5 -1.5v37z" />
    <glyph glyph-name="three" unicode="3" 
d="M196 510q-9 13 -16 22.5t-13.5 17.5t-14 15t-16.5 15q30 47 73.5 64.5t97.5 17.5q48 0 86.5 -12t66.5 -34t43 -53t15 -69q0 -33 -10.5 -57.5t-27 -41.5t-36.5 -28.5t-40.5 -18t-38 -10t-28.5 -5.5l-1 -7q53 -16 88 -55t35 -96q0 -48 -19.5 -83.5t-52 -59.5t-74 -35.5
t-84.5 -11.5q-66 0 -126 20t-108 71q20 19 38.5 40.5t32.5 41.5h13q1 -11 4 -32.5t13.5 -42.5t31.5 -36.5t59 -15.5q34 0 58 18.5t39 46t22 60t7 60.5q0 20 -5.5 38.5t-16.5 32.5t-29.5 22.5t-43.5 8.5q-11 0 -18 -1t-14 -3q6 20 8 30t2 22q8 -1 16.5 -1.5t19.5 -0.5
q75 0 109.5 40.5t34.5 115.5q0 19 -3.5 37t-11.5 32.5t-22.5 23.5t-36.5 9q-21 0 -37.5 -9t-27.5 -24.5t-18 -36t-9 -42.5h-14z" />
    <glyph glyph-name="four" unicode="4" 
d="M537 665q-16 -62 -28 -111t-22.5 -95t-20 -93.5t-21.5 -105.5q27 0 47.5 1.5t46.5 6.5q-15 -34 -18.5 -61t-3.5 -55q-17 1 -28.5 2t-22 1.5t-20.5 0.5h-22q-8 -40 -15 -80t-11 -81q-15 2 -33 3.5t-41 1.5q-19 0 -35.5 -1.5t-33.5 -3.5q11 40 21 80t19 81q-20 1 -38.5 1.5
t-51.5 0.5q-39 0 -68.5 -0.5t-51.5 -1.5t-37.5 -2t-26.5 -2q5 16 8 28.5t5.5 24.5t5 25t5.5 30q29 30 71 74.5t91 98t102.5 113t105.5 119.5q12 -2 26.5 -3.5t31.5 -1.5q18 0 32.5 1.5t31.5 3.5zM319 260q16 66 26.5 112.5t17 79.5t11 55.5t7.5 41.5h-14q-60 -72 -122 -142
t-127 -139v-8h201z" />
    <glyph glyph-name="five" unicode="5" 
d="M222 665q31 -3 72.5 -5.5t106.5 -2.5q30 0 53 0.5t42 1.5t35 2.5t33 3.5q-6 -17 -10.5 -31t-7.5 -28t-5.5 -30t-4.5 -37q-46 6 -93.5 9t-107.5 3h-40.5t-44.5 -1q-14 -45 -26 -88.5t-23 -88.5h6q19 5 38.5 9t46.5 4q42 0 77 -13t59.5 -36.5t38.5 -56.5t14 -74
q0 -44 -16 -84t-47 -70.5t-77 -48.5t-106 -18q-43 0 -77 7.5t-60 19t-45 24t-32 22.5q17 23 30.5 46.5t26.5 51.5h15q3 -17 8 -38.5t16 -41.5t31 -33.5t52 -13.5q40 0 66 23.5t41 56t21 66.5t6 55q0 22 -6 41.5t-18 34.5t-29.5 24t-40.5 9q-29 0 -45.5 -10t-28.5 -21l-28 17
q12 37 23.5 79t21.5 85.5t17.5 86t12.5 79.5z" />
    <glyph glyph-name="six" unicode="6" 
d="M532 611l-4 -5q-31 14 -68 14q-60 0 -101.5 -30t-68.5 -71.5t-42.5 -83.5t-22.5 -66h7q15 8 35.5 15.5t55.5 7.5q40 0 74.5 -13.5t59.5 -38t39 -58.5t14 -74q0 -51 -18.5 -92.5t-50 -70.5t-74.5 -44.5t-92 -15.5q-104 0 -160 60t-56 165q0 50 11 103t31.5 103.5t50 95
t67.5 77.5q48 42 102 57t116 15q42 0 80 -7zM179 128q0 -17 3 -35t11.5 -32.5t22 -24t34.5 -9.5q33 0 55 28.5t35.5 67t19.5 77.5t6 61q0 34 -17 58.5t-54 24.5q-24 0 -41.5 -13.5t-30.5 -35t-21.5 -47t-13.5 -49.5t-7 -43.5t-2 -27.5z" />
    <glyph glyph-name="seven" unicode="7" 
d="M602 638q-50 -63 -107.5 -140.5t-117 -161.5t-116.5 -171t-105 -170q-12 2 -25.5 3.5t-31.5 1.5q-14 0 -30 -1.5t-41 -3.5v7q84 100 167 199t165 200q21 26 35.5 44.5t25 32.5t18 24.5t14.5 20.5v7q-50 3 -94 4.5t-89 1.5h-73.5t-81.5 -1q6 18 9.5 33t5.5 30t2.5 31
t0.5 36q37 -4 73 -6t73 -4q48 -2 96.5 -2.5t96.5 -0.5q41 0 65 0.5t53 2.5z" />
    <glyph glyph-name="eight" unicode="8" 
d="M406 336q43 -19 69.5 -58.5t26.5 -94.5q0 -11 -3 -30t-11 -41t-24 -44.5t-41 -41t-62 -30t-88 -11.5q-45 0 -87.5 11t-75 34t-52.5 59.5t-20 86.5q0 42 14.5 74.5t39 55.5t57.5 36t70 16v9q-41 22 -62 55t-21 80q0 27 10 55.5t33.5 52t62 38t95.5 14.5q59 0 100 -15
t67 -39t37.5 -54.5t11.5 -61.5q0 -66 -40 -101t-107 -46v-9zM427 538q0 34 -13.5 59.5t-52.5 25.5q-28 0 -47 -18t-30.5 -44.5t-16.5 -55.5t-5 -50q0 -39 17 -61.5t49 -22.5q27 0 46 18.5t30.5 44.5t17 54.5t5.5 49.5zM366 238q0 18 -3 35t-11 30t-22 21t-35 8
q-33 0 -56 -25t-37.5 -60t-20.5 -72.5t-6 -62.5q0 -36 17.5 -63.5t57.5 -27.5q33 0 55 25t35.5 60t19.5 72t6 60z" />
    <glyph glyph-name="nine" unicode="9" 
d="M58 70q40 -45 100 -45q45 0 80 28t60.5 68t41 84t22.5 76l-5 5q-23 -14 -45.5 -20.5t-49.5 -6.5q-35 0 -68 13t-58.5 37t-40.5 58t-15 76q0 33 12 71.5t40 71t74 54.5t113 22q53 0 89 -14.5t60 -37.5t37.5 -50t19.5 -51.5t7.5 -43.5t1.5 -25q0 -32 -7 -78.5t-23.5 -97
t-43.5 -100.5t-67 -90t-94 -64.5t-125 -24.5q-28 0 -52 3.5t-51 12.5q-5 20 -9.5 32.5t-12.5 31.5zM402 529q0 17 -3 33.5t-10.5 29.5t-20.5 21t-33 8q-32 0 -53.5 -27t-35 -64t-19 -75t-5.5 -60q0 -16 3.5 -32t12 -28.5t21.5 -20.5t32 -8q33 0 54.5 26t34 62t17.5 74t5 61z
" />
    <glyph glyph-name="colon" unicode=":" horiz-adv-x="333" 
d="M128 144q33 0 56.5 -23.5t23.5 -56.5t-23.5 -56.5t-56.5 -23.5t-56.5 23.5t-23.5 56.5t23.5 56.5t56.5 23.5zM195 472q33 0 56.5 -23.5t23.5 -56.5t-23.5 -56.5t-56.5 -23.5t-56.5 23.5t-23.5 56.5t23.5 56.5t56.5 23.5z" />
    <glyph glyph-name="semicolon" unicode=";" horiz-adv-x="333" 
d="M-68 -173l140 262q14 27 29.5 44t41.5 17t46 -17t20 -42q0 -20 -14 -36.5t-29 -30.5l-218 -209zM202 472q33 0 56.5 -23.5t23.5 -56.5t-23.5 -56.5t-56.5 -23.5t-56.5 23.5t-23.5 56.5t23.5 56.5t56.5 23.5z" />
    <glyph glyph-name="less" unicode="&#x3c;" horiz-adv-x="593" 
d="M41 298l512 199v-93l-400 -151l400 -150v-94l-512 200v89z" />
    <glyph glyph-name="equal" unicode="=" horiz-adv-x="593" 
d="M41 399h512v-84h-512v84zM41 192h512v-84h-512v84z" />
    <glyph glyph-name="greater" unicode="&#x3e;" horiz-adv-x="593" 
d="M41 9v94l400 150l-400 151v93l512 -199v-89z" />
    <glyph glyph-name="question" unicode="?" horiz-adv-x="444" 
d="M154 602q6 20 9 32t6 31q25 8 43 12t44 4q55 0 91 -16t58 -39t31 -50t9 -49q0 -28 -10 -50t-26.5 -41t-38 -34.5t-45.5 -29.5q-32 -19 -52 -31.5t-31 -22.5t-15.5 -20t-4.5 -23q0 -23 17.5 -34.5t35.5 -11.5q12 0 21.5 3.5t17.5 8.5l8 -5q-6 -9 -9 -15t-10 -22
q-7 -2 -13.5 -3t-17.5 -1q-27 0 -53.5 8t-48 24.5t-35 40t-13.5 55.5q0 27 9.5 47.5t25.5 38t38 32.5t48 31q19 12 35 22.5t27 21.5t17 23.5t6 28.5q0 10 -4 22.5t-13 23t-24.5 17.5t-37.5 7q-34 0 -50 -11t-29 -25h-16zM170 144q33 0 56.5 -23.5t23.5 -56.5t-23.5 -56.5
t-56.5 -23.5t-56.5 23.5t-23.5 56.5t23.5 56.5t56.5 23.5z" />
    <glyph glyph-name="at" unicode="@" horiz-adv-x="747" 
d="M706 86q-62 -45 -130.5 -73.5t-160.5 -28.5q-90 0 -159 29.5t-116.5 77.5t-71.5 110t-24 128q0 77 29.5 144t81.5 116t122.5 77t152.5 28q68 0 127 -20t102 -57.5t67.5 -90t24.5 -116.5q0 -54 -17 -100t-44.5 -80t-63 -53t-71.5 -19q-14 0 -27.5 4t-25 12t-18.5 21.5
t-7 31.5q0 8 1 13.5t2 10.5q-7 -13 -14.5 -26.5t-24.5 -28.5q-18 -17 -42 -27.5t-53 -10.5q-57 0 -93 39t-36 108q0 39 13.5 80t38.5 74t60.5 54t78.5 21q32 0 52.5 -9t33 -21.5t18 -24.5t7.5 -18l17 58h70l-60 -202q-6 -20 -10 -37t-4 -31t5 -22t11.5 -12t13.5 -5t11 -1
q24 0 47.5 16.5t42 45t30 65t11.5 77.5q0 54 -20.5 97.5t-56.5 74.5t-86.5 48t-110.5 17q-78 0 -140.5 -26.5t-107 -71t-68 -103t-23.5 -122.5q0 -57 21 -111t62 -96t102 -67t141 -25q83 0 145 25.5t119 65.5zM491 411q0 22 -7 36t-17 22t-21.5 11.5t-21.5 3.5
q-28 0 -51 -18.5t-39.5 -46t-25.5 -60t-9 -59.5q0 -37 16.5 -64t51.5 -27q34 0 57.5 26.5t38.5 61t21.5 67.5t6.5 47z" />
    <glyph glyph-name="A" unicode="A" horiz-adv-x="667" 
d="M458 689q1 -8 8.5 -45.5t19.5 -94t27.5 -128t33 -146t35 -147.5t34.5 -133q-15 2 -37.5 3.5t-47.5 1.5q-26 0 -46 -1.5t-34 -3.5q-3 23 -6.5 54t-9.5 71q-1 5 -3 17t-4.5 25.5t-4.5 25t-3 16.5q-29 1 -58.5 1.5t-68.5 0.5t-62 -0.5t-48 -1.5q-20 -33 -46.5 -82.5
t-64.5 -126.5q-8 2 -18 3.5t-25 1.5q-14 0 -27.5 -1.5t-22.5 -3.5q52 83 102 166t99 168q36 63 62 108t44.5 78t31.5 56t23.5 42t20 36.5t20.5 39.5q8 -2 17.5 -3.5t20.5 -1.5t21 1.5t17 3.5zM357 498l-72 -116t-69 -118q25 -1 50.5 -1.5t51.5 -0.5q23 0 46.5 0.5t43.5 1.5
q-6 33 -11.5 61.5t-11.5 55.5t-12.5 55.5t-15.5 61.5z" />
    <glyph glyph-name="B" unicode="B" horiz-adv-x="611" 
d="M405 348q30 -2 56.5 -13t47 -29.5t32 -46t11.5 -62.5q0 -40 -20.5 -85t-69.5 -74q-27 -16 -54.5 -25t-52.5 -13t-46 -4.5t-35 -0.5q-9 0 -29.5 1t-43.5 1.5t-43 1.5t-28 1q-23 0 -45.5 -1.5t-45.5 -3.5q18 63 35.5 133t32.5 140t28 136.5t23 122t16.5 96t8.5 58.5
q18 -2 36 -3.5t46 -1.5q9 0 30.5 1t45.5 1.5t45.5 1.5t29.5 1q9 0 26.5 -0.5t38.5 -4.5t42.5 -12.5t39 -24t29 -39t11.5 -58.5q0 -14 -5 -41t-24.5 -55.5t-59.5 -53.5t-109 -34v-10zM456 533q0 28 -8 46t-21.5 28.5t-31 14t-36.5 3.5h-18t-19 -2q-8 -29 -15.5 -63.5
t-14.5 -67.5t-12.5 -61.5t-8.5 -45.5q10 -1 19 -1h20q69 0 107.5 40.5t38.5 108.5zM400 217q0 9 -1.5 20.5t-5 24.5t-10.5 25t-18 22q-19 16 -42 19t-62 3q-6 -29 -14.5 -67t-17 -77.5t-15.5 -75.5t-10 -61q14 -2 25 -2h22q37 0 64.5 13t46.5 36t28.5 53.5t9.5 66.5z" />
    <glyph glyph-name="C" unicode="C" horiz-adv-x="667" 
d="M661 541q-30 51 -73 72.5t-102 21.5q-75 0 -127 -36t-84.5 -91.5t-47.5 -122.5t-15 -130q0 -97 50 -155t149 -58q48 0 93 14t82 45l9 -7q-11 -22 -19.5 -40.5t-17.5 -41.5q-32 -12 -65.5 -19.5t-85.5 -7.5q-102 0 -169.5 29.5t-107.5 75.5t-56 101.5t-16 108.5
q0 82 30 153.5t85 124.5t130.5 84t167.5 31q49 0 88 -6.5t69 -16t52 -20.5t37 -19q-16 -23 -27.5 -48t-18.5 -42h-10z" />
    <glyph glyph-name="D" unicode="D" horiz-adv-x="778" 
d="M765 384q0 -41 -11 -87.5t-35 -92.5t-61.5 -87t-91.5 -70q-32 -18 -66.5 -28t-68.5 -15.5t-67.5 -7t-63.5 -1.5q-11 0 -36 1t-53.5 1.5t-53.5 1.5t-34 1q-32 0 -52 -1.5t-34 -3.5q9 31 22.5 83t28.5 116t30.5 134t29 136t23.5 123t15 94q26 -2 51 -3.5t51 -1.5
q10 0 34.5 1t51.5 1.5t51.5 1.5t33.5 1q72 0 129 -23t96.5 -63t60 -94.5t20.5 -116.5zM608 410q0 102 -52.5 157t-167.5 55q-15 0 -29.5 -0.5t-29.5 -1.5q-10 -35 -21.5 -83t-23.5 -101.5t-24 -109.5t-22 -107t-18 -94t-12 -71q14 -1 32 -2t35 -1q21 0 50 2.5t60.5 11
t62.5 23.5t57 40q25 24 44.5 56.5t32.5 69.5t19.5 77t6.5 79z" />
    <glyph glyph-name="E" unicode="E" horiz-adv-x="519" 
d="M179 681q45 -4 103 -4.5t111 -0.5q52 0 97.5 1.5t79.5 3.5q-13 -26 -16 -41t-1 -36q-20 2 -38 4t-43 3t-59.5 1.5t-87.5 0.5q-17 -60 -30.5 -120t-21.5 -100h81.5t59 1t46.5 1.5t43 2.5q-14 -30 -15.5 -46t-0.5 -32q-26 3 -54.5 5t-58.5 2.5t-59 1t-56 0.5
q-14 -66 -26.5 -132.5t-20.5 -133.5h80.5t56 1t46 2t49.5 4q-13 -30 -15.5 -45t-0.5 -30q-60 2 -112 3.5t-96 1.5q-53 0 -99 -1.5t-86 -3.5q10 31 23.5 85.5t28 119.5t29.5 136.5t27.5 137t22 120t13.5 87.5z" />
    <glyph glyph-name="F" unicode="F" horiz-adv-x="500" 
d="M188 681q59 -3 109 -4t93 -1q41 0 88.5 1.5t98.5 3.5q-6 -14 -9.5 -24.5t-5.5 -19.5t-2.5 -18t-0.5 -20q-42 5 -101.5 8.5t-125.5 3.5q-6 -21 -13.5 -50t-15 -59.5t-14 -59t-10.5 -49.5q17 -2 39 -2.5t62 -0.5q38 0 65.5 1t58.5 3q-11 -28 -14 -44t-4 -36q-49 7 -109 9.5
t-112 2.5q-14 -58 -24 -102t-17 -81.5t-13 -72.5t-12 -75q-20 2 -41.5 3.5t-42.5 1.5q-20 0 -42 -1.5t-39 -3.5q13 39 27.5 94t30 118.5t30 131t27.5 131t23 118.5t16 93z" />
    <glyph glyph-name="G" unicode="G" horiz-adv-x="759" 
d="M713 539q-31 50 -85 72.5t-114 22.5q-86 0 -144 -37.5t-93.5 -94t-50.5 -122t-15 -121.5q0 -47 10.5 -86.5t34.5 -69t62.5 -46t93.5 -16.5q26 0 45.5 3t42.5 8q4 13 12 38.5t16 59t15.5 72.5t12.5 79q17 -2 36.5 -3.5t42.5 -1.5t39.5 1.5t32.5 3.5q-44 -142 -62 -284
q-52 -14 -101 -23.5t-115 -9.5q-103 0 -174 25t-114.5 67.5t-63 99.5t-19.5 121q0 76 29.5 147.5t85 126.5t136 88.5t182.5 33.5q75 0 140.5 -15t134.5 -47q-14 -28 -23 -47t-18 -45h-12z" />
    <glyph glyph-name="H" unicode="H" horiz-adv-x="778" 
d="M181 681q18 -2 38 -3.5t44 -1.5q26 0 45 1.5t34 3.5q-12 -39 -23.5 -82.5t-21 -83.5t-16.5 -71.5t-10 -45.5q35 -1 82.5 -1.5t93.5 -0.5q32 0 64.5 0.5t64.5 1.5q4 17 11.5 52t15.5 76t16 82.5t13 72.5q17 -2 40.5 -3.5t46.5 -1.5t40.5 1.5t33.5 3.5
q-17 -50 -35.5 -122.5t-38 -161t-39 -191t-37.5 -211.5q-20 2 -41.5 3.5t-41.5 1.5q-22 0 -42 -1.5t-38 -3.5q11 38 20.5 74t19 75t19 83t20.5 97q-23 1 -55 1.5t-91 0.5h-52t-40 -0.5t-33 -1t-32 -0.5q-13 -57 -21.5 -96t-15 -74t-12 -71.5t-12.5 -87.5q-20 2 -43 3.5
t-45 1.5q-24 0 -41.5 -1.5t-34.5 -3.5q15 48 30.5 108t30.5 124.5t29 130t25.5 126t20.5 111.5t14 86z" />
    <glyph glyph-name="I" unicode="I" horiz-adv-x="333" 
d="M184 681q19 -2 41 -3.5t44 -1.5q25 0 44 1.5t36 3.5q-27 -89 -51.5 -185.5t-45 -188.5t-36 -173t-22.5 -139q-26 2 -46 3.5t-40 1.5q-19 0 -41 -1.5t-38 -3.5q12 40 23 80t23.5 90.5t28 117.5t35.5 160q12 55 19.5 93.5t12.5 66t8 46t5 32.5z" />
    <glyph glyph-name="J" unicode="J" horiz-adv-x="333" 
d="M-69 -115q35 2 56.5 11.5t35 28t22 47.5t18.5 71q5 24 15.5 72t23 108t26 127.5t25.5 130t21.5 115.5t14.5 85q23 -2 41.5 -3.5t40.5 -1.5q21 0 40 1.5t38 3.5q-2 -9 -8 -32.5t-12.5 -49t-12 -48t-7.5 -31.5q-14 -59 -23.5 -102.5t-16.5 -80.5t-13 -71t-13 -74
q-10 -61 -19.5 -110t-23 -87.5t-33 -67t-48.5 -46.5q-40 -25 -84 -33.5t-98 -8.5z" />
    <glyph glyph-name="K" unicode="K" horiz-adv-x="611" 
d="M697 675q-54 -45 -108 -96t-107 -102q-21 -21 -35 -34t-23.5 -22.5l-16.5 -16.5t-15 -16q19 -50 44.5 -110t49.5 -116t44.5 -101t31.5 -66q-22 2 -43 3.5t-43 1.5q-20 0 -39.5 -1.5t-35.5 -3.5q-17 45 -31 81.5t-28 71t-29 69t-34 73.5q-6 13 -12 13q-3 0 -4.5 -1.5
t-3 -7.5t-4 -17.5t-5.5 -30.5q-2 -12 -7.5 -40.5t-11.5 -60t-11 -59.5t-7 -39q-3 -17 -4.5 -29t-3.5 -23q-24 2 -45.5 3.5t-41.5 1.5q-23 0 -40.5 -1.5t-32.5 -3.5q9 36 23 93t29 123.5t30.5 137t28.5 135t23 116.5t14 81q16 -2 33.5 -3.5t41.5 -1.5q23 0 43 1.5t37 3.5
q-12 -44 -24 -95t-22 -94.5t-16 -72.5t-6 -30q0 -2 1 -4.5t4 -2.5q4 0 12 7t31 29q66 64 129.5 128.5t124.5 134.5q11 -2 26 -3.5t27 -1.5q15 0 31.5 1.5t30.5 3.5v-6z" />
    <glyph glyph-name="L" unicode="L" horiz-adv-x="500" 
d="M186 681q19 -2 41 -3.5t45 -1.5q22 0 42.5 1.5t37.5 3.5q-15 -51 -30 -111t-29 -121.5t-27 -121.5t-23 -111t-17.5 -90.5t-10.5 -60.5h76t60.5 0.5t51.5 1.5t48 3q-10 -21 -13.5 -36.5t-3.5 -38.5q-51 2 -102 3.5t-102 1.5q-55 0 -104.5 -1.5t-84.5 -3.5q24 82 46 178.5
t42 190.5q17 79 30.5 158t26.5 159z" />
    <glyph glyph-name="M" unicode="M" horiz-adv-x="889" 
d="M435 206q5 6 28 35.5t56.5 73t73 95.5t78 103t71.5 95.5t53 72.5q23 -5 48 -5q15 0 28.5 1.5t26.5 3.5q-8 -29 -20.5 -83t-25.5 -120.5t-27 -139t-26 -139t-21 -120.5t-13 -84q-17 2 -35 3.5t-41 1.5q-22 0 -41 -1.5t-36 -3.5q11 44 23 98.5t23.5 113.5t22 119.5
t18.5 116.5q-46 -57 -90 -114t-87 -116q-42 -57 -78.5 -114t-73.5 -117q-4 1 -7.5 1.5t-8.5 0.5t-8.5 -0.5t-7.5 -1.5q-7 35 -18 79.5t-23.5 92t-25.5 94.5t-25 88t-22 72t-15 47q-3 -11 -11 -39t-18.5 -66t-22 -84.5t-23.5 -93.5t-22.5 -93t-17.5 -84q-11 2 -19.5 3.5
t-19.5 1.5q-20 0 -38 -5q12 38 27.5 93.5t32.5 119t34 131t32.5 131t28 118.5t21.5 93q22 -5 48 -5t51 5q18 -70 40.5 -146t43 -142.5t36.5 -117t23 -69.5z" />
    <glyph glyph-name="N" unicode="N" horiz-adv-x="778" 
d="M276 692q20 -37 48 -83t59 -95.5t63.5 -99t62 -93t53.5 -78.5t39 -55q8 27 17.5 67.5t19.5 87t20 96.5t19 95.5t16 84t11 62.5q17 -5 39 -5q21 0 41 5q-6 -23 -11.5 -42.5t-13.5 -53t-21 -90t-35 -152.5q-12 -54 -30.5 -147.5t-38.5 -211.5q-9 2 -19.5 3.5t-22.5 1.5
t-21.5 -1.5t-18.5 -3.5q-75 131 -159.5 257.5t-170.5 252.5q-15 -62 -31 -135.5t-29.5 -143.5t-24 -128.5t-14.5 -91.5q-10 2 -21 3.5t-22 1.5t-21.5 -1.5t-19.5 -3.5q6 20 17 63t24.5 101t28.5 126.5t29.5 139t27.5 139.5t22 128q9 -2 21 -3.5t23 -1.5q13 0 24 1.5t20 3.5z
" />
    <glyph glyph-name="O" unicode="O" horiz-adv-x="833" 
d="M58 289q0 83 30.5 157t86 129t132.5 87t170 32q70 0 132.5 -19t110 -57t75 -95t27.5 -133q0 -78 -29.5 -151.5t-84.5 -130t-134 -90.5t-178 -34q-70 0 -131.5 20t-107.5 58.5t-72.5 95.5t-26.5 131zM207 240q0 -44 11.5 -81t34.5 -63.5t57.5 -41t79.5 -14.5q46 0 85 19
t70.5 50.5t55.5 72.5t40 85.5t24 89t8 83.5q0 43 -12.5 79.5t-36.5 63t-58.5 41t-78.5 14.5q-49 0 -89 -18t-71 -49t-53.5 -71t-37.5 -84.5t-22 -89.5t-7 -86z" />
    <glyph glyph-name="P" unicode="P" horiz-adv-x="574" 
d="M250 297q-18 -72 -34 -148.5t-29 -153.5q-20 2 -39.5 3.5t-39.5 1.5q-25 0 -43.5 -1.5t-35.5 -3.5q34 128 64.5 258t56.5 262q8 42 16 83t14 83q16 -2 34.5 -3.5t41.5 -1.5q32 0 67 2.5t73 2.5q87 0 139 -39.5t52 -130.5q0 -57 -20.5 -98.5t-55.5 -68t-81.5 -39.5
t-99.5 -13q-24 0 -44.5 1.5t-35.5 3.5zM438 525q0 34 -9 54t-24.5 30t-37.5 13t-48 2q-17 -69 -31.5 -138t-28.5 -139q8 -1 15.5 -1.5t18.5 -0.5q38 0 65.5 15t45 40t26 57.5t8.5 67.5z" />
    <glyph glyph-name="Q" unicode="Q" horiz-adv-x="833" 
d="M58 291q0 81 30 154t85 128.5t132 88t172 32.5q69 0 132 -19t110 -56.5t75 -95t28 -133.5q0 -71 -22.5 -133.5t-60.5 -112t-88 -84.5t-106 -52q-9 -3 -18.5 -7t-19.5 -8q8 -3 15.5 -5.5t15.5 -4.5l247 -69q-17 -11 -46 -32.5t-59 -55.5q-49 24 -99 45t-101 43l-109 48
q-18 8 -31 13.5t-23.5 9.5t-20.5 7t-23 8q-104 35 -159.5 108t-55.5 183zM207 240q0 -45 11.5 -81.5t34.5 -63t57 -41t79 -14.5q47 0 86 18.5t70.5 50t55.5 72.5t40 85.5t24 89t8 84.5q0 43 -12.5 79.5t-36.5 63t-58.5 41t-78.5 14.5q-49 0 -88.5 -18t-70.5 -49t-54 -71
t-38 -84.5t-22 -89.5t-7 -86z" />
    <glyph glyph-name="R" unicode="R" horiz-adv-x="611" 
d="M252 314q-11 -47 -20.5 -94t-18 -89t-15 -77t-10.5 -59q-17 2 -37.5 3.5t-42.5 1.5q-23 0 -41.5 -1.5t-32.5 -3.5q10 35 24 92t29 124t30.5 138.5t28.5 136t22.5 116t13.5 79.5q17 -2 38 -3.5t44 -1.5q32 0 65 2.5t74 2.5t76 -9.5t60.5 -29.5t39.5 -51.5t14 -74.5
q0 -42 -15 -75t-40 -56.5t-58.5 -38t-70.5 -19.5q6 -17 17 -44t24 -59t27.5 -66.5t27.5 -66t24 -57t17 -39.5q-20 2 -40.5 3.5t-40.5 1.5q-27 0 -46 -1.5t-35 -3.5q-25 81 -53 160.5t-60 158.5h-19zM261 359q11 -1 21.5 -1.5t19.5 -0.5q36 0 63 13t44.5 35.5t26 52.5t8.5 64
q0 32 -9.5 52.5t-24.5 32t-33 15.5t-35 4h-12t-13 -1q-5 -18 -11.5 -46.5t-14 -64t-15.5 -75.5t-15 -80z" />
    <glyph glyph-name="S" unicode="S" horiz-adv-x="519" 
d="M455 521q-5 48 -34.5 79.5t-85.5 31.5q-25 0 -44.5 -8t-32.5 -20.5t-19.5 -29t-6.5 -33.5q0 -20 7.5 -37t22 -34.5t36.5 -37t51 -43.5q23 -19 44 -38.5t36.5 -42t25 -49t9.5 -59.5q0 -53 -19.5 -93t-53 -67.5t-77.5 -41.5t-92 -14q-60 0 -109.5 14.5t-99.5 46.5
q16 30 27 63t16 59h21q4 -56 41.5 -91t96.5 -35q22 0 42.5 6.5t36.5 19.5t26 31t10 42q0 20 -8.5 38t-23 35.5t-33.5 34.5t-41 35q-26 21 -48.5 41.5t-39 43.5t-26.5 51t-10 63q0 51 18 90.5t49 66t73.5 40.5t90.5 14q54 0 99 -12t90 -41q-20 -37 -28 -64.5t-15 -54.5h-22z
" />
    <glyph glyph-name="T" unicode="T" 
d="M110 681q60 -2 120.5 -3.5t126.5 -1.5h63t72.5 1t70.5 1.5t58 2.5q-8 -21 -11 -36.5t-6 -43.5q-47 5 -87.5 6.5t-75.5 1.5q-15 -56 -31.5 -120.5t-35.5 -149.5q-19 -86 -37 -171t-31 -173q-22 2 -43 3.5t-42 1.5t-41.5 -1.5t-37.5 -3.5q23 89 46 177.5t42 179.5
q14 64 26.5 128t23.5 129h-52t-45 -0.5t-43.5 -2t-47.5 -3.5q8 23 12 38.5t6 39.5z" />
    <glyph glyph-name="U" unicode="U" horiz-adv-x="778" 
d="M182 681q17 -2 39 -3.5t43 -1.5q23 0 45 1.5t39 3.5q-10 -37 -20 -73t-21 -73q-7 -26 -16.5 -65t-19 -80t-17.5 -77.5t-12 -57.5q-6 -31 -8.5 -51.5t-2.5 -40.5q0 -33 11.5 -55t31.5 -35.5t46.5 -19.5t56.5 -6q66 0 107.5 21t67 54t39.5 73.5t25 79.5q6 20 13.5 51
t15.5 68t17 77.5t17 79t14 72.5t10 58q12 -2 23.5 -3.5t22.5 -1.5q22 0 45 5q-9 -30 -19.5 -69.5t-21 -82.5t-20.5 -87t-18 -82q-18 -82 -39.5 -151t-60.5 -119t-101 -78t-160 -28q-45 0 -92.5 9t-86 31t-63.5 58.5t-25 91.5q0 38 9 82.5t24 106.5q20 79 36 158t26 160z" />
    <glyph glyph-name="V" unicode="V" horiz-adv-x="667" 
d="M282 681q12 -130 30 -258t41 -256q27 41 56 89.5t58 98.5t56.5 99.5t51 92.5t41 78t26.5 56q11 -2 24 -3.5t29 -1.5q14 0 25 1t25 4q-54 -81 -103.5 -163t-100.5 -165q-55 -90 -108 -179t-107 -179q-8 2 -19.5 3.5t-25.5 1.5t-25.5 -1.5t-20.5 -3.5q-10 88 -25 174.5
t-30 174.5q-8 43 -17 89.5t-18.5 91.5t-18 85.5t-15.5 70.5q17 -2 38.5 -3.5t47.5 -1.5t46.5 1.5t38.5 3.5z" />
    <glyph glyph-name="W" unicode="W" horiz-adv-x="944" 
d="M101 681q18 -2 36 -3.5t43 -1.5q26 0 46.5 1.5t36.5 3.5q3 -69 8 -143.5t11.5 -142.5t12.5 -122.5t11 -82.5q21 40 44.5 86.5t47.5 94.5t46.5 95t42 88t34.5 74t23 53q11 -2 24 -3.5t27 -1.5q16 0 27.5 1.5t22.5 3.5q3 -55 9 -120.5t14 -131.5t17 -128.5t17 -111.5
q31 60 64.5 132.5t64 141.5t54.5 127.5t37 90.5q10 -2 22 -3.5t26 -1.5q12 0 23.5 1.5t22.5 3.5q-7 -12 -13.5 -24.5t-16 -30.5t-23 -44t-32.5 -65q-40 -80 -79 -159.5t-79 -160.5q-25 -51 -48.5 -101t-47.5 -101q-13 2 -23.5 3.5t-24.5 1.5q-17 0 -29 -1.5t-22 -3.5
q-5 67 -13 139t-16.5 136.5t-17 115t-12.5 74.5q-18 -31 -47 -87t-62 -121.5t-66 -133.5t-58 -123q-10 2 -21 3.5t-25 1.5q-17 0 -30.5 -1.5t-24.5 -3.5q-1 20 -5.5 64t-11 103t-15 128t-17 138.5t-18 135t-17.5 117.5z" />
    <glyph glyph-name="X" unicode="X" horiz-adv-x="611" 
d="M282 681q20 -61 41.5 -120.5t46.5 -119.5q26 33 49 63t45 58.5t42.5 57.5t42.5 61q11 -2 22.5 -3.5t28.5 -1.5q18 0 30 1.5t24 3.5q-27 -29 -63.5 -71.5t-73.5 -87t-69.5 -85.5t-50.5 -65q7 -20 25 -65t41 -99.5t48 -111.5t47 -101q-18 2 -38 3.5t-46 1.5t-47.5 -1.5
t-38.5 -3.5q-21 66 -48 133.5t-50 125.5q-28 -36 -48 -62.5t-39 -54t-41.5 -60.5t-54.5 -82q-10 2 -24 3.5t-34 1.5q-17 0 -27.5 -1.5t-22.5 -3.5q39 45 79.5 94.5t76.5 94.5t65 81.5t44 57.5q-27 69 -45.5 115t-34 84t-31 74t-36.5 85q18 -2 36.5 -3.5t43.5 -1.5
q28 0 49.5 1.5t35.5 3.5z" />
    <glyph glyph-name="Y" unicode="Y" horiz-adv-x="611" 
d="M365 356q36 49 72 101t66.5 97.5t52 79.5t29.5 47q11 -2 22.5 -3.5t28.5 -1.5t30 1.5t27 3.5q-41 -48 -85 -104.5t-84.5 -110.5t-73.5 -100.5t-52 -75.5q-17 -74 -31 -147t-25 -148q-14 2 -33.5 3.5t-46.5 1.5q-26 0 -43 -1.5t-34 -3.5q8 29 17 66.5t17.5 76.5t16 76
t12.5 67q-8 25 -19 59t-23.5 72t-26.5 77.5t-26.5 76t-23.5 66.5t-18 49q18 -2 35.5 -3.5t43.5 -1.5q29 0 49.5 1.5t37.5 3.5q7 -31 14 -61.5t17 -67.5t23.5 -84t33.5 -112z" />
    <glyph glyph-name="Z" unicode="Z" horiz-adv-x="611" 
d="M675 659q-14 -16 -47.5 -56.5t-78.5 -95.5t-96 -118.5t-99 -124.5t-89 -113.5t-65 -86.5h125.5t88 1.5t67.5 4.5t65 9q-13 -26 -16 -45.5t-3 -38.5q-63 3 -126.5 4t-126.5 1h-70t-84 -1t-83 -2t-67 -2l4 19q15 17 42 49.5t60.5 74t72.5 89.5t78 96.5t76.5 95.5t68 85.5
t53 67t31.5 40.5q-42 0 -85 -1t-84 -2.5t-78 -3.5t-66 -5q10 23 13.5 40.5t1.5 40.5q28 -2 64 -2.5t73.5 -1.5t74 -1h66.5h53.5t63.5 1t66 1.5t61 2.5z" />
    <glyph glyph-name="bracketleft" unicode="[" horiz-adv-x="333" 
d="M282 633q-10 -33 -23 -88t-28 -121.5t-30.5 -138.5t-29.5 -140.5t-26 -127t-20 -96.5q12 -1 22.5 -1.5t30.5 -0.5q23 0 35.5 0.5t23.5 1.5q-5 -13 -6 -24t-3 -24q-23 2 -51.5 3t-57.5 1q-27 0 -56.5 -1t-49.5 -3q9 31 15.5 56t15 61t20.5 93t33 153q17 81 29.5 140
t21.5 102t15 72t10 51.5t6.5 40.5t5.5 39q17 -2 38.5 -3t59.5 -1q42 0 71 1.5t48 2.5q-5 -12 -7 -21t-4 -27q-14 1 -28.5 1.5t-28.5 0.5q-13 0 -26 -0.5t-26 -1.5z" />
    <glyph glyph-name="backslash" unicode="\" horiz-adv-x="389" 
d="M385 -37h-75l-274 748h75z" />
    <glyph glyph-name="bracketright" unicode="]" horiz-adv-x="333" 
d="M69 -78q10 33 23 88t28 121.5t30.5 138.5t29.5 140.5t26 126.5t20 97q-12 1 -22.5 1.5t-30.5 0.5q-23 0 -35.5 -0.5t-23.5 -1.5q5 13 6 24t3 24q23 -2 51.5 -3t57.5 -1q27 0 56.5 1t49.5 3q-6 -21 -10.5 -38.5t-9.5 -36.5t-10.5 -42t-12.5 -56.5t-17 -79.5t-24 -110
q-17 -82 -29.5 -140.5t-21.5 -101.5t-15 -72t-10 -51.5t-6.5 -41t-5.5 -38.5q-17 2 -38.5 3t-59.5 1q-42 0 -71 -1.5t-48 -2.5q5 12 7 21t4 27q14 -1 28.5 -1.5t28.5 -0.5q13 0 26 0.5t26 1.5z" />
    <glyph glyph-name="asciicircum" unicode="^" horiz-adv-x="593" 
d="M271 661h81l173 -422h-91l-124 311l-120 -311h-92z" />
    <glyph glyph-name="underscore" unicode="_" horiz-adv-x="500" 
d="M0 -75h500v-50h-500v50z" />
    <glyph glyph-name="grave" unicode="`" horiz-adv-x="278" 
d="M251 544l-133 90q-13 8 -22.5 18.5t-9.5 27.5q0 14 10.5 28.5t36.5 14.5q13 0 26.5 -7t33.5 -33l103 -139h-45z" />
    <glyph glyph-name="a" unicode="a" horiz-adv-x="500" 
d="M460 13q-14 -10 -31.5 -18.5t-49.5 -8.5q-27 0 -44.5 8.5t-27.5 20.5t-14.5 24.5t-6.5 20.5q-24 -41 -55.5 -59.5t-80.5 -18.5q-59 0 -95 36t-36 95q0 48 27.5 89t79.5 57q23 7 57 12t65 9q22 3 37 5.5t23.5 8.5t12 17.5t3.5 32.5q0 22 -8 37t-20.5 24t-28 12.5
t-30.5 3.5q-31 0 -56.5 -10t-49.5 -28h-5q2 20 3 30.5t2 26.5q83 46 175 46q28 0 56 -6t50 -20t35.5 -37.5t13.5 -58.5q0 -22 -4.5 -48t-8.5 -43l-27 -125q-8 -35 -10 -51.5t-2 -26.5q0 -12 5 -26t22 -14q5 0 8.5 2t7.5 4zM157 117q0 -26 11.5 -46.5t41.5 -20.5q23 0 38 12
t24.5 30t14.5 39.5t9 41.5l15 77q-45 -7 -69 -13t-41 -17q-24 -15 -34 -45t-10 -58z" />
    <glyph glyph-name="b" unicode="b" 
d="M0 0q14 50 29 113t30.5 132t30.5 141t28 138.5t23.5 125t16.5 101.5q16 -2 33 -3.5t39 -1.5q20 0 39.5 1.5t34.5 3.5q-10 -35 -21.5 -82t-22.5 -93.5t-19.5 -86t-12.5 -59.5l17 17t25.5 19t37.5 15.5t52 6.5q54 0 87.5 -21t52 -51t25.5 -63t7 -56q0 -45 -15 -99
t-46.5 -101t-80.5 -79t-116 -32q-38 0 -64 10t-42.5 23.5t-26 27.5t-13.5 23q-29 -14 -55.5 -32t-52.5 -38h-20zM169 127q0 -18 5 -34.5t15 -29.5t25 -21t34 -8q25 0 45.5 16.5t36.5 42.5t27.5 58t19.5 64t11.5 59.5t3.5 44.5q0 20 -4.5 39t-14 33.5t-25.5 23t-39 8.5
q-17 0 -30 -6t-23 -15t-17 -20t-12 -22q-11 -22 -21 -52.5t-18.5 -62.5t-13.5 -63.5t-5 -54.5z" />
    <glyph glyph-name="c" unicode="c" horiz-adv-x="481" 
d="M439 325q1 30 -7.5 52t-22.5 36.5t-32.5 21t-37.5 6.5q-32 0 -57 -14t-44 -36.5t-32 -50.5t-21.5 -57t-12 -55.5t-3.5 -45.5q0 -24 7 -49t22 -44.5t39 -32t58 -12.5q37 0 60.5 13t45.5 31l14 -11q-17 -27 -23 -43t-9 -28q-32 -12 -59 -18t-61 -6q-50 0 -93.5 15
t-75.5 43.5t-50 70t-18 94.5q0 48 17 98t53 90.5t91 66.5t131 26q36 0 65.5 -5.5t53.5 -13.5t43 -17.5t34 -17.5q-8 -12 -13.5 -22t-11.5 -22t-12.5 -27t-14.5 -36h-23z" />
    <glyph glyph-name="d" unicode="d" 
d="M24 180q0 59 17.5 114.5t49 98.5t74.5 69t94 26q44 0 83.5 -19t62.5 -57q26 109 40.5 191.5t25.5 147.5q16 -2 35 -3.5t40 -1.5t36 1.5t29 3.5q-16 -63 -33 -136.5t-33 -149t-31 -149t-27 -136t-21 -111t-12 -74.5q-13 2 -29.5 3.5t-35.5 1.5t-36 -1.5t-31 -3.5
q5 17 9.5 35t8.5 36q-21 -30 -57 -55.5t-85 -25.5q-46 0 -79 16t-54 42.5t-31 62t-10 74.5zM164 152q0 -19 4.5 -36t13.5 -30.5t22.5 -21.5t31.5 -8q43 0 71 32t44.5 76.5t22.5 91t6 76.5q0 37 -19.5 65.5t-60.5 28.5q-25 0 -45 -15.5t-35 -40t-25.5 -55t-17.5 -61t-10 -58
t-3 -44.5z" />
    <glyph glyph-name="e" unicode="e" horiz-adv-x="500" 
d="M434 96q-5 -12 -10 -26t-13 -42q-32 -23 -71 -31.5t-79 -8.5q-59 0 -101.5 19t-70 50t-41 71.5t-13.5 84.5q0 49 16.5 98t49.5 88t82 63.5t114 24.5q46 0 81.5 -13t59 -36.5t35.5 -56.5t12 -73q0 -19 -2.5 -38.5t-5.5 -38.5q-63 2 -106 3t-76 1h-46t-71 -1q-2 -12 -3 -26
t-1 -28q0 -59 28.5 -95.5t90.5 -36.5q28 0 62.5 12.5t63.5 42.5zM362 363q0 32 -13 56t-50 24q-26 0 -44 -14t-31.5 -37t-22.5 -52.5t-16 -59.5q17 -2 34 -2h37h41.5t54.5 2q3 13 6.5 35t3.5 48z" />
    <glyph glyph-name="f" unicode="f" horiz-adv-x="333" 
d="M403 624l-14 -4q-14 11 -38 24.5t-57 13.5q-19 0 -29.5 -5.5t-15 -13t-5.5 -15t-1 -12.5q0 -28 8.5 -65.5t17.5 -72.5h53.5t49.5 2q-5 -17 -6.5 -26.5t-3.5 -26.5q-25 1 -50.5 1.5t-48.5 0.5q-21 -95 -42 -199t-36 -231q-14 2 -30.5 3.5t-41.5 1.5q-23 0 -45.5 -1.5
t-41.5 -3.5q10 33 23.5 82.5t27 107.5t26.5 120t24 120q-15 0 -39 -0.5t-41 -1.5q5 17 7 26.5t5 26.5q20 -1 39.5 -1.5t39.5 -0.5q6 31 12 61t17 58.5t28.5 55.5t44.5 53q38 36 73 46t62 10q18 0 33 -2.5l27 -4.5z" />
    <glyph glyph-name="g" unicode="g" horiz-adv-x="519" 
d="M151 189q-42 17 -65.5 48.5t-23.5 78.5q0 32 13.5 63t40.5 55t68.5 39t98.5 15q24 0 42 -3t35 -7q12 -3 20 -4.5t14.5 -3t12.5 -2t14 -0.5q7 0 23 0.5t34 1.5t35 2t26 2q-5 -13 -6.5 -23.5t-1.5 -24.5q-21 1 -42.5 1.5t-42.5 0.5q36 -41 36 -93q0 -13 -3 -30t-11.5 -35
t-22 -35.5t-34.5 -30.5q-22 -14 -45 -21.5t-44.5 -11.5t-40 -4.5t-30.5 -0.5q-3 0 -10.5 0.5t-15.5 0.5t-15 0.5t-10 0.5q-23 0 -35 -15.5t-12 -30.5q0 -28 24 -34t69 -8q13 -1 30.5 -1.5t35.5 -2t35 -5t30 -9.5q32 -14 49 -44.5t17 -65.5q0 -37 -16 -75t-48.5 -69.5
t-81.5 -51.5t-116 -20q-32 0 -70 6t-70 21t-53.5 41.5t-21.5 67.5q0 28 11.5 49.5t30 37.5t42 27t47.5 17l2 5q-23 10 -36.5 28t-13.5 45q0 21 9 38t23 29.5t32.5 21t36.5 13.5zM194 278q0 -31 12 -52.5t47 -21.5q28 0 47 19t30.5 46t16.5 56.5t5 50.5q0 11 -2 24t-8.5 24
t-18.5 18.5t-31 7.5q-29 0 -47.5 -20t-30 -48t-16 -57t-4.5 -47zM59 -113q0 -30 10 -50.5t28 -33.5t41.5 -18.5t50.5 -5.5q38 0 66 9.5t46 26t27 38t9 45.5q0 23 -8 39t-28.5 26t-54.5 14.5t-86 4.5q-13 0 -26.5 -2t-27.5 -10q-21 -13 -34 -35.5t-13 -47.5z" />
    <glyph glyph-name="h" unicode="h" 
d="M315 751q-24 -75 -45.5 -164.5t-41.5 -189.5q39 48 83.5 68.5t90.5 20.5q60 0 92.5 -28.5t32.5 -79.5q0 -20 -4.5 -47t-10.5 -54.5t-12.5 -53t-10.5 -43.5q-4 -16 -14 -63.5t-21 -121.5q-17 2 -35.5 3.5t-37.5 1.5q-14 0 -31.5 -1.5t-46.5 -3.5q10 33 17.5 59t14.5 51.5
t14.5 54l17.5 66.5q3 12 8 31t9.5 39t7.5 37.5t3 26.5q0 23 -14.5 37.5t-43.5 14.5q-27 0 -47 -12.5t-35.5 -31.5t-26.5 -42t-18 -45q-11 -32 -20.5 -72.5t-17.5 -81t-14 -76t-9 -56.5q-18 2 -35 3.5t-35 1.5q-15 0 -35 -1.5t-39 -3.5q16 65 33.5 138t34 147t31.5 145.5
t27.5 134t22 112t14.5 79.5q16 -2 33.5 -3.5t39.5 -1.5q20 0 38.5 1.5t35.5 3.5z" />
    <glyph glyph-name="i" unicode="i" horiz-adv-x="278" 
d="M117 476q17 -2 35.5 -3.5t39.5 -1.5q26 0 43.5 1.5t32.5 3.5q-7 -21 -16 -56t-19.5 -77.5t-21 -89.5t-20 -93.5t-16.5 -89t-11 -75.5q-17 2 -35 3.5t-40 1.5q-23 0 -41.5 -1.5t-34.5 -3.5q10 35 21 77t21.5 87t20.5 90.5t18 87.5t14 77.5t9 61.5zM148 661q0 31 22 53.5
t54 22.5t54 -22t22 -54t-22 -54t-54 -22t-54 22.5t-22 53.5z" />
    <glyph glyph-name="j" unicode="j" horiz-adv-x="259" 
d="M-118 -228q30 4 48.5 12.5t30 22.5t19 35t16.5 51q10 35 22 86.5t25 110t25 119.5t22.5 114t18 93.5t10.5 59.5q14 -2 31 -3.5t39 -1.5q24 0 42 1.5t32 3.5q-11 -39 -25 -95.5t-29 -123.5t-30 -140.5t-29 -146.5q-5 -26 -10.5 -51t-14.5 -49t-23 -45.5t-35 -38.5
q-19 -15 -38.5 -24t-41 -14t-46 -7.5t-52.5 -3.5zM147 661q0 31 22 53.5t54 22.5t54 -22t22 -54t-22 -54t-54 -22t-54 22.5t-22 53.5z" />
    <glyph glyph-name="k" unicode="k" horiz-adv-x="500" 
d="M538 460q-17 -11 -42.5 -30.5t-58.5 -48.5q-6 -6 -22 -19.5t-33 -29t-32 -29t-21 -18.5q14 -38 31 -82t33.5 -85t30 -72.5t19.5 -43.5v-7q-15 2 -30 3.5t-39 1.5q-25 0 -43.5 -1.5t-35.5 -3.5q-8 29 -13.5 47t-12 38.5t-16.5 49t-28 79.5q-6 18 -8.5 22.5t-8.5 4.5
q-7 0 -10 -7t-8 -27q-14 -61 -23 -111.5t-16 -95.5q-15 2 -30.5 3.5t-38.5 1.5q-20 0 -39.5 -1.5t-36.5 -3.5q35 140 66.5 279t60.5 282q10 49 20 101.5t15 93.5q17 -2 35 -3.5t41 -1.5q21 0 36.5 1.5t33.5 3.5q-24 -96 -43.5 -180.5t-33 -148t-21 -101l-7.5 -37.5
q0 -9 8 -9q6 0 19.5 11t30.5 25q46 40 91 80t85 85q11 -2 23 -3.5t27 -1.5q14 0 24 1.5t20 3.5z" />
    <glyph glyph-name="l" unicode="l" horiz-adv-x="278" 
d="M175 751q18 -2 36.5 -3.5t41.5 -1.5q21 0 38.5 1t37.5 4q-12 -48 -23.5 -91t-22.5 -86.5t-21.5 -90t-22.5 -101.5q-20 -97 -39.5 -192t-36.5 -195q-17 2 -35.5 3.5t-42.5 1.5q-20 0 -38 -1.5t-38 -3.5q14 47 29.5 109.5t32 132.5t32.5 143.5t29.5 142t24.5 127.5t18 101z
" />
    <glyph glyph-name="m" unicode="m" horiz-adv-x="833" 
d="M107 476q14 -2 29 -3.5t37 -1.5t37 1.5t30 3.5q-6 -19 -10 -37.5t-8 -37.5q9 10 23.5 25t34.5 28t47 22.5t62 9.5q48 0 78.5 -23.5t40.5 -69.5q33 40 77 67t95 27q21 0 43.5 -6.5t41 -20t30 -35t11.5 -51.5q0 -13 -1 -25t-4 -27.5t-8 -38t-13 -56.5q-2 -8 -8 -35.5
t-13.5 -63t-14.5 -72t-11 -61.5q-17 2 -34.5 3.5t-37.5 1.5q-26 0 -42.5 -1.5t-32.5 -3.5q14 47 29 103t28 107.5t21 92.5t8 58q0 23 -14 39t-42 16q-10 0 -25 -4t-31.5 -17.5t-33.5 -39t-30 -69.5q-11 -34 -27.5 -110t-33.5 -176q-16 2 -35.5 3.5t-42.5 1.5q-19 0 -33 -1.5
t-32 -3.5q12 42 27 98t28 109.5t22 96.5t9 59q0 26 -14.5 38.5t-39.5 12.5q-42 0 -73 -32.5t-49 -92.5q-5 -17 -23.5 -92t-37.5 -197q-17 2 -35 3.5t-36 1.5q-19 0 -36.5 -1.5t-33.5 -3.5q13 49 22.5 86.5t18.5 77t19.5 88t25.5 119.5q5 26 8.5 42.5t5.5 28t3.5 20.5t3.5 19
z" />
    <glyph glyph-name="n" unicode="n" 
d="M527 381q0 -14 -1 -26t-4.5 -30t-9.5 -44t-16 -67q-9 -37 -15.5 -65t-11.5 -52.5t-9 -48.5t-9 -53q-17 2 -34 3.5t-40 1.5q-21 0 -39.5 -1.5t-35.5 -3.5q4 12 12.5 39.5t19 63t21 75.5t19.5 76t15 64.5t6 41.5q0 28 -15.5 42t-42.5 14q-36 0 -71.5 -31t-56.5 -97
q-8 -25 -17 -59t-17.5 -72.5t-16 -79t-12.5 -77.5q-17 2 -34.5 3.5t-34.5 1.5q-18 0 -37 -1.5t-36 -3.5q13 49 25.5 100t26 108.5t27 124.5t28.5 148q15 -2 34.5 -3.5t37.5 -1.5q17 0 33 1.5t31 3.5q-4 -13 -6.5 -22.5t-5 -18.5t-5 -19t-5.5 -24q36 45 78 69.5t102 24.5
q62 0 92 -30t30 -75z" />
    <glyph glyph-name="o" unicode="o" 
d="M24 195q0 61 22.5 114t61.5 92.5t92 62t114 22.5q54 0 94.5 -15.5t68 -44t41.5 -68t14 -87.5q0 -61 -24 -113.5t-64.5 -91.5t-94 -61.5t-113.5 -22.5q-48 0 -87 15.5t-67 44t-43 67.5t-15 86zM161 144q0 -21 3 -43t11.5 -39.5t24 -28.5t40.5 -11q29 0 52 16.5t40 43.5
t29 60.5t19.5 67t11 63.5t3.5 51t-3 43t-11.5 39.5t-24 28.5t-40.5 11q-29 0 -52 -16.5t-40 -43.5t-29 -60.5t-19.5 -67t-11 -64t-3.5 -50.5z" />
    <glyph glyph-name="p" unicode="p" 
d="M533 294q0 -54 -16.5 -109.5t-47 -100t-74.5 -72.5t-98 -28q-46 0 -83.5 19.5t-59.5 52.5q-42 -155 -66 -317q-13 2 -29.5 3.5t-36.5 1.5q-19 0 -37.5 -1.5t-32.5 -3.5q10 43 24 104.5t29.5 131.5t31 143t28.5 140.5t23.5 124.5t15.5 93q14 -2 29 -3.5t37 -1.5
q23 0 39.5 1.5t30.5 3.5q-6 -17 -10.5 -33.5t-9.5 -32.5q27 37 61.5 57.5t82.5 20.5q22 0 51 -8t55 -29t44.5 -59t18.5 -98zM178 143q0 -42 21.5 -69.5t55.5 -27.5q25 0 44.5 16t35 41.5t26.5 56.5t18 62t10.5 58.5t3.5 44.5q0 40 -20 65.5t-57 25.5q-25 0 -45 -15.5
t-35.5 -40t-26 -55t-17.5 -60.5t-10.5 -57.5t-3.5 -44.5z" />
    <glyph glyph-name="q" unicode="q" 
d="M24 177q0 50 15 105t45 100.5t74 75.5t102 30q98 0 147 -85q1 6 3 16t3.5 21t3 21t2.5 15q14 -2 31.5 -3.5t40.5 -1.5q20 0 35 1.5t29 3.5q-16 -61 -33 -135t-33.5 -150.5t-31.5 -150t-27.5 -135t-20.5 -105.5t-10 -61q-15 2 -33 3.5t-38 1.5t-38 -1.5t-34 -3.5
q5 16 14.5 53t20.5 82.5t22 93.5t18 87q-54 -69 -138 -69q-31 0 -61.5 10.5t-54.5 33.5t-38.5 59.5t-14.5 87.5zM165 148q0 -37 17 -64t58 -27q40 0 66.5 31.5t43 75t23.5 89t7 74.5q0 19 -4 36.5t-13 31t-23.5 22t-36.5 8.5q-26 0 -46.5 -15.5t-36 -40.5t-26 -55.5
t-17 -61.5t-9.5 -58.5t-3 -45.5z" />
    <glyph glyph-name="r" unicode="r" horiz-adv-x="389" 
d="M373 346q-8 5 -19 10t-32 5q-31 0 -51.5 -11.5t-33 -28.5t-20 -36.5t-11.5 -35.5q-9 -32 -21 -90.5t-30 -163.5q-15 2 -34 3.5t-39 1.5q-19 0 -37 -1.5t-33 -3.5q34 124 61.5 247.5t44.5 233.5q14 -2 30.5 -3.5t36.5 -1.5t34.5 1.5t28.5 3.5q-7 -28 -13 -56l-12 -56
q6 12 18.5 32.5t31.5 40.5t44 35t56 15q14 0 24 -3t18 -8q-9 -18 -14.5 -33t-9.5 -29.5t-6 -30t-3 -33.5z" />
    <glyph glyph-name="s" unicode="s" horiz-adv-x="389" 
d="M330 354q-2 9 -6.5 23t-15.5 28t-29.5 24t-48.5 10q-39 0 -60.5 -18.5t-21.5 -44.5q0 -13 5 -23t17.5 -19.5t33.5 -21.5t52 -28q20 -11 37.5 -23.5t30.5 -28.5t20.5 -35.5t7.5 -44.5q0 -44 -18 -76t-48 -53t-67.5 -31t-76.5 -10q-36 0 -69 8t-65 26q11 25 17.5 49.5
t10.5 50.5h19q7 -42 39 -65t70 -23q36 0 59.5 19.5t23.5 45.5q0 29 -23.5 46t-65.5 40q-19 10 -38 21.5t-34 27.5t-24 37.5t-9 52.5q0 30 12 60t36 54t60 39t84 15q45 0 78.5 -10.5t56.5 -20.5q-14 -27 -20.5 -55t-8.5 -46h-21z" />
    <glyph glyph-name="t" unicode="t" horiz-adv-x="333" 
d="M265 -4q-20 -5 -40 -9.5t-44 -4.5q-25 0 -47 7.5t-39 21.5t-27 34.5t-10 46.5q0 12 1 24t4 27t7 34t10 46q11 51 22.5 101t22.5 101q-14 0 -29.5 -0.5t-38.5 -1.5q4 13 6 22.5t5 30.5q23 -2 38 -2h29q4 22 8 50.5t9 60.5q25 9 42.5 15.5t33 13t33 15t41.5 20.5l8 -9
q-8 -24 -13.5 -43.5t-10 -38.5t-9 -39t-9.5 -45h37t52 2q-6 -14 -8 -28t-3 -25q-28 2 -48.5 2h-39.5q-4 -18 -13.5 -59.5t-19 -87t-18 -84t-10.5 -50.5q-5 -25 -7 -39.5t-2 -27.5q0 -27 14.5 -38t40.5 -11q15 0 31 4z" />
    <glyph glyph-name="u" unicode="u" 
d="M33 86q0 28 6.5 55.5t12.5 54.5q15 67 24.5 112t15.5 75.5t9.5 51.5t5.5 41q16 -2 33.5 -3.5t41.5 -1.5q27 0 44.5 1.5t32.5 3.5q-14 -45 -23 -77.5t-16.5 -60t-14.5 -54.5t-16 -63q-6 -26 -10.5 -44.5t-7 -31t-3.5 -21.5t-1 -16q0 -22 15.5 -37t42.5 -15q13 0 29.5 5.5
t33 18.5t32 34.5t26.5 53.5q10 30 20.5 69.5t19.5 81.5t16.5 83t11.5 74q14 -2 28 -3.5t39 -1.5q27 0 43.5 1.5t31.5 3.5q-19 -72 -33.5 -134.5t-26.5 -120t-22 -113t-20 -113.5q-15 2 -29.5 3.5t-37.5 1.5t-40 -1.5t-31 -3.5q9 23 13.5 38.5t9.5 42.5q-9 -11 -23.5 -27
t-36 -31t-51.5 -25.5t-70 -10.5q-59 0 -92 29t-33 75z" />
    <glyph glyph-name="v" unicode="v" horiz-adv-x="482" 
d="M243 128q50 86 97.5 172t91.5 176q10 -2 20.5 -3.5t22.5 -1.5q13 0 22 1.5t19 3.5q-7 -11 -23 -36.5t-34 -54t-34 -53.5t-22 -35q-12 -20 -33 -55.5t-43 -74.5t-41.5 -73.5t-28.5 -50.5q-12 -23 -24 -48q-12 2 -24.5 3.5t-26.5 1.5q-17 0 -30 -1.5t-25 -3.5
q-8 88 -18 174t-22 173q-5 32 -8 53t-5 35.5t-4 24.5t-4 21q14 -2 30.5 -3.5t38.5 -1.5q23 0 39 1.5t30 3.5q0 -8 3 -42t8.5 -82.5t12.5 -107t15 -116.5z" />
    <glyph glyph-name="w" unicode="w" horiz-adv-x="759" 
d="M69 476q15 -2 30.5 -3.5t35.5 -1.5q21 0 37.5 1.5t31.5 3.5q1 -51 3.5 -94.5t6 -84t7.5 -79t9 -78.5q21 36 43.5 78t46 86t45.5 88t41 84q11 -2 23 -3.5t27 -1.5q17 0 29.5 1.5t23.5 3.5q0 -19 1.5 -59t4 -89.5t6 -101t7.5 -92.5q12 19 28 46.5t33.5 59.5t36 65.5
t34.5 65t29.5 59t21.5 46.5q10 -2 21 -3.5t23 -1.5t23 1.5t20 3.5q-33 -52 -64 -100t-63.5 -102.5t-69.5 -121.5t-83 -157q-10 2 -21.5 3.5t-26.5 1.5q-12 0 -25 -1.5t-33 -3.5q-4 56 -6.5 91.5t-4.5 67t-5 66.5t-8 91q-26 -44 -49 -84.5t-40 -72.5q-26 -49 -41 -78
t-23.5 -45.5t-12 -23.5t-6.5 -12q-20 5 -46 5q-18 0 -33 -1.5t-27 -3.5q-1 27 -3.5 76t-7.5 112.5t-12.5 138.5t-17.5 154z" />
    <glyph glyph-name="x" unicode="x" horiz-adv-x="463" 
d="M483 470q-7 -8 -28.5 -29.5t-49.5 -51t-59 -62.5t-57 -63q23 -63 47 -129t53 -134v-6q-14 2 -31.5 3.5t-36.5 1.5q-20 0 -38 -1.5t-34 -3.5q-3 10 -9.5 30t-15 43.5t-17.5 47t-16 40.5q-18 -19 -37.5 -41.5t-38 -44.5t-34.5 -41.5t-27 -33.5q-9 2 -18.5 3.5t-24.5 1.5
t-27.5 -1.5t-23.5 -3.5v6q53 47 109 103.5t102 105.5q-11 30 -25 64.5l-28 69t-28 67t-26 58.5v7q15 -2 33 -3.5t39 -1.5q23 0 38.5 1.5t31.5 3.5q14 -39 29.5 -79t32.5 -81q20 22 35 40t29 35.5t28.5 37.5t34.5 47q10 -2 22 -3t26 -1q15 0 23.5 1t16.5 3v-6z" />
    <glyph glyph-name="y" unicode="y" horiz-adv-x="500" 
d="M522 470q-9 -14 -17 -26t-16.5 -25.5t-19 -29.5t-23.5 -38q-95 -153 -189 -304t-181 -308q-11 2 -23 3.5t-26 1.5q-13 0 -25 -1.5t-22 -3.5q22 29 48 65t50.5 72t46 68.5t34.5 53.5q-5 27 -11.5 67t-14 84.5t-15 88.5t-13.5 80q-7 40 -14.5 79t-15.5 79q14 -2 30.5 -3.5
t36.5 -1.5q19 0 37.5 1.5t34.5 3.5q11 -86 21 -165.5t24 -161.5q10 16 33 55.5t50 88t54.5 98t45.5 85.5q8 -2 17.5 -3.5t21.5 -1.5q13 0 22.5 1.5t17.5 3.5z" />
    <glyph glyph-name="z" unicode="z" horiz-adv-x="500" 
d="M514 434q-20 -20 -48 -50t-60 -65t-65.5 -73t-65 -74t-58.5 -67.5t-45 -53.5h55.5t64 1t68 2.5t66.5 4.5q-7 -20 -9 -33.5t-3 -30.5q-62 3 -112.5 4t-104.5 1t-108 -1.5t-108 -3.5v32q23 25 55 60.5t67 75t70 80t65 76t52.5 62t32.5 39.5q-17 0 -44 -1t-58 -2.5t-64 -3.5
t-61 -4q4 23 5 36t1 31q55 -2 109.5 -3.5t109.5 -1.5q48 0 96.5 1.5t96.5 3.5v-42z" />
    <glyph glyph-name="braceleft" unicode="{" horiz-adv-x="363" 
d="M58 301q43 4 69 17.5t41.5 33.5t23 45t13.5 51q10 46 18.5 77.5t18.5 53.5t23 37.5t34 29.5q30 20 67 27.5t91 7.5l-10 -50q-39 -3 -63.5 -17t-39.5 -35t-23.5 -47t-14.5 -54q-12 -51 -22 -87.5t-26.5 -60.5t-43 -37t-71.5 -17q18 -5 34.5 -12t29 -19t20 -31.5t7.5 -48.5
q0 -22 -4 -43.5t-9 -43.5q-5 -24 -9 -46t-4 -42q0 -23 10 -36t23.5 -20t28.5 -9t26 -3l-10 -48q-32 0 -62.5 5.5t-53.5 19.5t-37 38t-14 62q0 23 3.5 46.5t8.5 46.5t8.5 45t3.5 41q0 20 -9 33.5t-23 22t-31 12.5t-33 6z" />
    <glyph glyph-name="bar" unicode="|" horiz-adv-x="222" 
d="M67 750h89v-1000h-89v1000z" />
    <glyph glyph-name="braceright" unicode="}" horiz-adv-x="363" 
d="M323 254q-43 -4 -69 -17.5t-41.5 -33.5t-23 -45t-13.5 -51q-11 -46 -19 -77.5t-18 -53.5t-23 -37.5t-34 -29.5q-30 -20 -67 -27.5t-91 -7.5l10 50q39 3 63.5 17t39.5 35t23.5 47t14.5 54q12 51 22 87.5t26.5 60.5t43 37t71.5 17q-18 5 -34.5 12t-29 19t-20 31.5
t-7.5 48.5q0 22 4 43.5t9 43.5q5 24 9 46t4 42q0 23 -10 36t-23.5 20t-29 9t-25.5 3l10 48q32 0 62 -5.5t53.5 -19.5t37.5 -38.5t14 -61.5q0 -23 -3.5 -46.5t-8.5 -46.5t-8.5 -45t-3.5 -41q0 -20 9 -33.5t23 -22t31 -13t33 -5.5z" />
    <glyph glyph-name="asciitilde" unicode="~" horiz-adv-x="593" 
d="M31 174q5 47 19.5 77t33.5 47.5t40.5 24.5t41.5 7q12 0 22 -1t25.5 -5.5t41 -12.5t68.5 -22q24 -8 41 -13.5t29.5 -8.5t22 -4.5t18.5 -1.5q26 0 44.5 17t25.5 54h58q-5 -48 -20.5 -78.5t-35 -47t-41 -22.5t-39.5 -6q-8 0 -17 0.5t-26 4.5t-44.5 12t-72.5 23
q-29 10 -46.5 16t-28.5 9t-17.5 4t-13.5 1q-20 0 -42 -16.5t-29 -57.5h-58z" />
    <glyph glyph-name="uni00A0" unicode="&#xa0;" horiz-adv-x="278" 
 />
    <glyph glyph-name="exclamdown" unicode="&#xa1;" horiz-adv-x="333" 
d="M175 -124q0 -6 -1.5 -21t-10 -30.5t-25 -27.5t-46.5 -12q-37 0 -58.5 20t-21.5 52q0 8 1 16t5 19t10.5 28t17.5 43l121 289h24zM202 322q-33 0 -56.5 23.5t-23.5 56.5t23.5 56.5t56.5 23.5t56.5 -23.5t23.5 -56.5t-23.5 -56.5t-56.5 -23.5z" />
    <glyph glyph-name="cent" unicode="&#xa2;" 
d="M495 334q0 25 -6.5 43.5t-16 31t-21 19.5t-21.5 10l-102 -383q7 -2 15 -3t18 -1q22 0 39.5 5.5t30.5 13t22.5 15.5t14.5 13l16 -10q-6 -12 -10 -19.5t-7 -15t-6 -16t-7 -21.5q-34 -17 -70 -23t-74 -5q-3 -10 -7.5 -30t-9.5 -40.5t-9 -37.5t-5 -22q-12 4 -23.5 7t-25.5 5
q4 13 9.5 30t10.5 34t9.5 32.5t7.5 26.5q-38 7 -70 26t-55.5 48t-37 67t-13.5 82q0 46 18 96t55.5 90.5t95.5 65t138 20.5q10 30 16 61t14 61q12 -4 24 -7.5t24 -5.5q-9 -29 -18 -56.5t-17 -56.5q31 -5 59 -14t65 -29q-12 -19 -23 -43t-25 -64h-22zM387 443
q-42 -2 -71 -28.5t-47 -64t-26 -80t-8 -75.5q0 -35 11.5 -67t41.5 -55z" />
    <glyph glyph-name="sterling" unicode="&#xa3;" 
d="M498 525q1 21 -2 40.5t-11.5 35.5t-24 25.5t-40.5 9.5q-27 0 -46 -11.5t-31.5 -30t-19 -41.5t-8.5 -47q-1 -9 -3 -30t-4.5 -44.5t-4.5 -44t-3 -28.5q29 0 70.5 0.5t103.5 4.5q-6 -24 -7.5 -36.5t-2.5 -26.5q-43 3 -85.5 4t-85.5 1q-9 -45 -21 -76t-28 -52.5t-35.5 -37
t-43.5 -29.5h23h23t26 0.5t33 0.5q65 2 128.5 5t128.5 8q-11 -27 -19.5 -57.5t-5.5 -72.5q-60 4 -118.5 4.5t-118.5 0.5q-42 0 -75.5 -0.5t-62.5 -1t-56 -1.5t-56 -2q14 26 20 52t6 56q38 3 61 18t35.5 41.5t17 62.5t6.5 81q-23 0 -45 -1.5t-45 -3.5q6 17 8 28.5t4 31.5
q17 -2 38.5 -2h38.5q1 40 3.5 76t10 68t21 60t36.5 52q35 36 77.5 51t91.5 15q55 0 97 -15.5t77 -59.5q-9 -8 -22.5 -24t-39.5 -57h-14z" />
    <glyph glyph-name="currency" unicode="&#xa4;" 
d="M121 201q-19 29 -29 58t-10 64q0 34 10 65t29 59l-65 65l52 51l65 -64q28 19 57 28.5t67 9.5q35 0 65 -10t58 -29l64 65l52 -52l-65 -65q20 -26 29.5 -58t9.5 -65q0 -34 -10 -64t-29 -58l65 -65l-52 -52l-65 65q-56 -39 -122 -39q-67 0 -123 39l-66 -65l-52 52zM297 459
q-28 0 -53 -10.5t-43.5 -29t-29 -43.5t-10.5 -53t10.5 -52.5t29 -43t43 -29t53.5 -10.5q28 0 52.5 10.5t43 29t29 43t10.5 52.5t-11 53t-29.5 43.5t-43 29t-51.5 10.5z" />
    <glyph glyph-name="yen" unicode="&#xa5;" 
d="M346 185h48t38 1t32.5 1.5t31.5 2.5q-8 -20 -11.5 -33.5t-3.5 -37.5q-37 4 -74 4.5t-73 0.5q-4 -21 -7.5 -38t-6 -32t-4.5 -29t-4 -30q-13 2 -33 3.5t-43 1.5t-42.5 -1.5t-36.5 -3.5q8 32 15.5 63.5t15.5 65.5q-34 0 -75 -1t-78 -3q8 17 10.5 31.5t4.5 37.5
q31 -2 51.5 -2.5t36.5 -1t30.5 -0.5h32.5l16 83q-38 0 -75.5 -1.5t-74.5 -3.5q7 15 10 28t5 43q29 -2 59.5 -3.5t60.5 -1.5q-8 24 -23 68t-31.5 93t-32 94.5t-24.5 72.5q19 -2 39 -3.5t45 -1.5q26 0 44 1.5t35 3.5q2 -9 6.5 -28t10 -40.5t10 -40t6.5 -25.5q14 -51 25 -89
t24 -80q33 44 64 88t58 84t49 73.5t36 57.5q11 -2 24.5 -3.5t29.5 -1.5t28 1.5t23 3.5q-36 -44 -63 -78t-49 -61.5t-39.5 -50.5t-33.5 -45t-32 -44.5t-35 -48.5q29 0 65.5 0.5t66.5 5.5q-7 -16 -11.5 -31.5t-3.5 -41.5q-38 2 -74.5 4t-74.5 2z" />
    <glyph glyph-name="brokenbar" unicode="&#xa6;" horiz-adv-x="222" 
d="M67 175h89v-350h-89v350zM67 675h89v-350h-89v350z" />
    <glyph glyph-name="section" unicode="&#xa7;" 
d="M465 538q-7 47 -42 71.5t-83 24.5q-17 0 -33.5 -4.5t-30 -14t-21.5 -23.5t-8 -33q0 -15 5.5 -27t19.5 -25t38 -29.5t61 -40.5q28 -18 51 -35t39 -35.5t24.5 -40.5t8.5 -50q0 -32 -10.5 -56.5t-26.5 -43.5t-33.5 -32.5t-32.5 -23.5q13 -19 21.5 -41.5t8.5 -49.5
q0 -20 -9 -49t-31 -55t-60.5 -44.5t-96.5 -18.5q-41 0 -72 7.5t-55 19t-42.5 25.5t-35.5 28q11 24 18 44.5t12 52.5h15q18 -59 54.5 -92.5t96.5 -33.5q47 0 73 24.5t26 59.5q0 21 -7 37t-25 33.5t-47.5 39t-74.5 51.5q-14 9 -29.5 21t-28 27.5t-21 36.5t-8.5 48q0 35 13 61
t30.5 44.5t35 30t27.5 16.5q-14 20 -23 38.5t-9 47.5q0 27 10.5 54t33.5 49t58 35.5t85 13.5q53 0 97.5 -13.5t82.5 -46.5q-13 -22 -20.5 -41.5t-11.5 -41.5h-17zM200 420q-20 -17 -34.5 -33t-14.5 -42q0 -14 5 -25t16 -22t28.5 -24t42.5 -30q28 -20 45 -32t29.5 -21.5
t24 -19t28.5 -24.5q7 5 15.5 12.5t16 17t12.5 20.5t5 24q0 26 -24.5 48.5t-69.5 53.5q-17 12 -32 22.5t-30 21.5t-30 23.5t-33 29.5z" />
    <glyph glyph-name="dieresis" unicode="&#xa8;" horiz-adv-x="278" 
d="M119 686q26 0 45.5 -18.5t19.5 -46.5q0 -27 -19 -46t-46 -19t-46 19t-19 46q0 28 19.5 46.5t45.5 18.5zM328 686q26 0 45.5 -19t19.5 -46t-19 -46t-46 -19t-46 19t-19 46t19 46t46 19z" />
    <glyph glyph-name="copyright" unicode="&#xa9;" horiz-adv-x="754" 
d="M33 338q0 73 28 138t76 113.5t112.5 76.5t138.5 28q73 0 138 -28t113 -76.5t76 -113.5t28 -138t-28 -137.5t-76 -112.5t-112.5 -76t-138.5 -28t-139 28t-113 76t-75.5 112.5t-27.5 137.5zM77 338q0 -64 24 -120.5t66 -98.5t99 -66.5t122 -24.5t121.5 24.5t98.5 66.5
t66.5 98.5t24.5 120.5t-24.5 121t-66.5 99.5t-98.5 67t-121.5 24.5t-122 -25t-99 -67.5t-66 -99t-24 -120.5zM512 165q-23 -11 -46.5 -18t-59.5 -7q-35 0 -73 9t-69.5 31t-51.5 59.5t-20 95.5q0 50 17 88t46.5 63.5t69.5 38.5t87 13q29 0 58 -6t58 -20q-2 -8 -6.5 -27
t-6.5 -30h-8q-12 17 -26.5 27t-28 15t-24.5 6t-17 1q-30 0 -54 -13t-40 -36t-24.5 -54t-8.5 -66q0 -44 12 -75t31 -50t42.5 -27.5t46.5 -8.5q6 0 17.5 1.5t25.5 6t29 12.5t29 22l7 -4z" />
    <glyph glyph-name="ordfeminine" unicode="&#xaa;" horiz-adv-x="330" 
d="M334 592q0 -11 -3 -25t-5 -25l-16 -72q-5 -23 -6 -31.5t-1 -13.5q0 -16 9 -16q8 0 15 6l7 -24q-8 -5 -20.5 -11.5t-33.5 -6.5q-23 0 -34.5 8.5t-21.5 25.5q-28 -37 -81 -37q-35 0 -58 21t-23 59q0 31 14 50t32.5 28.5t37.5 13t29 5.5q29 3 41 5t17 4q7 4 8 11.5t1 12.5
q0 20 -13 28.5t-33 8.5q-23 0 -37.5 -7.5t-21.5 -12.5h-12q2 10 3 20t1 21q49 27 110 27q37 0 66 -16.5t29 -56.5zM233 520q-15 -3 -29.5 -6t-25 -10t-17 -19.5t-6.5 -33.5q0 -12 5 -21.5t19 -9.5q12 0 20.5 6.5t13.5 16t8 21t5 21.5z" />
    <glyph glyph-name="guillemotleft" unicode="&#xab;" horiz-adv-x="500" 
d="M237 95q-31 -11 -44 -17t-24 -13q-13 36 -21.5 59t-17 43.5t-19 44.5t-27.5 62q17 20 37 45t39 50t36.5 48.5t30.5 41.5q11 -10 25.5 -22.5t31.5 -22.5q-11 -12 -20 -22t-21 -24.5t-30.5 -38t-49.5 -62.5q6 -17 12.5 -34.5t15.5 -38t20 -44.5t26 -55zM395 95
q-32 -11 -44.5 -17t-23.5 -13q-13 36 -21.5 59t-17 43.5t-19 44.5t-27.5 62q17 20 37 45t39 50t36.5 48.5t30.5 41.5q11 -10 25.5 -22.5t31.5 -22.5q-11 -12 -20 -22t-21 -24.5t-31 -38t-50 -62.5q6 -17 13 -34.5t15.5 -38t20 -44.5t26.5 -55z" />
    <glyph glyph-name="logicalnot" unicode="&#xac;" horiz-adv-x="593" 
d="M41 399h512v-291h-88v207h-424v84z" />
    <glyph glyph-name="uni00AD" unicode="&#xad;" horiz-adv-x="333" 
d="M313 319l-24 -101h-249l20 101h253z" />
    <glyph glyph-name="registered" unicode="&#xae;" horiz-adv-x="365" 
d="M414 516q0 -38 -14 -70.5t-38 -56.5t-57 -37.5t-70 -13.5q-38 0 -70.5 13.5t-56.5 37.5t-38 56.5t-14 70.5q0 37 14 69.5t38 56.5t56.5 38t70.5 14q37 0 70 -14t57 -38t38 -56.5t14 -69.5zM91 516q0 -32 11 -58.5t30.5 -46t46 -30.5t56.5 -11t56 11t45.5 30.5t31 46
t11.5 58.5q0 31 -11.5 58t-31 46.5t-45.5 30.5t-56 11t-56.5 -11t-46 -30.5t-30.5 -46.5t-11 -58zM214 510q0 -40 0.5 -58t2.5 -34q-7 1 -13 1.5t-12 0.5t-12.5 -0.5t-14.5 -1.5q3 57 3 102q0 24 -0.5 46.5t-1.5 51.5q10 -1 20 -1.5t21 -0.5q10 0 19.5 1t19.5 1
q35 1 50.5 -14t15.5 -35q0 -22 -13.5 -35t-36.5 -18q3 -4 11.5 -17t19 -28.5t20.5 -30t16 -22.5q-8 1 -14.5 1.5t-14.5 0.5q-7 0 -14 -0.5t-16 -1.5q-14 23 -27 46t-27 46h-2zM262 564q0 20 -9 28t-38 8q0 -11 -0.5 -18.5t-0.5 -16v-18v-23.5q23 0 35.5 8t12.5 32z" />
    <glyph glyph-name="macron" unicode="&#xaf;" horiz-adv-x="278" 
d="M393 652l-17 -69h-326l18 69h325z" />
    <glyph glyph-name="degree" unicode="&#xb0;" horiz-adv-x="400" 
d="M240 662q33 0 61.5 -12.5t50 -34t34 -50t12.5 -61.5t-12.5 -61.5t-34 -50.5t-50 -34.5t-61.5 -12.5t-62 12.5t-50.5 34t-34 50.5t-12.5 62t12.5 62t34.5 50t50.5 33.5t61.5 12.5zM240 588q-35 0 -60 -24.5t-25 -60.5q0 -17 6.5 -32.5t18 -27t27 -18t33.5 -6.5t33 6.5
t26.5 18t18 27t6.5 32.5q0 36 -24.5 60.5t-59.5 24.5z" />
    <glyph glyph-name="plusminus" unicode="&#xb1;" horiz-adv-x="593" 
d="M253 271h-212v84h212v166h88v-166h212v-84h-212v-163h-88v163zM41 70h512v-84h-512v84z" />
    <glyph glyph-name="twosuperior" unicode="&#xb2;" horiz-adv-x="354" 
d="M368 556q0 -14 -3.5 -28.5t-14.5 -31.5t-30.5 -36.5t-50.5 -41.5q-28 -20 -55.5 -39t-55.5 -38q19 -1 41 -1t44 1t43 2t38 3q-4 -12 -6.5 -22t-5 -19t-4 -19.5t-3.5 -23.5q-12 1 -31 1.5t-39 1t-40 0.5h-33q-12 0 -30 -0.5t-37 -1t-37 -1t-28 -0.5v30q42 32 83.5 65.5
t75 68t54.5 69.5t21 70q0 24 -11.5 42t-36.5 18t-41.5 -17t-18.5 -56l-13 -4q-11 15 -21 25t-28 27q6 9 15.5 19.5t25 20t39 16t57.5 6.5q37 0 63 -9t42.5 -24t24 -34t7.5 -39z" />
    <glyph glyph-name="threesuperior" unicode="&#xb3;" horiz-adv-x="354" 
d="M101 369q0 -9 2 -22t7.5 -24.5t17 -20t31.5 -8.5q22 0 36.5 12t22.5 28.5t11.5 33.5t3.5 27q0 21 -12.5 37.5t-41.5 16.5q-8 0 -13 -0.5t-13 -2.5q5 16 6.5 23t1.5 21q6 -1 12 -1.5t13 -0.5q8 0 22.5 1.5t28.5 9.5t24 25.5t10 50.5q0 7 -1.5 16.5t-5.5 17t-11.5 13
t-19.5 5.5q-21 0 -35 -16.5t-17 -47.5h-18q-12 16 -19.5 24.5t-20.5 22.5q4 6 11.5 15t20.5 17.5t32 14t47 5.5q61 0 98 -27.5t37 -75.5q0 -28 -12 -46t-28.5 -29t-34.5 -16t-30 -7q37 -14 53 -39t16 -51q0 -11 -5 -30t-20 -38t-43.5 -33t-74.5 -14q-36 0 -62.5 6.5
t-44.5 15.5t-29 19t-17 16q14 12 25.5 25.5t22.5 30.5h16z" />
    <glyph glyph-name="acute" unicode="&#xb4;" horiz-adv-x="278" 
d="M139 543l126 136q23 25 36 34.5t29 9.5q17 0 32.5 -12t15.5 -34q0 -20 -12.5 -30t-35.5 -23l-143 -81h-48z" />
    <glyph glyph-name="mu" unicode="&#xb5;" 
d="M555 476q-19 -72 -33.5 -134.5t-26.5 -120t-21 -113t-18 -113.5q-17 2 -32 3.5t-38 1.5q-20 0 -38 -1.5t-29 -3.5q6 23 10 38.5t9 42.5q-37 -46 -76 -68.5t-87 -25.5q-22 0 -33 4q-14 -61 -26.5 -122.5t-20.5 -124.5q-14 2 -30.5 3.5t-36.5 1.5q-19 0 -37.5 -1.5
t-32.5 -3.5q10 43 24 104.5t29 131.5t30 143t28 140.5t23.5 124.5t15.5 93q14 -2 31.5 -3.5t41.5 -1.5q23 0 41.5 1.5t32.5 3.5q-17 -63 -34 -126.5t-33 -128.5q-6 -26 -10.5 -44.5t-7 -31t-3.5 -21.5t-1 -16q0 -22 15.5 -37t42.5 -15q13 0 29.5 5.5t33 18.5t32 34.5
t26.5 53.5q10 30 20.5 69.5t19.5 81.5t16 83t11 74q15 -2 29 -3.5t39 -1.5q27 0 43.5 1.5t31.5 3.5z" />
    <glyph glyph-name="paragraph" unicode="&#xb6;" 
d="M551 612l-175 -823h-84l175 823h-115l-174 -823h-84l92 432q-12 1 -27.5 4t-32 9t-33 17t-31.5 29q-36 43 -36 113q0 66 28 124.5t79 99.5q27 21 58 34t59.5 19.5t52.5 8.5t37 2h279l-15 -69h-53z" />
    <glyph glyph-name="periodcentered" unicode="&#xb7;" horiz-adv-x="278" 
d="M152 378q33 0 56.5 -23.5t23.5 -56.5t-23.5 -56.5t-56.5 -23.5t-56.5 23.5t-23.5 56.5t23.5 56.5t56.5 23.5z" />
    <glyph glyph-name="cedilla" unicode="&#xb8;" horiz-adv-x="278" 
d="M137 0l-45 -63q7 1 13.5 1.5t14.5 0.5q40 0 64.5 -19.5t24.5 -51.5q0 -21 -10.5 -37t-27.5 -27.5t-40.5 -17.5t-48.5 -6q-41 0 -69 10.5t-40 15.5l21 32q18 -8 35 -12.5t34 -4.5q32 0 43.5 14t11.5 27q0 16 -11.5 26.5t-33.5 10.5q-10 0 -17 -1.5t-15 -3.5l-13 15l65 91
h44z" />
    <glyph glyph-name="onesuperior" unicode="&#xb9;" horiz-adv-x="354" 
d="M115 605q57 14 104 32t89 38l20 -7q-17 -56 -31.5 -113t-26 -110.5t-20 -100t-14.5 -82.5q-11 1 -24 2t-27 1q-13 0 -26 -1t-29 -2q26 95 45 176.5t30 144.5q-8 -4 -25.5 -11t-40.5 -15q-8 11 -12 17.5t-12 17.5v13z" />
    <glyph glyph-name="ordmasculine" unicode="&#xba;" horiz-adv-x="365" 
d="M386 538q0 -35 -14.5 -65.5t-39 -53t-58 -36t-71.5 -13.5q-28 0 -51.5 9t-41 25t-27 39t-9.5 52q0 31 12 61.5t34.5 54.5t56 39t75.5 15q67 0 100.5 -35t33.5 -92zM167 466q0 -11 1.5 -22t6.5 -20t13.5 -14.5t22.5 -5.5q24 0 40 22t25.5 51.5t14 58.5t4.5 44
q0 20 -8.5 35.5t-32.5 15.5q-25 0 -42 -20.5t-27 -48t-14 -55t-4 -41.5z" />
    <glyph glyph-name="guillemotright" unicode="&#xbb;" horiz-adv-x="500" 
d="M271 429q31 11 43.5 17.5t23.5 12.5q13 -36 22 -59t17.5 -43.5t19 -44.5t27.5 -62q-18 -20 -37.5 -45l-39 -50t-37 -48.5t-30.5 -41.5q-11 11 -25.5 23t-31.5 22q11 12 20 22t21 24.5t31 38t50 62.5q-6 17 -13 34.5t-15.5 38t-19.5 44.5t-26 55zM113 429q31 11 44 17.5
t24 12.5q13 -36 21.5 -59t17 -43.5t19 -44.5t27.5 -62q-17 -20 -37 -45t-39.5 -50t-37 -48.5t-30.5 -41.5q-11 11 -25.5 23t-31.5 22q11 12 20 22t21 24.5t31 38t50 62.5q-6 17 -13 34.5t-15.5 38t-19.5 44.5t-26 55z" />
    <glyph glyph-name="onequarter" unicode="&#xbc;" horiz-adv-x="874" 
d="M772 90q-5 -22 -9.5 -45.5t-6.5 -47.5q-11 1 -21.5 2t-30.5 1q-14 0 -24 -0.5t-23 -2.5q7 24 13.5 47t11.5 46q-11 1 -28 1h-39q-23 0 -48 -1t-53 -3q3 11 5.5 19t4 15.5t3 16t3.5 21.5q18 18 42.5 43.5t54.5 56.5t63 67t68 75q8 -1 18 -2t23 -1q11 0 20.5 0.5t23.5 2.5
q-9 -33 -16 -60.5t-13.5 -54.5t-13 -56.5t-14.5 -66.5q22 0 32 1t28 5q-11 -22 -14 -38t-3 -44q-20 2 -31.5 2.5t-25.5 0.5zM697 163q9 35 15 60t10 43t6.5 30.5l4.5 22.5h-2q-31 -36 -68 -77t-75 -79h109zM687 686l-446 -724h-54l445 724h55zM115 605q57 14 104 32t89 38
l20 -7q-17 -56 -31.5 -113t-26 -110.5t-20 -100t-14.5 -82.5q-11 1 -24 2t-27 1q-13 0 -26 -1t-29 -2q26 95 45 176.5t30 144.5q-8 -4 -25.5 -11t-40.5 -15q-8 11 -12 17.5t-12 17.5v13z" />
    <glyph glyph-name="onehalf" unicode="&#xbd;" horiz-adv-x="874" 
d="M687 686l-446 -724h-54l445 724h55zM502 27q42 32 83.5 65.5t75 68t54.5 69.5t21 70q0 24 -11.5 42t-36.5 18t-41.5 -17t-18.5 -56l-13 -4q-11 15 -21 25t-28 27q6 9 15.5 19.5t25 20t39 16t57.5 6.5q37 0 63 -9t42.5 -24t24 -34t7.5 -39q0 -14 -3.5 -28.5t-14.5 -31.5
t-30.5 -36.5t-50.5 -41.5q-28 -20 -55.5 -39t-55.5 -38q19 -1 41 -1t44 1t43 2t38 3q-4 -12 -6.5 -22t-5 -19t-4 -19.5t-3.5 -23.5q-12 1 -31 1.5t-39 1t-40 0.5h-33q-12 0 -30 -0.5t-37 -1t-37 -1t-28 -0.5v30zM115 605q57 14 104 32t89 38l20 -7q-17 -56 -31.5 -113
t-26 -110.5t-20 -100t-14.5 -82.5q-11 1 -24 2t-27 1q-13 0 -26 -1t-29 -2q26 95 45 176.5t30 144.5q-8 -4 -25.5 -11t-40.5 -15q-8 11 -12 17.5t-12 17.5v13z" />
    <glyph glyph-name="threequarters" unicode="&#xbe;" horiz-adv-x="874" 
d="M772 90q-5 -22 -9.5 -45.5t-6.5 -47.5q-11 1 -21.5 2t-30.5 1q-14 0 -24 -0.5t-23 -2.5q7 24 13.5 47t11.5 46q-11 1 -28 1h-39q-23 0 -48 -1t-53 -3q3 11 5.5 19t4 15.5t3 16t3.5 21.5q18 18 42.5 43.5t54.5 56.5t63 67t68 75q8 -1 18 -2t23 -1q11 0 20.5 0.5t23.5 2.5
q-9 -33 -16 -60.5t-13.5 -54.5t-13 -56.5t-14.5 -66.5q22 0 32 1t28 5q-11 -22 -14 -38t-3 -44q-20 2 -31.5 2.5t-25.5 0.5zM697 163q9 35 15 60t10 43t6.5 30.5l4.5 22.5h-2q-31 -36 -68 -77t-75 -79h109zM697 686l-446 -724h-54l445 724h55zM101 369q0 -9 2 -22t7.5 -24.5
t17 -20t31.5 -8.5q22 0 36.5 12t22.5 28.5t11.5 33.5t3.5 27q0 21 -12.5 37.5t-41.5 16.5q-8 0 -13 -0.5t-13 -2.5q5 16 6.5 23t1.5 21q6 -1 12 -1.5t13 -0.5q8 0 22.5 1.5t28.5 9.5t24 25.5t10 50.5q0 7 -1.5 16.5t-5.5 17t-11.5 13t-19.5 5.5q-21 0 -35 -16.5t-17 -47.5
h-18q-12 16 -19.5 24.5t-20.5 22.5q4 6 11.5 15t20.5 17.5t32 14t47 5.5q61 0 98 -27.5t37 -75.5q0 -28 -12 -46t-28.5 -29t-34.5 -16t-30 -7q37 -14 53 -39t16 -51q0 -11 -5 -30t-20 -38t-43.5 -33t-74.5 -14q-36 0 -62.5 6.5t-44.5 15.5t-29 19t-17 16q14 12 25.5 25.5
t22.5 30.5h16z" />
    <glyph glyph-name="questiondown" unicode="&#xbf;" horiz-adv-x="444" 
d="M289 -137q-6 -20 -9 -32t-6 -31q-13 -4 -23 -7t-20 -5t-20.5 -3t-23.5 -1q-55 0 -91.5 16t-58 39t-30.5 50t-9 49q0 28 9.5 50t26 41t38.5 34.5t46 30.5q31 19 51.5 31.5t31.5 22.5t15.5 20t4.5 23q0 23 -17.5 34.5t-35.5 11.5q-12 0 -21.5 -3.5t-17.5 -8.5l-8 5
q3 4 5 7.5l4 7t4 9t6 13.5q7 2 13.5 3t17.5 1q27 0 53.5 -8t48 -24.5t35 -40.5t13.5 -56q0 -27 -9.5 -48t-25.5 -38t-38 -32t-47 -31q-40 -24 -63 -43.5t-23 -52.5q0 -10 4 -22.5t13 -23t24.5 -17.5t38.5 -7q34 0 50 11t29 25h15zM274 322q-33 0 -56.5 23.5t-23.5 56.5
t23.5 56.5t56.5 23.5t56.5 -23.5t23.5 -56.5t-23.5 -56.5t-56.5 -23.5z" />
    <glyph glyph-name="Agrave" unicode="&#xc0;" horiz-adv-x="667" 
d="M458 689q1 -8 8.5 -45.5t19.5 -94t27.5 -128t33 -146t35 -147.5t34.5 -133q-15 2 -37.5 3.5t-47.5 1.5q-26 0 -46 -1.5t-34 -3.5q-3 23 -6.5 54t-9.5 71q-1 5 -3 17t-4.5 25.5t-4.5 25t-3 16.5q-29 1 -58.5 1.5t-68.5 0.5t-62 -0.5t-48 -1.5q-20 -33 -46.5 -82.5
t-64.5 -126.5q-8 2 -18 3.5t-25 1.5q-14 0 -27.5 -1.5t-22.5 -3.5q52 83 102 166t99 168q36 63 62 108t44.5 78t31.5 56t23.5 42t20 36.5t20.5 39.5q8 -2 17.5 -3.5t20.5 -1.5t21 1.5t17 3.5zM357 498l-72 -116t-69 -118q25 -1 50.5 -1.5t51.5 -0.5q23 0 46.5 0.5t43.5 1.5
q-6 33 -11.5 61.5t-11.5 55.5t-12.5 55.5t-15.5 61.5zM471 724l-133 90q-13 8 -22.5 18.5t-9.5 27.5q0 14 10.5 28.5t36.5 14.5q13 0 26.5 -7t33.5 -33l103 -139h-45z" />
    <glyph glyph-name="Aacute" unicode="&#xc1;" horiz-adv-x="667" 
d="M458 689q1 -8 8.5 -45.5t19.5 -94t27.5 -128t33 -146t35 -147.5t34.5 -133q-15 2 -37.5 3.5t-47.5 1.5q-26 0 -46 -1.5t-34 -3.5q-3 23 -6.5 54t-9.5 71q-1 5 -3 17t-4.5 25.5t-4.5 25t-3 16.5q-29 1 -58.5 1.5t-68.5 0.5t-62 -0.5t-48 -1.5q-20 -33 -46.5 -82.5
t-64.5 -126.5q-8 2 -18 3.5t-25 1.5q-14 0 -27.5 -1.5t-22.5 -3.5q52 83 102 166t99 168q36 63 62 108t44.5 78t31.5 56t23.5 42t20 36.5t20.5 39.5q8 -2 17.5 -3.5t20.5 -1.5t21 1.5t17 3.5zM357 498l-72 -116t-69 -118q25 -1 50.5 -1.5t51.5 -0.5q23 0 46.5 0.5t43.5 1.5
q-6 33 -11.5 61.5t-11.5 55.5t-12.5 55.5t-15.5 61.5zM334 723l126 136q23 25 36 34.5t29 9.5q17 0 32.5 -12t15.5 -34q0 -20 -12.5 -30t-35.5 -23l-143 -81h-48z" />
    <glyph glyph-name="Acircumflex" unicode="&#xc2;" horiz-adv-x="667" 
d="M458 689q1 -8 8.5 -45.5t19.5 -94t27.5 -128t33 -146t35 -147.5t34.5 -133q-15 2 -37.5 3.5t-47.5 1.5q-26 0 -46 -1.5t-34 -3.5q-3 23 -6.5 54t-9.5 71q-1 5 -3 17t-4.5 25.5t-4.5 25t-3 16.5q-29 1 -58.5 1.5t-68.5 0.5t-62 -0.5t-48 -1.5q-20 -33 -46.5 -82.5
t-64.5 -126.5q-8 2 -18 3.5t-25 1.5q-14 0 -27.5 -1.5t-22.5 -3.5q52 83 102 166t99 168q36 63 62 108t44.5 78t31.5 56t23.5 42t20 36.5t20.5 39.5q8 -2 17.5 -3.5t20.5 -1.5t21 1.5t17 3.5zM357 498l-72 -116t-69 -118q25 -1 50.5 -1.5t51.5 -0.5q23 0 46.5 0.5t43.5 1.5
q-6 33 -11.5 61.5t-11.5 55.5t-12.5 55.5t-15.5 61.5zM491 895l85 -172h-49l-90 96l-130 -96h-57l158 172h83z" />
    <glyph glyph-name="Atilde" unicode="&#xc3;" horiz-adv-x="667" 
d="M458 689q1 -8 8.5 -45.5t19.5 -94t27.5 -128t33 -146t35 -147.5t34.5 -133q-15 2 -37.5 3.5t-47.5 1.5q-26 0 -46 -1.5t-34 -3.5q-3 23 -6.5 54t-9.5 71q-1 5 -3 17t-4.5 25.5t-4.5 25t-3 16.5q-29 1 -58.5 1.5t-68.5 0.5t-62 -0.5t-48 -1.5q-20 -33 -46.5 -82.5
t-64.5 -126.5q-8 2 -18 3.5t-25 1.5q-14 0 -27.5 -1.5t-22.5 -3.5q52 83 102 166t99 168q36 63 62 108t44.5 78t31.5 56t23.5 42t20 36.5t20.5 39.5q8 -2 17.5 -3.5t20.5 -1.5t21 1.5t17 3.5zM357 498l-72 -116t-69 -118q25 -1 50.5 -1.5t51.5 -0.5q23 0 46.5 0.5t43.5 1.5
q-6 33 -11.5 61.5t-11.5 55.5t-12.5 55.5t-15.5 61.5zM253 751q8 32 20 55t28 37q15 14 32 20.5t34 6.5q19 0 38 -5t42 -14q21 -8 33 -12l19.5 -6.5t12.5 -3t11 -0.5q21 0 32.5 15.5t16.5 26.5h39q-4 -21 -12.5 -42.5t-23 -38.5t-34 -28t-44.5 -11q-10 0 -17.5 1t-18 4
t-26.5 9t-41 16q-21 8 -32 10.5t-19 2.5q-13 0 -21.5 -5t-14.5 -12t-9 -14.5t-5 -11.5h-40z" />
    <glyph glyph-name="Adieresis" unicode="&#xc4;" horiz-adv-x="667" 
d="M458 689q1 -8 8.5 -45.5t19.5 -94t27.5 -128t33 -146t35 -147.5t34.5 -133q-15 2 -37.5 3.5t-47.5 1.5q-26 0 -46 -1.5t-34 -3.5q-3 23 -6.5 54t-9.5 71q-1 5 -3 17t-4.5 25.5t-4.5 25t-3 16.5q-29 1 -58.5 1.5t-68.5 0.5t-62 -0.5t-48 -1.5q-20 -33 -46.5 -82.5
t-64.5 -126.5q-8 2 -18 3.5t-25 1.5q-14 0 -27.5 -1.5t-22.5 -3.5q52 83 102 166t99 168q36 63 62 108t44.5 78t31.5 56t23.5 42t20 36.5t20.5 39.5q8 -2 17.5 -3.5t20.5 -1.5t21 1.5t17 3.5zM357 498l-72 -116t-69 -118q25 -1 50.5 -1.5t51.5 -0.5q23 0 46.5 0.5t43.5 1.5
q-6 33 -11.5 61.5t-11.5 55.5t-12.5 55.5t-15.5 61.5zM329 866q26 0 45.5 -18.5t19.5 -46.5q0 -27 -19 -46t-46 -19t-46 19t-19 46q0 28 19.5 46.5t45.5 18.5zM538 866q26 0 45.5 -19t19.5 -46t-19 -46t-46 -19t-46 19t-19 46t19 46t46 19z" />
    <glyph glyph-name="Aring" unicode="&#xc5;" horiz-adv-x="667" 
d="M458 689q1 -8 8.5 -45.5t19.5 -94t27.5 -128t33 -146t35 -147.5t34.5 -133q-15 2 -37.5 3.5t-47.5 1.5q-26 0 -46 -1.5t-34 -3.5q-3 23 -6.5 54t-9.5 71q-1 5 -3 17t-4.5 25.5t-4.5 25t-3 16.5q-29 1 -58.5 1.5t-68.5 0.5t-62 -0.5t-48 -1.5q-20 -33 -46.5 -82.5
t-64.5 -126.5q-8 2 -18 3.5t-25 1.5q-14 0 -27.5 -1.5t-22.5 -3.5q52 83 102 166t99 168q36 63 62 108t44.5 78t31.5 56t23.5 42t20 36.5t20.5 39.5q8 -2 17.5 -3.5t20.5 -1.5t21 1.5t17 3.5zM357 498l-72 -116t-69 -118q25 -1 50.5 -1.5t51.5 -0.5q23 0 46.5 0.5t43.5 1.5
q-6 33 -11.5 61.5t-11.5 55.5t-12.5 55.5t-15.5 61.5zM311 819q0 23 9 43.5t24 35.5t35.5 24t43.5 9q24 0 44.5 -9t35.5 -24t24 -35.5t9 -43.5t-9 -43.5t-24 -35.5t-35.5 -24t-44.5 -9q-23 0 -43.5 9t-35.5 24t-24 35.5t-9 43.5zM359 819q0 -27 19 -45.5t45 -18.5
q27 0 46 18.5t19 45.5t-19 45.5t-45 18.5q-27 0 -46 -18.5t-19 -45.5z" />
    <glyph glyph-name="AE" unicode="&#xc6;" horiz-adv-x="889" 
d="M-35 1q27 31 59 69t65 77.5t66 80t63 78.5q7 8 25.5 32t43.5 56.5t54.5 71.5t58.5 78t55 74.5t45 62.5q48 -3 101 -4t101 -1q57 0 116.5 1.5t116.5 3.5q-13 -26 -16 -41t-1 -36q-20 2 -38 4t-41.5 3t-56.5 1.5t-82 0.5q-17 -60 -30.5 -120t-21.5 -100h75.5t56 1t45.5 1.5
t43 2.5q-14 -30 -15.5 -46t-0.5 -32q-26 3 -54.5 5t-57.5 2.5t-56.5 1t-50.5 0.5q-14 -66 -26.5 -132.5t-20.5 -133.5h75t53.5 1t45 2t49.5 4q-13 -30 -15.5 -45t-0.5 -30q-60 2 -112 3.5t-96 1.5q-53 0 -98 -1.5t-77 -3.5q9 27 18.5 64t18.5 73t15.5 64.5t8.5 38.5
q-14 0 -25.5 0.5t-24 0.5h-28h-37.5h-44h-31t-22 -0.5t-18 -0.5q-48 -57 -91.5 -117.5t-86.5 -122.5q-25 5 -53 5q-22 0 -45 -5v6zM539 616q-17 -20 -44 -53t-60.5 -75t-71.5 -91.5t-77 -101.5q20 -1 41.5 -1h41.5h49.5t65.5 1q12 54 22.5 106.5t21.5 106.5q5 27 9.5 54
t9.5 54h-8z" />
    <glyph glyph-name="Ccedilla" unicode="&#xc7;" horiz-adv-x="667" 
d="M661 541q-30 51 -73 72.5t-102 21.5q-75 0 -127 -36t-84.5 -91.5t-47.5 -122.5t-15 -130q0 -97 50 -155t149 -58q48 0 93 14t82 45l9 -7q-11 -22 -19.5 -40.5t-17.5 -41.5q-32 -12 -65.5 -19.5t-85.5 -7.5h-15t-14 1l-35 -49q7 1 13.5 1.5t14.5 0.5q40 0 64.5 -19.5
t24.5 -51.5q0 -21 -10.5 -37t-27.5 -27.5t-40.5 -17.5t-48.5 -6q-41 0 -69 10.5t-40 15.5l21 32q18 -8 35 -12.5t34 -4.5q32 0 43.5 14t11.5 27q0 16 -11.5 26.5t-33.5 10.5q-10 0 -17 -1.5t-15 -3.5l-13 15l58 81q-81 10 -134.5 42t-86 75.5t-45.5 94t-13 98.5
q0 82 30 153.5t85 124.5t130.5 84t167.5 31q49 0 88 -6.5t69 -16t52 -20.5t37 -19q-16 -23 -27.5 -48t-18.5 -42h-10z" />
    <glyph glyph-name="Egrave" unicode="&#xc8;" horiz-adv-x="519" 
d="M179 681q45 -4 103 -4.5t111 -0.5q52 0 97.5 1.5t79.5 3.5q-13 -26 -16 -41t-1 -36q-20 2 -38 4t-43 3t-59.5 1.5t-87.5 0.5q-17 -60 -30.5 -120t-21.5 -100h81.5t59 1t46.5 1.5t43 2.5q-14 -30 -15.5 -46t-0.5 -32q-26 3 -54.5 5t-58.5 2.5t-59 1t-56 0.5
q-14 -66 -26.5 -132.5t-20.5 -133.5h80.5t56 1t46 2t49.5 4q-13 -30 -15.5 -45t-0.5 -30q-60 2 -112 3.5t-96 1.5q-53 0 -99 -1.5t-86 -3.5q10 31 23.5 85.5t28 119.5t29.5 136.5t27.5 137t22 120t13.5 87.5zM407 724l-133 90q-13 8 -22.5 18.5t-9.5 27.5q0 14 10.5 28.5
t36.5 14.5q13 0 26.5 -7t33.5 -33l103 -139h-45z" />
    <glyph glyph-name="Eacute" unicode="&#xc9;" horiz-adv-x="519" 
d="M179 681q45 -4 103 -4.5t111 -0.5q52 0 97.5 1.5t79.5 3.5q-13 -26 -16 -41t-1 -36q-20 2 -38 4t-43 3t-59.5 1.5t-87.5 0.5q-17 -60 -30.5 -120t-21.5 -100h81.5t59 1t46.5 1.5t43 2.5q-14 -30 -15.5 -46t-0.5 -32q-26 3 -54.5 5t-58.5 2.5t-59 1t-56 0.5
q-14 -66 -26.5 -132.5t-20.5 -133.5h80.5t56 1t46 2t49.5 4q-13 -30 -15.5 -45t-0.5 -30q-60 2 -112 3.5t-96 1.5q-53 0 -99 -1.5t-86 -3.5q10 31 23.5 85.5t28 119.5t29.5 136.5t27.5 137t22 120t13.5 87.5zM310 723l126 136q23 25 36 34.5t29 9.5q17 0 32.5 -12t15.5 -34
q0 -20 -12.5 -30t-35.5 -23l-143 -81h-48z" />
    <glyph glyph-name="Ecircumflex" unicode="&#xca;" horiz-adv-x="519" 
d="M179 681q45 -4 103 -4.5t111 -0.5q52 0 97.5 1.5t79.5 3.5q-13 -26 -16 -41t-1 -36q-20 2 -38 4t-43 3t-59.5 1.5t-87.5 0.5q-17 -60 -30.5 -120t-21.5 -100h81.5t59 1t46.5 1.5t43 2.5q-14 -30 -15.5 -46t-0.5 -32q-26 3 -54.5 5t-58.5 2.5t-59 1t-56 0.5
q-14 -66 -26.5 -132.5t-20.5 -133.5h80.5t56 1t46 2t49.5 4q-13 -30 -15.5 -45t-0.5 -30q-60 2 -112 3.5t-96 1.5q-53 0 -99 -1.5t-86 -3.5q10 31 23.5 85.5t28 119.5t29.5 136.5t27.5 137t22 120t13.5 87.5zM452 895l85 -172h-49l-90 96l-130 -96h-57l158 172h83z" />
    <glyph glyph-name="Edieresis" unicode="&#xcb;" horiz-adv-x="519" 
d="M179 681q45 -4 103 -4.5t111 -0.5q52 0 97.5 1.5t79.5 3.5q-13 -26 -16 -41t-1 -36q-20 2 -38 4t-43 3t-59.5 1.5t-87.5 0.5q-17 -60 -30.5 -120t-21.5 -100h81.5t59 1t46.5 1.5t43 2.5q-14 -30 -15.5 -46t-0.5 -32q-26 3 -54.5 5t-58.5 2.5t-59 1t-56 0.5
q-14 -66 -26.5 -132.5t-20.5 -133.5h80.5t56 1t46 2t49.5 4q-13 -30 -15.5 -45t-0.5 -30q-60 2 -112 3.5t-96 1.5q-53 0 -99 -1.5t-86 -3.5q10 31 23.5 85.5t28 119.5t29.5 136.5t27.5 137t22 120t13.5 87.5zM285 866q26 0 45.5 -18.5t19.5 -46.5q0 -27 -19 -46t-46 -19
t-46 19t-19 46q0 28 19.5 46.5t45.5 18.5zM494 866q26 0 45.5 -19t19.5 -46t-19 -46t-46 -19t-46 19t-19 46t19 46t46 19z" />
    <glyph glyph-name="Igrave" unicode="&#xcc;" horiz-adv-x="333" 
d="M184 681q19 -2 41 -3.5t44 -1.5q25 0 44 1.5t36 3.5q-27 -89 -51.5 -185.5t-45 -188.5t-36 -173t-22.5 -139q-26 2 -46 3.5t-40 1.5q-19 0 -41 -1.5t-38 -3.5q12 40 23 80t23.5 90.5t28 117.5t35.5 160q12 55 19.5 93.5t12.5 66t8 46t5 32.5zM309 724l-133 90
q-13 8 -22.5 18.5t-9.5 27.5q0 14 10.5 28.5t36.5 14.5q13 0 26.5 -7t33.5 -33l103 -139h-45z" />
    <glyph glyph-name="Iacute" unicode="&#xcd;" horiz-adv-x="333" 
d="M184 681q19 -2 41 -3.5t44 -1.5q25 0 44 1.5t36 3.5q-27 -89 -51.5 -185.5t-45 -188.5t-36 -173t-22.5 -139q-26 2 -46 3.5t-40 1.5q-19 0 -41 -1.5t-38 -3.5q12 40 23 80t23.5 90.5t28 117.5t35.5 160q12 55 19.5 93.5t12.5 66t8 46t5 32.5zM202 723l126 136
q23 25 36 34.5t29 9.5q17 0 32.5 -12t15.5 -34q0 -20 -12.5 -30t-35.5 -23l-143 -81h-48z" />
    <glyph glyph-name="Icircumflex" unicode="&#xce;" horiz-adv-x="333" 
d="M184 681q19 -2 41 -3.5t44 -1.5q25 0 44 1.5t36 3.5q-27 -89 -51.5 -185.5t-45 -188.5t-36 -173t-22.5 -139q-26 2 -46 3.5t-40 1.5q-19 0 -41 -1.5t-38 -3.5q12 40 23 80t23.5 90.5t28 117.5t35.5 160q12 55 19.5 93.5t12.5 66t8 46t5 32.5zM344 895l85 -172h-49l-90 96
l-130 -96h-57l158 172h83z" />
    <glyph glyph-name="Idieresis" unicode="&#xcf;" horiz-adv-x="333" 
d="M184 681q19 -2 41 -3.5t44 -1.5q25 0 44 1.5t36 3.5q-27 -89 -51.5 -185.5t-45 -188.5t-36 -173t-22.5 -139q-26 2 -46 3.5t-40 1.5q-19 0 -41 -1.5t-38 -3.5q12 40 23 80t23.5 90.5t28 117.5t35.5 160q12 55 19.5 93.5t12.5 66t8 46t5 32.5zM182 866q26 0 45.5 -18.5
t19.5 -46.5q0 -27 -19 -46t-46 -19t-46 19t-19 46q0 28 19.5 46.5t45.5 18.5zM391 866q26 0 45.5 -19t19.5 -46t-19 -46t-46 -19t-46 19t-19 46t19 46t46 19z" />
    <glyph glyph-name="Eth" unicode="&#xd0;" horiz-adv-x="778" 
d="M765 384q0 -41 -11 -87.5t-35 -92.5t-61.5 -87t-91.5 -70q-32 -18 -66.5 -28t-68.5 -15.5t-67.5 -7t-63.5 -1.5q-11 0 -36 1t-53.5 1.5t-53.5 1.5t-34 1q-32 0 -52 -1.5t-34 -3.5q25 82 44 165t37 164q-21 0 -42 -1.5t-42 -3.5q3 10 5 17.5t3.5 15t2.5 16.5t1 22
q19 -2 41 -3.5t44 -1.5q15 72 30 147t25 149q26 -2 51 -3.5t51 -1.5q10 0 34.5 1t51.5 1.5t51.5 1.5t33.5 1q72 0 129 -23t96.5 -63t60 -94.5t20.5 -116.5zM608 410q0 102 -52.5 157t-167.5 55q-15 0 -29.5 -0.5t-29.5 -1.5q-16 -60 -29 -117.5t-27 -117.5q50 0 88.5 1
t77.5 4q-7 -26 -9 -40t-3 -31q-30 2 -68 3.5t-99 1.5q-14 -66 -28 -133.5t-24 -136.5q14 -1 32 -2t35 -1q21 0 50 2.5t60.5 11t62.5 23.5t57 40q25 24 44.5 56.5t32.5 69.5t19.5 77t6.5 79z" />
    <glyph glyph-name="Ntilde" unicode="&#xd1;" horiz-adv-x="778" 
d="M276 692q20 -37 48 -83t59 -95.5t63.5 -99t62 -93t53.5 -78.5t39 -55q8 27 17.5 67.5t19.5 87t20 96.5t19 95.5t16 84t11 62.5q17 -5 39 -5q21 0 41 5q-6 -23 -11.5 -42.5t-13.5 -53t-21 -90t-35 -152.5q-12 -54 -30.5 -147.5t-38.5 -211.5q-9 2 -19.5 3.5t-22.5 1.5
t-21.5 -1.5t-18.5 -3.5q-75 131 -159.5 257.5t-170.5 252.5q-15 -62 -31 -135.5t-29.5 -143.5t-24 -128.5t-14.5 -91.5q-10 2 -21 3.5t-22 1.5t-21.5 -1.5t-19.5 -3.5q6 20 17 63t24.5 101t28.5 126.5t29.5 139t27.5 139.5t22 128q9 -2 21 -3.5t23 -1.5q13 0 24 1.5t20 3.5z
M338 751q8 32 20 55t28 37q15 14 32 20.5t34 6.5q19 0 38 -5t42 -14q21 -8 33 -12l19.5 -6.5t12.5 -3t11 -0.5q21 0 32.5 15.5t16.5 26.5h39q-4 -21 -12.5 -42.5t-23 -38.5t-34 -28t-44.5 -11q-10 0 -17.5 1t-18 4t-26.5 9t-41 16q-21 8 -32 10.5t-19 2.5q-13 0 -21.5 -5
t-14.5 -12t-9 -14.5t-5 -11.5h-40z" />
    <glyph glyph-name="Ograve" unicode="&#xd2;" horiz-adv-x="833" 
d="M58 289q0 83 30.5 157t86 129t132.5 87t170 32q70 0 132.5 -19t110 -57t75 -95t27.5 -133q0 -78 -29.5 -151.5t-84.5 -130t-134 -90.5t-178 -34q-70 0 -131.5 20t-107.5 58.5t-72.5 95.5t-26.5 131zM207 240q0 -44 11.5 -81t34.5 -63.5t57.5 -41t79.5 -14.5q46 0 85 19
t70.5 50.5t55.5 72.5t40 85.5t24 89t8 83.5q0 43 -12.5 79.5t-36.5 63t-58.5 41t-78.5 14.5q-49 0 -89 -18t-71 -49t-53.5 -71t-37.5 -84.5t-22 -89.5t-7 -86zM559 724l-133 90q-13 8 -22.5 18.5t-9.5 27.5q0 14 10.5 28.5t36.5 14.5q13 0 26.5 -7t33.5 -33l103 -139h-45z
" />
    <glyph glyph-name="Oacute" unicode="&#xd3;" horiz-adv-x="833" 
d="M58 289q0 83 30.5 157t86 129t132.5 87t170 32q70 0 132.5 -19t110 -57t75 -95t27.5 -133q0 -78 -29.5 -151.5t-84.5 -130t-134 -90.5t-178 -34q-70 0 -131.5 20t-107.5 58.5t-72.5 95.5t-26.5 131zM207 240q0 -44 11.5 -81t34.5 -63.5t57.5 -41t79.5 -14.5q46 0 85 19
t70.5 50.5t55.5 72.5t40 85.5t24 89t8 83.5q0 43 -12.5 79.5t-36.5 63t-58.5 41t-78.5 14.5q-49 0 -89 -18t-71 -49t-53.5 -71t-37.5 -84.5t-22 -89.5t-7 -86zM447 723l126 136q23 25 36 34.5t29 9.5q17 0 32.5 -12t15.5 -34q0 -20 -12.5 -30t-35.5 -23l-143 -81h-48z" />
    <glyph glyph-name="Ocircumflex" unicode="&#xd4;" horiz-adv-x="833" 
d="M58 289q0 83 30.5 157t86 129t132.5 87t170 32q70 0 132.5 -19t110 -57t75 -95t27.5 -133q0 -78 -29.5 -151.5t-84.5 -130t-134 -90.5t-178 -34q-70 0 -131.5 20t-107.5 58.5t-72.5 95.5t-26.5 131zM207 240q0 -44 11.5 -81t34.5 -63.5t57.5 -41t79.5 -14.5q46 0 85 19
t70.5 50.5t55.5 72.5t40 85.5t24 89t8 83.5q0 43 -12.5 79.5t-36.5 63t-58.5 41t-78.5 14.5q-49 0 -89 -18t-71 -49t-53.5 -71t-37.5 -84.5t-22 -89.5t-7 -86zM584 895l85 -172h-49l-90 96l-130 -96h-57l158 172h83z" />
    <glyph glyph-name="Otilde" unicode="&#xd5;" horiz-adv-x="833" 
d="M58 289q0 83 30.5 157t86 129t132.5 87t170 32q70 0 132.5 -19t110 -57t75 -95t27.5 -133q0 -78 -29.5 -151.5t-84.5 -130t-134 -90.5t-178 -34q-70 0 -131.5 20t-107.5 58.5t-72.5 95.5t-26.5 131zM207 240q0 -44 11.5 -81t34.5 -63.5t57.5 -41t79.5 -14.5q46 0 85 19
t70.5 50.5t55.5 72.5t40 85.5t24 89t8 83.5q0 43 -12.5 79.5t-36.5 63t-58.5 41t-78.5 14.5q-49 0 -89 -18t-71 -49t-53.5 -71t-37.5 -84.5t-22 -89.5t-7 -86zM351 751q8 32 20 55t28 37q15 14 32 20.5t34 6.5q19 0 38 -5t42 -14q21 -8 33 -12l19.5 -6.5t12.5 -3t11 -0.5
q21 0 32.5 15.5t16.5 26.5h39q-4 -21 -12.5 -42.5t-23 -38.5t-34 -28t-44.5 -11q-10 0 -17.5 1t-18 4t-26.5 9t-41 16q-21 8 -32 10.5t-19 2.5q-13 0 -21.5 -5t-14.5 -12t-9 -14.5t-5 -11.5h-40z" />
    <glyph glyph-name="Odieresis" unicode="&#xd6;" horiz-adv-x="833" 
d="M58 289q0 83 30.5 157t86 129t132.5 87t170 32q70 0 132.5 -19t110 -57t75 -95t27.5 -133q0 -78 -29.5 -151.5t-84.5 -130t-134 -90.5t-178 -34q-70 0 -131.5 20t-107.5 58.5t-72.5 95.5t-26.5 131zM207 240q0 -44 11.5 -81t34.5 -63.5t57.5 -41t79.5 -14.5q46 0 85 19
t70.5 50.5t55.5 72.5t40 85.5t24 89t8 83.5q0 43 -12.5 79.5t-36.5 63t-58.5 41t-78.5 14.5q-49 0 -89 -18t-71 -49t-53.5 -71t-37.5 -84.5t-22 -89.5t-7 -86zM412 866q26 0 45.5 -18.5t19.5 -46.5q0 -27 -19 -46t-46 -19t-46 19t-19 46q0 28 19.5 46.5t45.5 18.5zM621 866
q26 0 45.5 -19t19.5 -46t-19 -46t-46 -19t-46 19t-19 46t19 46t46 19z" />
    <glyph glyph-name="multiply" unicode="&#xd7;" horiz-adv-x="593" 
d="M235 253l-183 184l61 62l184 -184l183 184l62 -62l-183 -183l183 -184l-62 -62l-183 184l-183 -184l-62 62z" />
    <glyph glyph-name="Oslash" unicode="&#xd8;" horiz-adv-x="833" 
d="M822 389q0 -77 -29.5 -150t-84.5 -129.5t-134 -91t-178 -34.5q-63 0 -118 15.5t-106 51.5q-23 -20 -43.5 -41t-40.5 -41q-7 11 -15.5 19t-18.5 16q45 39 83 77q-42 45 -60.5 96t-18.5 112q0 83 30.5 157t86 129t132.5 87t170 32q61 0 119.5 -15.5t109.5 -50.5
q23 21 44.5 42t41.5 42q14 -19 36 -35q-23 -20 -44 -40t-41 -40q43 -45 61 -96.5t18 -111.5zM239 115q29 -42 65 -58.5t86 -16.5q46 0 85 19t70.5 50.5t55 73t40 86t24.5 89t8 83.5q0 27 -4 46t-9 34zM638 564q-28 39 -65.5 56.5t-85.5 17.5q-51 0 -91.5 -19t-71.5 -51
t-53 -73t-36.5 -85t-21 -88.5t-6.5 -81.5q0 -20 2.5 -39t9.5 -42z" />
    <glyph glyph-name="Ugrave" unicode="&#xd9;" horiz-adv-x="778" 
d="M182 681q17 -2 39 -3.5t43 -1.5q23 0 45 1.5t39 3.5q-10 -37 -20 -73t-21 -73q-7 -26 -16.5 -65t-19 -80t-17.5 -77.5t-12 -57.5q-6 -31 -8.5 -51.5t-2.5 -40.5q0 -33 11.5 -55t31.5 -35.5t46.5 -19.5t56.5 -6q66 0 107.5 21t67 54t39.5 73.5t25 79.5q6 20 13.5 51
t15.5 68t17 77.5t17 79t14 72.5t10 58q12 -2 23.5 -3.5t22.5 -1.5q22 0 45 5q-9 -30 -19.5 -69.5t-21 -82.5t-20.5 -87t-18 -82q-18 -82 -39.5 -151t-60.5 -119t-101 -78t-160 -28q-45 0 -92.5 9t-86 31t-63.5 58.5t-25 91.5q0 38 9 82.5t24 106.5q20 79 36 158t26 160z
M536 724l-133 90q-13 8 -22.5 18.5t-9.5 27.5q0 14 10.5 28.5t36.5 14.5q13 0 26.5 -7t33.5 -33l103 -139h-45z" />
    <glyph glyph-name="Uacute" unicode="&#xda;" horiz-adv-x="778" 
d="M182 681q17 -2 39 -3.5t43 -1.5q23 0 45 1.5t39 3.5q-10 -37 -20 -73t-21 -73q-7 -26 -16.5 -65t-19 -80t-17.5 -77.5t-12 -57.5q-6 -31 -8.5 -51.5t-2.5 -40.5q0 -33 11.5 -55t31.5 -35.5t46.5 -19.5t56.5 -6q66 0 107.5 21t67 54t39.5 73.5t25 79.5q6 20 13.5 51
t15.5 68t17 77.5t17 79t14 72.5t10 58q12 -2 23.5 -3.5t22.5 -1.5q22 0 45 5q-9 -30 -19.5 -69.5t-21 -82.5t-20.5 -87t-18 -82q-18 -82 -39.5 -151t-60.5 -119t-101 -78t-160 -28q-45 0 -92.5 9t-86 31t-63.5 58.5t-25 91.5q0 38 9 82.5t24 106.5q20 79 36 158t26 160z
M449 723l126 136q23 25 36 34.5t29 9.5q17 0 32.5 -12t15.5 -34q0 -20 -12.5 -30t-35.5 -23l-143 -81h-48z" />
    <glyph glyph-name="Ucircumflex" unicode="&#xdb;" horiz-adv-x="778" 
d="M182 681q17 -2 39 -3.5t43 -1.5q23 0 45 1.5t39 3.5q-10 -37 -20 -73t-21 -73q-7 -26 -16.5 -65t-19 -80t-17.5 -77.5t-12 -57.5q-6 -31 -8.5 -51.5t-2.5 -40.5q0 -33 11.5 -55t31.5 -35.5t46.5 -19.5t56.5 -6q66 0 107.5 21t67 54t39.5 73.5t25 79.5q6 20 13.5 51
t15.5 68t17 77.5t17 79t14 72.5t10 58q12 -2 23.5 -3.5t22.5 -1.5q22 0 45 5q-9 -30 -19.5 -69.5t-21 -82.5t-20.5 -87t-18 -82q-18 -82 -39.5 -151t-60.5 -119t-101 -78t-160 -28q-45 0 -92.5 9t-86 31t-63.5 58.5t-25 91.5q0 38 9 82.5t24 106.5q20 79 36 158t26 160z
M566 895l85 -172h-49l-90 96l-130 -96h-57l158 172h83z" />
    <glyph glyph-name="Udieresis" unicode="&#xdc;" horiz-adv-x="778" 
d="M182 681q17 -2 39 -3.5t43 -1.5q23 0 45 1.5t39 3.5q-10 -37 -20 -73t-21 -73q-7 -26 -16.5 -65t-19 -80t-17.5 -77.5t-12 -57.5q-6 -31 -8.5 -51.5t-2.5 -40.5q0 -33 11.5 -55t31.5 -35.5t46.5 -19.5t56.5 -6q66 0 107.5 21t67 54t39.5 73.5t25 79.5q6 20 13.5 51
t15.5 68t17 77.5t17 79t14 72.5t10 58q12 -2 23.5 -3.5t22.5 -1.5q22 0 45 5q-9 -30 -19.5 -69.5t-21 -82.5t-20.5 -87t-18 -82q-18 -82 -39.5 -151t-60.5 -119t-101 -78t-160 -28q-45 0 -92.5 9t-86 31t-63.5 58.5t-25 91.5q0 38 9 82.5t24 106.5q20 79 36 158t26 160z
M404 866q26 0 45.5 -18.5t19.5 -46.5q0 -27 -19 -46t-46 -19t-46 19t-19 46q0 28 19.5 46.5t45.5 18.5zM613 866q26 0 45.5 -19t19.5 -46t-19 -46t-46 -19t-46 19t-19 46t19 46t46 19z" />
    <glyph glyph-name="Yacute" unicode="&#xdd;" horiz-adv-x="611" 
d="M365 356q36 49 72 101t66.5 97.5t52 79.5t29.5 47q11 -2 22.5 -3.5t28.5 -1.5t30 1.5t27 3.5q-41 -48 -85 -104.5t-84.5 -110.5t-73.5 -100.5t-52 -75.5q-17 -74 -31 -147t-25 -148q-14 2 -33.5 3.5t-46.5 1.5q-26 0 -43 -1.5t-34 -3.5q8 29 17 66.5t17.5 76.5t16 76
t12.5 67q-8 25 -19 59t-23.5 72t-26.5 77.5t-26.5 76t-23.5 66.5t-18 49q18 -2 35.5 -3.5t43.5 -1.5q29 0 49.5 1.5t37.5 3.5q7 -31 14 -61.5t17 -67.5t23.5 -84t33.5 -112zM341 723l126 136q23 25 36 34.5t29 9.5q17 0 32.5 -12t15.5 -34q0 -20 -12.5 -30t-35.5 -23
l-143 -81h-48z" />
    <glyph glyph-name="Thorn" unicode="&#xde;" horiz-adv-x="550" 
d="M562 393q0 -57 -20.5 -98.5t-55 -68t-81.5 -39.5t-99 -13q-21 0 -42.5 1.5t-40.5 3.5q-12 -53 -21.5 -101t-14.5 -83q-20 2 -39.5 3.5t-39.5 1.5q-25 0 -43.5 -1.5t-35.5 -3.5q34 128 64.5 258t56.5 262q8 42 16 83t14 83q18 -2 36 -3.5t37 -1.5q18 0 37 1t42 4
q-8 -31 -14.5 -60t-12.5 -60q14 1 31.5 2t34.5 0q87 0 139 -39.5t52 -130.5zM413 406q0 34 -9 54t-25 30t-38 13t-48 2q-17 -69 -31 -138.5t-28 -138.5q8 -1 15.5 -1.5t18.5 -0.5q38 0 65.5 15t45 40t26 57.5t8.5 67.5z" />
    <glyph glyph-name="germandbls" unicode="&#xdf;" 
d="M265 97q14 -28 37 -44t55 -16q21 0 36.5 7t25.5 17.5t14.5 23.5t4.5 25t-3.5 21.5t-11 19.5t-20.5 22.5t-32 30.5q-32 30 -51 55.5t-19 61.5q0 20 5.5 37t17.5 35.5t31 40.5t46 52q9 10 20 23.5t21 31t16.5 39t6.5 47.5q0 38 -21.5 60.5t-59.5 22.5q-30 0 -49.5 -13
t-33.5 -38t-24 -62t-21 -84q-21 -91 -36.5 -159t-27 -126.5t-20.5 -113.5t-17 -119q-18 2 -39 3.5t-43 1.5q-19 0 -36.5 -1.5t-37.5 -3.5q12 43 21.5 76.5t17.5 64t15.5 62.5t16.5 72.5t20.5 93t27.5 124.5q17 79 39 126.5t61 79.5q21 18 44 29t44.5 17t40 8.5t32.5 2.5
q33 0 61.5 -9.5t49.5 -25.5t32.5 -37.5t11.5 -46.5q0 -14 -3.5 -29.5t-13 -34.5t-27 -41.5t-45.5 -50.5q-14 -14 -23.5 -24t-15.5 -18.5t-8.5 -17t-2.5 -18.5q0 -23 14.5 -39t45.5 -42q13 -11 26 -23.5t23.5 -27.5t17.5 -33t7 -41q0 -37 -16.5 -74.5t-45 -67.5t-67 -49
t-82.5 -19q-30 0 -52 7.5t-48 21.5q18 36 24.5 53t11.5 33h11z" />
    <glyph glyph-name="agrave" unicode="&#xe0;" horiz-adv-x="500" 
d="M460 13q-14 -10 -31.5 -18.5t-49.5 -8.5q-27 0 -44.5 8.5t-27.5 20.5t-14.5 24.5t-6.5 20.5q-24 -41 -55.5 -59.5t-80.5 -18.5q-59 0 -95 36t-36 95q0 48 27.5 89t79.5 57q23 7 57 12t65 9q22 3 37 5.5t23.5 8.5t12 17.5t3.5 32.5q0 22 -8 37t-20.5 24t-28 12.5
t-30.5 3.5q-31 0 -56.5 -10t-49.5 -28h-5q2 20 3 30.5t2 26.5q83 46 175 46q28 0 56 -6t50 -20t35.5 -37.5t13.5 -58.5q0 -22 -4.5 -48t-8.5 -43l-27 -125q-8 -35 -10 -51.5t-2 -26.5q0 -12 5 -26t22 -14q5 0 8.5 2t7.5 4zM157 117q0 -26 11.5 -46.5t41.5 -20.5q23 0 38 12
t24.5 30t14.5 39.5t9 41.5l15 77q-45 -7 -69 -13t-41 -17q-24 -15 -34 -45t-10 -58zM362 544l-133 90q-13 8 -22.5 18.5t-9.5 27.5q0 14 10.5 28.5t36.5 14.5q13 0 26.5 -7t33.5 -33l103 -139h-45z" />
    <glyph glyph-name="aacute" unicode="&#xe1;" horiz-adv-x="500" 
d="M460 13q-14 -10 -31.5 -18.5t-49.5 -8.5q-27 0 -44.5 8.5t-27.5 20.5t-14.5 24.5t-6.5 20.5q-24 -41 -55.5 -59.5t-80.5 -18.5q-59 0 -95 36t-36 95q0 48 27.5 89t79.5 57q23 7 57 12t65 9q22 3 37 5.5t23.5 8.5t12 17.5t3.5 32.5q0 22 -8 37t-20.5 24t-28 12.5
t-30.5 3.5q-31 0 -56.5 -10t-49.5 -28h-5q2 20 3 30.5t2 26.5q83 46 175 46q28 0 56 -6t50 -20t35.5 -37.5t13.5 -58.5q0 -22 -4.5 -48t-8.5 -43l-27 -125q-8 -35 -10 -51.5t-2 -26.5q0 -12 5 -26t22 -14q5 0 8.5 2t7.5 4zM157 117q0 -26 11.5 -46.5t41.5 -20.5q23 0 38 12
t24.5 30t14.5 39.5t9 41.5l15 77q-45 -7 -69 -13t-41 -17q-24 -15 -34 -45t-10 -58zM250 543l126 136q23 25 36 34.5t29 9.5q17 0 32.5 -12t15.5 -34q0 -20 -12.5 -30t-35.5 -23l-143 -81h-48z" />
    <glyph glyph-name="acircumflex" unicode="&#xe2;" horiz-adv-x="500" 
d="M460 13q-14 -10 -31.5 -18.5t-49.5 -8.5q-27 0 -44.5 8.5t-27.5 20.5t-14.5 24.5t-6.5 20.5q-24 -41 -55.5 -59.5t-80.5 -18.5q-59 0 -95 36t-36 95q0 48 27.5 89t79.5 57q23 7 57 12t65 9q22 3 37 5.5t23.5 8.5t12 17.5t3.5 32.5q0 22 -8 37t-20.5 24t-28 12.5
t-30.5 3.5q-31 0 -56.5 -10t-49.5 -28h-5q2 20 3 30.5t2 26.5q83 46 175 46q28 0 56 -6t50 -20t35.5 -37.5t13.5 -58.5q0 -22 -4.5 -48t-8.5 -43l-27 -125q-8 -35 -10 -51.5t-2 -26.5q0 -12 5 -26t22 -14q5 0 8.5 2t7.5 4zM157 117q0 -26 11.5 -46.5t41.5 -20.5q23 0 38 12
t24.5 30t14.5 39.5t9 41.5l15 77q-45 -7 -69 -13t-41 -17q-24 -15 -34 -45t-10 -58zM392 715l85 -172h-49l-90 96l-130 -96h-57l158 172h83z" />
    <glyph glyph-name="atilde" unicode="&#xe3;" horiz-adv-x="500" 
d="M460 13q-14 -10 -31.5 -18.5t-49.5 -8.5q-27 0 -44.5 8.5t-27.5 20.5t-14.5 24.5t-6.5 20.5q-24 -41 -55.5 -59.5t-80.5 -18.5q-59 0 -95 36t-36 95q0 48 27.5 89t79.5 57q23 7 57 12t65 9q22 3 37 5.5t23.5 8.5t12 17.5t3.5 32.5q0 22 -8 37t-20.5 24t-28 12.5
t-30.5 3.5q-31 0 -56.5 -10t-49.5 -28h-5q2 20 3 30.5t2 26.5q83 46 175 46q28 0 56 -6t50 -20t35.5 -37.5t13.5 -58.5q0 -22 -4.5 -48t-8.5 -43l-27 -125q-8 -35 -10 -51.5t-2 -26.5q0 -12 5 -26t22 -14q5 0 8.5 2t7.5 4zM157 117q0 -26 11.5 -46.5t41.5 -20.5q23 0 38 12
t24.5 30t14.5 39.5t9 41.5l15 77q-45 -7 -69 -13t-41 -17q-24 -15 -34 -45t-10 -58zM154 571q8 32 20 55t28 37q15 14 32 20.5t34 6.5q19 0 38 -5t42 -14q21 -8 33 -12l19.5 -6.5t12.5 -3t11 -0.5q21 0 32.5 15.5t16.5 26.5h39q-4 -21 -12.5 -42.5t-23 -38.5t-34 -28
t-44.5 -11q-10 0 -17.5 1t-18 4t-26.5 9t-41 16q-21 8 -32 10.5t-19 2.5q-13 0 -21.5 -5t-14.5 -12t-9 -14.5t-5 -11.5h-40z" />
    <glyph glyph-name="adieresis" unicode="&#xe4;" horiz-adv-x="500" 
d="M460 13q-14 -10 -31.5 -18.5t-49.5 -8.5q-27 0 -44.5 8.5t-27.5 20.5t-14.5 24.5t-6.5 20.5q-24 -41 -55.5 -59.5t-80.5 -18.5q-59 0 -95 36t-36 95q0 48 27.5 89t79.5 57q23 7 57 12t65 9q22 3 37 5.5t23.5 8.5t12 17.5t3.5 32.5q0 22 -8 37t-20.5 24t-28 12.5
t-30.5 3.5q-31 0 -56.5 -10t-49.5 -28h-5q2 20 3 30.5t2 26.5q83 46 175 46q28 0 56 -6t50 -20t35.5 -37.5t13.5 -58.5q0 -22 -4.5 -48t-8.5 -43l-27 -125q-8 -35 -10 -51.5t-2 -26.5q0 -12 5 -26t22 -14q5 0 8.5 2t7.5 4zM157 117q0 -26 11.5 -46.5t41.5 -20.5q23 0 38 12
t24.5 30t14.5 39.5t9 41.5l15 77q-45 -7 -69 -13t-41 -17q-24 -15 -34 -45t-10 -58zM230 686q26 0 45.5 -18.5t19.5 -46.5q0 -27 -19 -46t-46 -19t-46 19t-19 46q0 28 19.5 46.5t45.5 18.5zM439 686q26 0 45.5 -19t19.5 -46t-19 -46t-46 -19t-46 19t-19 46t19 46t46 19z" />
    <glyph glyph-name="aring" unicode="&#xe5;" horiz-adv-x="500" 
d="M460 13q-14 -10 -31.5 -18.5t-49.5 -8.5q-27 0 -44.5 8.5t-27.5 20.5t-14.5 24.5t-6.5 20.5q-24 -41 -55.5 -59.5t-80.5 -18.5q-59 0 -95 36t-36 95q0 48 27.5 89t79.5 57q23 7 57 12t65 9q22 3 37 5.5t23.5 8.5t12 17.5t3.5 32.5q0 22 -8 37t-20.5 24t-28 12.5
t-30.5 3.5q-31 0 -56.5 -10t-49.5 -28h-5q2 20 3 30.5t2 26.5q83 46 175 46q28 0 56 -6t50 -20t35.5 -37.5t13.5 -58.5q0 -22 -4.5 -48t-8.5 -43l-27 -125q-8 -35 -10 -51.5t-2 -26.5q0 -12 5 -26t22 -14q5 0 8.5 2t7.5 4zM157 117q0 -26 11.5 -46.5t41.5 -20.5q23 0 38 12
t24.5 30t14.5 39.5t9 41.5l15 77q-45 -7 -69 -13t-41 -17q-24 -15 -34 -45t-10 -58zM212 649q0 23 9 43.5t24 35.5t35.5 24t43.5 9q24 0 44.5 -9t35.5 -24t24 -35.5t9 -43.5t-9 -43.5t-24 -35.5t-35.5 -24t-44.5 -9q-23 0 -43.5 9t-35.5 24t-24 35.5t-9 43.5zM260 649
q0 -27 19 -45.5t45 -18.5q27 0 46 18.5t19 45.5t-19 45.5t-45 18.5q-27 0 -46 -18.5t-19 -45.5z" />
    <glyph glyph-name="ae" unicode="&#xe6;" horiz-adv-x="778" 
d="M320 250q-51 -7 -76.5 -13.5t-41.5 -16.5q-24 -15 -34 -45t-10 -58q0 -26 12 -46.5t45 -20.5q22 0 37 11.5t25.5 29.5t17 40t10.5 42zM20 113q0 48 27.5 89t79.5 57q23 7 57 12t65 9q22 3 38 5.5t26.5 8.5t15 17.5t4.5 32.5q0 22 -8.5 37t-22 24.5t-30.5 13.5t-34 4
q-31 0 -56.5 -11t-49.5 -29h-5q2 20 3 30.5t2 26.5q83 46 175 46q35 0 67 -13.5t47 -36.5q56 50 144 50q50 0 87.5 -13t62 -36.5t36.5 -56.5t12 -73q0 -19 -2.5 -38.5t-5.5 -38.5q-63 2 -107 3t-85 1h-47t-76 -1q-2 -12 -3 -26t-1 -29q0 -62 31.5 -99t97.5 -37q28 0 63 12.5
t69 42.5l15 -7q-5 -12 -10 -26t-13 -42q-32 -23 -71 -31.5t-79 -8.5q-89 0 -137.5 33t-69.5 82q-29 -60 -72 -87.5t-109 -27.5q-59 0 -95 36t-36 95zM640 362q0 16 -3.5 30.5t-12.5 25.5t-25 17.5t-42 6.5t-44 -14t-31 -37t-21 -52.5t-14 -59.5q29 -2 48 -2h39h41.5t54.5 2
q3 13 6.5 35t3.5 48z" />
    <glyph glyph-name="ccedilla" unicode="&#xe7;" horiz-adv-x="481" 
d="M416 77q-17 -27 -23.5 -43t-9.5 -28q-14 -6 -43 -15t-77 -9q-11 0 -18 0.5t-15 1.5l-32 -47q6 1 13 1.5t15 0.5q40 0 64.5 -19.5t24.5 -51.5q0 -21 -10.5 -37t-27.5 -27.5t-40.5 -17.5t-48.5 -6q-41 0 -69.5 10.5t-39.5 15.5l20 32q19 -8 35.5 -12.5t34.5 -4.5
q32 0 43.5 14t11.5 27q0 16 -11.5 26.5t-34.5 10.5q-10 0 -17 -1.5t-14 -3.5l-14 15l58 81q-50 12 -82 37.5t-50.5 56t-25.5 63t-7 58.5q0 48 17 98t53 90.5t91.5 66.5t131.5 26q36 0 65.5 -5.5t53 -13.5t42.5 -17.5t34 -17.5q-8 -12 -13.5 -22t-11.5 -22t-12.5 -27
t-14.5 -36h-23q1 30 -7.5 52t-22.5 36.5t-32.5 21t-37.5 6.5q-32 0 -57 -14t-43.5 -36.5t-32 -50.5t-21.5 -57t-12 -55.5t-4 -45.5q0 -24 7 -49t22 -44.5t39 -32t58 -12.5q38 0 61.5 13t44.5 31z" />
    <glyph glyph-name="egrave" unicode="&#xe8;" horiz-adv-x="500" 
d="M434 96q-5 -12 -10 -26t-13 -42q-32 -23 -71 -31.5t-79 -8.5q-59 0 -101.5 19t-70 50t-41 71.5t-13.5 84.5q0 49 16.5 98t49.5 88t82 63.5t114 24.5q46 0 81.5 -13t59 -36.5t35.5 -56.5t12 -73q0 -19 -2.5 -38.5t-5.5 -38.5q-63 2 -106 3t-76 1h-46t-71 -1q-2 -12 -3 -26
t-1 -28q0 -59 28.5 -95.5t90.5 -36.5q28 0 62.5 12.5t63.5 42.5zM362 363q0 32 -13 56t-50 24q-26 0 -44 -14t-31.5 -37t-22.5 -52.5t-16 -59.5q17 -2 34 -2h37h41.5t54.5 2q3 13 6.5 35t3.5 48zM357 544l-133 90q-13 8 -22.5 18.5t-9.5 27.5q0 14 10.5 28.5t36.5 14.5
q13 0 26.5 -7t33.5 -33l103 -139h-45z" />
    <glyph glyph-name="eacute" unicode="&#xe9;" horiz-adv-x="500" 
d="M434 96q-5 -12 -10 -26t-13 -42q-32 -23 -71 -31.5t-79 -8.5q-59 0 -101.5 19t-70 50t-41 71.5t-13.5 84.5q0 49 16.5 98t49.5 88t82 63.5t114 24.5q46 0 81.5 -13t59 -36.5t35.5 -56.5t12 -73q0 -19 -2.5 -38.5t-5.5 -38.5q-63 2 -106 3t-76 1h-46t-71 -1q-2 -12 -3 -26
t-1 -28q0 -59 28.5 -95.5t90.5 -36.5q28 0 62.5 12.5t63.5 42.5zM362 363q0 32 -13 56t-50 24q-26 0 -44 -14t-31.5 -37t-22.5 -52.5t-16 -59.5q17 -2 34 -2h37h41.5t54.5 2q3 13 6.5 35t3.5 48zM250 543l126 136q23 25 36 34.5t29 9.5q17 0 32.5 -12t15.5 -34
q0 -20 -12.5 -30t-35.5 -23l-143 -81h-48z" />
    <glyph glyph-name="ecircumflex" unicode="&#xea;" horiz-adv-x="500" 
d="M434 96q-5 -12 -10 -26t-13 -42q-32 -23 -71 -31.5t-79 -8.5q-59 0 -101.5 19t-70 50t-41 71.5t-13.5 84.5q0 49 16.5 98t49.5 88t82 63.5t114 24.5q46 0 81.5 -13t59 -36.5t35.5 -56.5t12 -73q0 -19 -2.5 -38.5t-5.5 -38.5q-63 2 -106 3t-76 1h-46t-71 -1q-2 -12 -3 -26
t-1 -28q0 -59 28.5 -95.5t90.5 -36.5q28 0 62.5 12.5t63.5 42.5zM362 363q0 32 -13 56t-50 24q-26 0 -44 -14t-31.5 -37t-22.5 -52.5t-16 -59.5q17 -2 34 -2h37h41.5t54.5 2q3 13 6.5 35t3.5 48zM392 715l85 -172h-49l-90 96l-130 -96h-57l158 172h83z" />
    <glyph glyph-name="edieresis" unicode="&#xeb;" horiz-adv-x="500" 
d="M434 96q-5 -12 -10 -26t-13 -42q-32 -23 -71 -31.5t-79 -8.5q-59 0 -101.5 19t-70 50t-41 71.5t-13.5 84.5q0 49 16.5 98t49.5 88t82 63.5t114 24.5q46 0 81.5 -13t59 -36.5t35.5 -56.5t12 -73q0 -19 -2.5 -38.5t-5.5 -38.5q-63 2 -106 3t-76 1h-46t-71 -1q-2 -12 -3 -26
t-1 -28q0 -59 28.5 -95.5t90.5 -36.5q28 0 62.5 12.5t63.5 42.5zM362 363q0 32 -13 56t-50 24q-26 0 -44 -14t-31.5 -37t-22.5 -52.5t-16 -59.5q17 -2 34 -2h37h41.5t54.5 2q3 13 6.5 35t3.5 48zM230 686q26 0 45.5 -18.5t19.5 -46.5q0 -27 -19 -46t-46 -19t-46 19t-19 46
q0 28 19.5 46.5t45.5 18.5zM439 686q26 0 45.5 -19t19.5 -46t-19 -46t-46 -19t-46 19t-19 46t19 46t46 19z" />
    <glyph glyph-name="igrave" unicode="&#xec;" horiz-adv-x="278" 
d="M116 476q17 -2 35.5 -3.5t39.5 -1.5q26 0 43.5 1.5t32.5 3.5q-7 -21 -16 -56t-19.5 -77.5t-21 -89.5t-20 -93.5t-16.5 -89t-11 -75.5q-17 2 -35 3.5t-40 1.5q-23 0 -41.5 -1.5t-34.5 -3.5q10 35 21 77t21.5 87t20.5 90.5t18 87.5t14 77.5t9 61.5zM251 544l-133 90
q-13 8 -22.5 18.5t-9.5 27.5q0 14 10.5 28.5t36.5 14.5q13 0 26.5 -7t33.5 -33l103 -139h-45z" />
    <glyph glyph-name="iacute" unicode="&#xed;" horiz-adv-x="278" 
d="M116 476q17 -2 35.5 -3.5t39.5 -1.5q26 0 43.5 1.5t32.5 3.5q-7 -21 -16 -56t-19.5 -77.5t-21 -89.5t-20 -93.5t-16.5 -89t-11 -75.5q-17 2 -35 3.5t-40 1.5q-23 0 -41.5 -1.5t-34.5 -3.5q10 35 21 77t21.5 87t20.5 90.5t18 87.5t14 77.5t9 61.5zM139 543l126 136
q23 25 36 34.5t29 9.5q17 0 32.5 -12t15.5 -34q0 -20 -12.5 -30t-35.5 -23l-143 -81h-48z" />
    <glyph glyph-name="icircumflex" unicode="&#xee;" horiz-adv-x="278" 
d="M116 476q17 -2 35.5 -3.5t39.5 -1.5q26 0 43.5 1.5t32.5 3.5q-7 -21 -16 -56t-19.5 -77.5t-21 -89.5t-20 -93.5t-16.5 -89t-11 -75.5q-17 2 -35 3.5t-40 1.5q-23 0 -41.5 -1.5t-34.5 -3.5q10 35 21 77t21.5 87t20.5 90.5t18 87.5t14 77.5t9 61.5zM281 715l85 -172h-49
l-90 96l-130 -96h-57l158 172h83z" />
    <glyph glyph-name="idieresis" unicode="&#xef;" horiz-adv-x="278" 
d="M116 476q17 -2 35.5 -3.5t39.5 -1.5q26 0 43.5 1.5t32.5 3.5q-7 -21 -16 -56t-19.5 -77.5t-21 -89.5t-20 -93.5t-16.5 -89t-11 -75.5q-17 2 -35 3.5t-40 1.5q-23 0 -41.5 -1.5t-34.5 -3.5q10 35 21 77t21.5 87t20.5 90.5t18 87.5t14 77.5t9 61.5zM119 686
q26 0 45.5 -18.5t19.5 -46.5q0 -27 -19 -46t-46 -19t-46 19t-19 46q0 28 19.5 46.5t45.5 18.5zM328 686q26 0 45.5 -19t19.5 -46t-19 -46t-46 -19t-46 19t-19 46t19 46t46 19z" />
    <glyph glyph-name="eth" unicode="&#xf0;" 
d="M532 271q0 -61 -24 -113.5t-64.5 -91.5t-94 -61.5t-113.5 -22.5q-48 0 -87 15.5t-67 44t-43 67.5t-15 86q0 61 22.5 114t61.5 92t92 61.5t114 22.5q9 0 19.5 -1.5t22.5 -3.5q-20 30 -42 59.5t-50 58.5q-39 -11 -79 -24.5t-75 -27.5q-5 11 -8.5 18t-11.5 20q13 3 32 8
t39.5 11t40.5 12t36 12q-23 27 -48 52t-52 50q20 7 39.5 15.5t39.5 16.5q32 -23 60.5 -49.5t57.5 -54.5q39 13 76.5 26t72.5 27q3 -11 7 -20.5t10 -20.5q-36 -9 -70.5 -19t-68.5 -21q41 -42 72.5 -81.5t53.5 -81.5t33 -89.5t11 -105.5zM161 144q0 -21 3 -43t11.5 -39.5
t24 -28.5t40.5 -11q29 0 52 16.5t40 43.5t29 60.5t19.5 67t11 63.5t3.5 51t-3 43t-11.5 39t-24 28t-40.5 11q-29 0 -52 -16.5t-40 -43t-29 -60t-19.5 -67t-11 -64t-3.5 -50.5z" />
    <glyph glyph-name="ntilde" unicode="&#xf1;" 
d="M527 381q0 -14 -1 -26t-4.5 -30t-9.5 -44t-16 -67q-9 -37 -15.5 -65t-11.5 -52.5t-9 -48.5t-9 -53q-17 2 -34 3.5t-40 1.5q-21 0 -39.5 -1.5t-35.5 -3.5q4 12 12.5 39.5t19 63t21 75.5t19.5 76t15 64.5t6 41.5q0 28 -15.5 42t-42.5 14q-36 0 -71.5 -31t-56.5 -97
q-8 -25 -17 -59t-17.5 -72.5t-16 -79t-12.5 -77.5q-17 2 -34.5 3.5t-34.5 1.5q-18 0 -37 -1.5t-36 -3.5q13 49 25.5 100t26 108.5t27 124.5t28.5 148q15 -2 34.5 -3.5t37.5 -1.5q17 0 33 1.5t31 3.5q-4 -13 -6.5 -22.5t-5 -18.5t-5 -19t-5.5 -24q36 45 78 69.5t102 24.5
q62 0 92 -30t30 -75zM182 571q8 32 20 55t28 37q15 14 32 20.5t34 6.5q19 0 38 -5t42 -14q21 -8 33 -12l19.5 -6.5t12.5 -3t11 -0.5q21 0 32.5 15.5t16.5 26.5h39q-4 -21 -12.5 -42.5t-23 -38.5t-34 -28t-44.5 -11q-10 0 -17.5 1t-18 4t-26.5 9t-41 16q-21 8 -32 10.5
t-19 2.5q-13 0 -21.5 -5t-14.5 -12t-9 -14.5t-5 -11.5h-40z" />
    <glyph glyph-name="ograve" unicode="&#xf2;" 
d="M24 195q0 61 22.5 114t61.5 92.5t92 62t114 22.5q54 0 94.5 -15.5t68 -44t41.5 -68t14 -87.5q0 -61 -24 -113.5t-64.5 -91.5t-94 -61.5t-113.5 -22.5q-48 0 -87 15.5t-67 44t-43 67.5t-15 86zM161 144q0 -21 3 -43t11.5 -39.5t24 -28.5t40.5 -11q29 0 52 16.5t40 43.5
t29 60.5t19.5 67t11 63.5t3.5 51t-3 43t-11.5 39.5t-24 28.5t-40.5 11q-29 0 -52 -16.5t-40 -43.5t-29 -60.5t-19.5 -67t-11 -64t-3.5 -50.5zM390 544l-133 90q-13 8 -22.5 18.5t-9.5 27.5q0 14 10.5 28.5t36.5 14.5q13 0 26.5 -7t33.5 -33l103 -139h-45z" />
    <glyph glyph-name="oacute" unicode="&#xf3;" 
d="M24 195q0 61 22.5 114t61.5 92.5t92 62t114 22.5q54 0 94.5 -15.5t68 -44t41.5 -68t14 -87.5q0 -61 -24 -113.5t-64.5 -91.5t-94 -61.5t-113.5 -22.5q-48 0 -87 15.5t-67 44t-43 67.5t-15 86zM161 144q0 -21 3 -43t11.5 -39.5t24 -28.5t40.5 -11q29 0 52 16.5t40 43.5
t29 60.5t19.5 67t11 63.5t3.5 51t-3 43t-11.5 39.5t-24 28.5t-40.5 11q-29 0 -52 -16.5t-40 -43.5t-29 -60.5t-19.5 -67t-11 -64t-3.5 -50.5zM278 543l126 136q23 25 36 34.5t29 9.5q17 0 32.5 -12t15.5 -34q0 -20 -12.5 -30t-35.5 -23l-143 -81h-48z" />
    <glyph glyph-name="ocircumflex" unicode="&#xf4;" 
d="M24 195q0 61 22.5 114t61.5 92.5t92 62t114 22.5q54 0 94.5 -15.5t68 -44t41.5 -68t14 -87.5q0 -61 -24 -113.5t-64.5 -91.5t-94 -61.5t-113.5 -22.5q-48 0 -87 15.5t-67 44t-43 67.5t-15 86zM161 144q0 -21 3 -43t11.5 -39.5t24 -28.5t40.5 -11q29 0 52 16.5t40 43.5
t29 60.5t19.5 67t11 63.5t3.5 51t-3 43t-11.5 39.5t-24 28.5t-40.5 11q-29 0 -52 -16.5t-40 -43.5t-29 -60.5t-19.5 -67t-11 -64t-3.5 -50.5zM420 715l85 -172h-49l-90 96l-130 -96h-57l158 172h83z" />
    <glyph glyph-name="otilde" unicode="&#xf5;" 
d="M24 195q0 61 22.5 114t61.5 92.5t92 62t114 22.5q54 0 94.5 -15.5t68 -44t41.5 -68t14 -87.5q0 -61 -24 -113.5t-64.5 -91.5t-94 -61.5t-113.5 -22.5q-48 0 -87 15.5t-67 44t-43 67.5t-15 86zM161 144q0 -21 3 -43t11.5 -39.5t24 -28.5t40.5 -11q29 0 52 16.5t40 43.5
t29 60.5t19.5 67t11 63.5t3.5 51t-3 43t-11.5 39.5t-24 28.5t-40.5 11q-29 0 -52 -16.5t-40 -43.5t-29 -60.5t-19.5 -67t-11 -64t-3.5 -50.5zM182 571q8 32 20 55t28 37q15 14 32 20.5t34 6.5q19 0 38 -5t42 -14q21 -8 33 -12l19.5 -6.5t12.5 -3t11 -0.5q21 0 32.5 15.5
t16.5 26.5h39q-4 -21 -12.5 -42.5t-23 -38.5t-34 -28t-44.5 -11q-10 0 -17.5 1t-18 4t-26.5 9t-41 16q-21 8 -32 10.5t-19 2.5q-13 0 -21.5 -5t-14.5 -12t-9 -14.5t-5 -11.5h-40z" />
    <glyph glyph-name="odieresis" unicode="&#xf6;" 
d="M24 195q0 61 22.5 114t61.5 92.5t92 62t114 22.5q54 0 94.5 -15.5t68 -44t41.5 -68t14 -87.5q0 -61 -24 -113.5t-64.5 -91.5t-94 -61.5t-113.5 -22.5q-48 0 -87 15.5t-67 44t-43 67.5t-15 86zM161 144q0 -21 3 -43t11.5 -39.5t24 -28.5t40.5 -11q29 0 52 16.5t40 43.5
t29 60.5t19.5 67t11 63.5t3.5 51t-3 43t-11.5 39.5t-24 28.5t-40.5 11q-29 0 -52 -16.5t-40 -43.5t-29 -60.5t-19.5 -67t-11 -64t-3.5 -50.5zM248 686q26 0 45.5 -18.5t19.5 -46.5q0 -27 -19 -46t-46 -19t-46 19t-19 46q0 28 19.5 46.5t45.5 18.5zM457 686q26 0 45.5 -19
t19.5 -46t-19 -46t-46 -19t-46 19t-19 46t19 46t46 19z" />
    <glyph glyph-name="divide" unicode="&#xf7;" horiz-adv-x="593" 
d="M41 295h512v-84h-512v84zM297 134q26 0 45.5 -18.5t19.5 -46.5q0 -27 -19 -46t-46 -19t-46 19.5t-19 45.5t19 45.5t46 19.5zM297 502q26 0 45.5 -18.5t19.5 -46.5q0 -27 -19.5 -46t-45.5 -19q-27 0 -46 19.5t-19 45.5t19 45.5t46 19.5z" />
    <glyph glyph-name="oslash" unicode="&#xf8;" 
d="M532 271q0 -61 -24 -113.5t-64.5 -91.5t-94 -61.5t-113.5 -22.5q-62 0 -112 28q-16 -19 -31.5 -38.5t-29.5 -39.5q-15 17 -35 29q16 17 31.5 35.5t29.5 38.5q-65 60 -65 160q0 61 22.5 114t61.5 92.5t92 62t114 22.5q68 0 119 -27q15 18 29 36t28 38h1q15 -17 35 -29
q-29 -31 -58 -69q64 -58 64 -164zM383 399q-8 21 -24 34t-43 13q-29 0 -52 -16.5t-40 -43.5t-29 -60.5t-19.5 -67t-11 -64t-3.5 -50.5v-10t1 -14zM173 69q8 -21 24 -34t43 -13q29 0 52 16.5t40 43.5t29 60.5t19.5 67t11 63.5t3.5 51v11t-1 14z" />
    <glyph glyph-name="ugrave" unicode="&#xf9;" 
d="M33 86q0 28 6.5 55.5t12.5 54.5q15 67 24.5 112t15.5 75.5t9.5 51.5t5.5 41q16 -2 33.5 -3.5t41.5 -1.5q27 0 44.5 1.5t32.5 3.5q-14 -45 -23 -77.5t-16.5 -60t-14.5 -54.5t-16 -63q-6 -26 -10.5 -44.5t-7 -31t-3.5 -21.5t-1 -16q0 -22 15.5 -37t42.5 -15q13 0 29.5 5.5
t33 18.5t32 34.5t26.5 53.5q10 30 20.5 69.5t19.5 81.5t16.5 83t11.5 74q14 -2 28 -3.5t39 -1.5q27 0 43.5 1.5t31.5 3.5q-19 -72 -33.5 -134.5t-26.5 -120t-22 -113t-20 -113.5q-15 2 -29.5 3.5t-37.5 1.5t-40 -1.5t-31 -3.5q9 23 13.5 38.5t9.5 42.5q-9 -11 -23.5 -27
t-36 -31t-51.5 -25.5t-70 -10.5q-59 0 -92 29t-33 75zM385 544l-133 90q-13 8 -22.5 18.5t-9.5 27.5q0 14 10.5 28.5t36.5 14.5q13 0 26.5 -7t33.5 -33l103 -139h-45z" />
    <glyph glyph-name="uacute" unicode="&#xfa;" 
d="M33 86q0 28 6.5 55.5t12.5 54.5q15 67 24.5 112t15.5 75.5t9.5 51.5t5.5 41q16 -2 33.5 -3.5t41.5 -1.5q27 0 44.5 1.5t32.5 3.5q-14 -45 -23 -77.5t-16.5 -60t-14.5 -54.5t-16 -63q-6 -26 -10.5 -44.5t-7 -31t-3.5 -21.5t-1 -16q0 -22 15.5 -37t42.5 -15q13 0 29.5 5.5
t33 18.5t32 34.5t26.5 53.5q10 30 20.5 69.5t19.5 81.5t16.5 83t11.5 74q14 -2 28 -3.5t39 -1.5q27 0 43.5 1.5t31.5 3.5q-19 -72 -33.5 -134.5t-26.5 -120t-22 -113t-20 -113.5q-15 2 -29.5 3.5t-37.5 1.5t-40 -1.5t-31 -3.5q9 23 13.5 38.5t9.5 42.5q-9 -11 -23.5 -27
t-36 -31t-51.5 -25.5t-70 -10.5q-59 0 -92 29t-33 75zM278 543l126 136q23 25 36 34.5t29 9.5q17 0 32.5 -12t15.5 -34q0 -20 -12.5 -30t-35.5 -23l-143 -81h-48z" />
    <glyph glyph-name="ucircumflex" unicode="&#xfb;" 
d="M33 86q0 28 6.5 55.5t12.5 54.5q15 67 24.5 112t15.5 75.5t9.5 51.5t5.5 41q16 -2 33.5 -3.5t41.5 -1.5q27 0 44.5 1.5t32.5 3.5q-14 -45 -23 -77.5t-16.5 -60t-14.5 -54.5t-16 -63q-6 -26 -10.5 -44.5t-7 -31t-3.5 -21.5t-1 -16q0 -22 15.5 -37t42.5 -15q13 0 29.5 5.5
t33 18.5t32 34.5t26.5 53.5q10 30 20.5 69.5t19.5 81.5t16.5 83t11.5 74q14 -2 28 -3.5t39 -1.5q27 0 43.5 1.5t31.5 3.5q-19 -72 -33.5 -134.5t-26.5 -120t-22 -113t-20 -113.5q-15 2 -29.5 3.5t-37.5 1.5t-40 -1.5t-31 -3.5q9 23 13.5 38.5t9.5 42.5q-9 -11 -23.5 -27
t-36 -31t-51.5 -25.5t-70 -10.5q-59 0 -92 29t-33 75zM420 715l85 -172h-49l-90 96l-130 -96h-57l158 172h83z" />
    <glyph glyph-name="udieresis" unicode="&#xfc;" 
d="M33 86q0 28 6.5 55.5t12.5 54.5q15 67 24.5 112t15.5 75.5t9.5 51.5t5.5 41q16 -2 33.5 -3.5t41.5 -1.5q27 0 44.5 1.5t32.5 3.5q-14 -45 -23 -77.5t-16.5 -60t-14.5 -54.5t-16 -63q-6 -26 -10.5 -44.5t-7 -31t-3.5 -21.5t-1 -16q0 -22 15.5 -37t42.5 -15q13 0 29.5 5.5
t33 18.5t32 34.5t26.5 53.5q10 30 20.5 69.5t19.5 81.5t16.5 83t11.5 74q14 -2 28 -3.5t39 -1.5q27 0 43.5 1.5t31.5 3.5q-19 -72 -33.5 -134.5t-26.5 -120t-22 -113t-20 -113.5q-15 2 -29.5 3.5t-37.5 1.5t-40 -1.5t-31 -3.5q9 23 13.5 38.5t9.5 42.5q-9 -11 -23.5 -27
t-36 -31t-51.5 -25.5t-70 -10.5q-59 0 -92 29t-33 75zM248 686q26 0 45.5 -18.5t19.5 -46.5q0 -27 -19 -46t-46 -19t-46 19t-19 46q0 28 19.5 46.5t45.5 18.5zM457 686q26 0 45.5 -19t19.5 -46t-19 -46t-46 -19t-46 19t-19 46t19 46t46 19z" />
    <glyph glyph-name="yacute" unicode="&#xfd;" horiz-adv-x="500" 
d="M522 470q-9 -14 -17 -26t-16.5 -25.5t-19 -29.5t-23.5 -38q-95 -153 -189 -304t-181 -308q-11 2 -23 3.5t-26 1.5q-13 0 -25 -1.5t-22 -3.5q22 29 48 65t50.5 72t46 68.5t34.5 53.5q-5 27 -11.5 67t-14 84.5t-15 88.5t-13.5 80q-7 40 -14.5 79t-15.5 79q14 -2 30.5 -3.5
t36.5 -1.5q19 0 37.5 1.5t34.5 3.5q11 -86 21 -165.5t24 -161.5q10 16 33 55.5t50 88t54.5 98t45.5 85.5q8 -2 17.5 -3.5t21.5 -1.5q13 0 22.5 1.5t17.5 3.5zM250 543l126 136q23 25 36 34.5t29 9.5q17 0 32.5 -12t15.5 -34q0 -20 -12.5 -30t-35.5 -23l-143 -81h-48z" />
    <glyph glyph-name="thorn" unicode="&#xfe;" 
d="M156 751q15 -2 31 -3.5t42 -1.5t41.5 1.5t31.5 3.5q-23 -85 -42.5 -170t-39.5 -171q7 9 18.5 22.5t28.5 26t41 21t56 8.5q22 0 51 -8t55 -29t44.5 -59t18.5 -98q0 -54 -16.5 -109.5t-47 -100t-74.5 -72.5t-98 -28q-46 0 -83.5 19.5t-59.5 52.5q-12 -46 -21.5 -84.5
t-17 -75t-14 -74.5t-13.5 -83q-13 2 -29.5 3.5t-36.5 1.5q-19 0 -37.5 -1.5t-32.5 -3.5q18 76 39 169.5t41.5 193t40 198.5t36 186.5t29 156.5t18.5 108zM178 143q0 -42 21.5 -69.5t55.5 -27.5q25 0 44.5 16t35 41.5t26.5 56.5t18 62t10.5 58.5t3.5 44.5q0 40 -20 65.5
t-57 25.5q-25 0 -45 -15.5t-35.5 -40t-26 -55t-17.5 -60.5t-10.5 -57.5t-3.5 -44.5z" />
    <glyph glyph-name="ydieresis" unicode="&#xff;" horiz-adv-x="500" 
d="M522 470q-9 -14 -17 -26t-16.5 -25.5t-19 -29.5t-23.5 -38q-95 -153 -189 -304t-181 -308q-11 2 -23 3.5t-26 1.5q-13 0 -25 -1.5t-22 -3.5q22 29 48 65t50.5 72t46 68.5t34.5 53.5q-5 27 -11.5 67t-14 84.5t-15 88.5t-13.5 80q-7 40 -14.5 79t-15.5 79q14 -2 30.5 -3.5
t36.5 -1.5q19 0 37.5 1.5t34.5 3.5q11 -86 21 -165.5t24 -161.5q10 16 33 55.5t50 88t54.5 98t45.5 85.5q8 -2 17.5 -3.5t21.5 -1.5q13 0 22.5 1.5t17.5 3.5zM230 686q26 0 45.5 -18.5t19.5 -46.5q0 -27 -19 -46t-46 -19t-46 19t-19 46q0 28 19.5 46.5t45.5 18.5zM439 686
q26 0 45.5 -19t19.5 -46t-19 -46t-46 -19t-46 19t-19 46t19 46t46 19z" />
    <glyph glyph-name="dotlessi" unicode="&#x131;" horiz-adv-x="278" 
d="M116 476q17 -2 35.5 -3.5t39.5 -1.5q26 0 43.5 1.5t32.5 3.5q-7 -21 -16 -56t-19.5 -77.5t-21 -89.5t-20 -93.5t-16.5 -89t-11 -75.5q-17 2 -35 3.5t-40 1.5q-23 0 -41.5 -1.5t-34.5 -3.5q10 35 21 77t21.5 87t20.5 90.5t18 87.5t14 77.5t9 61.5z" />
    <glyph glyph-name="Lslash" unicode="&#x141;" horiz-adv-x="500" 
d="M287 423q26 11 57.5 25.5t65.5 30.5q3 -19 6 -30.5t6 -20.5q-17 -7 -42 -18.5t-49 -22.5t-41 -19t-18 -8q-16 -75 -31.5 -147.5t-26.5 -147.5h76t60.5 0.5t51.5 1.5t48 3q-10 -21 -13.5 -36.5t-3.5 -38.5q-51 2 -102 3.5t-102 1.5q-55 0 -104.5 -1.5t-84.5 -3.5
q9 31 15.5 54.5t13.5 53.5t17 75t27 120q-37 -17 -54 -25.5t-28 -13.5q-3 17 -5 27t-7 28l31.5 13.5t33.5 14.5t28 12.5t15 7.5q11 52 19 91t14 74t12 71t13 83q19 -2 40 -3.5t47 -1.5t44 1.5t35 3.5q-9 -33 -15.5 -56t-13 -49t-14.5 -61t-21 -92z" />
    <glyph glyph-name="lslash" unicode="&#x142;" horiz-adv-x="278" 
d="M253 444q21 9 44.5 19.5t39.5 18.5q3 -17 5 -27t7 -24q-9 -4 -18 -7.5t-21 -9t-29 -13.5t-42 -21q-14 -66 -23.5 -113t-17 -81.5t-12.5 -59t-8.5 -45.5t-7 -41t-7.5 -45q-17 2 -34 3.5t-44 1.5q-24 0 -40 -1.5t-36 -3.5q11 37 19 66t16 63t18.5 80.5t27.5 119.5
q-11 -5 -19 -8.5t-15.5 -7.5t-16.5 -8.5t-22 -10.5q-3 18 -5 28t-7 27q8 3 21.5 9t28 12.5t28 12.5t21.5 10q20 91 38.5 181t32.5 182q18 -2 37 -3.5t44 -1.5q24 0 38.5 1t34.5 4q-20 -77 -39 -153t-37 -154z" />
    <glyph glyph-name="OE" unicode="&#x152;" horiz-adv-x="944" 
d="M42 288q0 81 29.5 154t81.5 129t122.5 89t151.5 33q66 0 122.5 -25t88.5 -85q2 14 3.5 25t2.5 22t2.5 23l3.5 28q54 -2 108 -3.5t108 -1.5q41 0 81 1.5t81 3.5q-13 -26 -16 -41t-1 -36q-20 2 -38 4t-43 3t-59.5 1.5t-87.5 0.5q-17 -60 -30.5 -120t-21.5 -100h81.5t59 1
t46.5 1.5t43 2.5q-14 -30 -15.5 -46t-0.5 -32q-26 3 -54.5 5t-58.5 2.5t-59 1t-56 0.5q-14 -66 -26.5 -132.5t-20.5 -133.5h80.5t56 1t46 2t49.5 4q-13 -30 -15.5 -45t-0.5 -30q-51 2 -103 3.5t-105 1.5t-97.5 -1.5t-73.5 -3.5q12 36 20 74q-12 -13 -27.5 -28t-38 -27.5
t-53 -21t-70.5 -8.5q-69 0 -124 23t-93.5 63.5t-58.5 96t-20 121.5zM188 242q0 -41 9 -77.5t28.5 -64t51 -43.5t77.5 -16q43 0 78 20.5t62.5 53.5t47 76t32 87.5t18.5 87.5t6 77q0 41 -9.5 76t-29.5 61t-51 40.5t-75 14.5q-48 0 -85 -21.5t-64.5 -56t-45.5 -78t-29.5 -87
t-16 -83.5t-4.5 -67z" />
    <glyph glyph-name="oe" unicode="&#x153;" horiz-adv-x="889" 
d="M161 144q0 -21 3 -43t11.5 -39.5t24 -28.5t40.5 -11q33 0 60 16.5t47.5 43.5t35.5 60.5t25 67t14.5 63.5t4.5 51t-3 43t-11.5 39.5t-24 28.5t-40.5 11q-33 0 -60 -16.5t-47.5 -43.5t-35.5 -60.5t-25 -67t-14.5 -64t-4.5 -50.5zM24 195q0 61 22.5 114t61.5 92.5t92 62
t114 22.5q67 0 112.5 -21.5t72.5 -61.5q29 37 76.5 60t110.5 23q46 0 81.5 -13t59 -36.5t35.5 -56.5t12 -73q0 -19 -2.5 -38.5t-5.5 -38.5q-63 2 -106 3t-76 1h-21.5h-27.5t-37.5 -0.5t-52.5 -0.5q-2 -12 -3 -26t-1 -31q0 -57 33.5 -95.5t96.5 -38.5q36 0 72 12.5t65 42.5
l15 -7q-5 -12 -10 -26t-13 -42q-32 -23 -71 -31.5t-79 -8.5q-71 0 -118 28t-72 73q-20 -23 -42 -42t-48.5 -32t-59 -20t-74.5 -7q-48 0 -87 15.5t-67 44t-43 67.5t-15 86zM751 362q0 16 -3 30.5t-11.5 25.5t-23 17.5t-36.5 6.5q-30 0 -50.5 -14t-34.5 -37t-23.5 -52.5
t-16.5 -59.5q17 -2 37 -2h56h41.5t54.5 2q3 13 6.5 35t3.5 48z" />
    <glyph glyph-name="Scaron" unicode="&#x160;" horiz-adv-x="519" 
d="M455 521q-5 48 -34.5 79.5t-85.5 31.5q-25 0 -44.5 -8t-32.5 -20.5t-19.5 -29t-6.5 -33.5q0 -20 7.5 -37t22 -34.5t36.5 -37t51 -43.5q23 -19 44 -38.5t36.5 -42t25 -49t9.5 -59.5q0 -53 -19.5 -93t-53 -67.5t-77.5 -41.5t-92 -14q-60 0 -109.5 14.5t-99.5 46.5
q16 30 27 63t16 59h21q4 -56 41.5 -91t96.5 -35q22 0 42.5 6.5t36.5 19.5t26 31t10 42q0 20 -8.5 38t-23 35.5t-33.5 34.5t-41 35q-26 21 -48.5 41.5t-39 43.5t-26.5 51t-10 63q0 51 18 90.5t49 66t73.5 40.5t90.5 14q54 0 99 -12t90 -41q-20 -37 -28 -64.5t-15 -54.5h-22z
M250 896l93 -96l135 96h54l-159 -173h-83l-89 173h49z" />
    <glyph glyph-name="scaron" unicode="&#x161;" horiz-adv-x="389" 
d="M330 354q-2 9 -6.5 23t-15.5 28t-29.5 24t-48.5 10q-39 0 -60.5 -18.5t-21.5 -44.5q0 -13 5 -23t17.5 -19.5t33.5 -21.5t52 -28q20 -11 37.5 -23.5t30.5 -28.5t20.5 -35.5t7.5 -44.5q0 -44 -18 -76t-48 -53t-67.5 -31t-76.5 -10q-36 0 -69 8t-65 26q11 25 17.5 49.5
t10.5 50.5h19q7 -42 39 -65t70 -23q36 0 59.5 19.5t23.5 45.5q0 29 -23.5 46t-65.5 40q-19 10 -38 21.5t-34 27.5t-24 37.5t-9 52.5q0 30 12 60t36 54t60 39t84 15q45 0 78.5 -10.5t56.5 -20.5q-14 -27 -20.5 -55t-8.5 -46h-21zM180 716l93 -96l135 96h54l-159 -173h-83
l-89 173h49z" />
    <glyph glyph-name="Ydieresis" unicode="&#x178;" horiz-adv-x="611" 
d="M365 356q36 49 72 101t66.5 97.5t52 79.5t29.5 47q11 -2 22.5 -3.5t28.5 -1.5t30 1.5t27 3.5q-41 -48 -85 -104.5t-84.5 -110.5t-73.5 -100.5t-52 -75.5q-17 -74 -31 -147t-25 -148q-14 2 -33.5 3.5t-46.5 1.5q-26 0 -43 -1.5t-34 -3.5q8 29 17 66.5t17.5 76.5t16 76
t12.5 67q-8 25 -19 59t-23.5 72t-26.5 77.5t-26.5 76t-23.5 66.5t-18 49q18 -2 35.5 -3.5t43.5 -1.5q29 0 49.5 1.5t37.5 3.5q7 -31 14 -61.5t17 -67.5t23.5 -84t33.5 -112zM311 866q26 0 45.5 -18.5t19.5 -46.5q0 -27 -19 -46t-46 -19t-46 19t-19 46q0 28 19.5 46.5
t45.5 18.5zM520 866q26 0 45.5 -19t19.5 -46t-19 -46t-46 -19t-46 19t-19 46t19 46t46 19z" />
    <glyph glyph-name="Zcaron" unicode="&#x17d;" horiz-adv-x="611" 
d="M675 659q-14 -16 -47.5 -56.5t-78.5 -95.5t-96 -118.5t-99 -124.5t-89 -113.5t-65 -86.5h125.5t88 1.5t67.5 4.5t65 9q-13 -26 -16 -45.5t-3 -38.5q-63 3 -126.5 4t-126.5 1h-70t-84 -1t-83 -2t-67 -2l4 19q15 17 42 49.5t60.5 74t72.5 89.5t78 96.5t76.5 95.5t68 85.5
t53 67t31.5 40.5q-42 0 -85 -1t-84 -2.5t-78 -3.5t-66 -5q10 23 13.5 40.5t1.5 40.5q28 -2 64 -2.5t73.5 -1.5t74 -1h66.5h53.5t63.5 1t66 1.5t61 2.5zM326 896l93 -96l135 96h54l-159 -173h-83l-89 173h49z" />
    <glyph glyph-name="zcaron" unicode="&#x17e;" horiz-adv-x="500" 
d="M514 434q-20 -20 -48 -50t-60 -65t-65.5 -73t-65 -74t-58.5 -67.5t-45 -53.5h55.5t64 1t68 2.5t66.5 4.5q-7 -20 -9 -33.5t-3 -30.5q-62 3 -112.5 4t-104.5 1t-108 -1.5t-108 -3.5v32q23 25 55 60.5t67 75t70 80t65 76t52.5 62t32.5 39.5q-17 0 -44 -1t-58 -2.5t-64 -3.5
t-61 -4q4 23 5 36t1 31q55 -2 109.5 -3.5t109.5 -1.5q48 0 96.5 1.5t96.5 3.5v-42zM235 716l93 -96l135 96h54l-159 -173h-83l-89 173h49z" />
    <glyph glyph-name="florin" unicode="&#x192;" 
d="M528 556q-24 21 -42 30.5t-35 9.5q-15 0 -25 -6.5t-16 -16t-9.5 -20.5t-5.5 -21q-3 -15 -7 -33t-7.5 -37.5t-7 -37.5t-6.5 -33q54 0 110 3q-4 -11 -6.5 -22t-4.5 -32q-56 3 -110 3q-2 -10 -7.5 -33.5t-11 -49.5t-11 -49t-7.5 -32q-15 -59 -28.5 -107t-30 -88.5t-38.5 -74
t-53 -61.5q-25 -22 -49 -34.5t-45 -19t-38.5 -8t-28.5 -1.5q-12 0 -19 0.5t-15 2.5q8 24 12 46t9 56l12 4q11 -11 30.5 -24.5t42.5 -13.5q13 0 22 5.5t15 14t9.5 18.5t5.5 18q3 13 10.5 45t17 74.5t19.5 90t19.5 91t17 78.5t11.5 52q-26 0 -53 -1t-53 -3q5 12 8 27t5 28
q52 -3 105 -3q13 52 34 104t68 99q26 26 51.5 40.5t48 21t42 8t33.5 1.5q17 0 27.5 -1t18.5 -2q-3 -11 -5.5 -20t-5 -20t-5 -25.5t-6.5 -35.5z" />
    <glyph glyph-name="circumflex" unicode="&#x2c6;" horiz-adv-x="278" 
d="M281 715l85 -172h-49l-90 96l-130 -96h-57l158 172h83z" />
    <glyph glyph-name="caron" unicode="&#x2c7;" horiz-adv-x="278" 
d="M124 716l93 -96l135 96h54l-159 -173h-83l-89 173h49z" />
    <glyph glyph-name="uni02C9" unicode="&#x2c9;" horiz-adv-x="278" 
d="M393 652l-17 -69h-326l18 69h325z" />
    <glyph glyph-name="breve" unicode="&#x2d8;" horiz-adv-x="278" 
d="M124 704q1 -11 3 -24t11 -27q9 -13 21 -21t25 -12t24.5 -5t19.5 -1q28 0 49.5 7.5t37 20t26 28.5t16.5 34h40q-2 -12 -10 -39t-27 -54.5t-52.5 -48.5t-87.5 -21q-18 0 -42 4.5t-45.5 18.5t-36.5 39.5t-15 68.5q0 11 0.5 18t1.5 14h41z" />
    <glyph glyph-name="dotaccent" unicode="&#x2d9;" horiz-adv-x="278" 
d="M153 621q0 29 21 49.5t50 20.5t49.5 -20.5t20.5 -49.5t-20.5 -50t-49.5 -21q-30 0 -50.5 21t-20.5 50z" />
    <glyph glyph-name="ring" unicode="&#x2da;" horiz-adv-x="278" 
d="M101 649q0 23 9 43.5t24 35.5t35.5 24t43.5 9q24 0 44.5 -9t35.5 -24t24 -35.5t9 -43.5t-9 -43.5t-24 -35.5t-35.5 -24t-44.5 -9q-23 0 -43.5 9t-35.5 24t-24 35.5t-9 43.5zM149 649q0 -27 19 -45.5t45 -18.5q27 0 46 18.5t19 45.5t-19 45.5t-45 18.5q-27 0 -46 -18.5
t-19 -45.5z" />
    <glyph glyph-name="ogonek" unicode="&#x2db;" horiz-adv-x="333" 
d="M188 0q-51 -32 -76.5 -60t-25.5 -55q0 -14 10 -27.5t35 -13.5q20 0 34.5 7t28.5 16l15 -28q-9 -8 -23.5 -18t-32.5 -19t-39.5 -15.5t-46.5 -6.5q-39 0 -56 21t-17 44q0 26 14 48.5t35.5 42t46.5 35.5t47 29h51z" />
    <glyph glyph-name="tilde" unicode="&#x2dc;" horiz-adv-x="278" 
d="M43 571q8 32 20 55t28 37q15 14 32 20.5t34 6.5q19 0 38 -5t42 -14q21 -8 33 -12l19.5 -6.5t12.5 -3t11 -0.5q21 0 32.5 15.5t16.5 26.5h39q-4 -21 -12.5 -42.5t-23 -38.5t-34 -28t-44.5 -11q-10 0 -17.5 1t-18 4t-26.5 9t-41 16q-21 8 -32 10.5t-19 2.5q-13 0 -21.5 -5
t-14.5 -12t-9 -14.5t-5 -11.5h-40z" />
    <glyph glyph-name="hungarumlaut" unicode="&#x2dd;" horiz-adv-x="278" 
d="M42 543l125 136q23 25 36.5 34.5t28.5 9.5q17 0 33 -12t16 -34q0 -20 -12.5 -30t-35.5 -23l-143 -81h-48zM237 543l125 136q23 25 36.5 34.5t28.5 9.5q17 0 33 -12t16 -34q0 -20 -12.5 -30t-35.5 -23l-143 -81h-48z" />
    <glyph glyph-name="uni03A9" unicode="&#x3a9;" horiz-adv-x="727" 
d="M615 0h-245l-4 21q22 31 50.5 69.5t56 82t50 91.5t32.5 97q15 74 12.5 124.5t-19 82t-44 45.5t-61.5 14q-36 0 -69 -13.5t-62 -45t-52.5 -83.5t-39.5 -128q-10 -47 -8.5 -92.5t9 -88t19.5 -82t23 -73.5l-13 -21h-245l9 153l29 1q3 -22 7.5 -36t11.5 -21.5t17.5 -10
t26.5 -2.5h97q-21 19 -45 44.5t-42 60t-26 78t4 98.5q14 68 48.5 123t82.5 93.5t106.5 59.5t121.5 21q64 0 113.5 -20t80.5 -57.5t41.5 -91.5t-4.5 -121q-11 -50 -35.5 -91.5t-57.5 -76.5t-70 -65t-72 -55h106q15 0 26 2.5t21 10t19.5 21t22.5 36.5l30 -1z" />
    <glyph glyph-name="uni03BC" unicode="&#x3bc;" 
d="M555 476q-19 -72 -33.5 -134.5t-26.5 -120t-21 -113t-18 -113.5q-17 2 -32 3.5t-38 1.5q-20 0 -38 -1.5t-29 -3.5q6 23 10 38.5t9 42.5q-37 -46 -76 -68.5t-87 -25.5q-22 0 -33 4q-14 -61 -26.5 -122.5t-20.5 -124.5q-14 2 -30.5 3.5t-36.5 1.5q-19 0 -37.5 -1.5
t-32.5 -3.5q10 43 24 104.5t29 131.5t30 143t28 140.5t23.5 124.5t15.5 93q14 -2 31.5 -3.5t41.5 -1.5q23 0 41.5 1.5t32.5 3.5q-17 -63 -34 -126.5t-33 -128.5q-6 -26 -10.5 -44.5t-7 -31t-3.5 -21.5t-1 -16q0 -22 15.5 -37t42.5 -15q13 0 29.5 5.5t33 18.5t32 34.5
t26.5 53.5q10 30 20.5 69.5t19.5 81.5t16 83t11 74q15 -2 29 -3.5t39 -1.5q27 0 43.5 1.5t31.5 3.5z" />
    <glyph glyph-name="pi" unicode="&#x3c0;" horiz-adv-x="570" 
d="M588 448q-5 -15 -12.5 -30.5t-16 -30t-16.5 -26t-14 -17.5q-13 -3 -29.5 -4t-36.5 -1q-14 -45 -25 -97t-21 -102q-9 -45 -3.5 -64.5t25.5 -19.5q14 0 25.5 6t25.5 17l7 -24q-25 -31 -60 -49t-66 -18q-20 0 -36.5 6t-26.5 20t-12 38.5t6 62.5q14 66 28.5 119t28.5 107
q-41 1 -74 1.5t-61 0.5l-3 -13q-17 -82 -37.5 -140.5t-39 -97t-34 -59.5t-22.5 -28q-18 -7 -36.5 -11t-32.5 -6l-3 20q34 34 61 78t47.5 89.5t34 89.5t21.5 79q-23 0 -40.5 -2t-32.5 -7t-29.5 -12.5t-31.5 -17.5l-10 26q15 15 32.5 32t40 31.5t52 23.5t69.5 9q57 -1 127 -2
t140 -1q23 0 36.5 6t29.5 26z" />
    <glyph glyph-name="endash" unicode="&#x2013;" horiz-adv-x="500" 
d="M510 312l-20 -94h-500l20 94h500z" />
    <glyph glyph-name="emdash" unicode="&#x2014;" horiz-adv-x="1000" 
d="M891 312l-20 -94h-742l20 94h742z" />
    <glyph glyph-name="quoteleft" unicode="&#x2018;" horiz-adv-x="278" 
d="M340 674l-140 -262q-14 -28 -29.5 -44.5t-41.5 -16.5t-46 17t-20 41q0 20 14 37t29 31l218 209z" />
    <glyph glyph-name="quoteright" unicode="&#x2019;" horiz-adv-x="278" 
d="M63 363l140 262q14 27 29.5 44t41.5 17q25 0 45.5 -17t20.5 -42q0 -20 -14 -36.5t-29 -30.5l-218 -209z" />
    <glyph glyph-name="quotesinglbase" unicode="&#x201a;" horiz-adv-x="278" 
d="M-68 -173l140 262q15 27 30 44t41 17t46 -17t20 -42q0 -20 -13.5 -36.5t-29.5 -31.5l-217 -208z" />
    <glyph glyph-name="quotedblleft" unicode="&#x201c;" horiz-adv-x="500" 
d="M565 674l-139 -262q-15 -28 -30.5 -44.5t-41.5 -16.5q-25 0 -45.5 17t-20.5 41q0 20 14 37t29 31l218 209zM337 674l-140 -262q-15 -28 -30 -44.5t-41 -16.5t-46 17t-20 41q0 20 13.5 37t29.5 31l218 209z" />
    <glyph glyph-name="quotedblright" unicode="&#x201d;" horiz-adv-x="500" 
d="M60 363l139 262q15 27 30 44t41 17t46.5 -17t20.5 -42q0 -20 -14 -36.5t-29 -30.5l-218 -209zM288 363l140 262q15 27 30 44t41 17t46 -17t20 -42q0 -20 -13.5 -36.5t-29.5 -30.5l-218 -209z" />
    <glyph glyph-name="quotedblbase" unicode="&#x201e;" horiz-adv-x="500" 
d="M-75 -173l139 262q15 27 30.5 44t41.5 17q25 0 45.5 -17t20.5 -42q0 -20 -14 -36.5t-29 -31.5l-218 -208zM153 -173l140 262q15 27 30 44t41 17t46 -17t20 -42q0 -20 -13.5 -36.5t-29.5 -31.5l-218 -208z" />
    <glyph glyph-name="dagger" unicode="&#x2020;" 
d="M291 681q13 -2 28 -3.5t38 -1.5q21 0 37.5 1.5t30.5 3.5q-6 -18 -12.5 -44.5t-13.5 -56.5t-13.5 -60.5t-11.5 -55.5q31 0 78.5 2t90.5 5q-5 -15 -8.5 -27t-5.5 -23.5t-2.5 -23.5t0.5 -27q-42 3 -84.5 4t-84.5 1q-6 -33 -14.5 -83.5t-16 -105t-13.5 -106t-8 -85.5
q-14 2 -31 3t-39 2q-20 0 -35.5 -1.5t-29.5 -3.5q28 101 46 194.5t33 185.5q-29 0 -75 -1t-94 -5q4 15 7 26.5t5 22.5t3 23t2 28q13 -1 27.5 -2t34 -1.5t45.5 -1t61 -0.5q2 12 6 37.5t8 57t7.5 64.5t3.5 58z" />
    <glyph glyph-name="daggerdbl" unicode="&#x2021;" 
d="M302 681q14 -1 32 -3t38 -2t35 1.5t29 3.5q-10 -30 -16.5 -51.5t-12 -39.5t-9.5 -35t-9 -38h40t47 0.5t47 1t41 2.5q-13 -28 -19.5 -52.5t-4.5 -51.5q-43 5 -86 7.5t-87 2.5q-8 -35 -15 -70.5t-12 -71.5h40.5t47.5 1t47 1.5t39 2.5q-12 -26 -18 -50.5t-4 -53.5
q-45 5 -89 7t-80 2q-11 -51 -17.5 -99.5t-12.5 -100.5q-17 2 -34 3.5t-37 1.5q-23 0 -37.5 -1.5t-28.5 -3.5q8 25 16.5 53.5t16 56t13.5 51.5t10 39q-44 0 -87 -0.5t-87 -3.5q10 24 15 50.5t7 52.5q28 -2 49.5 -4t41 -3t39.5 -1.5t44 -0.5q5 23 13 63t14 79q-45 0 -89 -0.5
t-89 -3.5q7 14 11.5 25.5t7.5 23t5 25t2 30.5q55 -5 92.5 -7t76.5 -3q1 9 4 27t6.5 40t7 47.5t6.5 49.5z" />
    <glyph glyph-name="bullet" unicode="&#x2022;" horiz-adv-x="500" 
d="M267 511q35 0 66 -13t54.5 -36.5t37 -54.5t13.5 -67q0 -35 -13.5 -66.5t-37 -54.5t-54.5 -36.5t-66 -13.5q-36 0 -67 13.5t-54 36.5t-36.5 54.5t-13.5 66.5q0 36 13.5 67t36.5 54t54.5 36.5t66.5 13.5z" />
    <glyph glyph-name="ellipsis" unicode="&#x2026;" horiz-adv-x="1000" 
d="M141 -16q-33 0 -56.5 23.5t-23.5 56.5t23.5 56.5t56.5 23.5t56.5 -23.5t23.5 -56.5t-23.5 -56.5t-56.5 -23.5zM474 -16q-33 0 -56.5 23.5t-23.5 56.5t23.5 56.5t56.5 23.5t56.5 -23.5t23.5 -56.5t-23.5 -56.5t-56.5 -23.5zM807 -16q-33 0 -56.5 23.5t-23.5 56.5
t23.5 56.5t56.5 23.5t56.5 -23.5t23.5 -56.5t-23.5 -56.5t-56.5 -23.5z" />
    <glyph glyph-name="perthousand" unicode="&#x2030;" horiz-adv-x="1000" 
d="M67 487q0 36 12.5 68.5t35 57t53.5 39.5t67 15q56 0 89 -34t33 -90q0 -29 -10.5 -60.5t-31 -58t-52 -44t-73.5 -17.5q-57 0 -90 34t-33 90zM146 445q0 -21 9.5 -37t32.5 -16q24 0 41.5 24t28 56t15.5 65t5 50q0 26 -12 38.5t-32 12.5q-18 0 -31.5 -12t-23.5 -31t-16 -42
t-10 -44.5t-5.5 -39t-1.5 -24.5zM351 112q0 36 12.5 68.5t35 57t53.5 39.5t67 15q56 0 89 -34t33 -90q0 -29 -10.5 -60.5t-31 -58t-52 -44t-73.5 -17.5q-57 0 -90 34t-33 90zM430 70q0 -21 9.5 -37t32.5 -16q24 0 41.5 24t28 56t15.5 65t5 50q0 26 -12 38.5t-32 12.5
q-18 0 -31.5 -12t-23.5 -31t-16 -42t-10 -44.5t-5.5 -39t-1.5 -24.5zM681 112q0 36 12.5 68.5t35 57t53.5 39.5t67 15q56 0 89 -34t33 -90q0 -29 -10.5 -60.5t-31 -58t-52 -44t-73.5 -17.5q-57 0 -90 34t-33 90zM760 70q0 -21 9.5 -37t32.5 -16q24 0 41.5 24t28 56t15.5 65
t5 50q0 26 -12 38.5t-32 12.5q-18 0 -31.5 -12t-23.5 -31t-16 -42t-10 -44.5t-5.5 -39t-1.5 -24.5zM607 691l-449 -723l-55 -1l449 724h55z" />
    <glyph glyph-name="guilsinglleft" unicode="&#x2039;" horiz-adv-x="278" 
d="M215 95q-31 -11 -44 -17t-24 -13q-13 36 -21.5 59t-17 43.5t-19 44.5t-27.5 62q17 20 37 45t39.5 50t37 48.5t29.5 41.5q11 -10 25.5 -22.5t31.5 -22.5q-11 -12 -19.5 -22t-21 -24.5t-31 -38t-49.5 -62.5q6 -17 12.5 -34.5t15.5 -38t20 -44.5t26 -55z" />
    <glyph glyph-name="guilsinglright" unicode="&#x203a;" horiz-adv-x="278" 
d="M73 429q31 11 44 17.5t24 12.5q13 -36 21.5 -59t17 -43.5t19 -44.5t27.5 -62q-17 -20 -37 -45t-39 -50t-36.5 -48.5t-30.5 -41.5q-11 11 -25.5 23t-31.5 22q11 12 20 22t21 24.5t30.5 38t49.5 62.5q-6 17 -12.5 34.5t-15.5 38t-20 44.5t-26 55z" />
    <glyph glyph-name="fraction" unicode="&#x2044;" horiz-adv-x="167" 
d="M352 686l-445 -723h-55l445 723h55z" />
    <glyph glyph-name="Euro" unicode="&#x20ac;" 
d="M461 303q-10 -23 -16.5 -45t-8.5 -37q-29 5 -59.5 6.5t-62.5 1.5h-67v-16q0 -35 10 -64t27.5 -49.5t40.5 -31.5t49 -11q37 0 67 13t60 42l14 -10q-11 -23 -18.5 -42t-14.5 -42q-23 -14 -57 -22.5t-69 -8.5q-50 0 -95 17t-80 48.5t-57 76t-27 100.5h-9q-9 0 -31 -1.5
t-45 -4.5q10 23 16.5 45t8.5 37q32 -8 60 -8q3 33 9 65h-3q-9 0 -31 -1.5t-45 -4.5q10 23 16.5 45t8.5 37q17 -5 35.5 -6.5t33.5 -1.5h3q21 58 54.5 103.5t74 76t86 46.5t89.5 16q23 0 49 -4t51 -10.5t47 -16t39 -21.5q-13 -26 -23.5 -48.5t-20.5 -50.5h-18q-7 30 -37.5 56
t-83.5 26q-52 0 -94 -41.5t-66 -131.5h134q25 0 49 2t50 4q-10 -23 -16.5 -45t-8.5 -37q-29 5 -59.5 6.5t-62.5 1.5h-100q-2 -15 -3.5 -31.5t-3.5 -33.5h112q25 0 49 2t50 4z" />
    <glyph glyph-name="afii61289" unicode="&#x2113;" horiz-adv-x="426" 
d="M380 106q-44 -57 -93.5 -88t-109.5 -31q-39 0 -62.5 10t-36.5 27q-6 10 -10.5 22t-5.5 28t1 38.5t9 54.5l14 65l-66 -39l-7 28l81 51l27 127q11 54 21.5 91.5t22.5 65.5t26 48.5t34 38.5q29 29 58 42.5t56 13.5q25 0 41.5 -10.5t25 -28.5t9.5 -42t-5 -51
q-9 -41 -26.5 -77t-43.5 -69t-60 -64t-75 -63l-17 -78q-10 -46 -11.5 -77t5 -50t20.5 -27.5t36 -8.5q35 0 66.5 22t57.5 51zM216 345q45 42 80.5 98t49.5 122q9 42 5.5 71t-25.5 29q-13 0 -23.5 -10.5t-20 -35t-20 -65t-23.5 -101.5z" />
    <glyph glyph-name="trademark" unicode="&#x2122;" horiz-adv-x="1007" 
d="M255 342q6 71 6 148t-1 152q-27 0 -53.5 -2t-52.5 -5l2 10t1 13t-1 12t-2 9q28 -1 49.5 -1.5t39 -1t32 -0.5h29.5h32.5t40.5 0.5t40.5 1t33.5 1.5q-1 -5 -2 -9.5t-1 -12.5t0.5 -12.5t2.5 -9.5q-13 2 -23.5 3.5t-21.5 2t-24.5 1t-32.5 0.5q-1 -17 -1.5 -30t-1 -25.5
t-0.5 -26v-31.5v-44t0.5 -51t1 -50t2.5 -42q-12 1 -24 1.5t-24 0.5t-23.5 -0.5t-23.5 -1.5zM664 342q-3 5 -9 18t-13 27.5t-13 27.5t-8 18q-13 29 -30 65t-31 65q-5 -42 -8.5 -73.5t-5.5 -57t-3.5 -47.5t-2.5 -43q-5 0 -11 1t-11 1t-12 -1t-11 -1q6 26 12.5 70t13.5 93
t13 95.5t10 78.5q5 -2 9 -2.5t12 -0.5q7 0 10 0.5t8 2.5q18 -42 48 -105t62 -129q12 23 26 51.5t29 59.5t29.5 62.5t26.5 60.5q9 -3 20 -3q8 0 11.5 0.5t8.5 2.5l3.5 -35t6.5 -58t8 -70.5t8.5 -71.5t8 -61.5t6.5 -40.5q-9 1 -19 1t-20 1q-10 0 -19.5 -0.5t-19.5 -1.5
q0 6 -1 28.5t-3.5 54.5t-6 69.5t-8.5 74.5q-10 -20 -27 -56t-34 -72.5t-30 -65.5t-15 -33h-18z" />
    <glyph glyph-name="Omega" unicode="&#x2126;" horiz-adv-x="727" 
d="M615 0h-245l-4 21q22 31 50.5 69.5t56 82t50 91.5t32.5 97q15 74 12.5 124.5t-19 82t-44 45.5t-61.5 14q-36 0 -69 -13.5t-62 -45t-52.5 -83.5t-39.5 -128q-10 -47 -8.5 -92.5t9 -88t19.5 -82t23 -73.5l-13 -21h-245l9 153l29 1q3 -22 7.5 -36t11.5 -21.5t17.5 -10
t26.5 -2.5h97q-21 19 -45 44.5t-42 60t-26 78t4 98.5q14 68 48.5 123t82.5 93.5t106.5 59.5t121.5 21q64 0 113.5 -20t80.5 -57.5t41.5 -91.5t-4.5 -121q-11 -50 -35.5 -91.5t-57.5 -76.5t-70 -65t-72 -55h106q15 0 26 2.5t21 10t19.5 21t22.5 36.5l30 -1z" />
    <glyph glyph-name="estimated" unicode="&#x212e;" horiz-adv-x="903" 
d="M263 314q-5 0 -5 -4v-184q0 -11 8 -21q45 -46 103.5 -73t126.5 -27q73 0 135 30.5t107 81.5h54q-51 -60 -128.5 -95.5t-168.5 -35.5q-78 0 -146 26.5t-119 72t-80.5 107t-29.5 131.5t29.5 131.5t80.5 107.5t119 72.5t146 26.5t146.5 -26.5t119.5 -72.5t80.5 -107.5
t29.5 -131.5v-9h-608zM733 523q0 13 -9 22q-45 44 -103 70t-125 26t-125.5 -27t-103.5 -72q-9 -9 -9 -23v-181q0 -2 1.5 -4t3.5 -2h466q2 0 3 2t1 4v185z" />
    <glyph glyph-name="partialdiff" unicode="&#x2202;" horiz-adv-x="538" 
d="M298 409q33 0 64.5 -15t47.5 -46q8 23 16.5 50t15.5 53q9 36 12 73.5t-6 72.5q-8 30 -33 52.5t-66 22.5t-82 -20t-73 -43q-7 0 -13 8t-9.5 20t-3.5 25.5t6 23.5q29 15 66 27t85 12q75 0 119.5 -36.5t66.5 -99.5q9 -28 12.5 -58t3 -59t-4 -56.5t-7.5 -49.5
q-12 -57 -36.5 -119.5t-62.5 -115.5q-46 -64 -107 -104t-137 -40q-84 0 -124 51t-21 140q11 51 37.5 92.5t56.5 68.5q35 32 81.5 51t94.5 19h1zM314 365q-25 0 -51.5 -11t-55.5 -43q-29 -35 -50 -84.5t-32 -100.5q-11 -48 4 -77t53 -29q18 0 34.5 9t32.5 23t29.5 31.5
t25.5 35.5q14 21 25.5 42t22 43t20 46.5t20.5 53.5q-3 9 -9 19.5t-15.5 20t-22.5 15.5t-30 6h-1z" />
    <glyph glyph-name="Delta" unicode="&#x2206;" horiz-adv-x="639" 
d="M-17 0l6 31l386 618l53 13l131 -631l-7 -31h-569zM336 513l-280 -458h370z" />
    <glyph glyph-name="product" unicode="&#x220f;" horiz-adv-x="784" 
d="M758 629q-32 -3 -50 -6.5t-27 -12t-11 -23t-2 -39.5v-510q0 -27 2.5 -43.5t11.5 -25.5t26.5 -12.5t47.5 -6.5v-30h-278v30q27 2 42.5 5.5t23 12t9.5 25t2 45.5v549q0 23 -6 28.5t-29 5.5h-170q-22 0 -27.5 -5.5t-5.5 -25.5v-552q0 -27 1 -43.5t8 -25.5t21 -13t41 -6v-30
h-272v30q30 2 47.5 6t26.5 13t11.5 25.5t2.5 43.5v510q0 25 -2.5 40t-11.5 23.5t-27 12t-50 5.5v30h645v-30z" />
    <glyph glyph-name="summation" unicode="&#x2211;" horiz-adv-x="643" 
d="M575 -86h-461v29l216 310l-211 376v30h456q0 -7 1.5 -24.5t3 -40.5t3.5 -49.5t4 -51.5l-31 -7q-7 33 -16 59t-19 43q-6 10 -12.5 16.5t-17.5 10.5t-28.5 5.5t-44.5 1.5h-162l169 -295l-218 -320h241q33 0 53 2.5t34.5 14t26.5 34.5t28 65l31 -8z" />
    <glyph glyph-name="minus" unicode="&#x2212;" horiz-adv-x="593" 
d="M41 295h512v-84h-512v84z" />
    <glyph glyph-name="uni2215" unicode="&#x2215;" horiz-adv-x="167" 
d="M352 686l-445 -723h-55l445 723h55z" />
    <glyph glyph-name="uni2219" unicode="&#x2219;" horiz-adv-x="278" 
d="M152 378q33 0 56.5 -23.5t23.5 -56.5t-23.5 -56.5t-56.5 -23.5t-56.5 23.5t-23.5 56.5t23.5 56.5t56.5 23.5z" />
    <glyph glyph-name="radical" unicode="&#x221a;" horiz-adv-x="635" 
d="M455 -148l-26 -12l-210 516l-85 -40l-13 36l171 78l151 -388h2l134 797l45 -10z" />
    <glyph glyph-name="infinity" unicode="&#x221e;" horiz-adv-x="771" 
d="M726 269q0 -38 -13 -68t-34 -51t-48 -32t-56 -11q-41 0 -81.5 22.5t-87.5 84.5q-18 -22 -37 -41.5t-40 -34t-45.5 -23t-52.5 -8.5q-29 0 -56 11.5t-47.5 32.5t-32.5 50t-12 64t12 64.5t33 50.5t49.5 33t61.5 12q54 0 94 -29t77 -76q15 17 32 35.5t37 34t45 25.5t56 10
t58 -11t46.5 -31.5t30.5 -49t11 -63.5v-1zM241 171q20 0 37.5 8.5t33.5 21.5t30.5 29t27.5 32q-14 19 -28.5 37t-30 32t-34 22.5t-41.5 8.5q-40 0 -63.5 -28t-23.5 -70q0 -19 7 -36t19 -29.5t28.5 -20t35.5 -7.5h2zM573 362q-21 0 -40 -10t-35.5 -24.5t-30 -30.5t-25.5 -29
q22 -27 39 -45.5t32.5 -30t30.5 -16.5t33 -5q20 0 35.5 8.5t26 22t16 30t5.5 32.5q0 44 -24 71t-62 27h-1z" />
    <glyph glyph-name="integral" unicode="&#x222b;" horiz-adv-x="471" 
d="M226 378q-7 129 6.5 210t38.5 126.5t57 62t62 16.5q11 0 23 -3t22 -9.5t16.5 -16.5t6.5 -23q0 -26 -16 -39t-36 -13q-13 0 -20 8.5t-12 19t-9.5 19.5t-12.5 9q-7 0 -13.5 -6t-11 -22.5t-6.5 -45.5t0 -75l19 -354q6 -125 -5.5 -209t-35.5 -135t-57.5 -73t-69.5 -22
q-29 0 -48.5 15.5t-19.5 37.5q0 12 5 22t13.5 17.5t19.5 12t22 4.5q12 0 18.5 -9.5t11 -21t9 -21t12.5 -9.5q20 0 27.5 40t3.5 108z" />
    <glyph glyph-name="approxequal" unicode="&#x2248;" horiz-adv-x="563" 
d="M527 382q-23 -42 -56 -68.5t-74 -26.5q-29 0 -52.5 9t-54.5 28q-20 12 -39.5 21.5t-42.5 9.5q-16 0 -29 -5.5t-24 -15t-20.5 -22t-18.5 -25.5l-44 40q22 42 59 68.5t82 26.5q34 0 58 -11.5t43 -22.5q26 -16 43 -24.5t39 -8.5q28 0 48 18t40 50zM527 208q-23 -42 -56 -69
t-75 -27q-29 0 -52.5 10t-53.5 28q-21 13 -40 22t-42 9q-32 0 -53 -21t-39 -47l-44 40q22 41 59.5 68t81.5 27q35 0 58.5 -11.5t41.5 -22.5q22 -12 40.5 -23t42.5 -11q28 0 47.5 18t40.5 50z" />
    <glyph glyph-name="notequal" unicode="&#x2260;" horiz-adv-x="580" 
d="M404 396h131v-68h-158l-56 -127h214v-68h-241l-48 -108l-54 23l38 85h-130v68h157l56 127h-213v68h240l47 106l54 -23z" />
    <glyph glyph-name="lessequal" unicode="&#x2264;" horiz-adv-x="598" 
d="M123 306v73l428 208v-78l-358 -165v-2l358 -166v-79zM119 -8v70h435v-70h-435z" />
    <glyph glyph-name="greaterequal" unicode="&#x2265;" horiz-adv-x="599" 
d="M553 379v-74l-429 -208v79l358 166v2l-358 165v78zM120 -8v70h432v-70h-432z" />
    <glyph glyph-name="lozenge" unicode="&#x25ca;" horiz-adv-x="644" 
d="M408 -69h-83l-191 384l194 386h80l192 -386zM369 629h-3l-154 -313l154 -316h3l153 315z" />
    <glyph glyph-name="fi" unicode="&#xfb01;" horiz-adv-x="593" 
d="M401 624l-14 -4q-14 11 -38 24.5t-57 13.5q-19 0 -29.5 -5.5t-15 -13t-5.5 -15t-1 -12.5q0 -28 8.5 -65t17.5 -71q32 0 53.5 -0.5t49.5 1.5q-5 -17 -6.5 -27.5t-3.5 -27.5q-25 1 -50.5 1.5t-48.5 0.5q-21 -95 -42 -198.5t-36 -230.5q-14 2 -30.5 3.5t-41.5 1.5
q-23 0 -45.5 -1.5t-41.5 -3.5q10 33 23.5 82.5t27 107.5t26.5 119.5t24 119.5q-15 0 -39 -0.5t-41 -1.5q5 18 7 28t5 27q20 0 39.5 -0.5t39.5 -0.5q6 30 12 59.5t17 58t28.5 55.5t44.5 53q38 36 73 46t62 10q18 0 33 -2.5l27 -4.5zM434 476q17 -2 35.5 -3.5t39.5 -1.5
q26 0 43.5 1.5t32.5 3.5q-7 -21 -16 -56t-19.5 -77.5t-21 -89.5t-20 -93.5t-16.5 -89t-11 -75.5q-17 2 -35 3.5t-40 1.5q-23 0 -41.5 -1.5t-34.5 -3.5q10 35 21 77t21.5 87t20.5 90.5t18 87.5t14 77.5t9 61.5zM465 661q0 31 22 53.5t54 22.5t54 -22t22 -54t-22 -54t-54 -22
t-54 22.5t-22 53.5z" />
    <glyph glyph-name="fl" unicode="&#xfb02;" horiz-adv-x="593" 
d="M401 624l-14 -4q-14 11 -38 24.5t-57 13.5q-19 0 -29.5 -5.5t-15 -13t-5.5 -15t-1 -12.5q0 -28 8.5 -65t17.5 -71q32 0 53.5 -0.5t49.5 1.5q-5 -17 -6.5 -27.5t-3.5 -27.5q-25 1 -50.5 1.5t-48.5 0.5q-21 -95 -42 -198.5t-36 -230.5q-14 2 -30.5 3.5t-41.5 1.5
q-23 0 -45.5 -1.5t-41.5 -3.5q10 33 23.5 82.5t27 107.5t26.5 119.5t24 119.5q-15 0 -39 -0.5t-41 -1.5q5 18 7 28t5 27q20 0 39.5 -0.5t39.5 -0.5q6 30 12 59.5t17 58t28.5 55.5t44.5 53q38 36 73 46t62 10q18 0 33 -2.5l27 -4.5zM492 751q18 -2 36.5 -3.5t41.5 -1.5
q21 0 38.5 1t37.5 4q-12 -48 -23.5 -91t-22.5 -86.5t-21.5 -90t-22.5 -101.5q-20 -97 -39.5 -192t-36.5 -195q-17 2 -35.5 3.5t-42.5 1.5q-20 0 -38 -1.5t-38 -3.5q14 47 29.5 109.5t32 132.5t32.5 143.5t29.5 142t24.5 127.5t18 101z" />
    </font>
</defs>
</svg>
